<svg viewBox="0 0 1210 935" version="1.1" xmlns="http://www.w3.org/2000/svg">
<defs>
<clipPath id="c0_231"><path d="M35.7 107V29.4H267.3V107Z"/></clipPath>
<style>
.g0_231{fill:none;stroke:#005B99;stroke-width:2.673;stroke-linejoin:round;}
.g1_231{fill:#005B99;}
</style>
</defs>
<path d="M34.4 121H1172.9" class="g0_231"/>
<image clip-path="url(#c0_231)" preserveAspectRatio="none" x="36" y="30" width="231" height="77" href="img/1.jpg"/>
<path d="M58.7 172.3H427.8v-1.2H58.7v1.2Z" class="g1_231"/>
<path d="M35.4 266.4H404.6v-1.2H35.4v1.2Z" class="g1_231"/>
<path d="M35.4 378.9H404.6v-1.2H35.4v1.2Z" class="g1_231"/>
<path d="M179.7 492.6H548.8v-1.3H179.7v1.3Z" class="g1_231"/>
<path d="M35.4 625.8H404.6v-1.2H35.4v1.2Z" class="g1_231"/>
<path d="M132 719.9H492.6v-1.2H132v1.2Z" class="g1_231"/>
<path d="M35.4 814H396v-1.2H35.4V814Z" class="g1_231"/>
<path d="M618.4 172.3H979v-1.2H618.4v1.2Z" class="g1_231"/>
<path d="M641.7 266.4h369.1v-1.2H641.7v1.2Z" class="g1_231"/>
<path d="M715 360.6h369.1v-1.3H715v1.3Z" class="g1_231"/>
<path d="M641.7 454.7h369.1v-1.3H641.7v1.3Z" class="g1_231"/>
<path d="M618.4 567.1H987.6v-1.2H618.4v1.2Z" class="g1_231"/>
<path d="M715 661.2h369.1V660H715v1.2Z" class="g1_231"/>
<path d="M752.9 755.3H1122v-1.2H752.9v1.2Z" class="g1_231"/>
<path d="M618.4 869H987.6v-1.2H618.4V869Z" class="g1_231"/>
</svg>