<svg viewBox="0 0 1210 935" version="1.1" xmlns="http://www.w3.org/2000/svg">
<defs>
<clipPath id="c0_234"><path d="M35.7 107V29.4H267.3V107Z"/></clipPath>
<style>
.g0_234{fill:none;stroke:#005B99;stroke-width:2.673;stroke-linejoin:round;}
.g1_234{fill:#005B99;}
</style>
</defs>
<path d="M34.4 121H1172.9" class="g0_234"/>
<image clip-path="url(#c0_234)" preserveAspectRatio="none" x="36" y="30" width="231" height="77" href="img/1.jpg"/>
<path d="M132 229.8H501.1v-1.2H132v1.2Z" class="g1_234"/>
<path d="M35.4 343.4H404.6v-1.2H35.4v1.2Z" class="g1_234"/>
<path d="M35.4 437.6H404.6v-1.3H35.4v1.3Z" class="g1_234"/>
<path d="M35.4 551.2H404.6V550H35.4v1.2Z" class="g1_234"/>
<path d="M35.4 645.3H404.6v-1.2H35.4v1.2Z" class="g1_234"/>
<path d="M35.4 739.4H404.6v-1.2H35.4v1.2Z" class="g1_234"/>
<path d="M35.4 853.1H404.6v-1.2H35.4v1.2Z" class="g1_234"/>
<path d="M618.4 210.2H987.6V209H618.4v1.2Z" class="g1_234"/>
<path d="M618.4 304.3H987.6v-1.2H618.4v1.2Z" class="g1_234"/>
<path d="M715 398.4h360.6v-1.2H715v1.2Z" class="g1_234"/>
<path d="M618.4 492.6H979v-1.3H618.4v1.3Z" class="g1_234"/>
<path d="M618.4 606.2H979V605H618.4v1.2Z" class="g1_234"/>
<path d="M618.4 719.9H987.6v-1.2H618.4v1.2Z" class="g1_234"/>
<path d="M618.4 814H979v-1.2H618.4V814Z" class="g1_234"/>
</svg>