<svg viewBox="0 0 1210 935" version="1.1" xmlns="http://www.w3.org/2000/svg">
<defs>
<clipPath id="c0_16"><path d="M35.6 108.1V29.2H268v78.9Z"/></clipPath>
<clipPath id="c1_16"><path d="M-.2 935.3V-.2H1210.3V935.3Z"/></clipPath>
<style>
.g0_16{fill:none;stroke:#000;stroke-width:1.527;}
.g1_16{fill:#221F1F;}
.g2_16{fill:none;stroke:#FFF;stroke-width:0.88;}
.g3_16{fill:#FFF;}
.g4_16{fill:none;stroke:#0065A4;stroke-width:3.055;}
.g5_16{fill:none;stroke:#0065A4;stroke-width:1.145;stroke-miterlimit:10;}
.g6_16{fill:none;stroke:#000;stroke-width:1.527;stroke-miterlimit:10;}
.g7_16{fill:#000;}
</style>
</defs>
<g clip-path="url(#c1_16)">
<path d="M36 879.4H983.5V830.5H36v48.9Z" class="g0_16"/>
<path d="M124 31.9h1.9L133.3 43V31.9h1.8V45.6H133l-7.3-11v11H124Z" class="g1_16"/>
<path d="M144.8 40.5c-.7 .4-1.9 .5-3 .7c-1.1 .1-2 .5-2 1.7c0 1.1 .9 1.5 1.9 1.5c2.2 0 3.1-1.3 3.1-2.2Zm2.7 5.1c-.3 .1-.7 .2-1.2 .2c-.9 0-1.4-.4-1.4-1.5c-.9 1.1-2.2 1.5-3.6 1.5c-1.8 0-3.3-.8-3.3-2.7c0-2.3 1.7-2.8 3.4-3.1c1.8-.3 3.4-.2 3.4-1.5c0-1.4-1.2-1.6-2.2-1.6c-1.4 0-2.5 .4-2.6 1.9h-1.6c.1-2.5 2-3.3 4.3-3.3c1.8 0 3.7 .4 3.7 2.7v5.1c0 .8 0 1.1 .6 1.1c.1 0 .3 0 .5-.1Z" class="g1_16"/>
<path d="M152.1 35.7h2v1.4h-2v6.2c0 .7 .2 .9 1.2 .9h.8v1.4h-1.3c-1.7 0-2.4-.3-2.4-2.2V37.1h-1.7V35.7h1.7v-3h1.7Z" class="g1_16"/>
<path d="M156.8 35.7h1.6v9.9h-1.6V35.7Zm1.6-1.8h-1.6v-2h1.6v2Z" class="g1_16"/>
<path d="M166.1 44.4c1.8 0 3.2-1.3 3.2-3.7c0-2.5-1.4-3.8-3.2-3.8c-1.7 0-3.1 1.3-3.1 3.8c0 2.4 1.4 3.7 3.1 3.7m0-8.9c3.2 0 4.9 2.2 4.9 5.2c0 2.9-1.7 5.1-4.9 5.1c-3.2 0-4.9-2.2-4.9-5.1c0-3 1.7-5.2 4.9-5.2Z" class="g1_16"/>
<path d="M173.7 35.7h1.6v1.6c.7-1.3 1.9-1.8 3.3-1.8c2.7 0 3.5 1.4 3.5 3.6v6.5h-1.7V38.9c0-1.2-.7-2-2-2c-2 0-3 1.3-3 3.1v5.6h-1.7Z" class="g1_16"/>
<path d="M191.6 40.5c-.7 .4-1.9 .5-3 .7c-1.1 .1-2 .5-2 1.7c0 1.1 .9 1.5 1.9 1.5c2.2 0 3.1-1.3 3.1-2.2Zm2.7 5.1c-.3 .1-.7 .2-1.2 .2c-.9 0-1.4-.4-1.4-1.5c-.9 1.1-2.2 1.5-3.6 1.5c-1.8 0-3.3-.8-3.3-2.7c0-2.3 1.7-2.8 3.4-3.1c1.8-.3 3.4-.2 3.4-1.5c0-1.4-1.2-1.6-2.2-1.6c-1.4 0-2.5 .4-2.5 1.9h-1.7c.1-2.5 2-3.3 4.3-3.3c1.8 0 3.8 .4 3.8 2.7v5.1c0 .8 0 1.1 .5 1.1c.1 0 .3 0 .5-.1Z" class="g1_16"/>
<path d="M196.7 31.9h1.6V45.6h-1.6V31.9Z" class="g1_16"/>
<path d="M133.8 56.1c-.4-1.9-2-2.9-3.9-2.9c-3.4 0-4.8 2.7-4.8 5.5c0 3.2 1.4 5.8 4.8 5.8c2.4 0 3.8-1.7 4-4h1.9c-.4 3.4-2.6 5.5-6.1 5.5c-4.3 0-6.4-3.1-6.4-7.1c0-4 2.3-7.3 6.6-7.3c2.9 0 5.3 1.6 5.7 4.5Z" class="g1_16"/>
<path d="M142.9 64.5c1.7 0 3.1-1.4 3.1-3.8c0-2.4-1.4-3.7-3.1-3.7c-1.7 0-3.1 1.3-3.1 3.7c0 2.4 1.4 3.8 3.1 3.8m0-9c3.2 0 4.9 2.3 4.9 5.2c0 2.9-1.7 5.2-4.9 5.2c-3.2 0-4.9-2.3-4.9-5.2c0-2.9 1.7-5.2 4.9-5.2Z" class="g1_16"/>
<path d="M150.5 55.8h1.6v1.4c.7-1.1 1.9-1.7 3.3-1.7c1.2 0 2.3 .5 2.7 1.7c.7-1 1.9-1.7 3.2-1.7c2 0 3.4 .9 3.4 2.9v7.3H163V59.2c0-1.3-.3-2.2-2-2.2c-1.6 0-2.6 1-2.6 2.5v6.2h-1.7V59.2c0-1.3-.4-2.2-1.8-2.2c-2 0-2.7 1.8-2.7 2.5v6.2h-1.7Z" class="g1_16"/>
<path d="M172.6 57c-2.2 0-3 1.9-3 3.7c0 2 .9 3.8 3.1 3.8c2.3 0 3.1-1.9 3.1-3.9c0-1.8-1-3.6-3.2-3.6M168 55.8h1.6v1.3h.1c.5-1.1 1.8-1.6 3.2-1.6c3.1 0 4.6 2.4 4.6 5.3c0 2.8-1.5 5.1-4.6 5.1c-1 0-2.5-.4-3.2-1.5h-.1v5.1H168Z" class="g1_16"/>
<path d="M180.2 55.8h1.5v2.1h.1c.8-1.6 1.9-2.4 3.7-2.4v1.8c-2.7 0-3.7 1.5-3.7 4v4.4h-1.6Z" class="g1_16"/>
<path d="M194.1 59.8c0-1.6-1.2-2.8-2.9-2.8c-1.7 0-2.7 1.3-2.8 2.8Zm1.6 2.7c-.4 2.2-2 3.4-4.3 3.4c-3.2 0-4.7-2.2-4.8-5.2c0-3 2-5.2 4.7-5.2c3.6 0 4.7 3.3 4.6 5.7h-7.5c-.1 1.7 .9 3.3 3.1 3.3c1.4 0 2.3-.7 2.6-2Z" class="g1_16"/>
<path d="M198.4 52H200v5.2h.1c.5-1.2 1.9-1.7 3.2-1.7c2.6 0 3.4 1.5 3.4 3.7v6.5h-1.6V59c0-1.2-.8-2-2.1-2c-2 0-3 1.3-3 3.1v5.6h-1.6Z" class="g1_16"/>
<path d="M217 59.8c-.1-1.6-1.3-2.8-2.9-2.8c-1.7 0-2.8 1.3-2.9 2.8Zm1.6 2.7c-.5 2.2-2.1 3.4-4.3 3.4c-3.2 0-4.8-2.2-4.9-5.2c0-3 2-5.2 4.8-5.2c3.6 0 4.6 3.3 4.6 5.7h-7.6c-.1 1.7 .9 3.3 3.1 3.3c1.4 0 2.4-.7 2.7-2Z" class="g1_16"/>
<path d="M221.2 55.8h1.6v1.5c.7-1.2 1.9-1.8 3.3-1.8c2.7 0 3.5 1.5 3.5 3.7v6.5h-1.7V59c0-1.2-.8-2-2-2c-2 0-3 1.3-3 3.1v5.6h-1.7Z" class="g1_16"/>
<path d="M233.8 62.6c.1 1.4 1.4 1.9 2.8 1.9c1 0 2.4-.3 2.4-1.5c0-1.3-1.6-1.5-3.3-1.8c-1.6-.4-3.3-.9-3.3-2.8c0-2 2-2.9 3.8-2.9c2.2 0 4 .7 4.1 3.1h-1.7c-.1-1.2-1.2-1.6-2.3-1.6c-1 0-2.1 .2-2.1 1.2c0 1.2 1.7 1.4 3.3 1.8c1.6 .3 3.3 .9 3.3 2.8c0 2.3-2.3 3.1-4.3 3.1c-2.3 0-4.2-.9-4.3-3.3Z" class="g1_16"/>
<path d="M243.4 55.8h1.7v9.9h-1.7V55.8Zm1.7-1.8h-1.7V52h1.7v2Z" class="g1_16"/>
<path d="M253 65.7h-1.8l-3.7-9.9h1.8l2.8 8.2h.1l2.7-8.2h1.8Z" class="g1_16"/>
<path d="M266 59.8c-.1-1.6-1.3-2.8-2.9-2.8c-1.8 0-2.8 1.3-2.9 2.8Zm1.6 2.7c-.5 2.2-2.1 3.4-4.3 3.4c-3.3 0-4.8-2.2-4.9-5.2c0-3 2-5.2 4.8-5.2c3.5 0 4.6 3.3 4.5 5.7h-7.5c-.1 1.7 .9 3.3 3.1 3.3c1.4 0 2.3-.7 2.6-2Z" class="g1_16"/>
<path d="M133.8 76.2c-.4-2-2-2.9-3.9-2.9c-3.4 0-4.8 2.6-4.8 5.5c0 3.1 1.4 5.8 4.8 5.8c2.4 0 3.8-1.7 4-4h1.9c-.4 3.4-2.6 5.5-6.1 5.5c-4.3 0-6.4-3.2-6.4-7.2c0-3.9 2.3-7.2 6.6-7.2c2.9 0 5.3 1.6 5.7 4.5Z" class="g1_16"/>
<path d="M144.8 80.6c-.7 .5-1.9 .5-3 .7c-1.1 .2-2 .6-2 1.8c0 1.1 .9 1.5 1.9 1.5c2.2 0 3.1-1.4 3.1-2.3Zm2.7 5.1c-.3 .2-.7 .3-1.2 .3c-.9 0-1.4-.5-1.4-1.5c-.9 1-2.2 1.5-3.6 1.5c-1.8 0-3.3-.8-3.3-2.8c0-2.2 1.7-2.7 3.4-3c1.8-.4 3.4-.3 3.4-1.5c0-1.4-1.2-1.7-2.2-1.7c-1.4 0-2.5 .5-2.6 1.9h-1.6c.1-2.4 2-3.3 4.3-3.3c1.8 0 3.7 .4 3.7 2.7v5.1c0 .8 0 1.2 .6 1.2c.1 0 .3-.1 .5-.1Z" class="g1_16"/>
<path d="M149.8 75.8h1.5v1.6h.1c.7-1.2 1.8-1.8 3.3-1.8c2.6 0 3.4 1.5 3.4 3.6v6.6h-1.6V79c0-1.2-.8-2-2.1-2c-2 0-3 1.4-3 3.2v5.6h-1.6Z" class="g1_16"/>
<path d="M168.2 79c-.2-1.2-1.1-2-2.5-2c-2.4 0-3.1 1.9-3.1 3.9c0 1.8 .8 3.7 2.9 3.7c1.6 0 2.6-1 2.8-2.5H170c-.4 2.5-1.9 3.9-4.4 3.9c-3.1 0-4.8-2.1-4.8-5.1c0-3 1.6-5.3 4.8-5.3c2.3 0 4.1 1.1 4.4 3.4Z" class="g1_16"/>
<path d="M179.6 79.8c0-1.5-1.2-2.8-2.9-2.8c-1.7 0-2.7 1.3-2.9 2.8Zm1.6 2.8c-.4 2.2-2 3.4-4.3 3.4c-3.2 0-4.7-2.2-4.8-5.2c0-3 2-5.2 4.7-5.2c3.6 0 4.7 3.3 4.6 5.7h-7.6c0 1.7 1 3.3 3.2 3.3c1.3 0 2.3-.7 2.6-2Z" class="g1_16"/>
<path d="M183.8 75.8h1.6v2.1c.8-1.6 1.9-2.4 3.7-2.3v1.7c-2.7 0-3.6 1.5-3.6 4v4.5h-1.7Z" class="g1_16"/>
<path d="M124 92.1h1.9l7.4 11.1V92.1h1.8v13.7H133l-7.3-11v11H124Z" class="g1_16"/>
<path d="M145.6 99.9c-.1-1.5-1.3-2.8-3-2.8c-1.7 0-2.7 1.3-2.8 2.8Zm1.6 2.8c-.5 2.2-2.1 3.4-4.4 3.4c-3.2 0-4.7-2.2-4.8-5.3c0-2.9 2-5.1 4.7-5.1c3.6 0 4.7 3.3 4.6 5.7h-7.5c-.1 1.7 .9 3.2 3.1 3.2c1.4 0 2.3-.6 2.6-1.9Z" class="g1_16"/>
<path d="M152.1 95.9h2v1.4h-2v6.2c0 .8 .2 .9 1.2 .9h.8v1.4h-1.3c-1.7 0-2.4-.3-2.4-2.1V97.3h-1.7V95.9h1.7v-3h1.7Z" class="g1_16"/>
<path d="M166.7 105.8h-1.8l-2-7.9h-.1l-2 7.9H159l-3.2-9.9h1.8l2.3 8.1l2.1-8.1h1.8l2.1 8.1l2.3-8.1h1.7Z" class="g1_16"/>
<path d="M176.6 104.6c1.7 0 3.1-1.3 3.1-3.7c0-2.4-1.4-3.8-3.1-3.8c-1.7 0-3.2 1.4-3.2 3.8c0 2.4 1.5 3.7 3.2 3.7m0-8.9c3.2 0 4.9 2.3 4.9 5.2c0 2.9-1.7 5.2-4.9 5.2c-3.2 0-4.9-2.3-4.9-5.2c0-2.9 1.7-5.2 4.9-5.2Z" class="g1_16"/>
<path d="M184.1 95.9h1.6V98c.8-1.6 1.9-2.4 3.7-2.3v1.7c-2.6 0-3.6 1.5-3.6 4v4.4h-1.7Z" class="g1_16"/>
<path d="M191.6 92.1h1.6v8.2l4.6-4.4H200l-4 3.6l4.3 6.3h-2.1l-3.4-5.1l-1.6 1.4v3.7h-1.6Z" class="g1_16"/>
<path d="M203.9 95h.7c.5 0 1-.1 1-.7c0-.5-.5-.5-.9-.5h-.8Zm-.6-1.7h1.5c.9 0 1.4 .3 1.4 1.1c0 .7-.5 .9-1 1l1.1 1.7h-.7l-1-1.7h-.7v1.7h-.6Zm1.3 4.7c1.5 0 2.7-1.2 2.7-2.8c0-1.6-1.2-2.8-2.7-2.8c-1.5 0-2.7 1.2-2.7 2.8c0 1.6 1.2 2.8 2.7 2.8m0-6c1.8 0 3.3 1.3 3.3 3.2c0 1.8-1.5 3.2-3.3 3.2c-1.8 0-3.3-1.4-3.3-3.2c0-1.9 1.5-3.2 3.3-3.2Z" class="g1_16"/>
<image x="36" y="29" width="79" height="79" href="shade/1.png"/>
<path clip-path="url(#c0_16)" d="M103.1 107.4H47.4c-6 0-11-5-11-11V40.9c0-6 5-11 11-11h55.7c6.1 0 11 5 11 11V96.4c0 6-4.9 11-11 11Z" class="g2_16"/>
<path d="M57.8 83.8c0 1.3 0 2.5 .1 3.2c-.2 .2-.7 .5-1.2 .5c0 0-.7-1.1-1.7-2.2l-4.7-5.8c-1.2-1.4-1.8-2.2-2.2-2.5c-.1 .2-.1 .5-.1 1.2v3.9c0 1.7 .1 3.2 .3 3.7c.2 .4 .6 .6 1.2 .7H50c.2 .2 .2 .6 0 .7c-1.1 0-1.9 0-2.7 0c-.7 0-1.5 0-2.3 0c-.1-.1-.1-.5 0-.7h.4c.5-.1 .9-.3 1.1-.7c.2-.5 .3-2 .3-3.7V77c0-1.1 0-1.4-.2-1.7c-.1-.3-.4-.5-1.1-.6l-.6-.1c-.1-.2-.1-.7 .1-.7c.9 0 2 0 2.8 0c.7 0 1.3 0 1.7 0c.2 .9 1.5 2.4 3.4 4.5l1.7 2c.9 1.1 1.5 1.8 2 2.2c0-.2 0-.5 0-.9V79c0-1.7 0-3.2-.3-3.7c-.2-.4-.6-.6-1.2-.6l-.5-.1c-.2-.2-.1-.6 0-.7c1.1 0 1.9 0 2.7 0c.8 0 1.5 0 2.3 0c.1 .1 .2 .5 0 .7h-.4c-.5 .1-.9 .3-1.1 .7c-.2 .5-.3 2-.3 3.7Z" class="g3_16"/>
<path d="M73.9 74.1c0 .4 .1 2 .3 3.2c-.1 .2-.6 .3-.8 .1c-.5-1.9-1.8-2.9-3.8-2.9c-2.3 0-4.7 1.9-4.7 5.9c0 4 2.3 6.2 4.8 6.2c2.5 0 3.6-1.8 4.1-3.1c.2-.2 .7-.1 .8 .1c-.1 1.5-.5 2.7-.8 3.2c-1.1 .3-2.5 .7-4.1 .7c-2 0-4-.5-5.5-1.5c-1.4-1.1-2.6-2.8-2.6-5.3c0-2.4 1.1-4.2 2.5-5.3c1.4-1.2 3.5-1.8 5.6-1.8c2.1 0 3.6 .5 4.2 .5Z" class="g3_16"/>
<path d="M88.8 74.1c0 .4 0 2 .2 3.2c-.1 .2-.6 .3-.8 .1c-.5-1.9-1.8-2.9-3.8-2.9c-2.3 0-4.7 1.9-4.7 5.9c0 4 2.4 6.2 4.8 6.2c2.5 0 3.6-1.8 4.2-3.1c.1-.2 .6-.1 .7 .1c-.1 1.5-.4 2.7-.7 3.2c-1.1 .3-2.6 .7-4.2 .7c-2 0-4-.5-5.5-1.5c-1.4-1.1-2.5-2.8-2.5-5.3c0-2.4 1-4.2 2.4-5.3c1.5-1.2 3.6-1.8 5.7-1.8c2.1 0 3.6 .5 4.2 .5Z" class="g3_16"/>
<path d="M104 83.8c0 1.3 0 2.5 .1 3.2c-.2 .2-.8 .5-1.3 .5c0 0-.6-1.1-1.6-2.2l-4.7-5.8c-1.2-1.4-1.9-2.2-2.2-2.5c-.1 .2-.1 .5-.1 1.2v3.9c0 1.7 0 3.2 .3 3.7c.2 .4 .6 .6 1.2 .7h.5c.2 .2 .1 .6 0 .7c-1.1 0-1.9 0-2.7 0c-.8 0-1.5 0-2.3 0c-.1-.1-.2-.5 0-.7h.4c.5-.1 .9-.3 1.1-.7c.2-.5 .3-2 .3-3.7V77c0-1.1-.1-1.4-.2-1.7c-.1-.3-.4-.5-1.1-.6l-.6-.1c-.2-.2-.1-.7 .1-.7c.9 0 1.9 0 2.8 0c.7 0 1.3 0 1.7 0c.2 .9 1.5 2.4 3.4 4.5l1.7 2c.9 1.1 1.5 1.8 1.9 2.2c.1-.2 .1-.5 .1-.9V79c0-1.7-.1-3.2-.3-3.7c-.2-.4-.6-.6-1.2-.6l-.5-.1c-.2-.2-.2-.6 0-.7c1.1 0 1.9 0 2.7 0c.8 0 1.5 0 2.3 0c.1 .1 .1 .5 0 .7h-.4c-.5 .1-.9 .3-1.1 .7c-.2 .5-.3 2-.3 3.7Z" class="g3_16"/>
<path d="M36 121.7H1174" class="g4_16"/>
</g>
<path d="M995.6 56.4H1174M1043.2 76.5H1174m-81.2 20.2H1174M46.2 742.7H239.6m846.2-381.2h49.5" class="g5_16"/>
<path d="M940.4 342.8V291.1m114.4 0v51.7" class="g6_16"/>
<path d="M943.7 306.5H1023m-73.7 18.3h84.9m-90.5 18.4h29.9" class="g5_16"/>
<path d="M1054.5 316.9h9.2" class="g0_16"/>
<path d="M1072.1 316.9l-10.7-3.9v7.8Z" class="g7_16"/>
<path d="M1075.9 273.6v86.6M918.2 316.9h11.5" class="g0_16"/>
<path d="M938 316.9L927.3 313v7.8Z" class="g7_16"/>
<path d="M858.3 423h44" class="g0_16"/>
<path d="M910.6 423l-10.7-3.9v7.8Z" class="g7_16"/>
<path d="M689.4 421.6H821.1" class="g0_16"/>
<path d="M829.5 421.6l-10.7-3.9v7.8Z" class="g7_16"/>
<path d="M853.6 349h48.7" class="g0_16"/>
<path d="M910.6 349l-10.7-3.9v7.8Z" class="g7_16"/>
<path d="M148.2 468.1h16.1" class="g0_16"/>
<path d="M172.6 468.1l-10.7-3.9V472Z" class="g7_16"/>
<path d="M313 243.3v88.4" class="g6_16"/>
<path d="M176.5 243.1V724.9M916.2 175.6V542.3m-567.8-140l-33.3-96.5L342 252.2" class="g0_16"/>
<path d="M351.2 410.2l.1-11.4l-7.3 2.5Z" class="g7_16"/>
<path d="M345.7 244.7l-8.3 7.9l7 3.5Z" class="g7_16"/>
<path d="M464.9 619.8v50.7" class="g0_16"/>
<path d="M480.1 371.7V320m133.4 0v51.7" class="g6_16"/>
<path d="M465.8 645.1h9.3" class="g0_16"/>
<path d="M483.4 645.1l-10.7-3.9V649Z" class="g7_16"/>
<path d="M565.4 214.7H902.3" class="g0_16"/>
<path d="M910.6 214.7l-10.7-3.9v7.8Z" class="g7_16"/>
<path d="M620.5 348.2h10.2" class="g0_16"/>
<path d="M639 348.2l-10.7-3.9v7.8Z" class="g7_16"/>
<path d="M617.5 425.5h13.2" class="g0_16"/>
<path d="M639 425.5l-10.7-3.9v7.8Z" class="g7_16"/>
<path d="M560.3 514h70.4" class="g0_16"/>
<path d="M639 514l-10.7-3.9v7.7Z" class="g7_16"/>
<path d="M646.7 467.2V378.8m195 0v88.4M647.3 543.7V492" class="g6_16"/>
<path d="M694.9 497.3H902.3" class="g0_16"/>
<path d="M910.6 497.3l-10.7-3.9v7.8Z" class="g7_16"/>
<path d="M471.3 493.4l-27.1-68.8l26.1-47" class="g0_16"/>
<path d="M474.3 501.2l-.3-11.4l-7.2 2.9Z" class="g7_16"/>
<path d="M474.3 370.3l-8.6 7.5l6.9 3.8Z" class="g7_16"/>
<path d="M445 425.5h21" class="g0_16"/>
<path d="M474.3 425.5l-10.7-3.9v7.8Z" class="g7_16"/>
<path d="M1015.6 658.3h49.5" class="g5_16"/>
<path d="M794.1 641.2H929.7" class="g0_16"/>
<path d="M938 641.2l-10.7-3.9v7.8Z" class="g7_16"/>
<path d="M674.8 753H932.1M674.8 766.7h459m-45.2 38.2h66.5M483.8 642H749M483.8 662.1H744.3" class="g5_16"/>
<path d="M297.2 571.1H466.3" class="g0_16"/>
<path d="M474.6 571.1l-10.7-3.9V575Z" class="g7_16"/>
<path d="M1015.6 584.3h49.5" class="g5_16"/>
<path d="M791.6 571.1H929.7" class="g0_16"/>
<path d="M938 571.1l-10.7-3.9V575Z" class="g7_16"/>
<path d="M481.9 568.7H747.1M481.9 588.9H742.4" class="g5_16"/>
<path d="M315.7 305.9l17.1-8.5" class="g0_16"/>
<path d="M340.3 293.8L329 295l3.4 7Z" class="g7_16"/>
<path d="M572.4 288.3h58.3" class="g0_16"/>
<path d="M639 288.3l-10.7-3.9v7.8Z" class="g7_16"/>
<path d="M793.4 288.6H902.3" class="g0_16"/>
<path d="M910.6 288.6l-10.7-3.9v7.8Z" class="g7_16"/>
</svg>