<svg viewBox="0 0 1210 935" version="1.1" xmlns="http://www.w3.org/2000/svg">
<defs>
<clipPath id="c0_252"><path d="M35.7 107V29.4H267.3V107Z"/></clipPath>
<style>
.g0_252{fill:none;stroke:#005B99;stroke-width:2.673;stroke-linejoin:round;}
.g1_252{fill:#005B99;}
</style>
</defs>
<path d="M34.4 121H1172.9" class="g0_252"/>
<image clip-path="url(#c0_252)" preserveAspectRatio="none" x="36" y="30" width="231" height="77" href="img/1.jpg"/>
<path d="M35.4 229.8h374v-1.2H35.4v1.2Z" class="g1_252"/>
<path d="M35.4 323.9H404.6v-1.2H35.4v1.2Z" class="g1_252"/>
<path d="M35.4 418H404.6v-1.2H35.4V418Z" class="g1_252"/>
<path d="M35.4 512.1H404.6v-1.2H35.4v1.2Z" class="g1_252"/>
<path d="M132 606.2H501.1V605H132v1.2Z" class="g1_252"/>
<path d="M35.4 719.9H404.6v-1.2H35.4v1.2Z" class="g1_252"/>
<path d="M35.4 814H404.6v-1.2H35.4V814Z" class="g1_252"/>
<path d="M618.4 190.7H987.6v-1.3H618.4v1.3Z" class="g1_252"/>
<path d="M641.7 284.8h369.1v-1.2H641.7v1.2Z" class="g1_252"/>
<path d="M618.4 378.9H987.6v-1.2H618.4v1.2Z" class="g1_252"/>
<path d="M715 473h369.1v-1.2H715V473Z" class="g1_252"/>
<path d="M618.4 586.7H987.6v-1.3H618.4v1.3Z" class="g1_252"/>
<path d="M762.7 700.3h369.1v-1.2H762.7v1.2Z" class="g1_252"/>
<path d="M641.7 794.4h369.1v-1.2H641.7v1.2Z" class="g1_252"/>
</svg>