<?xml version="1.0" encoding="UTF-8" standalone="no"?>
<!DOCTYPE svg PUBLIC "-//W3C//DTD SVG 1.1//EN"
"http://www.w3.org/Graphics/SVG/1.1/DTD/svg11.dtd">
<svg viewBox="0 0 908 1286" version="1.1" xmlns="http://www.w3.org/2000/svg" xmlns:xlink="http://www.w3.org/1999/xlink">
<defs>
<clipPath id="c0_35"><path d="M-.2 1286.6V-.2H909.3V1286.6Z"/></clipPath>
<clipPath id="c1_35"><path d="M239.1 222.1V186.9H822.8v35.2Z"/></clipPath>
<clipPath id="c2_35"><path d="M132 301V223.7H237.5V301Z"/></clipPath>
<clipPath id="c3_35"><path d="M239.1 301V223.7H822.8V301Z"/></clipPath>
<clipPath id="c4_35"><path d="M239.1 330.9V302.7H822.8v28.2Z"/></clipPath>
<clipPath id="c5_35"><path d="M239.1 402.4V367.2H822.8v35.2Z"/></clipPath>
<clipPath id="c6_35"><path d="M239.1 461.9V404H822.8v57.9Z"/></clipPath>
<clipPath id="c7_35"><path d="M239.1 491.8V463.5H822.8v28.3Z"/></clipPath>
<style type="text/css"><![CDATA[
.g0_35{
fill: none;
stroke: #F29400;
stroke-width: 8.784;
stroke-linejoin: round;
}
.g1_35{
fill: none;
stroke: #F78C00;
stroke-width: 8.784;
stroke-linejoin: round;
}
.g2_35{
fill: #F7BF66;
}
.g3_35{
fill: #FFF;
}
.g4_35{
fill: #FCEACC;
}
]]></style>
</defs>
<g clip-path="url(#c0_35)">
<path d="M-21.2 110.2H913.7" class="g0_35"/>
<path d="M-21.2 1185.1H913.7" class="g1_35"/>
</g>
<path fill-rule="evenodd" d="M132.3 221.8H237.2V187.2H132.3v34.6Z" class="g2_35"/>
<path fill-rule="evenodd" d="M132.3 221.8H237.2V187.2H132.3v34.6Z" class="g2_35"/>
<path fill-rule="evenodd" d="M239.5 221.8h583V187.2h-583v34.6Z" class="g2_35"/>
<path clip-path="url(#c1_35)" fill-rule="evenodd" d="M239.5 221.8h583V187.2h-583v34.6Z" class="g2_35"/>
<path fill-rule="evenodd" d="M130 187.2h2.3v-2.3H130v2.3Z" class="g3_35"/>
<path fill-rule="evenodd" d="M130 187.2h2.3v-2.3H130v2.3Z" class="g3_35"/>
<path fill-rule="evenodd" d="M132.3 187.2H237.2v-2.3H132.3v2.3Z" class="g3_35"/>
<path fill-rule="evenodd" d="M237.2 187.2h2.3v-2.3h-2.3v2.3Z" class="g3_35"/>
<path fill-rule="evenodd" d="M239.5 187.2H822.6v-2.3H239.5v2.3Z" class="g3_35"/>
<path fill-rule="evenodd" d="M822.6 187.2h2.3v-2.3h-2.3v2.3Z" class="g3_35"/>
<path fill-rule="evenodd" d="M822.6 187.2h2.3v-2.3h-2.3v2.3Z" class="g3_35"/>
<path fill-rule="evenodd" d="M130 221.8h2.3V187.2H130v34.6Z" class="g3_35"/>
<path fill-rule="evenodd" d="M237.2 221.8h2.3V187.2h-2.3v34.6Z" class="g3_35"/>
<path fill-rule="evenodd" d="M822.6 221.8h2.3V187.2h-2.3v34.6Z" class="g3_35"/>
<path fill-rule="evenodd" d="M132.3 300.7H237.2V224.1H132.3v76.6Z" class="g4_35"/>
<path clip-path="url(#c2_35)" fill-rule="evenodd" d="M132.3 281.3H237.2V224.1H132.3v57.2Z" class="g4_35"/>
<path fill-rule="evenodd" d="M239.5 300.7h583V224.1h-583v76.6Z" class="g4_35"/>
<g clip-path="url(#c3_35)">
<path fill-rule="evenodd" d="M239.5 252.7h583V224.1h-583v28.6Z" class="g4_35"/>
<path fill-rule="evenodd" d="M239.5 272.1h583V252.7h-583v19.4Z" class="g4_35"/>
<path fill-rule="evenodd" d="M239.5 300.7h583V272.1h-583v28.6Z" class="g4_35"/>
</g>
<path fill-rule="evenodd" d="M130 224.1h2.3v-2.3H130v2.3Z" class="g3_35"/>
<path fill-rule="evenodd" d="M132.3 224.1H237.2v-2.3H132.3v2.3Z" class="g3_35"/>
<path fill-rule="evenodd" d="M237.2 224.1h2.3v-2.3h-2.3v2.3Z" class="g3_35"/>
<path fill-rule="evenodd" d="M239.5 224.1H822.6v-2.3H239.5v2.3Z" class="g3_35"/>
<path fill-rule="evenodd" d="M822.6 224.1h2.3v-2.3h-2.3v2.3Z" class="g3_35"/>
<path fill-rule="evenodd" d="M130 300.7h2.3V224.1H130v76.6Z" class="g3_35"/>
<path fill-rule="evenodd" d="M237.2 300.7h2.3V224.1h-2.3v76.6Z" class="g3_35"/>
<path fill-rule="evenodd" d="M822.6 300.7h2.3V224.1h-2.3v76.6Z" class="g3_35"/>
<path fill-rule="evenodd" d="M132.3 330.6H237.2V303H132.3v27.6Z" class="g4_35"/>
<path fill-rule="evenodd" d="M132.3 330.6H237.2V303H132.3v27.6Z" class="g4_35"/>
<path fill-rule="evenodd" d="M239.5 330.6h583V303h-583v27.6Z" class="g4_35"/>
<path clip-path="url(#c4_35)" fill-rule="evenodd" d="M239.5 330.6h583V303h-583v27.6Z" class="g4_35"/>
<path fill-rule="evenodd" d="M130 303h2.3v-2.3H130V303Z" class="g3_35"/>
<path fill-rule="evenodd" d="M132.3 303H237.2v-2.3H132.3V303Z" class="g3_35"/>
<path fill-rule="evenodd" d="M237.2 303h2.3v-2.3h-2.3V303Z" class="g3_35"/>
<path fill-rule="evenodd" d="M239.5 303H822.6v-2.3H239.5V303Z" class="g3_35"/>
<path fill-rule="evenodd" d="M822.6 303h2.3v-2.3h-2.3V303Z" class="g3_35"/>
<path fill-rule="evenodd" d="M130 330.6h2.3V303H130v27.6Z" class="g3_35"/>
<path fill-rule="evenodd" d="M130 332.9h2.3v-2.3H130v2.3Z" class="g3_35"/>
<path fill-rule="evenodd" d="M130 332.9h2.3v-2.3H130v2.3Z" class="g3_35"/>
<path fill-rule="evenodd" d="M132.3 332.9H237.2v-2.3H132.3v2.3Z" class="g3_35"/>
<path fill-rule="evenodd" d="M237.2 330.6h2.3V303h-2.3v27.6Z" class="g3_35"/>
<path fill-rule="evenodd" d="M237.2 332.9h2.3v-2.3h-2.3v2.3Z" class="g3_35"/>
<path fill-rule="evenodd" d="M239.5 332.9H822.6v-2.3H239.5v2.3Z" class="g3_35"/>
<path fill-rule="evenodd" d="M822.6 330.6h2.3V303h-2.3v27.6Z" class="g3_35"/>
<path fill-rule="evenodd" d="M822.6 332.9h2.3v-2.3h-2.3v2.3Z" class="g3_35"/>
<path fill-rule="evenodd" d="M822.6 332.9h2.3v-2.3h-2.3v2.3Z" class="g3_35"/>
<path fill-rule="evenodd" d="M132.3 402.1H237.2V367.5H132.3v34.6Z" class="g2_35"/>
<path fill-rule="evenodd" d="M132.3 402.1H237.2V367.5H132.3v34.6Z" class="g2_35"/>
<path fill-rule="evenodd" d="M239.5 402.1h583V367.5h-583v34.6Z" class="g2_35"/>
<path clip-path="url(#c5_35)" fill-rule="evenodd" d="M239.5 402.1h583V367.5h-583v34.6Z" class="g2_35"/>
<path fill-rule="evenodd" d="M130 367.5h2.3v-2.3H130v2.3Z" class="g3_35"/>
<path fill-rule="evenodd" d="M130 367.5h2.3v-2.3H130v2.3Z" class="g3_35"/>
<path fill-rule="evenodd" d="M132.3 367.5H237.2v-2.3H132.3v2.3Z" class="g3_35"/>
<path fill-rule="evenodd" d="M237.2 367.5h2.3v-2.3h-2.3v2.3Z" class="g3_35"/>
<path fill-rule="evenodd" d="M239.5 367.5H822.6v-2.3H239.5v2.3Z" class="g3_35"/>
<path fill-rule="evenodd" d="M822.6 367.5h2.3v-2.3h-2.3v2.3Z" class="g3_35"/>
<path fill-rule="evenodd" d="M822.6 367.5h2.3v-2.3h-2.3v2.3Z" class="g3_35"/>
<path fill-rule="evenodd" d="M130 402.1h2.3V367.5H130v34.6Z" class="g3_35"/>
<path fill-rule="evenodd" d="M237.2 402.1h2.3V367.5h-2.3v34.6Z" class="g3_35"/>
<path fill-rule="evenodd" d="M822.6 402.1h2.3V367.5h-2.3v34.6Z" class="g3_35"/>
<path fill-rule="evenodd" d="M132.3 461.6H237.2V404.4H132.3v57.2Z" class="g4_35"/>
<path fill-rule="evenodd" d="M132.3 461.6H237.2V404.4H132.3v57.2Z" class="g4_35"/>
<path fill-rule="evenodd" d="M239.5 461.6h583V404.4h-583v57.2Z" class="g4_35"/>
<g clip-path="url(#c6_35)">
<path fill-rule="evenodd" d="M239.5 433h583V404.4h-583V433Z" class="g4_35"/>
<path fill-rule="evenodd" d="M239.5 461.6h583V433h-583v28.6Z" class="g4_35"/>
</g>
<path fill-rule="evenodd" d="M130 404.4h2.3v-2.3H130v2.3Z" class="g3_35"/>
<path fill-rule="evenodd" d="M132.3 404.4H237.2v-2.3H132.3v2.3Z" class="g3_35"/>
<path fill-rule="evenodd" d="M237.2 404.4h2.3v-2.3h-2.3v2.3Z" class="g3_35"/>
<path fill-rule="evenodd" d="M239.5 404.4H822.6v-2.3H239.5v2.3Z" class="g3_35"/>
<path fill-rule="evenodd" d="M822.6 404.4h2.3v-2.3h-2.3v2.3Z" class="g3_35"/>
<path fill-rule="evenodd" d="M130 461.6h2.3V404.4H130v57.2Z" class="g3_35"/>
<path fill-rule="evenodd" d="M237.2 461.6h2.3V404.4h-2.3v57.2Z" class="g3_35"/>
<path fill-rule="evenodd" d="M822.6 461.6h2.3V404.4h-2.3v57.2Z" class="g3_35"/>
<path fill-rule="evenodd" d="M132.3 491.5H237.2V463.9H132.3v27.6Z" class="g4_35"/>
<path fill-rule="evenodd" d="M132.3 491.5H237.2V463.9H132.3v27.6Z" class="g4_35"/>
<path fill-rule="evenodd" d="M239.5 491.5h583V463.9h-583v27.6Z" class="g4_35"/>
<path clip-path="url(#c7_35)" fill-rule="evenodd" d="M239.5 491.5h583V463.9h-583v27.6Z" class="g4_35"/>
<path fill-rule="evenodd" d="M130 463.9h2.3v-2.3H130v2.3Z" class="g3_35"/>
<path fill-rule="evenodd" d="M132.3 463.9H237.2v-2.3H132.3v2.3Z" class="g3_35"/>
<path fill-rule="evenodd" d="M237.2 463.9h2.3v-2.3h-2.3v2.3Z" class="g3_35"/>
<path fill-rule="evenodd" d="M239.5 463.9H822.6v-2.3H239.5v2.3Z" class="g3_35"/>
<path fill-rule="evenodd" d="M822.6 463.9h2.3v-2.3h-2.3v2.3Z" class="g3_35"/>
<path fill-rule="evenodd" d="M130 491.5h2.3V463.9H130v27.6Z" class="g3_35"/>
<path fill-rule="evenodd" d="M130 493.7h2.3v-2.2H130v2.2Z" class="g3_35"/>
<path fill-rule="evenodd" d="M130 493.7h2.3v-2.2H130v2.2Z" class="g3_35"/>
<path fill-rule="evenodd" d="M132.3 493.7H237.2v-2.2H132.3v2.2Z" class="g3_35"/>
<path fill-rule="evenodd" d="M237.2 491.5h2.3V463.9h-2.3v27.6Z" class="g3_35"/>
<path fill-rule="evenodd" d="M237.2 493.7h2.3v-2.2h-2.3v2.2Z" class="g3_35"/>
<path fill-rule="evenodd" d="M239.5 493.7H822.6v-2.2H239.5v2.2Z" class="g3_35"/>
<path fill-rule="evenodd" d="M822.6 491.5h2.3V463.9h-2.3v27.6Z" class="g3_35"/>
<path fill-rule="evenodd" d="M822.6 493.7h2.3v-2.2h-2.3v2.2Z" class="g3_35"/>
<path fill-rule="evenodd" d="M822.6 493.7h2.3v-2.2h-2.3v2.2Z" class="g3_35"/>
</svg>