<?xml version="1.0" encoding="UTF-8" standalone="no"?>
<!DOCTYPE svg PUBLIC "-//W3C//DTD SVG 1.1//EN"
"http://www.w3.org/Graphics/SVG/1.1/DTD/svg11.dtd">
<svg viewBox="0 0 908 1286" version="1.1" xmlns="http://www.w3.org/2000/svg" xmlns:xlink="http://www.w3.org/1999/xlink">
<defs>
<clipPath id="c0_144"><path d="M-.2 1286.6V-.2H909.3V1286.6Z"/></clipPath>
<style type="text/css"><![CDATA[
.g0_144{
fill: none;
stroke: #F78C00;
stroke-width: 8.784;
stroke-linejoin: round;
}
.g1_144{
fill: none;
stroke: #F29400;
stroke-width: 8.784;
stroke-linejoin: round;
}
.g2_144{
fill: none;
stroke: #F78C00;
stroke-width: 1.527;
stroke-miterlimit: 10;
}
]]></style>
</defs>
<g clip-path="url(#c0_144)">
<path d="M-21.2 1185.1H913.7" class="g0_144"/>
<path d="M-21.2 110.2H913.7" class="g1_144"/>
</g>
<path d="M313.1 524h3.4m0 0H355m0 0h97.7m0 0h53.6m0 0h86.6M185 540.2H605.8M386.3 605h38.5m0 0H661.4m0 0h56.9m0 0h69.6M185 621.2h56.2m403 259.5h3.3m0 0h38.6M185 897H341.6m0 0h84.1m0 0h57m0 0h63" class="g2_144"/>
</svg>