<?xml version="1.0" encoding="UTF-8" standalone="no"?>
<!DOCTYPE svg PUBLIC "-//W3C//DTD SVG 1.1//EN"
"http://www.w3.org/Graphics/SVG/1.1/DTD/svg11.dtd">
<svg viewBox="0 0 908 1286" version="1.1" xmlns="http://www.w3.org/2000/svg" xmlns:xlink="http://www.w3.org/1999/xlink">
<defs>
<clipPath id="c0_117"><path d="M-.2 1286.6V-.2H909.3V1286.6Z"/></clipPath>
<clipPath id="c1_117"><path d="M239.1 192V153.6H822.8V192Z"/></clipPath>
<clipPath id="c2_117"><path d="M239.1 251.5V193.6H822.8v57.9Z"/></clipPath>
<clipPath id="c3_117"><path d="M239.1 281.4V253.2H822.8v28.2Z"/></clipPath>
<style type="text/css"><![CDATA[
.g0_117{
fill: none;
stroke: #F78C00;
stroke-width: 8.784;
stroke-linejoin: round;
}
.g1_117{
fill: none;
stroke: #F29400;
stroke-width: 8.784;
stroke-linejoin: round;
}
.g2_117{
fill: #F7BF66;
}
.g3_117{
fill: #FFF;
}
.g4_117{
fill: #FCEACC;
}
]]></style>
</defs>
<g clip-path="url(#c0_117)">
<path d="M-21.2 1185.1H913.7" class="g0_117"/>
<path d="M-21.2 110.2H913.7" class="g1_117"/>
</g>
<path fill-rule="evenodd" d="M132.3 191.7H237.2V153.9H132.3v37.8Z" class="g2_117"/>
<path fill-rule="evenodd" d="M132.3 188.5H237.2V153.9H132.3v34.6Z" class="g2_117"/>
<path fill-rule="evenodd" d="M239.5 191.7h583V153.9h-583v37.8Z" class="g2_117"/>
<path clip-path="url(#c1_117)" fill-rule="evenodd" d="M239.5 191.7h583V153.9h-583v37.8Z" class="g2_117"/>
<path fill-rule="evenodd" d="M130 153.9h2.3v-2.3H130v2.3Z" class="g3_117"/>
<path fill-rule="evenodd" d="M130 153.9h2.3v-2.3H130v2.3Z" class="g3_117"/>
<path fill-rule="evenodd" d="M132.3 153.9H237.2v-2.3H132.3v2.3Z" class="g3_117"/>
<path fill-rule="evenodd" d="M237.2 153.9h2.3v-2.3h-2.3v2.3Z" class="g3_117"/>
<path fill-rule="evenodd" d="M239.5 153.9H822.6v-2.3H239.5v2.3Z" class="g3_117"/>
<path fill-rule="evenodd" d="M822.6 153.9h2.3v-2.3h-2.3v2.3Z" class="g3_117"/>
<path fill-rule="evenodd" d="M822.6 153.9h2.3v-2.3h-2.3v2.3Z" class="g3_117"/>
<path fill-rule="evenodd" d="M130 191.7h2.3V153.9H130v37.8Z" class="g3_117"/>
<path fill-rule="evenodd" d="M237.2 191.7h2.3V153.9h-2.3v37.8Z" class="g3_117"/>
<path fill-rule="evenodd" d="M822.6 191.7h2.3V153.9h-2.3v37.8Z" class="g3_117"/>
<path fill-rule="evenodd" d="M132.3 251.2H237.2V194H132.3v57.2Z" class="g4_117"/>
<path fill-rule="evenodd" d="M132.3 251.2H237.2V194H132.3v57.2Z" class="g4_117"/>
<path fill-rule="evenodd" d="M239.5 251.2h583V194h-583v57.2Z" class="g4_117"/>
<g clip-path="url(#c2_117)">
<path fill-rule="evenodd" d="M239.5 222.6h583V194h-583v28.6Z" class="g4_117"/>
<path fill-rule="evenodd" d="M239.5 251.2h583V222.6h-583v28.6Z" class="g4_117"/>
</g>
<path fill-rule="evenodd" d="M130 194h2.3v-2.3H130V194Z" class="g3_117"/>
<path fill-rule="evenodd" d="M132.3 194H237.2v-2.3H132.3V194Z" class="g3_117"/>
<path fill-rule="evenodd" d="M237.2 194h2.3v-2.3h-2.3V194Z" class="g3_117"/>
<path fill-rule="evenodd" d="M239.5 194H822.6v-2.3H239.5V194Z" class="g3_117"/>
<path fill-rule="evenodd" d="M822.6 194h2.3v-2.3h-2.3V194Z" class="g3_117"/>
<path fill-rule="evenodd" d="M130 251.2h2.3V194H130v57.2Z" class="g3_117"/>
<path fill-rule="evenodd" d="M237.2 251.2h2.3V194h-2.3v57.2Z" class="g3_117"/>
<path fill-rule="evenodd" d="M822.6 251.2h2.3V194h-2.3v57.2Z" class="g3_117"/>
<path fill-rule="evenodd" d="M132.3 281.1H237.2V253.5H132.3v27.6Z" class="g4_117"/>
<path fill-rule="evenodd" d="M132.3 281.1H237.2V253.5H132.3v27.6Z" class="g4_117"/>
<path fill-rule="evenodd" d="M239.5 281.1h583V253.5h-583v27.6Z" class="g4_117"/>
<path clip-path="url(#c3_117)" fill-rule="evenodd" d="M239.5 281.1h583V253.5h-583v27.6Z" class="g4_117"/>
<path fill-rule="evenodd" d="M130 253.5h2.3v-2.3H130v2.3Z" class="g3_117"/>
<path fill-rule="evenodd" d="M132.3 253.5H237.2v-2.3H132.3v2.3Z" class="g3_117"/>
<path fill-rule="evenodd" d="M237.2 253.5h2.3v-2.3h-2.3v2.3Z" class="g3_117"/>
<path fill-rule="evenodd" d="M239.5 253.5H822.6v-2.3H239.5v2.3Z" class="g3_117"/>
<path fill-rule="evenodd" d="M822.6 253.5h2.3v-2.3h-2.3v2.3Z" class="g3_117"/>
<path fill-rule="evenodd" d="M130 281.1h2.3V253.5H130v27.6Z" class="g3_117"/>
<path fill-rule="evenodd" d="M130 283.4h2.3v-2.3H130v2.3Z" class="g3_117"/>
<path fill-rule="evenodd" d="M130 283.4h2.3v-2.3H130v2.3Z" class="g3_117"/>
<path fill-rule="evenodd" d="M132.3 283.4H237.2v-2.3H132.3v2.3Z" class="g3_117"/>
<path fill-rule="evenodd" d="M237.2 281.1h2.3V253.5h-2.3v27.6Z" class="g3_117"/>
<path fill-rule="evenodd" d="M237.2 283.4h2.3v-2.3h-2.3v2.3Z" class="g3_117"/>
<path fill-rule="evenodd" d="M239.5 283.4H822.6v-2.3H239.5v2.3Z" class="g3_117"/>
<path fill-rule="evenodd" d="M822.6 281.1h2.3V253.5h-2.3v27.6Z" class="g3_117"/>
<path fill-rule="evenodd" d="M822.6 283.4h2.3v-2.3h-2.3v2.3Z" class="g3_117"/>
<path fill-rule="evenodd" d="M822.6 283.4h2.3v-2.3h-2.3v2.3Z" class="g3_117"/>
</svg>