<svg viewBox="0 0 1210 935" version="1.1" xmlns="http://www.w3.org/2000/svg">
<defs>
<clipPath id="c0_202"><path d="M35.7 107V29.4H267.3V107Z"/></clipPath>
<clipPath id="c1_202"><path d="M63.5 779.6V208.7H566V779.6Z"/></clipPath>
<clipPath id="c2_202"><path d="M623 764.1V239.8h500.9V764.1Z"/></clipPath>
<style>
.g0_202{fill:none;stroke:#005B99;stroke-width:2.673;stroke-linejoin:round;}
.g1_202{fill:#BCBEC0;}
.g2_202{fill:none;stroke:#000;stroke-width:0.83;stroke-miterlimit:1;}
.g3_202{fill:none;stroke:#000;stroke-width:1.66;stroke-miterlimit:1;}
.g4_202{fill:none;stroke:#000;stroke-width:1.245;stroke-miterlimit:1;}
.g5_202{fill:#000;}
.g6_202{fill:none;stroke:#FFF;stroke-width:0.415;stroke-linecap:round;stroke-linejoin:round;stroke-opacity:0;}
</style>
</defs>
<path d="M34.4 121H1172.9" class="g0_202"/>
<image clip-path="url(#c0_202)" preserveAspectRatio="none" x="36" y="30" width="231" height="77" href="img/1.jpg"/>
<path fill-rule="evenodd" d="M318.2 631.8c0-3.3-14.5-19.1-15.3-34.9c-1.3-4.5 2.1-5.8 2.5-8.3c-.4-4.1-8.3-14.5-7.1-25.3c-.4-6.2 15.8-18.3 25.8-31.2c10.3-14.5 22.8-27 31.5-44.4c3.7-8.7-1.2-12.5-6.2-8.7c-7.5 5.4-21.2 19.5-22.4 18.2c5.4-6.2 9.9-12 15.3-17c3.8-4.1 7.1-7.5 10.8-9.9c5.8-4.6 12.9-1.7 11.2 12.4c-1.2 16.6-2.9 32-2.5 48.6c-.8 10.4 .4 19.9 .4 29.9c-1.6-.8-2.9-2.5-4.9-2.5c0 14.1 1.2 27.8 4.5 39.1c1.7 9.9 4.2 18.6 6.7 27.4c-16.6 2-33.2 4.5-50.3 6.6Z" class="g1_202"/>
<path d="M318.2 631.8c0-3.3-14.5-19.1-15.3-34.9c-1.3-4.5 2.1-5.8 2.5-8.3c-.4-4.1-8.3-14.5-7.1-25.3c-.4-6.2 15.8-18.3 25.8-31.2c10.3-14.5 22.8-27 31.5-44.4c3.7-8.7-1.2-12.5-6.2-8.7c-7.5 5.4-21.2 19.5-22.4 18.2c5.4-6.2 9.9-12 15.3-17c3.8-4.1 7.1-7.5 10.8-9.9c5.8-4.6 12.9-1.7 11.2 12.4c-1.2 16.6-2.9 32-2.5 48.6c-.8 10.4 .4 19.9 .4 29.9c-1.6-.8-2.9-2.5-4.9-2.5c0 14.1 1.2 27.8 4.5 39.1c1.7 9.9 4.2 18.6 6.7 27.4c-16.6 2-33.2 4.5-50.3 6.6Z" class="g2_202"/>
<path clip-path="url(#c1_202)" d="M251.8 208.6c1.3 5.8 2.1 11.2-1.6 16.2c-27 33.2-88.4 68.1-88.9 89.3c0 6.6 5 12.5 9.6 13.3c12-.4 20.7-.4 23.7 5.8c7.8 15.8-2.5 29.5-8.8 41.5c-2.9 10.4 19.5 19.6 27 15.4c16.2-14.9 49-22 57.7-22.8c7.1-3.8 61 16.6 69.7 27.8c15.4 12.4 15.8 52.3 22.5 49.4c15.7 .8 6.6-45.7 0-50.2c-8.3-14.2-29.5-23.7-26.2-31.2c4.2-14.1 17.9-19.9 28.2-22.4c26.2 3.3 39.5 24.1 39.1 36.9c-2.9 22.5-7.9 45.7-14.2 65.7c-6.6 28.6-15.7 64.3-15.3 84.7c.4 31.5-6.2 68.1 5.4 95.9c8.7 39.9 24.5 105.5 33.6 118M258.5 778.4c2.1-19.5 21.1-46.1 20.3-48.6c5.8-63.1-13.7-126.2-13.3-136.2c-3.3-21.6 5.8-58.1-2-65.6c-17.1-16.6-53.6-26.6-73.5-27c-8.7-2.5-24.1-28.3-20.8-33.7c1.3-14.9 16.6-26.1 15-41.5c0-6.2-2.1-14.9-.9-17.8c2.1-4.2 11.7-12.1 20.4-12.1c4.1 0 7.5 2.9 7 5.4c-4.9 6.7 1.7 7.9 4.6 1.3c10.4-19.1 49.8-29.5 56.9-29.5c22.4 .8 59.7 19.1 66 27c9.9 22 11.6 50.6 .8 71.8c-3.3 8.7-9.1 17-12 25.3c2.9 .9 22-20.3 26.1-19.5c5.8-.8 3.8 10 .8 12.5c-6.2 12.9-16.1 24.9-24.9 34.9c-12.4 18.2-33.2 33.2-31.1 39c-1.2 9.1 8.3 22.9 7.5 24.5c-.4 2.1-3.8 3.8-2.5 8.7c1.2 15.4 14.1 29.5 14.9 33.3c12.1 44 20.8 44 25.4 63.9c2.9 26.6 21.5 49 24.9 58.6m-92.2-510c10.8-2.9 27.8 5 38.6 11.6c11.6 5.8 24.9 17 25.7 27.4c4.2 16.6 6.7 9.6 10.4 26.6c0 2.9 8.3 4.2 10.8 27.8c0 1.3 2.5 2.1 3.8 4.2m-17.1 0H400" class="g3_202"/>
<path d="M343.2 351.9h47.3m-53.6 10.8h62.7m-58.9 9.5h62.6m-50.6 10.4h50.2m-41.5 10h39.9m-34.1 10h32.4m-29.9 10.3h27.8m-26.5 10h24m-24 11.2h21.6" class="g2_202"/>
<path d="M364.7 444.1h43.2" class="g3_202"/>
<path d="M403.8 377.6h12m-105 0v6.3m7.9-2.5v5.8m8.7-1.7v6.7m9.9 0v7.5m7.1-.5v20m39.8 46.1h14.6" class="g2_202"/>
<path d="M327.4 496.8c8.3-10.3 22.4-24.5 26.1-27c4.2-2.9 12.1-2 10.8 11.3c-1.6 21.5-3.3 45.2-2.1 77.6c-2.4 35.7 9.6 69 18.7 99.7c1.7 6.2 5 39.9 23.3 85.1" class="g4_202"/>
<path d="M351.5 414.2v57.3M344 457.4v20.7m-7.1-1.2v8.7M359.3 442v26.6m7.9-24.5v50.2m8.3-50.2v50.2m8.3-50.2v23.7" class="g2_202"/>
<path d="M363.5 494.3h30.7" class="g3_202"/>
<path d="M342.7 564.1c-6.2 2.5-14.9 3.3-20.3 4.2c-7.5 1.6-22.8-.4-22.8 6.2c-.4 4.1 18.6 2.5 29 2.1c6.3-2.1 10.8-7.1 14.1-12.5c2.1-2.1 13.3-5.8 14.6-5c1.2-.4-1.7 18.3 4.9 42.8c3.8 17.4 13.3 47.8 16.7 61.1c3.7 31.1 14.9 61 21.1 81.8" class="g4_202"/>
<path d="M542.8 408.4c-6.2 19.1-11.2 38.6-17.8 57.7c-1.7 5.8-8.8 11.2-10.8 18.3c-1.7 23.2-1.7 53.1-3.3 75.6c2 45.2 20.3 108.4 19.9 121.6m-220-49l82.6-10.8" class="g3_202"/>
<path d="M375.5 508.5L360.6 523m13.7 3.3L361 539.6m12.9 4.2l-11.7 11.6m10.8 7.1l-11.6 11.6m11.2 7l-9.5 9.6m9.9 7.1l-7.4 7.4m9.9 5.8l-6.2 6.3m2.5-122.5l-8.3 8.3m10.4 50.2H395m-3.3 120.5h21.2M297.5 563.3H183.3m81.4-191.5H134.4" class="g2_202"/>
<path d="M296.7 500.2c-7.5 3.3-14.6 11.2-19.1 12.4c-.4-4.1 .8-10 3.7-12.9c3.7-1.6 12-1.6 15.4 .5m61 59.3l1.2 .5" class="g3_202"/>
<path d="M418.3 677.9v-9.5h7v1.2h-5.8v2.9h5.4v1.3h-5.4v3.3h5.8v.8Z" class="g5_202"/>
<path d="M418.3 677.9v-9.5h7v1.2h-5.8v2.9h5.4v1.3h-5.4v3.3h5.8v.8h-7Z" class="g6_202"/>
<path d="M426.6 675.8h1.2c0 .4 0 .9 .4 .9c.5 .4 .9 .4 1.3 .4h1.2c.5-.4 .5-.9 .5-.9q0-.4-.5-.8c0 0-.4 0-1.2-.4c-.8 0-1.3-.4-1.7-.4c-.4-.4-.8-.4-.8-.8c0 0-.4-.5-.4-.9c0-.4 .4-.4 .4-.8c0-.4 .4-.4 .4-.8h.8c.5-.5 .9-.5 1.3-.5c.4 0 .8 0 1.2 .5c.5 0 .9 .4 .9 .4c.4 .4 .4 .8 .4 1.2h-1.3q0-.4-.4-.8h-2.1q-.4 .4-.4 .8l.4 .4h.5c0 .5 .4 .5 .8 .5c.8 .4 1.2 .4 1.7 .4c.4 .4 .8 .4 .8 .8q.4 .4 .4 .8c0 .4-.4 .9-.4 1.3q-.4 .4-.8 .8c-.5 0-1.3 .4-1.7 .4c-.8 0-1.7-.4-2.1-.8c-.4-.4-.8-.8-.8-1.7Z" class="g5_202"/>
<path d="M433.2 674.6c0-1.3 .4-2.1 1.3-2.9c.4-.4 1.2-.9 2.1-.9c.8 0 1.6 .5 2 1.3c.9 .4 1.3 1.2 1.3 2.5c0 .8-.4 1.6-.4 2.1c-.5 .4-.9 .8-1.3 1.2c-.4 0-1.2 .4-1.6 .4c-.9 0-1.7-.4-2.5-1.2c-.5-.4-.9-1.3-.9-2.5m1.3 0c0 .8 0 1.6 .4 2.1c.4 .4 .8 .4 1.7 .4c.4 0 .8 0 1.2-.4c.4-.5 .8-1.3 .8-2.1c0-.8-.4-1.7-.8-2.1c-.4-.4-.8-.4-1.2-.4c-.9 0-1.3 0-1.7 .4c-.4 .4-.4 1.3-.4 2.1Z" class="g5_202"/>
<path d="M441.1 680.8v-9.5h.8v.8c.5-.4 .9-.8 1.3-.8c0-.5 .4-.5 .8-.5c.9 0 1.3 .5 1.7 .5c.4 .4 .8 .8 .8 1.2c.4 .8 .4 1.3 .4 2.1c0 .8 0 1.2-.4 1.6c0 .9-.4 1.3-.8 1.7c-.4 0-1.3 .4-1.7 .4c-.4 0-.8-.4-.8-.4c-.4 0-.8-.4-.8-.4v3.3Zm.8-6.2c0 .8 .5 1.6 .9 2.1c.4 .4 .8 .4 1.2 .4c.4 0 .9 0 1.3-.4c.4-.5 .4-1.3 .4-2.1c0-.8 0-1.7-.4-2.1c-.4-.4-.9-.8-1.3-.8c-.4 0-.8 .4-1.2 .8c-.4 .4-.9 1.3-.9 2.1Z" class="g5_202"/>
<path d="M448.6 677.9v-9.5h1.2v3.7c.4-.8 .9-1.3 1.7-1.3c.8 0 1.2 .5 1.7 .5c.4 0 .4 .4 .8 .8v5.8h-1.3v-5.4c-.4-.4-.8-.4-1.2-.4h-.8c-.5 .4-.9 .4-.9 .8v5Z" class="g5_202"/>
<path d="M460.2 677.1c-.4 .4-.8 .8-1.2 .8c-.4 0-.9 .4-1.3 .4c-.8 0-1.2-.4-1.6-.8c-.5-.4-.5-.8-.5-1.3v-.8c0-.4 .5-.8 .9-.8c0 0 .4-.4 .8-.4h.8c.9-.4 1.7-.4 2.1-.4v-.5c0-.4 0-.8-.4-.8c0-.4-.4-.4-1.2-.4h-1.3c0 .4-.4 .8-.4 1.2l-1.3-.4c0-.4 .5-.8 .5-.8c.4-.4 .8-.8 1.2-.8c.4-.5 .8-.5 1.7-.5c.4 0 .8 0 1.2 .5c.4 0 .8 .4 .8 .4c0 .4 .5 .4 .5 .8v4.6c0 .4 0 .8 .4 .8h-1.3c0 0-.4-.4-.4-.8m0-2.5c-.4 0-.8 .4-1.6 .4q-.9 0-1.3 .4h-.4v1.7h2.5q.4-.4 .8-.9V675Z" class="g5_202"/>
<path d="M463.1 678.7h1.3v.9c.4 0 .8 .4 1.2 .4c.8 0 1.3-.4 1.3-.4c.4-.4 .8-.4 .8-.9v-1.6c-.4 .8-1.3 .8-2.1 .8c-.8 0-1.7-.4-2.1-.8c-.4-.9-.8-1.7-.8-2.5c0-.8 .4-1.3 .4-2.1c.4-.4 .4-.8 1.3-1.2c.4 0 .8-.5 1.2-.5c.8 0 1.7 .5 2.1 1.3v-.8h1.2v5.8c0 1.2 0 1.6-.4 2.1c0 .8-.4 .8-.8 1.2c-.8 .4-1.3 .4-2.1 .4c-.8 0-1.2 0-1.7-.4c-.8-.4-.8-1.2-.8-1.7m.8-4.1c0 .8 .5 1.2 .5 1.6c.4 .5 .8 .9 1.6 .9c.4 0 .9-.4 1.3-.9c.4-.4 .4-.8 .4-1.6c0-.8 0-1.7-.4-2.1c-.4-.4-.9-.4-1.3-.4c-.8 0-1.2 0-1.6 .4c0 .4-.5 1.3-.5 2.1Z" class="g5_202"/>
<path d="M475.2 677.9v-.8c-.5 .8-1.3 1.2-2.1 1.2c-.4 0-.9-.4-1.3-.4c-.4 0-.8-.4-.8-.4c0-.4-.4-.8-.4-.8v-5.4h1.2v4.9c0 .5 .4 .5 .4 .9h2.1c0-.4 .4-.4 .4-.9c.5-.4 .5-.8 .5-1.2v-3.7h.8v6.6Z" class="g5_202"/>
<path d="M477.6 675.8h1.3c0 .4 0 .9 .4 .9c.4 .4 .8 .4 1.3 .4h1.2c0-.4 .4-.9 .4-.9c0-.4-.4-.4-.4-.8q-.4 0-1.2-.4c-.9 0-1.7-.4-1.7-.4c-.4-.4-.8-.4-.8-.8c-.5 0-.5-.5-.5-.9q0-.4 .5-.8c0-.4 .4-.4 .4-.8h.8q.4-.5 .8-.5c.9 0 1.3 0 1.7 .5c.4 0 .8 .4 .8 .4c0 .4 .4 .8 .4 1.2h-1.2q0-.4-.4-.8h-2.1q-.4 .4-.4 .8v.4h.4c.4 .5 .8 .5 1.3 .5c.8 .4 1.2 .4 1.6 .4q.4 .4 .8 .8c0 .4 .5 .4 .5 .8c0 .4-.5 .9-.5 1.3c-.4 .4-.8 .4-1.2 .8c-.4 0-.8 .4-1.2 .4c-.9 0-1.7-.4-2.1-.8c-.4-.4-.9-.8-.9-1.7Z" class="g5_202"/>
<path d="M420.4 569.5h83.4V356.9H420.4" class="g2_202"/>
<path d="M64.2 369.3c0-1.6 .4-2.9 1.3-3.7c.8-.8 2-1.2 3.3-1.2c.8 0 1.6 0 2.5 .4c.8 .4 1.2 1.2 1.6 1.6c.4 .9 .4 1.7 .4 2.9c0 .9 0 1.7-.4 2.5c-.4 .9-.8 1.3-1.6 1.7c-.9 .4-1.7 .4-2.5 .4c-.9 0-1.7 0-2.1-.4c-.8-.4-1.2-1.3-1.7-1.7c-.4-.8-.8-1.6-.8-2.5m1.3 0c0 1.3 .4 2.1 1.2 2.5c.4 .9 1.2 1.3 2.1 1.3c1.2 0 1.6-.4 2.5-1.3c.4-.4 .8-1.6 .8-2.5c0-.8 0-1.6-.4-2c0-.9-.4-1.3-1.3-1.7c-.4 0-.8-.4-1.6-.4c-.9 0-1.7 .4-2.1 .8c-.8 .8-1.2 1.7-1.2 3.3Z" class="g5_202"/>
<path d="M75 373.9v-7.1h.8v1.3c.4-.4 .9-.8 .9-.8q.4-.5 .8-.5c.4 0 .8 0 1.2 .5l-.4 .8H76.7c0 .4-.5 .4-.5 .8v5Z" class="g5_202"/>
<path d="M83.7 373.1c-.4 .4-.8 .4-1.2 .8H81.2c-.8 0-1.2 0-1.6-.4c-.4-.4-.4-.8-.4-1.3V371c0 0 .4-.4 .8-.4c0-.4 .4-.4 .8-.4c0 0 .4 0 .8-.4c.9 0 1.7 0 2.1-.5c0-.4 0-.8-.4-1.2c0 0-.8-.4-1.2-.4c-.5 0-.9 .4-1.3 .4c0 0-.4 .4-.4 .8H79.2c0-.4 .4-.8 .4-1.2c.4 0 .8-.4 1.2-.4c.4-.5 .8-.5 1.3-.5h1.6q.4 .5 .9 .9c0 0 .4 .4 .4 .8v4.6q0 .4 .4 .8H84.1c0-.4-.4-.4-.4-.8m0-2.5c-.4 0-1.2 0-2.1 .4h-.8l-.4 .4v1.3c.4 .4 .8 .4 1.2 .4c.5 0 .9 0 1.3-.4c.4 0 .4-.5 .8-.9V371Z" class="g5_202"/>
<path d="M86.6 364.4h1.3v9.5H86.6v-9.5Z" class="g5_202"/>
<path d="M86.6 364.4h1.3v9.5H86.6v-9.5Z" class="g6_202"/>
<path d="M97.8 371.4h1.3c0 .8-.4 1.7-.9 2.1c-.8 .4-1.2 .4-2 .4c-.9 0-1.7 0-2.5-.8c-.4-.4-.8-1.7-.8-2.5c0-.8 .4-1.7 .4-2.1c.4-.4 .8-.8 1.2-1.2c.4-.5 1.3-.5 1.7-.5c.8 0 1.2 0 1.6 .5c.9 .4 .9 1.2 1.3 1.6l-1.3 .4c0-.4-.4-.8-.8-1.2c0 0-.4-.4-.8-.4c-.4 0-1.3 .4-1.3 .8c-.4 .4-.8 .8-.8 2.1c0 .8 .4 1.2 .8 1.6c0 .5 .9 .9 1.3 .9c.4 0 .8 0 1.2-.4c0-.5 .4-.9 .4-1.3Z" class="g5_202"/>
<path d="M104.5 373.1c-.4 .4-.9 .4-1.3 .8H102c-.8 0-1.3 0-1.7-.4c-.4-.4-.8-.8-.8-1.3c0-.4 0-.8 .4-1.2l.4-.4c.4-.4 .9-.4 .9-.4c.4 0 .8 0 1.2-.4c.8 0 1.7 0 2.1-.5c0-.4 0-.8-.4-1.2c-.5 0-.9-.4-1.3-.4c-.4 0-.8 .4-1.2 .4c-.4 0-.4 .4-.4 .8H99.9c0-.4 0-.8 .4-1.2c.4 0 .4-.4 1.3-.4c.4-.5 .8-.5 1.2-.5h1.7q.4 .5 .8 .9c0 0 0 .4 .4 .8v4.6q0 .4 .4 .8h-1.2q-.4-.4-.4-.8m0-2.5c-.4 0-1.3 0-2.1 .4h-.8c-.4 0-.4 .4-.4 .4l-.5 .4c0 .4 .5 .9 .5 .9c.4 .4 .8 .4 1.2 .4c.4 0 .8 0 1.2-.4c0 0 .5-.5 .5-.9c.4 0 .4-.4 .4-.8Z" class="g5_202"/>
<path d="M109.5 373.9l-2.9-7.1h1.2l1.7 4.2c0 .4 .4 .8 .4 1.7c0-.5 .4-.9 .4-1.7l1.6-4.2h1.3l-2.9 7.1Z" class="g5_202"/>
<path d="M114 364.4h1.3v1.2H114v-1.2Zm0 2.4h1.3v7.1H114v-7.1Z" class="g5_202"/>
<path d="M114 364.4h1.3v1.2H114v-1.2Zm0 2.4h1.3v7.1H114v-7.1Z" class="g6_202"/>
<path d="M119.4 372.7l.4 1.2h-2c0-.4-.5-.4-.5-.8v-5h-.8v-1.3h.8v-1.6l.9-.4v2h1.2v1.3h-1.2v3.7c0 .4 .4 .9 .4 .9l.4 .4Z" class="g5_202"/>
<path d="M120.7 376.4v-.8h1.2q0-.4 .4-.4q0-.5 .4-.9v-.4l-2.9-7.1h1.3l1.6 4.2c0 .4 .5 .8 .5 1.7c0-.5 .4-1.3 .4-1.7l1.6-4.2h1.3l-2.9 7.1c0 .8-.4 1.3-.4 1.7c-.5 .4-.5 .8-.9 .8c-.4 0-.4 .4-.8 .4q-.4 0-.8-.4Z" class="g5_202"/>
<path d="M229.8 294.2v-9.6h1.3l5 7.5v-7.5h1.2v9.6h-1.2l-5-7.5v7.5Z" class="g5_202"/>
<path d="M229.8 294.2v-9.6h1.3l5 7.5v-7.5h1.2v9.6h-1.2l-5-7.5v7.5h-1.3Z" class="g6_202"/>
<path d="M243.5 293.3c-.4 .5-.8 .5-1.2 .9H241c-.8 0-1.2 0-1.6-.4c-.4-.5-.4-.9-.4-1.7v-.8q.4-.5 .8-.9h.8c0-.4 .4-.4 .9-.4c.8 0 1.6 0 2-.4v-.4c0-.4 0-.8-.4-.8c0-.5-.4-.5-1.2-.5c-.4 0-.9 0-1.3 .5c0 0-.4 .4-.4 .8H239c0-.4 .4-.8 .4-1.3c.4-.4 .8-.4 1.2-.8h2.9c.4 .4 .9 .4 .9 .4c0 .4 .4 .9 .4 .9v4.9c0 0 .4 .5 .4 .9h-1.3c0-.4-.4-.9-.4-.9m0-2.9c-.4 .4-.8 .4-1.6 .4q-.9 .5-1.3 .5l-.4 .4v1.2c.4 .4 .8 .4 1.3 .4c.4 0 .8 0 1.2-.4c.4 0 .4-.4 .8-.8v-1.3Z" class="g5_202"/>
<path d="M246 292.1l1.3-.4c0 .4 .4 .8 .4 1.2c.4 0 .8 .4 1.2 .4c.9 0 1.3-.4 1.3-.4q.4-.4 .4-.8q0-.4-.4-.4c0-.4-.4-.4-1.3-.4c-.8-.5-1.2-.5-1.6-.9c-.4 0-.4-.4-.9-.4v-2.1c.5 0 .5-.4 .9-.4l.4-.4h2.5c.4 .4 .8 .4 .8 .8c.4 0 .4 .5 .4 .9l-.8 .4c0-.4-.4-.8-.4-.8c-.4-.5-.9-.5-1.3-.5c-.4 0-.8 0-1.2 .5l-.4 .4c0 .4 .4 .4 .4 .4c0 0 0 .4 .4 .4c0 0 .4 0 .8 .4c.9 0 1.7 .4 1.7 .4c.4 0 .8 .4 .8 .4c.4 .5 .4 .9 .4 1.3c0 .4 0 .8-.4 .8c0 .4-.4 .9-.8 .9c-.4 .4-.8 .4-1.7 .4c-.8 0-1.2 0-2-.4c-.5-.5-.5-1.3-.9-1.7Z" class="g5_202"/>
<path d="M257.6 293.3c-.4 .5-.8 .5-1.2 .9h-1.2c-.9 0-1.3 0-1.7-.4c-.4-.5-.8-.9-.8-1.7c0 0 .4-.4 .4-.8c0-.5 .4-.5 .4-.9h.8c.4-.4 .9-.4 1.3-.4c.8 0 1.6 0 2-.4v-.4c0-.4 0-.8-.4-.8c-.4-.5-.8-.5-1.2-.5c-.4 0-.8 0-1.3 .5c-.4 0-.4 .4-.4 .8h-1.2c0-.4 .4-.8 .4-1.3c.4-.4 .8-.4 1.2-.8h2.9q.5 .4 .9 .4c0 .4 0 .9 .4 .9v4.9c0 0 0 .5 .4 .9h-1.2c-.5-.4-.5-.9-.5-.9m0-2.9c-.4 .4-1.2 .4-2 .4c-.4 .5-.9 .5-.9 .5c-.4 0-.4 .4-.4 .4l-.4 .4c0 .4 .4 .8 .4 .8c.4 .4 .9 .4 1.3 .4c.4 0 .8 0 1.2-.4c0 0 .4-.4 .8-.8v-1.3Z" class="g5_202"/>
<path d="M260.6 284.6h1.2v9.6h-1.2v-9.6Z" class="g5_202"/>
<path d="M260.6 284.6h1.2v9.6h-1.2v-9.6Z" class="g6_202"/>
<path d="M271.8 293.3c-.5 .5-.9 .5-1.3 .9h-1.2c-.9 0-1.3 0-1.7-.4c-.4-.5-.8-.9-.8-1.7c0 0 0-.4 .4-.8c0-.5 .4-.5 .4-.9h.8c.5-.4 .9-.4 1.3-.4c.8 0 1.6 0 2.1-.4v-.4c0-.4 0-.8-.5-.8c-.4-.5-.8-.5-1.2-.5c-.8 0-1.2 0-1.2 .5c-.5 0-.5 .4-.9 .8h-.8c0-.4 0-.8 .4-1.3c0-.4 .4-.4 .8-.8h3.4q.4 .4 .8 .4v.9c.4 .4 .4 .8 .4 1.2v4.6h-.8c-.4-.4-.4-.9-.4-.9m0-2.9c-.5 .4-1.3 .4-2.1 .4c-.4 .5-.8 .5-.8 .5c-.5 0-.5 .4-.5 .4c-.4 0-.4 .4-.4 .4c0 .4 0 .8 .4 .8q.5 .4 1.3 .4c.4 0 .8 0 .8-.4c.4 0 .8-.4 .8-.8c.5 0 .5-.4 .5-1.3Z" class="g5_202"/>
<path d="M274.7 294.2v-7.1h.8v.8c.8-.4 1.2-.8 2.5-.8h1.2c0 .4 .4 .4 .4 .8c.5 0 .5 .5 .5 .9v5.4h-.9V290q0-.8-.4-1.2q0-.4-.4-.4c0-.5-.4-.5-.8-.5c-.4 0-.9 .5-1.3 .5c-.4 .4-.4 1.2-.4 2v3.8Z" class="g5_202"/>
<path d="M284.6 292.9v1.3h-.8c-.4 0-.8 0-.8-.4q-.4 0-.4-.5c-.5 0-.5-.4-.5-1.2v-4.2h-.8v-.8h.8v-1.7l1.3-.8v2.5h1.2v.8h-1.2v5h.8Z" class="g5_202"/>
<path d="M285.9 294.2v-7.1h.8v1.3q.4-.9 .8-1.3h.9c.4 0 .8 0 1.2 .4l-.4 .9h-1.7q-.4 .4-.4 .8c0 .4-.4 .8-.4 1.2v3.8Z" class="g5_202"/>
<path d="M294.6 294.2v-1.3c-.4 .9-1.3 1.3-2.1 1.3h-1.2q-.4-.4-.9-.9c0 0 0-.4-.4-.8v-5.4h1.3v5c0 .4 .4 .8 .4 .8c.4 0 .8 .4 .8 .4c.4 0 .8-.4 1.3-.4c.4 0 .4-.4 .4-.8c.4-.4 .4-.8 .4-1.3v-3.7h1.2v7.1Z" class="g5_202"/>
<path d="M297.5 294.2v-7.1h1.2v.8c0 0 .5-.4 .9-.8h2.5c0 .4 .4 .8 .4 1.3c.8-.9 1.2-1.3 2.1-1.3c.8 0 1.2 0 1.6 .4c.4 .4 .8 .9 .8 1.7v5h-1.2v-5.4l-.4-.4c-.4-.5-.8-.5-.8-.5c-.5 0-.9 .5-1.3 .5c-.4 .4-.4 .8-.4 1.6v4.2h-1.3v-4.6c0-.4 0-.8-.4-1.2c0-.5-.4-.5-.8-.5c-.4 0-.8 0-.8 .5c-.4 0-.4 .4-.9 .8v5Z" class="g5_202"/>
<path d="M516.7 401.7v-9.5h4.9c.5 0 .9 0 1.3 .4c0 .4 .4 .4 .4 .8c.4 .4 .4 .9 .4 1.3c0 .8-.4 1.6-.8 2c-.4 .9-1.3 .9-2.9 .9h-2.1v4.1Zm1.2-5h2.5c.8 0 1.2-.4 1.7-.8c.4 0 .4-.4 .4-1.2q0-.4-.4-.9c0-.4-.5-.4-.9-.4c0-.4-.4-.4-1.2-.4h-2.1Z" class="g5_202"/>
<path d="M525.4 401.7v-9.5h.8v3.3c.8-.8 1.3-.8 2.1-.8h1.6c0 .4 .5 .8 .9 .8v6.2h-1.3v-4.5c0-.5 0-.9-.4-1.3c0-.4-.4-.4-.8-.4c-.4 0-.8 0-1.3 .4l-.4 .4c0 .4-.4 .9-.4 1.7v3.7Z" class="g5_202"/>
<path d="M537 400.9c-.4 0-.8 .4-1.2 .4c-.5 .4-.9 .4-1.3 .4c-.8 0-1.2 0-1.6-.4c-.5-.4-.9-.8-.9-1.6c0-.5 .4-.5 .4-.9c0-.4 .5-.4 .5-.8c.4 0 .8 0 .8-.4h1.2c.9 0 1.7-.4 2.1-.4v-.5c0-.4 0-.8-.4-.8c-.4-.4-.8-.4-1.3-.4c-.4 0-.8 0-1.2 .4c-.4 0-.4 .4-.4 .8h-1.3c0-.4 .5-.8 .5-1.2c.4-.4 .8-.4 1.2-.8H537c.4 0 .4 .4 .8 .4c0 .4 .4 .8 .4 .8v5c0 0 0 .4 .5 .8h-1.3c-.4-.4-.4-.8-.4-.8m0-2.9c-.4 .4-1.2 .4-2.1 .4c-.4 .4-.8 .4-.8 .4q-.4 0-.4 .4l-.4 .5c0 .4 .4 .8 .4 .8c.4 .4 .8 .4 1.2 .4c.4 0 .9 0 1.3-.4c0 0 .4-.4 .8-.8v-1.3Z" class="g5_202"/>
<path d="M539.9 401.7v-7h1.3v1.2c0-.8 .4-.8 .4-1.2h.8c.4 0 .8 0 1.2 .4l-.4 .8h-1.6c0 0 0 .4-.4 .8v5Z" class="g5_202"/>
<path d="M544.5 404.2l-.4-1.2c.4 .4 .8 .4 .8 .4q.4 0 .4-.4q.4 0 .4-.4c.4 0 .4-.5 .4-.9h.5l-3-7h1.3l1.7 4.1c0 .4 .4 .9 .4 1.3c0-.4 .4-.9 .4-1.3l1.6-4.1h.9l-2.5 7c-.4 .9-.4 1.3-.4 1.7c-.4 .4-.9 .4-.9 .8h-.8Z" class="g5_202"/>
<path d="M551.1 401.7v-7h.8v.8c.9-.4 1.3-.8 2.5-.8h.9c.4 .4 .8 .4 .8 .8c.4 0 .4 .4 .4 .8v5.4h-1.2v-5.4q0-.4-.4-.4q-.5-.4-.9-.4c-.4 0-.8 0-1.2 .4c-.4 .4-.4 .8-.4 2.1v3.7Z" class="g5_202"/>
<path d="M557.8 401.7l2.4-3.7l-2.4-3.3h1.6l.8 1.6q.5 .4 .5 .9c.4-.5 .4-.9 .8-.9l.8-1.6H564l-2.5 3.3l2.5 3.7h-1.3l-1.6-2.5v-.4l-2.1 2.9Z" class="g5_202"/>
<path d="M402.1 557.9v-9.6h1.2v4.2h5v-4.2h1.3v9.6h-1.3v-4.2h-5v4.2Z" class="g5_202"/>
<path d="M402.1 557.9v-9.6h1.2v4.2h5v-4.2h1.3v9.6h-1.3v-4.2h-5v4.2h-1.2Z" class="g6_202"/>
<path d="M411.2 560.8v-1.3h1.3c0 0 .4 0 .4-.4c0 0 0-.4 .4-.8v-.4l-2.5-6.7h1.3l1.2 3.8c.4 .8 .4 1.2 .4 1.6c.4-.4 .4-.8 .9-1.6l1.2-3.8H417l-2.4 7.1c-.5 .4-.9 1.2-.9 1.2c0 .5-.4 .9-.8 .9c0 .4-.4 .4-.8 .4Z" class="g5_202"/>
<path d="M417.9 560.8v-9.6h1.2v.9c.4-.4 .4-.9 .8-.9c.5 0 .9-.4 1.3-.4c.4 0 .8 .4 1.2 .4c.9 .5 .9 .9 1.3 1.7c.4 .4 .4 .8 .4 1.7c0 .8-.4 1.2-.4 2c-.4 .5-.8 .9-1.3 1.3c-.4 0-.8 .4-1.2 .4c-.4 0-.8 0-1.3-.4c-.4 0-.4-.4-.8-.4v3.3Zm1.2-6.2c0 .8 0 1.6 .4 2c.4 .5 .9 .5 1.3 .5c.8 0 1.2 0 1.6-.5c0-.4 .5-1.2 .5-2c0-.9-.5-1.7-.5-2.1c-.4-.4-.8-.4-1.6-.4c-.4 0-.9 0-1.3 .4c-.4 .4-.4 1.2-.4 2.1Z" class="g5_202"/>
<path d="M424.9 554.6c0-1.3 .4-2.1 1.3-2.9c.4-.5 1.2-.9 2-.9c.9 0 1.7 .4 2.1 1.3c.9 .4 1.3 1.2 1.3 2.5c0 .8-.4 1.6-.4 2c-.5 .5-.9 .9-1.3 1.3c-.4 0-1.2 .4-1.7 .4c-.8 0-1.6-.4-2.4-1.2c-.5-.5-.9-1.3-.9-2.5m1.3 0c0 .8 0 1.6 .4 2c.4 .5 .8 .5 1.6 .5c.5 0 .9 0 1.3-.5c.4-.4 .8-1.2 .8-2c0-.9-.4-1.7-.8-2.1c-.4-.4-.8-.4-1.3-.4c-.8 0-1.2 0-1.6 .4c-.4 .4-.4 1.2-.4 2.1Z" class="g5_202"/>
<path d="M432.8 560.8v-9.6h1.3v.9c0-.4 .4-.9 .8-.9c0 0 .4-.4 .8-.4c.9 0 1.3 .4 1.7 .4c.4 .5 .8 .9 1.2 1.7v1.7c0 .8 0 1.2-.4 2c0 .5-.4 .9-.8 1.3c-.4 0-1.3 .4-1.7 .4c-.4 0-.8 0-.8-.4c-.4 0-.8-.4-.8-.4v3.3Zm1.3-6.2c0 .8 0 1.6 .4 2c.4 .5 .8 .5 1.2 .5c.4 0 .9 0 1.3-.5c.4-.4 .4-1.2 .4-2c0-.9 0-1.7-.4-2.1c-.4-.4-.9-.4-1.3-.4c-.4 0-.8 0-1.2 .4c-.4 .4-.4 1.2-.4 2.1Z" class="g5_202"/>
<path d="M440.3 557.9v-9.6h1.2v3.8c.4-.9 1.3-1.3 2.1-1.3c.4 0 .8 .4 1.3 .4q.4 .5 .8 .9v5.8h-1.3v-5.4c-.4-.4-.8-.4-1.2-.4h-.8c-.5 .4-.9 .4-.9 .8v5Z" class="g5_202"/>
<path d="M451.9 557.1c-.4 .4-.8 .8-1.2 .8c-.5 .4-.9 .4-1.3 .4c-.8 0-1.2-.4-1.6-.8c-.5-.4-.5-.9-.5-1.3v-.8q.5-.4 .9-.8c0 0 .4-.5 .8-.5h.8c.9 0 1.7-.4 2.1-.4v-.4c0-.4 0-.8-.4-.8c0-.4-.4-.4-1.3-.4H449c0 .4-.4 .8-.4 1.2l-1.3-.4c0-.4 .5-.8 .5-.8c.4-.4 .8-.9 1.2-.9c.4 0 .8-.4 1.7-.4c.4 0 .8 .4 1.2 .4c.4 0 .8 .5 .8 .5c0 .4 .5 .4 .5 .8v4.6c0 .4 .4 .8 .4 .8h-1.3c0 0-.4-.4-.4-.8m0-2.5c-.4 0-.8 .4-1.7 .4q-.8 0-1.2 .4c0 0-.4 0-.4 .4v1.3c.4 0 .8 .4 1.2 .4c.4 0 .9-.4 1.3-.4q.4-.5 .8-.9V555Z" class="g5_202"/>
<path d="M454.8 557.9v-6.7h1.3v.9c.4-.4 .4-.9 .8-.9l.4-.4c.4 0 .8 .4 1.3 .4l-.5 1.3c0-.4-.4-.4-.8-.4c0 0-.4 0-.4 .4c-.4 0-.4 .4-.4 .4c-.4 .4-.4 .8-.4 1.7v3.3Z" class="g5_202"/>
<path d="M459.4 560.8v-1.3h1.2l.4-.4v-.8q.5 0 .5-.4l-2.9-6.7h1.2l1.7 3.8c0 .8 .4 1.2 .4 1.6c0-.4 .4-.8 .4-1.6l1.6-3.8h1.3l-2.9 7.1c0 .4-.4 1.2-.4 1.2c-.4 .5-.4 .9-.9 .9q-.4 .4-.8 .4Z" class="g5_202"/>
<path d="M466 557.9v-6.7h1.3v.9c.4-.9 1.2-1.3 2-1.3c.5 0 .9 .4 1.3 .4l.4 .5c.4 .4 .4 .8 .4 .8v5.4h-.8v-4.2c0-.4 0-.8-.4-.8q0-.4-.4-.8h-.9c-.4 0-.8 0-1.2 .4c-.4 .4-.4 .8-.4 1.6v3.8Z" class="g5_202"/>
<path d="M472.7 557.9l2.5-3.3l-2.5-3.4h1.6l.9 1.7c.4 0 .4 .4 .8 .8c0-.4 0-.8 .4-.8l1.2-1.7h1.3l-2.5 3.4l2.5 3.3h-1.3l-1.2-2.1l-.4-.4l-2.1 2.5Z" class="g5_202"/>
<path d="M419.5 382.6v-9.5h1.3l5 7.5v-7.5H427v9.5h-1.2l-5-7.4v7.4Z" class="g5_202"/>
<path d="M419.5 382.6v-9.5h1.3l5 7.5v-7.5H427v9.5h-1.2l-5-7.4v7.4h-1.3Z" class="g6_202"/>
<path d="M433.6 381.8c-.4 .4-.8 .4-1.2 .8h-1.2c-.9 0-1.7 0-2.1-.4c-.4-.4-.4-.8-.4-1.6v-.9c.4 0 .4-.4 .8-.4c0-.4 .4-.4 .8-.4c0 0 .4-.4 .9-.4c1.2 0 1.6 0 2-.4v-1.3c-.4 0-.8-.4-1.6-.4c-.4 0-.9 0-1.3 .4c0 0-.4 .4-.4 .8h-1.2c.4-.4 .4-.8 .8-1.2c0-.4 .4-.4 .8-.8h2.9c.4 .4 .9 .4 .9 .8c.4 0 .4 .4 .4 .8v4.6q.4 .4 .4 .8h-1.3Zm-.4-2.5c-.4 0-.8 0-1.6 .4h-1.3l-.4 .4v.5c0 .4 0 .8 .4 .8c0 .4 .4 .4 .9 .4c.4 0 .8 0 1.2-.4c.4 0 .8-.4 .8-.8v-.9Z" class="g5_202"/>
<path d="M435.7 380.6l1.3-.5c0 .9 .4 .9 .8 1.3c0 .4 .4 .4 1.2 .4c.5 0 .9 0 .9-.4c.4 0 .4-.4 .4-.8v-.5c-.4 0-.8-.4-1.3-.4c-.8-.4-1.6-.4-2-.8c0 0-.4 0-.4-.4c-.5-.4-.5-.9-.5-.9v-.8c.5-.4 .5-.8 .9-.8c0 0 .4-.4 .8-.4h2.1c.4 .4 .8 .4 1.2 .8q0 .4 .4 1.2h-1.2c0-.4-.4-.8-.4-.8c-.4-.4-.9-.4-1.3-.4c-.4 0-.8 0-1.2 .4v.8c0 .5 .4 .5 .4 .5c0 0 .4 0 1.2 .4c.9 0 1.3 .4 1.7 .4c0 0 .4 .4 .8 .8v.9c0 .4 0 .8-.4 1.2c0 0-.4 .4-.8 .8H439c-1.2 0-1.6 0-2-.4c-.9-.4-.9-.8-1.3-1.6Z" class="g5_202"/>
<path d="M442.8 379.3c0-1.7 0-2.5 .8-2.9c.8-.8 1.3-.8 2.1-.8c1.2 0 1.6 .4 2.5 .8c.4 .8 .8 1.7 .8 2.5c0 .8 0 1.7-.4 2.1c-.4 .8-.4 1.2-1.3 1.2c-.4 .4-.8 .4-1.6 .4c-.8 0-1.7-.4-2.1-.8c-.8-.8-.8-1.7-.8-2.5m.8 0c0 .8 .4 1.3 .8 1.7c.5 .4 .9 .8 1.3 .8c.8 0 1.2-.4 1.6-.8c.5-.4 .5-.9 .5-2.1c0-.8 0-1.3-.5-1.7c-.4-.4-.8-.8-1.6-.8c-.4 0-.8 .4-1.3 .8c-.4 .4-.8 .9-.8 2.1Z" class="g5_202"/>
<path d="M450.2 385.1v-9.5h1.3v.8c.4 0 .4-.4 .8-.4c.4-.4 .9-.4 1.3-.4c.4 0 .8 0 1.6 .4c.4 .4 .4 .8 .9 1.2c.4 .4 .4 1.3 .4 1.7c0 .8-.4 1.7-.4 2.1c-.5 .4-.9 .8-1.3 1.2c-.4 .4-.8 .4-1.2 .4h-1.3q-.4-.4-.8-.8v3.3Zm1.3-5.8c0 .8 0 1.3 .4 1.7c.4 .4 .8 .8 1.3 .8c.8 0 1.2-.4 1.6-.8c0-.4 .4-.9 .4-2.1c0-.8-.4-1.3-.4-1.7c-.4-.4-.8-.8-1.6-.8c-.5 0-.9 .4-1.3 .8c-.4 .4-.4 1.3-.4 2.1Z" class="g5_202"/>
<path d="M457.7 382.6v-9.5H459v3.3c.4-.4 1.2-.8 2-.8c.5 0 .9 0 1.3 .4c.4 0 .8 .4 .8 .8c0 0 .4 .8 .4 1.3v4.5h-1.2v-4.5c0-.5 0-.9-.4-1.3c-.4 0-.9-.4-1.3-.4c0 0-.4 .4-.8 .4c-.4 0-.4 .4-.8 .8v5Z" class="g5_202"/>
<path d="M469.8 381.8c-.5 .4-.9 .4-1.3 .8h-1.2c-.9 0-1.7 0-2.1-.4c0-.4-.4-.8-.4-1.6c0 0 0-.5 .4-.9c0 0 0-.4 .4-.4q.4-.4 .8-.4c.5 0 .5-.4 1.3-.4c.8 0 1.2 0 2.1-.4c0-.9-.5-.9-.5-1.3c-.4 0-.8-.4-1.2-.4c-.8 0-1.2 0-1.2 .4c-.5 0-.5 .4-.9 .8h-.8c0-.4 0-.8 .4-1.2c0-.4 .4-.4 .8-.8h2.9c.5 .4 .9 .4 .9 .8c.4 0 .4 .4 .4 .8v2.5c0 1.3 0 1.7 .4 2.1v.8h-1.2Zm0-2.5c-.5 0-1.3 0-2.1 .4h-.8c-.5 0-.5 .4-.9 .4v.5c0 .4 0 .8 .4 .8c0 .4 .5 .4 .9 .4c.4 0 .8 0 1.2-.4c.4 0 .8-.4 .8-.8c0 0 .5-.5 .5-.9Z" class="g5_202"/>
<path d="M472.7 382.6v-7h.8v1.2c.4-.4 .8-.8 .8-1.2h.9c.4 0 .8 0 1.2 .4l-.4 .8h-1.7c0 .4-.4 .4-.4 .8v5Z" class="g5_202"/>
<path d="M476.8 385.1v-.8h1.3c0-.4 .4-.4 .4-.4q0-.4 .4-.9v-.4l-2.5-7h1.2l1.3 4.1c.4 .4 .4 .9 .8 1.7c0-.8 0-1.3 .4-1.7l1.3-4.1h1.2l-2.5 7c-.4 .9-.4 1.3-.8 1.7c0 .4-.4 .4-.8 .8c0 0-.4 .4-.9 .4c0 0-.4-.4-.8-.4Z" class="g5_202"/>
<path d="M483.5 382.6v-7h1.2v1.2c.4-.8 1.2-1.2 2.1-1.2H488q.4 .4 .9 .8c0 0 .4 .4 .4 .8v5.4H488v-5.4l-.4-.4c-.4-.4-.8-.4-.8-.4c-.9 0-1.3 .4-1.3 .4c-.4 .4-.8 1.3-.8 2.1v3.7Z" class="g5_202"/>
<path d="M490.1 382.6l2.5-3.7l-2.1-3.3h1.3l1.2 1.6c0 .4 .4 .9 .4 .9c0-.5 .4-.5 .4-.9l1.3-1.6h1.2l-2.1 3.3l2.5 3.7h-1.6l-1.3-2l-.4-.9l-1.6 2.9Z" class="g5_202"/>
<path d="M400.9 465.7c0-1.7 .4-2.9 1.2-3.8c.8-1.2 2.1-1.6 3.3-1.6c.8 0 1.7 .4 2.5 .8c.4 .4 1.3 .8 1.3 1.7c.4 .8 .8 1.6 .8 2.5c0 1.2-.4 2-.8 2.9c-.5 .4-.9 1.2-1.7 1.6c-.4 .5-1.3 .5-2.1 .5c-.8 0-1.6 0-2.5-.5c-.8-.8-1.2-1.2-1.6-2c-.4-.9-.4-1.3-.4-2.1m1.2 0c0 .8 .4 2.1 .8 2.5c.9 .8 1.7 .8 2.5 .8c.8 0 1.7 0 2.1-.8c.8-.9 1.2-1.7 1.2-2.9c0-.9-.4-1.3-.4-2.1c-.4-.4-.8-.8-1.2-1.3c-.4-.4-1.3-.4-1.7-.4c-.8 0-1.6 .4-2.5 .9c-.4 .8-.8 1.6-.8 3.3Z" class="g5_202"/>
<path d="M411.2 470.3v-7.1h1.3v1.2q.4-.8 .8-1.2h.4c.4 0 .9 0 1.3 .4l-.4 .8h-1.3q-.4 .5-.4 .9c-.4 .4-.4 .8-.4 1.2v3.8Z" class="g5_202"/>
<path d="M415.4 466.5c0-1.2 .4-2.1 1.2-2.5c.4-.8 1.3-.8 2.1-.8c.8 0 1.7 0 2.1 .8c.8 .4 1.2 1.7 1.2 2.5c0 .8-.4 1.7-.4 2.1c-.4 .4-.8 .8-1.2 1.2c-.5 .5-1.3 .5-1.7 .5c-1.2 0-1.7-.5-2.5-.9c-.4-.8-.8-1.6-.8-2.9m1.2 0c0 1.3 0 1.7 .4 2.1c.5 .4 .9 .8 1.7 .8c.4 0 .8-.4 1.2-.8c.5-.4 .9-1.3 .9-2.1c0-.8-.4-1.2-.9-1.6c-.4-.5-.8-.9-1.2-.9c-.8 0-1.2 .4-1.7 .9c-.4 .4-.4 .8-.4 1.6Z" class="g5_202"/>
<path d="M423.3 472.7v-9.5h.8v.8c.4-.4 .8-.4 .8-.8h1.3c.8 0 1.2 0 1.6 .4c.4 .4 .9 .8 .9 1.3c.4 .4 .4 1.2 .4 1.6c0 .8 0 1.7-.4 2.1c0 .4-.5 .8-.9 1.2c-.8 .5-1.2 .5-1.6 .5c-.4 0-.9 0-1.3-.5c0 0-.4 0-.4-.4v3.3Zm.8-6.2c0 1.3 .4 1.7 .8 2.1c.4 .4 .9 .8 1.3 .8c.4 0 .8-.4 1.2-.8c.4-.4 .4-1.3 .4-2.1c0-.8 0-1.2-.4-1.6c-.4-.9-.8-.9-1.2-.9c-.4 0-.9 0-1.3 .9c-.4 .4-.8 .8-.8 1.6Z" class="g5_202"/>
<path d="M430.7 470.3v-9.6h.9V464c.8-.8 1.2-.8 2-.8h1.7c0 .4 .4 .8 .8 .8v6.3h-1.2v-4.6c0-.4 0-.8-.4-1.3c0-.4-.4-.4-.9-.4c-.4 0-.8 0-1.2 .4c0 0-.4 .5-.4 .9c0 0-.4 .4-.4 1.2v3.8Z" class="g5_202"/>
<path d="M442.4 469.4c-.5 .4-.9 .4-1.3 .9h-1.2c-.9 0-1.3 0-1.7-.5c-.4-.4-.8-.8-.8-1.6c0 0 .4-.4 .4-.9c0-.4 .4-.4 .4-.8h.8c.5-.4 .9-.4 1.3-.4c.8 0 1.6 0 2.1-.4v-.4c0-.4 0-.9-.5-.9c-.4-.4-.8-.4-1.2-.4c-.4 0-.8 0-1.2 .4c-.5 0-.5 .5-.5 .9h-1.2c0-.4 .4-.9 .4-1.3c.4-.4 .8-.4 1.3-.8h2.9q.4 .4 .8 .4c0 .4 .4 .8 .4 .8v5c0 0 0 .4 .4 .9h-1.2c0-.5-.4-.9-.4-.9m0-2.9c-.5 .4-1.3 .4-2.1 .4c-.4 .4-.8 .4-.8 .4c-.5 0-.5 .5-.5 .5l-.4 .4c0 .4 .4 .8 .4 .8c.5 .4 .9 .4 1.3 .4c.4 0 .8 0 1.2-.4c.4 0 .4-.4 .9-.8v-1.3Z" class="g5_202"/>
<path d="M445.3 470.3v-7.1h1.2v1.2c0-.8 .4-.8 .4-1.2h.9c.4 0 .8 0 1.2 .4l-.4 .8h-1.7q0 .5-.4 .9v5Z" class="g5_202"/>
<path d="M449.8 472.7l-.4-1.2c.4 .4 .8 .4 .8 .4q.5 0 .9-.4q.4-.4 .4-1.2h.4l-2.9-7.1h1.2l1.7 4.1c0 .5 .4 .9 .4 1.7c0-.8 .4-1.2 .4-1.7l1.7-4.1h.8l-2.5 7.1c-.4 .8-.4 1.2-.4 1.6q-.4 .4-.8 .8h-.8Z" class="g5_202"/>
<path d="M456.5 470.3v-7.1h.8v.8c.8-.4 1.3-.8 2.5-.8h.8c.4 .4 .9 .4 .9 .8c.4 0 .4 .4 .4 .9v5.4H461v-4.2c0-.8-.4-.8-.4-1.2q0-.5-.4-.5q-.4-.4-.8-.4c-.4 0-.8 .4-1.3 .4c-.4 .5-.4 1.3-.4 2.1v3.8Z" class="g5_202"/>
<path d="M463.1 470.3l2.5-3.8l-2.5-3.3h1.7l.8 1.7q.4 .4 .4 .8q.4-.4 .9-.8l1.2-1.7h1.2l-2.4 3.3l2.4 3.8h-1.2l-1.7-2.1v-.9l-2 3Z" class="g5_202"/>
<path d="M411.2 483.5V474h5.4c.4 .4 .4 .8 .9 1.2c.4 .5 .4 .9 .4 1.3c0 .4 0 .8-.4 .8c0 .4-.5 .8-.9 1.3c.4 0 .9 .4 1.3 .8c.4 .4 .4 .8 .4 1.2c0 .5 0 .9-.4 1.3c0 .4-.4 .8-.4 .8c-.5 .4-.9 .4-1.3 .4c-.4 .4-.8 .4-1.6 .4Zm1.3-5.8h3.3c0 0 .4 0 .4-.4q.4-.4 .4-.8q0-.4-.4-.8c0-.5-.4-.5-.4-.5c-.4 0-.8-.4-1.7-.4h-1.6Zm0 4.6h2.9c.4 0 .8 0 .8-.4q.4 0 .4-.4q.4-.4 .4-.9c0-.4 0-.8-.4-.8c0-.4-.4-.4-.8-.4c0-.4-.8-.4-1.2-.4h-2.1Z" class="g5_202"/>
<path d="M424.5 482.7c-.4 .4-.8 .4-1.2 .8H422c-.8 0-1.6 0-2.1-.4c-.4-.4-.4-.8-.4-1.6v-.9q.4-.4 .9-.8h.8c0-.4 .4-.4 .8-.4c1.3 0 1.7 0 2.1-.4v-1.3c-.4-.4-.8-.4-1.7-.4c-.4 0-.8 0-1.2 .4c0 0-.4 .4-.4 .9h-1.3c.4-.5 .4-.9 .9-1.3c0-.4 .4-.4 .8-.8h2.9c.4 .4 .8 .4 .8 .4c.4 .4 .4 .8 .4 .8v5c.5 0 .5 .4 .5 .8h-1.3Zm-.4-2.9c-.4 .4-.8 .4-1.7 .4c-.4 .4-.8 .4-1.2 .4c0 0 0 .5-.4 .5v.4c0 .4 0 .8 .4 .8c0 .4 .4 .4 .8 .4c.4 0 .9 0 1.3-.4c.4 0 .8-.4 .8-.8v-1.3Z" class="g5_202"/>
<path d="M426.6 481.5l1.2-.4c0 .4 .4 .8 .9 1.2c0 0 .4 .4 1.2 .4c.4 0 .8-.4 .8-.4q.5-.4 .5-.8v-.4c-.5-.5-.9-.5-1.3-.5c-.8-.4-1.7-.4-2.1-.8l-.4-.4c-.4-.4-.4-.8-.4-.8v-1.3c.4 0 .4-.4 .8-.4c0 0 .4-.4 .9-.4h2c.5 .4 .9 .4 1.3 .8c0 0 0 .4 .4 .8l-1.2 .5c0-.5-.5-.9-.5-.9c-.4-.4-.8-.4-1.2-.4c-.4 0-.8 0-1.3 .4v.9l.5 .4c0 0 .4 0 1.2 .4c.8 0 1.3 .4 1.7 .4c.4 0 .4 .4 .8 .4v1.3c0 .4 0 .8-.4 .8c0 .4-.4 .8-.8 .8c-.5 .4-.9 .4-1.3 .4c-1.2 0-1.7 0-2.1-.4c-.4-.4-.8-.8-1.2-1.6Z" class="g5_202"/>
<path d="M438.6 481.1l1.3 .4c-.4 .4-.4 1.2-1.3 1.6c-.4 .4-.8 .4-1.6 .4c-1.3 0-2.1-.4-2.5-.8c-.9-.8-.9-1.6-.9-2.5c0-1.2 0-2.1 .9-2.9c.4-.4 1.2-.8 2.1-.8c1.2 0 1.6 0 2.4 .8c.5 .8 .9 1.7 .9 2.5v.4h-5c0 .9 0 1.3 .4 1.7c.4 .4 .8 .8 1.7 .8c.4 0 .8-.4 .8-.4c.4-.4 .8-.4 .8-1.2m-3.7-1.7h3.7c0-.8 0-1.3-.4-1.3c-.4-.4-.8-.8-1.6-.8c-.5 0-.9 0-1.3 .4c-.4 .4-.4 .9-.4 1.7Z" class="g5_202"/>
<path d="M444.4 479.8c0-1.2 .5-2.1 1.3-2.5c.4-.8 1.2-.8 2.1-.8c.8 0 1.6 0 2.4 .8c.5 .4 .9 1.7 .9 2.5c0 .8-.4 1.7-.4 2.1c-.5 .4-.9 .8-1.3 1.2c-.4 .4-1.2 .4-1.6 .4c-.9 0-1.7-.4-2.5-.8c-.4-.8-.9-1.6-.9-2.9m1.3 0c0 1.3 .4 1.7 .8 2.1c0 .4 .8 .8 1.3 .8c.4 0 1.2-.4 1.6-.8c0-.4 .4-1.3 .4-2.1c0-.8-.4-1.2-.4-1.7c-.4-.4-1.2-.8-1.6-.8c-.5 0-1.3 .4-1.3 .8c-.4 .5-.8 .9-.8 1.7Z" class="g5_202"/>
<path d="M452.7 483.5v-6.2h-1.2v-.8h1.2v-1.7c0-.4 .5-.4 .5-.8c.4 0 .8-.4 1.2-.4c.4 0 .8 0 1.2 .4v.8h-.8c-.4 0-.8 0-.8 .4v1.3h1.2v.8H454v6.2Z" class="g5_202"/>
<path d="M462.3 482.3v1.2h-.8c-.5 0-.9 0-.9-.4q-.4 0-.4-.4c0 0-.4-.4-.4-1.2v-4.2H459v-.8h.8v-1.7l1.2-.8v2.5h1.3v.8H461v5h.9Z" class="g5_202"/>
<path d="M463.1 479.8c0-1.2 .4-2.1 .8-2.5c.9-.8 1.3-.8 2.1-.8c1.3 0 2.1 0 2.5 .8c.8 .4 .8 1.7 .8 2.5c0 .8 0 1.7-.4 2.1c0 .4-.4 .8-.8 1.2c-.8 .4-1.2 .4-2.1 .4c-.8 0-1.6-.4-2.1-.8c-.8-.8-.8-1.6-.8-2.9m1.3 0c0 1.3 0 1.7 .4 2.1c.4 .4 .8 .8 1.2 .8c.9 0 1.3-.4 1.7-.8c.4-.4 .4-1.3 .4-2.1c0-.8 0-1.2-.4-1.7c-.4-.4-.8-.8-1.7-.8c-.4 0-.8 .4-1.2 .8c-.4 .5-.4 .9-.4 1.7Z" class="g5_202"/>
<path d="M471 483.5v-7h.8v.8c.4-.4 1.3-.8 2.1-.8h1.3c.4 .4 .8 .4 .8 .8c0 0 .4 .4 .4 .8v5.4h-1.2v-5.4c0-.4-.5-.4-.5-.4q-.4-.4-.8-.4c-.4 0-.8 .4-1.2 .4c-.5 .4-.9 1.3-.9 2.1v3.7Z" class="g5_202"/>
<path d="M478.1 484h1.2c0 .4 0 .8 .4 .8c0 .4 .4 .4 .9 .4c.8 0 1.2 0 1.2-.4c.4 0 .8-.4 .8-.8v-1.3c-.4 .4-1.2 .8-2 .8c-.9 0-1.7-.4-2.1-1.2c-.4-.4-.9-1.2-.9-2.5c0-.4 .5-1.2 .5-1.7c.4-.4 .8-.8 1.2-1.2c.4-.4 .8-.4 1.3-.4c.8 0 1.6 .4 2 .8v-.8h1.3v5.8c0 1.2 0 2.1-.4 2.5c0 .4-.5 .8-.9 .8c-.8 .4-1.2 .4-2 .4c-.9 0-1.3 0-1.7-.4c-.8-.4-.8-.8-.8-1.6m.8-4.2c0 .8 .4 1.7 .4 2.1c.4 .4 .8 .4 1.7 .4c.4 0 .8 0 1.2-.4c.4-.4 .4-1.3 .4-2.1c0-.8 0-1.2-.4-1.7c-.4-.4-.8-.8-1.2-.8c-.9 0-1.3 .4-1.7 .8c0 .5-.4 .9-.4 1.7Z" class="g5_202"/>
<path d="M490.1 483.5v-1.2c-.4 .8-1.2 1.2-2.1 1.2h-1.2q-.4-.4-.9-.8c0 0-.4-.4-.4-.8v-5.4h1.3v5c0 .4 .4 .8 .4 .8c.4 0 .4 .4 .8 .4c.4 0 .9-.4 1.3-.4c0 0 .4-.4 .4-.8c.4-.4 .4-.9 .4-1.3v-3.7h1.2v7Z" class="g5_202"/>
<path d="M497.6 481.1l1.2 .4c0 .4-.4 1.2-.8 1.6c-.8 .4-1.3 .4-2.1 .4c-1.2 0-1.7-.4-2.5-.8c-.4-.8-.8-1.6-.8-2.5c0-1.2 .4-2.1 .8-2.9c.8-.4 1.3-.8 2.5-.8c.8 0 1.7 0 2.1 .8c.8 .8 .8 1.7 .8 2.5v.4h-5c0 .9 .4 1.3 .4 1.7c.5 .4 1.3 .8 1.7 .8c.4 0 .8-.4 1.3-.4c0-.4 .4-.4 .4-1.2m-3.8-1.7h3.8c0-.8 0-1.3-.4-1.3c-.5-.4-.9-.8-1.3-.8c-.4 0-1.2 0-1.2 .4c-.5 .4-.9 .9-.9 1.7Z" class="g5_202"/>
<path d="M410.8 493.5h1.3c0 .4 0 .8 .4 1.3c0 .4 .4 .4 .8 .8h2.5c.4 0 .8-.4 .8-.8c.4 0 .4-.5 .4-.9c0 0 0-.4-.4-.4c0-.4-.4-.4-.8-.8c0 0-.8 0-1.7-.4c-.8 0-1.2-.4-1.6-.4c-.4-.5-.9-.9-1.3-.9v-1.2c0-.4 0-1.3 .4-1.7c0-.4 .5-.4 1.3-.8c.4 0 .8-.4 1.7-.4c.4 0 1.2 .4 1.6 .4c.8 .4 1.3 .8 1.3 1.2c.4 .4 .4 .9 .4 1.3h-1.3c0-.4 0-.9-.4-1.3c-.4-.4-.8-.4-1.6-.4c-.9 0-1.3 0-1.7 .4c-.4 .4-.4 .9-.4 1.3v.8c.4 0 1.2 .4 2.1 .4c1.2 .4 1.6 .4 2 .9c.4 0 .9 .4 1.3 .8c.4 .4 .4 .8 .4 1.2c0 .4 0 1.3-.4 1.7c-.4 .4-.9 .8-1.3 .8c-.4 .4-1.2 .4-1.6 .4c-1.3 0-1.7 0-2.5-.4c-.4 0-.9-.4-1.3-1.2c-.4-.4-.4-.9-.4-1.7Z" class="g5_202"/>
<path d="M419.5 493.1c0-1.2 .4-2.1 .9-2.5c.8-.8 1.2-.8 2.5-.8c.8 0 1.6 0 2 .8c.9 .4 .9 1.7 .9 2.5c0 .8 0 1.7-.5 2.1c0 .4-.4 .8-.8 1.2c-.8 .4-1.2 .4-1.6 .4c-1.3 0-2.1-.4-2.5-.8c-.9-.8-.9-1.7-.9-2.9m1.3 0c0 1.2 0 1.7 .4 2.1c.4 .4 .8 .8 1.7 .8c.4 0 .8-.4 1.2-.8c.4-.4 .4-1.3 .4-2.1c0-.8 0-1.2-.4-1.7c-.4-.4-.8-.8-1.2-.8c-.9 0-1.3 .4-1.7 .8c-.4 .5-.4 .9-.4 1.7Z" class="g5_202"/>
<path d="M427.4 496.8v-6.2h-.8v-.8h.8v-.9c0-.4 0-.8 .4-.8q0-.4 .4-.8c.5 0 .9-.4 1.3-.4c.4 0 .8 0 .8 .4v.8h-.8c0 0-.4 0-.4 .4c-.4 0-.4 .4-.4 .9v.4h1.2v.8h-1.2v6.2Z" class="g5_202"/>
<path d="M433.6 495.6v1.2h-.8c-.4 0-.8 0-.8-.4q-.4 0-.8-.4v-5.4h-.9v-.8h.9v-1.7l1.2-.8v2.5h1.2v.8h-1.2v5h.4Z" class="g5_202"/>
<path d="M438.2 499.3v-9.5h1.3v.8c0-.4 .4-.4 .8-.8h1.2c.4 0 .9 0 1.3 .4c.4 .4 .8 .8 1.2 1.2c0 .5 .4 1.3 .4 1.7c0 .8-.4 1.7-.4 2.1c-.4 .4-.8 .8-1.2 1.2c-.4 .4-.9 .4-1.7 .4c0 0-.4 0-.8-.4q-.4 0-.8-.4v3.3Zm1.3-6.2c0 1.2 0 1.7 .4 2.1c.4 .4 .8 .8 1.2 .8c.8 0 1.3-.4 1.3-.8c.4-.4 .8-1.3 .8-2.1c0-.8-.4-1.2-.4-1.7c-.4-.8-.9-.8-1.7-.8c-.4 0-.8 0-1.2 .8c-.4 .5-.4 .9-.4 1.7Z" class="g5_202"/>
<path d="M450.2 496c-.4 .4-.8 .4-1.2 .8h-1.2c-.9 0-1.3 0-1.7-.4c-.4-.4-.8-.8-.8-1.6c0 0 0-.5 .4-.9c0-.4 .4-.4 .4-.8h.8c.4-.4 .9-.4 1.3-.4c.8 0 1.6 0 2-.4v-.4c0-.5-.4-.9-.4-.9c-.4-.4-.8-.4-1.2-.4c-.8 0-1.3 0-1.3 .4c-.4 0-.4 .4-.8 .9h-.8c0-.5 0-.9 .4-1.3c0-.4 .4-.4 .8-.8h3.3c0 .4 .5 .4 .5 .4c.4 .4 .4 .8 .4 .8c0 .4 .4 .9 .4 1.3v4.5h-1.3Zm0-2.9c-.4 .4-1.2 .4-2 .4c-.4 .4-.9 .4-.9 .4c-.4 0-.4 .4-.4 .4c-.4 0-.4 .5-.4 .5c0 .4 0 .8 .4 .8q.4 .4 .9 .4c.8 0 1.2 0 1.2-.4c.4 0 .8-.4 .8-.8c.4 0 .4-.5 .4-1.3Z" class="g5_202"/>
<path d="M453.2 487.3h1.2v9.5h-1.2v-9.5Z" class="g5_202"/>
<path d="M453.2 487.3h1.2v9.5h-1.2v-9.5Z" class="g6_202"/>
<path d="M460.6 496c-.4 .4-.8 .4-1.2 .8h-1.3c-.8 0-1.6 0-2-.4c0-.4-.5-.8-.5-1.6c0 0 0-.5 .5-.9q0-.4 .4-.8h.8q.4-.4 1.3-.4c.8 0 1.6 0 2-.4v-.4c0-.5-.4-.9-.4-.9c-.4-.4-.8-.4-1.2-.4c-.9 0-1.3 0-1.3 .4c-.4 0-.4 .4-.8 .9h-.8c0-.5 0-.9 .4-1.3c0-.4 .4-.4 .8-.8h2.9c.4 .4 .8 .4 .8 .4c.5 .4 .5 .8 .5 .8v2.9c0 .9 0 1.7 .4 2.1v.8h-1.3Zm0-2.9c-.4 .4-1.2 .4-2 .4c-.5 .4-.9 .4-.9 .4c-.4 0-.4 .4-.8 .4v.5c0 .4 0 .8 .4 .8c0 .4 .4 .4 .8 .4c.5 0 .9 0 1.3-.4c.4 0 .8-.4 .8-.8c0 0 .4-.5 .4-1.3Z" class="g5_202"/>
<path d="M466 495.6v1.2h-.8c-.4 0-.8 0-.8-.4q-.5 0-.5-.4c-.4 0-.4-.4-.4-1.2v-4.2h-.8v-.8h.8v-1.7l1.3-.8v2.5H466v.8h-1.2v5h.8Z" class="g5_202"/>
<path d="M471.8 494.3l1.3 .5c-.4 .4-.4 1.2-1.3 1.6c-.4 .4-.8 .4-1.6 .4c-1.3 0-2.1-.4-2.5-.8c-.8-.8-.8-1.7-.8-2.5c0-1.2 0-2.1 .8-2.9c.4-.4 1.2-.8 2.1-.8c1.2 0 2 0 2.4 .8c.5 .8 .9 1.7 .9 2.5v.4h-5c0 .8 0 1.3 .4 1.7c.4 .4 .8 .8 1.7 .8c.4 0 .8-.4 .8-.4c.4-.4 .8-.4 .8-1.3m-3.7-1.6h3.7c0-.8 0-1.3-.4-1.3c-.4-.4-.8-.8-1.2-.8c-.9 0-1.3 0-1.7 .4c-.4 .4-.4 .9-.4 1.7Z" class="g5_202"/>
<path d="M413.7 510.1v-8.7h-3.3v-.8h7.5v.8H415v8.7Z" class="g5_202"/>
<path d="M413.7 510.1v-8.7h-3.3v-.8h7.5v.8H415v8.7h-1.3Z" class="g6_202"/>
<path d="M417 506.4c0-1.3 .5-2.1 1.3-2.5c.4-.8 1.2-.8 2.1-.8c.8 0 1.6 0 2.5 .8c.4 .4 .8 1.7 .8 2.5c0 .8 0 1.6-.4 2.1c-.4 .4-.9 .8-1.3 1.2c-.4 .4-.8 .4-1.6 .4c-.9 0-1.7-.4-2.1-.8c-.8-.8-1.3-1.7-1.3-2.9m1.3 0c0 1.2 .4 1.6 .8 2.1c.4 .4 .8 .8 1.3 .8c.8 0 1.2-.4 1.6-.8c.4-.5 .4-1.3 .4-2.1c0-.8 0-1.3-.4-1.7c-.4-.4-.8-.8-1.6-.8c-.5 0-.9 .4-1.3 .8c-.4 .4-.8 .9-.8 1.7Z" class="g5_202"/>
<path d="M424.9 510.1v-7h1.3v.8c.4-.4 1.2-.8 2-.8h1.3q.4 .4 .8 .8c0 0 0 .4 .4 .8v5.4h-1.2v-5.4q-.4-.4-.8-.4c0-.4-.5-.4-.9-.4c-.4 0-.8 .4-1.2 .4c0 .4-.4 1.3-.4 2.1v3.7Z" class="g5_202"/>
<path d="M432 508l1.2-.4c0 .4 0 .9 .4 1.3c.5 0 .9 .4 1.3 .4c.4 0 .8-.4 1.2-.4q.5-.4 .5-.9q0-.4-.5-.4c0-.4-.4-.4-1.2-.4c-.8-.4-1.3-.4-1.7-.8c-.4 0-.8-.4-.8-.4c0-.4-.4-.9-.4-.9c0-.4 .4-.8 .4-1.2l.4-.4c.4 0 .4-.4 .8-.4h2.5c.5 .4 .9 .4 .9 .8c.4 0 .4 .4 .4 .8l-1.3 .4c0-.4 0-.8-.4-.8c0-.4-.4-.4-.8-.4q-.8 0-1.3 .4c-.4 0-.4 .4-.4 .4v.4c.4 0 .4 .5 .9 .5c0 0 .4 0 .8 .4c.8 0 1.2 .4 1.7 .4c.4 0 .8 .4 .8 .4c0 .4 .4 .8 .4 1.2c0 .5-.4 .9-.4 .9c-.4 .4-.4 .8-.8 .8c-.9 .4-1.3 .4-1.7 .4c-.8 0-1.7 0-2.1-.4c-.4-.4-.8-.8-.8-1.7Z" class="g5_202"/>
<path d="M439 500.6h1.3v1.2H439v-1.2Zm0 2.5h1.3v7H439v-7Z" class="g5_202"/>
<path d="M439 500.6h1.3v1.2H439v-1.2Zm0 2.5h1.3v7H439v-7Z" class="g6_202"/>
<path d="M441.9 500.6h1.3v9.5h-1.3v-9.5Z" class="g5_202"/>
<path d="M441.9 500.6h1.3v9.5h-1.3v-9.5Z" class="g6_202"/>
<path d="M444.9 500.6h1.2v9.5h-1.2v-9.5Z" class="g5_202"/>
<path d="M444.9 500.6h1.2v9.5h-1.2v-9.5Z" class="g6_202"/>
<path d="M452.3 509.3c-.4 .4-.8 .4-1.2 .8h-1.3c-.8 0-1.2 0-1.6-.4c-.4-.4-.9-.8-.9-1.7c0 0 .5-.4 .5-.8c0-.4 .4-.4 .4-.8h.8c.4-.4 .8-.4 1.2-.4c.9 0 1.7 0 2.1-.4v-.5c0-.4 0-.8-.4-.8c-.4-.4-.8-.4-1.2-.4c-.5 0-.9 0-1.3 .4c-.4 0-.4 .4-.4 .8h-1.2c0-.4 .4-.8 .4-1.2c.4-.4 .8-.4 1.2-.8h2.9q.4 .4 .9 .4c0 .4 .4 .8 .4 .8v5c0 0 0 .4 .4 .8h-1.3c-.4-.4-.4-.8-.4-.8m0-2.9c-.4 .4-1.2 .4-2.1 .4c-.4 .4-.8 .4-.8 .4c-.4 0-.4 .4-.4 .4l-.4 .4c0 .5 .4 .9 .4 .9c.4 .4 .8 .4 1.2 .4c.5 0 .9 0 1.3-.4c.4 0 .4-.4 .8-.9v-1.2Z" class="g5_202"/>
<path d="M455.2 510.1v-7h1.3v1.2c0-.8 .4-.8 .4-1.2h.8c.4 0 .9 0 1.3 .4l-.4 .8h-1.7q0 .4-.4 .8v5Z" class="g5_202"/>
<path d="M463.5 512.6v-9.5h.9v.8c.4-.4 .8-.4 .8-.8h1.2c.9 0 1.3 0 1.7 .4c.4 .4 .8 .8 .8 1.2c.4 .4 .4 1.3 .4 1.7c0 .8 0 1.6-.4 2.1c0 .4-.4 .8-.8 1.2c-.8 .4-1.2 .4-1.7 .4c-.4 0-.8 0-1.2-.4c0 0-.4 0-.4-.4v3.3Zm.9-6.2c0 1.2 .4 1.6 .8 2.1c0 .4 .4 .8 1.2 .8c.5 0 .9-.4 1.3-.8c.4-.5 .4-1.3 .4-2.1c0-.8 0-1.3-.4-1.7c-.4-.8-.8-.8-1.3-.8c-.4 0-.8 0-1.2 .8c-.4 .4-.8 .9-.8 1.7Z" class="g5_202"/>
<path d="M471 500.6h.8v1.2H471v-1.2Zm0 2.5h.8v7H471v-7Z" class="g5_202"/>
<path d="M471 500.6h.8v1.2H471v-1.2Zm0 2.5h.8v7H471v-7Z" class="g6_202"/>
<path d="M473.9 500.6h.8v9.5h-.8v-9.5Z" class="g5_202"/>
<path d="M473.9 500.6h.8v9.5h-.8v-9.5Z" class="g6_202"/>
<path d="M476.8 500.6h.8v9.5h-.8v-9.5Z" class="g5_202"/>
<path d="M476.8 500.6h.8v9.5h-.8v-9.5Z" class="g6_202"/>
<path d="M484.3 509.3c-.4 .4-.8 .4-1.3 .8h-1.2c-.8 0-1.7 0-2.1-.4c-.4-.4-.4-.8-.4-1.7v-.8q.4-.4 .8-.8h.9c0-.4 .4-.4 .8-.4c1.2 0 1.7 0 2.1-.4v-1.3c-.4-.4-.9-.4-1.7-.4c-.4 0-.8 0-.8 .4c-.4 0-.8 .4-.8 .8h-1.3c.4-.4 .4-.8 .8-1.2c0-.4 .5-.4 .9-.8h2.9c.4 .4 .8 .4 .8 .4c.4 .4 .4 .8 .4 .8v5c.4 0 .4 .4 .4 .8h-1.2Zm-.4-2.9c-.4 .4-.9 .4-1.7 .4c-.4 .4-.8 .4-1.2 .4c0 0 0 .4-.4 .4v.4c0 .5 0 .9 .4 .9c0 .4 .4 .4 .8 .4c.4 0 .8 0 1.2-.4c.5 0 .9-.4 .9-.9v-1.2Z" class="g5_202"/>
<path d="M487.2 510.1v-7h.8v1.2q.4-.8 .9-1.2h.8c.4 0 .8 0 1.2 .4l-.4 .8h-1.6q-.5 .4-.5 .8c0 .5-.4 .9-.4 1.3v3.7Z" class="g5_202"/>
<path d="M415.4 522.6c-.4 .4-.8 .4-1.3 .8h-1.2c-.8 0-1.3 0-1.7-.4c-.4-.4-.4-.8-.4-1.7v-.8c0-.4 .4-.4 .8-.8h.9c0-.4 .4-.4 .8-.4c.8 0 1.7 0 2.1-.5v-.4c0-.4 0-.8-.4-.8c0-.4-.9-.4-1.3-.4c-.4 0-.8 0-1.2 .4c0 0-.4 .4-.4 .8h-1.3c0-.4 .4-.8 .4-1.2c.4-.4 .9-.4 1.3-.8h2.9q.4 .4 .8 .4c0 .4 .4 .8 .4 .8v5c0 0 0 .4 .4 .8h-1.2c0-.4-.4-.8-.4-.8m0-2.9c-.4 .4-.8 .4-2.1 .4c-.4 .4-.8 .4-.8 .4l-.4 .4v1.3c.4 .4 .8 .4 1.2 .4c.4 0 .8 0 1.3-.4c.4 0 .4-.4 .8-.9v-1.2Z" class="g5_202"/>
<path d="M418.3 523.4v-7h1.2v.8c.4-.4 1.3-.8 2.1-.8h1.3q.4 .4 .8 .8c0 0 0 .4 .4 .8v5.4h-1.2V518q-.5-.4-.9-.4c0-.4-.4-.4-.8-.4c-.4 0-.8 .4-1.3 .4c0 .4-.4 1.2-.4 2.1v3.7Z" class="g5_202"/>
<path d="M430.3 523.4v-.8c-.4 .4-1.2 .8-2.1 .8c-.4 0-.8 0-1.2-.4c-.8-.4-.8-.8-1.2-1.2c-.5-.5-.5-1.3-.5-2.1c0-.4 0-1.3 .5-1.7c0-.4 .4-.8 .8-1.2c.4-.4 1.2-.4 1.6-.4h1.3q.4 .4 .8 .8v-3.3h.9v9.5Zm-3.7-3.7c0 1.2 0 1.6 .4 2.1c.4 .4 .8 .8 1.2 .8c.9 0 1.3-.4 1.7-.8c0-.5 .4-.9 .4-1.7c0-1.3-.4-1.7-.4-2.1c-.4-.4-.8-.8-1.7-.8c-.4 0-.8 .4-1.2 .8c-.4 .4-.4 .8-.4 1.7Z" class="g5_202"/>
<path d="M437 523.4v-6.2h-.9v-.8h.9v-.9c0-.4 .4-.8 .4-.8q0-.4 .4-.8c.4 0 .8-.5 1.2-.5c.5 0 .9 0 1.3 .5l-.4 .8h-.4c-.5 0-.9 0-.9 .4c-.4 0-.4 .4-.4 .8v.5h1.3v.8h-1.3v6.2Z" class="g5_202"/>
<path d="M440.3 519.7c0-1.3 0-2.1 .8-2.5c.8-.8 1.3-.8 2.1-.8c1.2 0 2.1 0 2.5 .8c.4 .4 .8 1.6 .8 2.5c0 .8 0 1.6-.4 2.1c0 .4-.4 .8-1.2 1.2c-.5 .4-.9 .4-1.7 .4c-.8 0-1.7-.4-2.1-.8c-.8-.8-.8-1.7-.8-2.9m.8 0c0 1.2 .4 1.6 .8 2.1c.5 .4 .9 .8 1.3 .8c.8 0 1.2-.4 1.7-.8c.4-.5 .4-1.3 .4-2.1c0-.9 0-1.3-.4-1.7c-.5-.4-.9-.8-1.7-.8c-.4 0-.8 .4-1.3 .8c-.4 .4-.8 .8-.8 1.7Z" class="g5_202"/>
<path d="M447.3 521.3l1.3-.4c0 .4 .4 .9 .4 1.3c.4 0 .8 .4 1.2 .4c.9 0 1.3-.4 1.3-.4q.4-.4 .4-.9q0-.4-.4-.4c0-.4-.4-.4-1.3-.4c-.8-.4-1.2-.4-1.6-.8c-.4 0-.4-.4-.8-.4v-2.1c.4 0 .4-.4 .8-.4l.4-.4h2.5c.4 .4 .8 .4 .8 .8c.4 0 .4 .4 .4 .8l-.8 .4c0-.4-.4-.8-.4-.8c-.4-.4-.8-.4-1.3-.4c-.4 0-.8 0-1.2 .4l-.4 .4c0 .4 .4 .4 .4 .4c0 0 0 .4 .4 .4c0 0 .4 0 .8 .5c.9 0 1.7 .4 2.1 .4l.4 .4c.5 .4 .5 .8 .5 1.2c0 .5 0 .9-.5 .9c0 .4-.4 .8-.8 .8c-.4 .4-.8 .4-1.7 .4c-.8 0-1.2 0-2-.4c-.4-.4-.4-.8-.9-1.7Z" class="g5_202"/>
<path d="M454 521.3l1.2-.4c0 .4 .4 .9 .4 1.3c.5 0 .9 .4 1.3 .4c.8 0 1.2-.4 1.2-.4q.5-.4 .5-.9q0-.4-.5-.4c0-.4-.4-.4-1.2-.4c-.8-.4-1.3-.4-1.7-.8c-.4 0-.4-.4-.8-.4v-2.1c.4 0 .4-.4 .8-.4l.4-.4h2.5c.5 .4 .9 .4 .9 .8c.4 0 .4 .4 .4 .8l-.8 .4c0-.4-.5-.8-.5-.8c-.4-.4-.8-.4-1.2-.4c-.4 0-.8 0-1.3 .4l-.4 .4c0 .4 .4 .4 .4 .4c0 0 0 .4 .5 .4c0 0 .4 0 .8 .5c.8 0 1.7 .4 2.1 .4l.4 .4c.4 .4 .4 .8 .4 1.2c0 .5 0 .9-.4 .9c0 .4-.4 .8-.8 .8c-.5 .4-.9 .4-1.7 .4c-.8 0-1.3 0-2.1-.4c-.4-.4-.4-.8-.8-1.7Z" class="g5_202"/>
<path d="M465.6 522.6c-.4 .4-.8 .4-1.2 .8h-1.3c-.8 0-1.2 0-1.6-.4c-.5-.4-.9-.8-.9-1.7c0 0 .4-.4 .4-.8c0-.4 .5-.4 .5-.8h1.2c0-.4 .4-.4 .8-.4c.9 0 1.7 0 2.1-.5v-.4c0-.4 0-.8-.4-.8c0-.4-.8-.4-1.3-.4c-.4 0-.8 0-1.2 .4c-.4 0-.4 .4-.4 .8H461c0-.4 .5-.8 .5-1.2c.4-.4 .8-.4 1.2-.8h2.9q.4 .4 .8 .4c0 .4 .5 .8 .5 .8v5c0 0 0 .4 .4 .8H466c0-.4-.4-.8-.4-.8m0-2.9c-.4 .4-1.2 .4-2.1 .4c-.4 .4-.8 .4-.8 .4l-.4 .4l-.4 .4c0 .5 .4 .9 .4 .9c.4 .4 .8 .4 1.2 .4c.4 0 .9 0 1.3-.4c.4 0 .4-.4 .8-.9v-1.2Z" class="g5_202"/>
<path d="M64.6 391.8v-9.6h1.3v8.7h4.5v.9Z" class="g5_202"/>
<path d="M64.6 391.8v-9.6h1.3v8.7h4.5v.9H64.6Z" class="g6_202"/>
<path d="M72.1 382.2h1.2v1.7H72.1v-1.7Zm0 2.9h1.2v6.7H72.1v-6.7Z" class="g5_202"/>
<path d="M72.1 382.2h1.2v1.7H72.1v-1.7Zm0 2.9h1.2v6.7H72.1v-6.7Z" class="g6_202"/>
<path d="M75 394.7v-9.6h.8v.9c.4-.5 .9-.9 .9-.9c.4 0 .8-.4 1.2-.4c.8 0 1.3 .4 1.7 .4c.4 .4 .8 .9 .8 1.7c.4 .4 .4 .8 .4 1.6c0 .9 0 1.3-.4 2.1c0 .4-.4 .8-.8 1.3c-.9 0-1.3 .4-1.7 .4c-.4 0-.8 0-1.2-.4l-.5-.5v3.4Zm.8-6.3c0 .9 .4 1.7 .9 2.1c.4 .4 .8 .4 1.2 .4c.4 0 .8 0 1.3-.4c.4-.4 .4-1.2 .4-2.1c0-.8 0-1.6-.4-2c-.5-.4-.9-.4-1.3-.4c-.4 0-.8 0-1.2 .4c-.5 .4-.9 1.2-.9 2Z" class="g5_202"/>
<path d="M64.6 405.1v-9.6h3.8c.4 0 1.2 .4 1.6 .4c.4 .4 .9 .4 .9 .8c.4 .5 .4 .9 .4 1.3v1.2c-.4 .5-.9 .9-1.3 .9c.9 .4 1.3 .4 1.3 .8c.4 .4 .4 .8 .4 1.7v1.2q-.4 .4-.8 .8c-.5 0-.5 .5-.9 .5H68.4Zm1.3-5.4h3.3c.4 0 .4-.5 .8-.5v-1.6q-.4-.4-.8-.9H65.9Zm0 4.5h3.3q.4-.4 .8-.4l.4-.4v-2.1c-.4 0-.4-.4-.8-.4H65.9Z" class="g5_202"/>
<path d="M77.9 405.1v-.9c-.4 .9-1.2 1.3-2.1 1.3c-.4 0-.8 0-1.2-.4c-.4 0-.4-.5-.8-.5c0-.4 0-.8-.5-.8v-5.4h1.3v5c0 .4 .4 .4 .4 .8h2.1q.4-.4 .4-.8c.4-.4 .4-.8 .4-1.3v-3.7h1.3v6.7Z" class="g5_202"/>
<path d="M85.4 402.6l1.2 .4c-.4 .8-.4 1.2-1.2 1.6c-.4 .5-.8 .9-1.7 .9c-1.2 0-1.6-.4-2.5-1.3c-.4-.4-.8-1.2-.8-2.5c0-.8 0-1.2 .4-2c.4-.5 .8-.9 1.3-1.3c.4 0 .8-.4 1.6-.4c.9 0 1.3 .4 1.7 .8c.4 .4 .8 .9 .8 1.7h-.8c-.4-.4-.4-.8-.8-.8c0-.5-.5-.5-.9-.5c-.8 0-1.2 0-1.6 .5c0 .4-.5 1.2-.5 2c0 .9 .5 1.7 .5 2.1c.4 .4 .8 .4 1.6 .4c.4 0 .9 0 .9-.4c.4 0 .8-.4 .8-1.2Z" class="g5_202"/>
<path d="M92 402.6l1.3 .4c-.4 .8-.4 1.2-1.3 1.6c-.4 .5-.8 .9-1.6 .9c-1.3 0-1.7-.4-2.5-1.3c-.4-.4-.9-1.2-.9-2.5c0-.8 0-1.2 .5-2c.4-.5 .8-.9 1.2-1.3c.4 0 .8-.4 1.7-.4c.8 0 1.2 .4 1.6 .8c.4 .4 .9 .9 .9 1.7H92c-.4-.4-.4-.8-.8-.8c0-.5-.4-.5-.8-.5c-.9 0-1.3 0-1.7 .5c0 .4-.4 1.2-.4 2c0 .9 .4 1.7 .4 2.1c.4 .4 .8 .4 1.7 .4c.4 0 .8 0 .8-.4c.4 0 .8-.4 .8-1.2Z" class="g5_202"/>
<path d="M98.7 404.2c-.5 .4-.9 .9-1.3 .9c-.4 .4-.8 .4-1.2 .4c-.9 0-1.3-.4-1.7-.9c-.4-.4-.8-.8-.8-1.2c0-.4 0-.8 .4-.8c0-.5 .4-.5 .4-.9c.4 0 .4-.4 .8-.4h1.3c.8 0 1.6-.4 2.1-.4v-.4c0-.4-.5-.8-.5-.8c-.4-.5-.8-.5-1.2-.5H95.8c-.5 .5-.5 .9-.9 1.3l-.8-.4c0-.4 0-.9 .4-.9c0-.4 .4-.8 .8-.8c.5 0 1.3-.4 1.7-.4c.4 0 1.2 .4 1.7 .4l.4 .4q.4 .4 .4 .9v2.4c0 1.3 .4 2.1 .4 2.1v.9H98.7Zm0-2.5c-.5 0-1.3 .4-2.1 .4c-.4 0-.8 0-.8 .5q-.5 0-.9 .4v.4q0 .4 .4 .8c.5 0 .5 .4 .9 .4c.8 0 .8-.4 1.2-.4c.4-.4 .8-.4 .8-.8c0-.4 .5-.8 .5-1.3Z" class="g5_202"/>
<path d="M101.6 395.5h1.2v9.6h-1.2v-9.6Z" class="g5_202"/>
<path d="M101.6 395.5h1.2v9.6h-1.2v-9.6Z" class="g6_202"/>
<path d="M108.2 405.1v-6.7h.8v.8c.5-.4 .9-.4 .9-.8c.4 0 .8-.4 1.2-.4c.8 0 1.3 .4 1.3 .4c.4 .4 .8 .4 .8 .8c.4-.8 1.2-1.2 2.1-1.2c.8 0 1.2 .4 1.6 .8c.4 .4 .4 .9 .4 1.7v4.6h-.8v-4.2c0-.4-.4-.8-.4-1.2l-.4-.5h-.4c-.9 0-1.3 0-1.3 .5c-.4 .4-.4 .8-.4 1.6v3.8h-1.2v-4.2c0-.8-.5-1.2-.5-1.2c0-.5-.4-.5-.8-.5h-.8c-.4 .5-.8 .5-.8 .9v5Z" class="g5_202"/>
<path d="M123.6 405.1v-.9c-.4 .9-1.3 1.3-2.1 1.3c-.4 0-.8 0-1.3-.4c0 0-.4-.5-.8-.5v-.8c-.4-.4-.4-.8-.4-1.2v-4.2h1.2v5q.5 .4 .9 .8h1.6q.5-.4 .9-.8v-5h1.2v6.7Z" class="g5_202"/>
<path d="M131 402.6l1.3 .4c0 .8-.4 1.2-.8 1.6c-.9 .5-1.3 .9-2.1 .9c-.8 0-1.7-.4-2.1-1.3c-.8-.4-1.2-1.2-1.2-2.5c0-.8 .4-1.2 .4-2c.4-.5 .8-.9 1.2-1.3c.4 0 1.3-.4 1.7-.4c.8 0 1.2 .4 1.6 .8c.9 .4 .9 .9 1.3 1.7H131c0-.4-.4-.8-.4-.8c-.4-.5-.8-.5-1.2-.5c-.4 0-.8 0-1.3 .5c-.4 .4-.8 1.2-.8 2c0 .9 .4 1.7 .8 2.1c0 .4 .9 .4 1.3 .4c.4 0 .8 0 1.2-.4c0 0 .4-.4 .4-1.2Z" class="g5_202"/>
<path d="M132.7 401.7c0-1.2 .4-2 1.2-2.9c.5-.4 1.3-.8 2.1-.8c.9 0 1.7 .4 2.5 1.2c.4 .5 .8 1.3 .8 2.5c0 .9-.4 1.7-.4 2.1c-.4 .4-.8 .8-1.2 1.3c-.4 0-1.3 .4-1.7 .4c-.8 0-1.6-.4-2.5-1.3c-.4-.4-.8-1.2-.8-2.5m1.2 0c0 .9 .5 1.7 .9 2.1c0 .4 .8 .4 1.2 .4c.4 0 1.3 0 1.7-.4c0-.4 .4-1.2 .4-2.1c0-.8-.4-1.6-.4-2c-.4-.5-1.3-.5-1.7-.5c-.4 0-1.2 0-1.2 .5c-.4 .4-.9 1.2-.9 2Z" class="g5_202"/>
<path d="M140.2 403h1.2c0 .4 0 .8 .4 1.2h2.5c.4-.4 .4-.8 .4-.8q0-.4-.4-.8c0 0-.4 0-1.2-.5c-.9 0-1.3-.4-1.7-.4c-.4 0-.8-.4-.8-.8c0 0-.4-.4-.4-.8c0-.4 .4-.4 .4-.9c0-.4 .4-.4 .4-.4q.4-.4 .8-.4c.4-.4 .9-.4 1.3-.4c.4 0 .8 .4 1.2 .4c.4 0 .9 .4 .9 .4c.4 .4 .4 .9 .4 1.3h-1.3c0 0 0-.4-.4-.9h-2.1q-.4 .5-.4 .9c0 0 0 .4 .4 .4l.4 .4h.9c.8 .4 1.2 .4 1.6 .8c.5 0 .9 0 .9 .4c.4 .5 .4 .9 .4 .9c0 .4-.4 .8-.4 1.2c-.4 .4-.4 .9-.9 .9c-.4 0-1.2 .4-1.6 .4c-.9 0-1.7-.4-2.1-.9c-.4-.4-.8-.8-.8-1.6Z" class="g5_202"/>
<path d="M151.8 404.2c-.4 .4-.8 .9-1.2 .9c-.5 .4-.9 .4-1.3 .4c-.8 0-1.2-.4-1.7-.9c-.4-.4-.8-.8-.8-1.2c0-.4 0-.8 .4-.8c0-.5 .4-.5 .4-.9c.5 0 .5-.4 .9-.4h1.2c.9 0 1.7-.4 2.1-.4v-.4c0-.4-.4-.8-.4-.8c-.4-.5-.8-.5-1.3-.5h-1.2c-.4 .5-.4 .9-.8 1.3l-.9-.4c0-.4 0-.9 .4-.9c0-.4 .5-.8 .9-.8c.4 0 1.2-.4 1.6-.4c.9 0 1.3 .4 1.7 .4c0 0 .4 .4 .8 .4v.9c0 .4 .4 .4 .4 1.2v4.2h-1.2Zm0-2.5c-.4 0-1.2 .4-2.1 .4c-.4 0-.8 0-.8 .5q-.4 0-.4 .4q-.4 0-.4 .4q0 .4 .4 .8c.4 0 .4 .4 .8 .4c.8 0 1.3-.4 1.3-.4c.4-.4 .8-.4 .8-.8c.4-.4 .4-.8 .4-1.3Z" class="g5_202"/>
<path clip-path="url(#c1_202)" d="M63.8 418.3l3.7-9.5h1.3l3.7 9.5H71.3L70 415.4H65.9l-.9 2.9Zm2.5-3.7h3.3l-.8-2.5c-.4-.8-.9-1.6-.9-2.1c0 .5-.4 1.3-.4 1.7Z" class="g5_202"/>
<path d="M73.3 408.8h1.3v9.5H73.3v-9.5Z" class="g5_202"/>
<path d="M73.3 408.8h1.3v9.5H73.3v-9.5Z" class="g6_202"/>
<path d="M78.3 418.3l-2.5-6.6h1.3l1.2 4.2c.4 .4 .4 .8 .4 1.2c.5-.4 .5-.8 .5-1.2l1.6-4.2h1.3l-2.5 6.6Z" class="g5_202"/>
<path d="M87.9 416.3h1.2c-.4 .8-.8 1.2-1.2 1.6c-.4 .4-1.3 .9-2.1 .9c-.8 0-1.7-.5-2.1-1.3c-.8-.4-1.2-1.2-1.2-2.5c0-1.2 .4-2.1 1.2-2.5c.4-.8 1.3-1.2 2.1-1.2c.8 0 1.7 .4 2.5 1.2c.4 .4 .8 1.3 .8 2.5v.4H83.7c0 .9 .4 1.3 .9 1.7c.4 .4 .8 .4 1.2 .4H87c.5-.4 .5-.8 .9-1.2m-4.2-2.1h4.2c0-.4-.4-.8-.4-1.3c-.5-.4-.9-.4-1.7-.4c-.4 0-.8 0-1.2 .4c-.5 .5-.5 .9-.9 1.3Z" class="g5_202"/>
<path d="M89.9 415c0-1.2 .5-2.1 1.3-2.9c.4-.4 1.2-.8 2.1-.8c.8 0 1.6 .4 2 1.2c.9 .4 1.3 1.3 1.3 2.5c0 .9-.4 1.7-.4 2.1c-.4 .4-.9 .8-1.3 1.2c-.4 0-1.2 .5-1.6 .5c-.9 0-1.7-.5-2.5-1.3c-.4-.4-.9-1.2-.9-2.5m1.3 0c0 .9 0 1.7 .4 2.1c.4 .4 .8 .4 1.7 .4c.4 0 .8 0 1.2-.4c.4-.4 .8-1.2 .8-2.1c0-.8-.4-1.6-.8-2.1c-.4-.4-.8-.4-1.2-.4c-.9 0-1.3 0-1.7 .4c-.4 .5-.4 1.3-.4 2.1Z" class="g5_202"/>
<path d="M97.8 408.8h1.3v9.5H97.8v-9.5Z" class="g5_202"/>
<path d="M97.8 408.8h1.3v9.5H97.8v-9.5Z" class="g6_202"/>
<path d="M105.3 417.5c-.4 .4-.8 .8-1.2 .8c-.5 .5-.9 .5-1.3 .5c-.8 0-1.2-.5-1.6-.9c-.5-.4-.9-.8-.9-1.2c0-.4 0-.8 .4-.8c0-.5 .5-.5 .5-.9c.4 0 .4-.4 .8-.4h1.2c.9 0 1.7-.4 2.1-.4v-.4c0-.4-.4-.9-.4-.9c-.4-.4-.8-.4-1.3-.4h-1.2c-.4 .4-.4 .9-.8 1.3l-.9-.4c0-.5 0-.9 .5-.9c0-.4 .4-.8 .8-.8c.4 0 1.2-.4 1.6-.4c.5 0 1.3 .4 1.7 .4l.4 .4q.4 .4 .4 .8c0 .5 .5 .5 .5 1.3v4.1h-1.3Zm0-2.5c-.4 0-1.2 .4-2.1 .4c-.4 0-.8 0-.8 .5q-.4 0-.4 .4q-.4 0-.4 .4q0 .4 .4 .8c.4 0 .4 .4 .8 .4c.8 0 1.3-.4 1.3-.4c.4-.4 .8-.4 .8-.8c.4-.4 .4-.8 .4-1.3Z" class="g5_202"/>
<path d="M108.2 418.3v-6.6h.8v.8c.5-.4 .9-.8 .9-.8c.4 0 .4-.4 .8-.4c.4 0 .8 .4 1.2 .4l-.4 1.2q-.4-.4-.8-.4q-.4 0-.8 .4l-.4 .5v4.9Z" class="g5_202"/>
<path d="M116.1 418.3v-6.6h1.2v.8c.5-.4 .5-.8 .9-.8c0 0 .4-.4 .8-.4c0 0 .4 .4 .8 .4l-.4 1.2c0-.4-.4-.4-.8-.4c0 0-.4 0-.4 .4c-.4 0-.4 .5-.4 .5c-.5 .4-.5 .8-.5 1.6v3.3Z" class="g5_202"/>
<path d="M120.7 408.8h1.2v1.7h-1.2v-1.7Zm0 2.9h1.2v6.6h-1.2v-6.6Z" class="g5_202"/>
<path d="M120.7 408.8h1.2v1.7h-1.2v-1.7Zm0 2.9h1.2v6.6h-1.2v-6.6Z" class="g6_202"/>
<path d="M128.1 418.3v-.8c-.4 .8-1.2 1.3-2 1.3c-.5 0-.9-.5-1.3-.5c-.4-.4-.8-.8-1.2-1.2c-.4-.8-.4-1.2-.4-2.1c0-.8 0-1.2 .4-1.6c.4-.9 .4-1.3 .8-1.7c.8 0 1.2-.4 1.7-.4c.4 0 .8 .4 1.2 .4c.4 0 .4 .4 .8 .8v-3.7h1.3v9.5Zm-3.7-3.3c0 .9 0 1.7 .4 2.1c.4 .4 .8 .4 1.7 .4c.4 0 .8 0 1.2-.4c.4-.4 .4-1.2 .4-2.1c0-.8 0-1.6-.4-2.1c-.4-.4-.8-.4-1.6-.4c-.5 0-.9 0-1.3 .4c-.4 .5-.4 1.3-.4 2.1Z" class="g5_202"/>
<path d="M130.6 419.2h1.3c0 .4 .4 .8 .4 .8c.4 0 .8 .4 1.2 .4c.4 0 .9-.4 1.3-.4q.4-.4 .4-.8c.4-.4 .4-.9 .4-1.7c-.8 .8-1.2 .8-2.1 .8c-.8 0-1.6 0-2-.8c-.5-.8-.9-1.6-.9-2.5c0-.8 0-1.2 .4-1.6c0-.9 .5-1.3 .9-1.7c.4 0 1.2-.4 1.6-.4c.9 0 1.7 .4 2.1 1.2v-.8h1.3v5.8c0 1.3-.5 2.1-.5 2.5c-.4 .4-.8 .8-1.2 .8c-.4 .5-.8 .5-1.7 .5c-.8 0-1.6 0-2-.5c-.5-.4-.9-.8-.9-1.6m1.3-4.2c0 .9 0 1.7 .4 2.1c.4 .4 .8 .4 1.2 .4c.9 0 1.3 0 1.7-.4c0-.4 .4-1.2 .4-2.1c0-.8-.4-1.6-.4-2.1c-.4-.4-.8-.4-1.7-.4c-.4 0-.8 0-1.2 .4c-.4 .5-.4 1.3-.4 2.1Z" class="g5_202"/>
<path d="M143.1 416.3h1.2c0 .8-.4 1.2-1.2 1.6c-.4 .4-.9 .9-1.7 .9c-1.2 0-2.1-.5-2.5-1.3c-.4-.4-.8-1.2-.8-2.5c0-1.2 .4-2.1 .8-2.5c.4-.8 1.3-1.2 2.5-1.2c.8 0 1.7 .4 2.1 1.2c.4 .4 .8 1.3 .8 2.5v.4h-5c0 .9 0 1.3 .5 1.7c.4 .4 .8 .4 1.6 .4h.8c.5-.4 .9-.8 .9-1.2m-3.8-2.1h3.8c0-.4 0-.8-.4-1.3c-.5-.4-.9-.4-1.3-.4c-.8 0-1.2 0-1.6 .4c-.5 .5-.5 .9-.5 1.3Z" class="g5_202"/>
<path d="M153.9 417.5c-.4 .4-.9 .8-1.3 .8c-.4 .5-.8 .5-1.2 .5c-.8 0-1.3-.5-1.7-.9c-.4-.4-.4-.8-.4-1.2v-.8c0-.5 .4-.5 .8-.9c0 0 .5-.4 .9-.4h.8c.8 0 1.7-.4 2.1-.4v-.4c0-.4 0-.9-.4-.9c0-.4-.9-.4-1.3-.4H151c0 .4-.4 .9-.4 1.3l-1.3-.4c0-.5 .4-.9 .4-.9c.4-.4 .9-.8 1.3-.8c.4 0 .8-.4 1.2-.4c.8 0 1.3 .4 1.7 .4c.4 0 .4 .4 .8 .4c0 .4 .4 .4 .4 .8v4.6c0 .4 0 .8 .4 .8h-1.2c0 0-.4-.4-.4-.8m0-2.5c-.4 0-1.3 .4-2.1 .4c-.4 0-.8 0-.8 .5c0 0-.4 0-.4 .4v1.2c.4 0 .8 .4 1.2 .4c.4 0 .8-.4 1.2-.4q.5-.4 .9-.8v-1.3Z" class="g5_202"/>
<path d="M156.8 418.3v-6.6H158v.8c.4-.8 1.3-1.2 2.1-1.2c.4 0 .8 .4 1.2 .4c.5 0 .5 .4 .9 .4c0 .4 0 .8 .4 .8v5.4h-1.3v-4.9q-.4-.5-.8-.9h-.8c-.4 0-.8 0-1.3 .4c0 .5-.4 .9-.4 1.7v3.7Z" class="g5_202"/>
<path d="M168.8 418.3v-.8c-.4 .8-1.2 1.3-2.1 1.3c-.4 0-.8-.5-1.2-.5c-.8-.4-.8-.8-1.3-1.2c-.4-.8-.4-1.2-.4-2.1c0-.8 0-1.2 .4-1.6c0-.9 .5-1.3 .9-1.7c.4 0 1.2-.4 1.6-.4c.5 0 .9 .4 1.3 .4c.4 0 .4 .4 .8 .8v-3.7h.8v9.5Zm-3.7-3.3c0 .9 0 1.7 .4 2.1c.4 .4 .8 .4 1.2 .4c.9 0 1.3 0 1.7-.4c0-.4 .4-1.2 .4-2.1c0-.8-.4-1.6-.4-2.1c-.4-.4-.8-.4-1.7-.4c-.4 0-.8 0-1.2 .4c-.4 .5-.4 1.3-.4 2.1Z" class="g5_202"/>
<path d="M74.6 431.6V425h.8v.8c.4-.4 .8-.8 .8-.8c.5 0 .5-.4 .9-.4c.4 0 .8 .4 1.2 .4l-.4 1.2q-.4-.4-.8-.4q-.4 0-.9 .4l-.4 .5v4.9Z" class="g5_202"/>
<path d="M83.7 429.6H85c-.4 .8-.4 1.2-1.3 1.6c-.4 .4-1.2 .8-1.6 .8c-1.3 0-2.1-.4-2.5-1.2c-.9-.4-.9-1.2-.9-2.5c0-1.2 0-2.1 .9-2.5c.4-.8 1.2-1.2 2-1.2c1.3 0 1.7 .4 2.5 1.2c.5 .4 .9 1.3 .9 2.5v.4H80c0 .9 0 1.3 .4 1.7c.4 .4 .8 .4 1.7 .4h.8c.4-.4 .4-.8 .8-1.2M80 427.5h3.7c0-.4-.4-.8-.4-1.3c-.4-.4-.8-.4-1.7-.4c-.4 0-.8 0-1.2 .4c-.4 .5-.4 .9-.4 1.3Z" class="g5_202"/>
<path d="M89.1 430.8v.8c-.4 0-.8 .4-.8 .4c-.4 0-.8-.4-1.3-.4l-.4-.4v-5.4h-.8V425h.8v-1.7l1.3-.8V425h1.2v.8H87.9v5h.4Z" class="g5_202"/>
<path d="M89.9 431.6V425h1.3v.8c0-.4 .4-.8 .8-.8l.4-.4c.5 0 .9 .4 1.3 .4l-.4 1.2c0-.4-.4-.4-.9-.4c0 0-.4 0-.4 .4c-.4 0-.4 .5-.4 .5c-.4 .4-.4 .8-.4 1.6v3.3Z" class="g5_202"/>
<path d="M94.1 428.3c0-1.2 .4-2.1 .8-2.9c.9-.4 1.7-.8 2.5-.8c.8 0 1.7 .4 2.1 1.2c.8 .4 .8 1.3 .8 2.5c0 .8 0 1.7-.4 2.1c0 .4-.4 .8-.8 1.2c-.9 0-1.3 .4-1.7 .4c-1.2 0-2.1-.4-2.5-1.2c-.4-.4-.8-1.2-.8-2.5m1.2 0c0 .8 0 1.7 .5 2.1c.4 .4 .8 .4 1.6 .4c.4 0 .8 0 1.3-.4c.4-.4 .8-1.3 .8-2.1c0-.8-.4-1.6-.8-2.1c-.5-.4-.9-.4-1.3-.4c-.8 0-1.2 0-1.6 .4c-.5 .5-.5 1.3-.5 2.1Z" class="g5_202"/>
<path d="M102 431.6V425h.8v.8q.4-.4 .8-.8c.5 0 .9-.4 1.3-.4c.4 0 .8 .4 1.2 .4c.5 .4 .9 .4 .9 .8c.4-.8 1.2-1.2 2-1.2c.9 0 1.3 .4 1.7 .8c.4 .4 .4 .8 .4 1.7v4.5h-1.2v-5.4l-.4-.4h-.9c-.4 0-.8 0-.8 .4c-.4 .5-.8 .9-.8 1.7v3.7h-.9v-4.1c0-.8-.4-1.3-.4-1.3q-.4-.4-.8-.4h-1.3c0 .4-.4 .4-.4 .9v4.9Z" class="g5_202"/>
<path d="M112.4 428.3c0-1.2 .4-2.1 1.2-2.9c.4-.4 1.3-.8 2.1-.8c.8 0 1.6 .4 2.5 1.2c.4 .4 .8 1.3 .8 2.5c0 .8 0 1.7-.4 2.1c-.4 .4-.8 .8-1.3 1.2c-.4 0-.8 .4-1.6 .4c-.8 0-1.7-.4-2.5-1.2c-.4-.4-.8-1.2-.8-2.5m1.2 0c0 .8 .4 1.7 .8 2.1c.5 .4 .9 .4 1.3 .4c.4 0 1.2 0 1.6-.4c.5-.4 .5-1.3 .5-2.1c0-.8 0-1.6-.5-2.1c-.4-.4-1.2-.4-1.6-.4c-.4 0-.8 0-1.3 .4c-.4 .5-.8 1.3-.8 2.1Z" class="g5_202"/>
<path d="M120.2 422.1h1.3v9.5h-1.3v-9.5Z" class="g5_202"/>
<path d="M120.2 422.1h1.3v9.5h-1.3v-9.5Z" class="g6_202"/>
<path d="M127.7 430.8c-.4 .4-.8 .8-1.2 .8c-.4 .4-.9 .4-1.3 .4c-.8 0-1.2-.4-1.6-.8c-.4-.4-.9-.8-.9-1.2c0-.4 .5-.9 .5-.9c0-.4 .4-.4 .4-.8c.4 0 .8-.4 .8-.4h1.2c.9 0 1.7-.4 2.1-.4v-.4c0-.4 0-.9-.4-.9c-.4-.4-.8-.4-1.2-.4h-1.3c-.4 .4-.4 .9-.4 1.3l-1.2-.4c0-.5 0-.9 .4-.9c.4-.4 .4-.8 1.2-.8c.4 0 .8-.4 1.3-.4c.8 0 1.2 .4 1.6 .4c.4 0 .4 .4 .9 .4q0 .4 .4 .8v4.6c0 .4 0 .8 .4 .8h-1.3c-.4 0-.4-.4-.4-.8m0-2.5c-.4 0-1.2 .4-2.1 .4c-.4 0-.8 0-.8 .4q-.4 0-.4 .5q-.4 0-.4 .4c0 .4 .4 .4 .4 .8c.4 0 .8 .4 1.2 .4c.5 0 .9-.4 1.3-.4c0-.4 .4-.4 .4-.8c.4-.4 .4-.9 .4-1.3Z" class="g5_202"/>
<path d="M130.6 431.6V425h1.3v.8c0-.4 .4-.8 .4-.8c.4 0 .8-.4 .8-.4c.4 0 .8 .4 1.3 .4l-.5 1.2q-.4-.4-.8-.4q-.4 0-.8 .4c0 0 0 .5-.4 .5v4.9Z" class="g5_202"/>
<path d="M141.4 430.8v.8c-.4 0-.4 .4-.8 .4c-.4 0-.8-.4-.8-.4c-.5 0-.5-.4-.9-.4v-5.4h-.8V425h.8v-1.7l1.3-.8V425h1.2v.8h-1.2v4.6c0 0 0 .4 .4 .4h.4Z" class="g5_202"/>
<path d="M142.2 431.6V425h1.3v.8c.4-.4 .4-.8 .8-.8c0 0 .4-.4 .9-.4c.4 0 .8 .4 .8 .4v1.2c-.4-.4-.8-.4-1.3-.4c0 0-.4 0-.4 .4c-.4 0-.4 .5-.4 .5c-.4 .4-.4 .8-.4 1.6v3.3Z" class="g5_202"/>
<path d="M146.8 422.1h1.3v1.6h-1.3v-1.6Zm0 2.9h1.3v6.6h-1.3V425Z" class="g5_202"/>
<path d="M146.8 422.1h1.3v1.6h-1.3v-1.6Zm0 2.9h1.3v6.6h-1.3V425Z" class="g6_202"/>
<path d="M149.7 432.5h.9c.4 .4 .4 .8 .4 .8c.4 0 .8 .4 1.2 .4c.8 0 1.3-.4 1.3-.4c.4-.4 .8-.4 .8-.8v-1.7c-.4 .8-1.3 .8-2.1 .8c-.8 0-1.6 0-2.1-.8c-.4-.8-.8-1.7-.8-2.5c0-.8 0-1.2 .4-1.6c.4-.9 .4-1.3 1.3-1.7c.4 0 .8-.4 1.2-.4c.8 0 1.7 .4 2.1 1.2V425h1.2v5.8c0 1.2 0 2.1-.4 2.5c0 .4-.4 .8-.8 .8c-.8 .4-1.3 .4-2.1 .4c-.8 0-1.2 0-1.6-.4c-.9-.4-.9-.8-.9-1.6m.9-4.2c0 .8 .4 1.7 .4 2.1c.4 .4 .8 .4 1.6 .4c.4 0 .9 0 1.3-.4c.4-.4 .4-1.3 .4-2.1c0-.8 0-1.6-.4-2.1c-.4-.4-.9-.4-1.3-.4c-.8 0-1.2 0-1.6 .4c0 .5-.4 1.3-.4 2.1Z" class="g5_202"/>
<path d="M156.8 428.3c0-1.2 .4-2.1 1.2-2.9c.4-.4 1.3-.8 2.1-.8c.8 0 1.7 .4 2.1 1.2c.8 .4 1.2 1.3 1.2 2.5c0 .8-.4 1.7-.4 2.1c-.4 .4-.8 .8-1.2 1.2c-.5 0-1.3 .4-1.7 .4c-1.2 0-1.7-.4-2.5-1.2c-.4-.4-.8-1.2-.8-2.5m1.2 0c0 .8 0 1.7 .4 2.1c.5 .4 .9 .4 1.7 .4c.4 0 .8 0 1.2-.4c.5-.4 .9-1.3 .9-2.1c0-.8-.4-1.6-.9-2.1c-.4-.4-.8-.4-1.2-.4c-.8 0-1.2 0-1.7 .4c-.4 .5-.4 1.3-.4 2.1Z" class="g5_202"/>
<path d="M164.7 431.6V425h.8v.8c.8-.8 1.2-1.2 2.5-1.2c.4 0 .8 .4 .8 .4c.4 0 .8 .4 .8 .4c.5 .4 .5 .8 .5 .8v5.4h-.9v-4.1c0-.4-.4-.8-.4-.8q0-.5-.4-.9h-.8c-.4 0-.9 0-1.3 .4c-.4 .5-.4 .9-.4 1.7v3.7Z" class="g5_202"/>
<path d="M176.7 429.6h1.2c-.4 .8-.4 1.2-1.2 1.6c-.4 .4-.8 .8-1.7 .8c-1.2 0-2-.4-2.4-1.2c-.9-.4-.9-1.2-.9-2.5c0-1.2 0-2.1 .9-2.5c.4-.8 1.2-1.2 2-1.2c1.3 0 2.1 .4 2.5 1.2c.4 .4 .8 1.3 .8 2.5v.4H173c0 .9 0 1.3 .4 1.7c.4 .4 .8 .4 1.6 .4h.9c.4-.4 .8-.8 .8-1.2m-3.7-2.1h3.7c0-.4 0-.8-.4-1.3c-.4-.4-.8-.4-1.3-.4c-.8 0-1.2 0-1.6 .4c-.4 .5-.4 .9-.4 1.3Z" class="g5_202"/>
<path d="M64.6 444.9v-9.5h6.7v1.2H65.9v2.9h4.5v1.3H65.9v4.1Z" class="g5_202"/>
<path d="M64.6 444.9v-9.5h6.7v1.2H65.9v2.9h4.5v1.3H65.9v4.1H64.6Z" class="g6_202"/>
<path d="M72.5 435.4h1.3v9.5H72.5v-9.5Z" class="g5_202"/>
<path d="M72.5 435.4h1.3v9.5H72.5v-9.5Z" class="g6_202"/>
<path d="M75.4 441.6c0-1.2 0-2.1 .8-2.9c.9-.4 1.3-.8 2.1-.8c1.3 0 1.7 .4 2.5 1.2c.4 .4 .8 1.3 .8 2.5c0 .8 0 1.7-.4 2.1c-.4 .4-.4 .8-1.2 1.2c-.4 0-.8 .4-1.7 .4c-.8 0-1.6-.4-2.1-1.2c-.8-.4-.8-1.3-.8-2.5m.8 0c0 .8 .5 1.7 .9 2.1c.4 .4 .8 .4 1.2 .4c.9 0 1.3 0 1.7-.4c.4-.4 .4-1.3 .4-2.1c0-.8 0-1.7-.4-2.1c-.4-.4-.8-.4-1.7-.4c-.4 0-.8 0-1.2 .4c-.4 .4-.9 1.3-.9 2.1Z" class="g5_202"/>
<path d="M82.5 441.6c0-1.2 .4-2.1 1.2-2.9c.4-.4 1.3-.8 2.1-.8c.8 0 1.7 .4 2.5 1.2c.4 .4 .8 1.3 .8 2.5c0 .8 0 1.7-.4 2.1c-.4 .4-.8 .8-1.2 1.2c-.5 0-.9 .4-1.7 .4c-.8 0-1.7-.4-2.5-1.2c-.4-.4-.8-1.3-.8-2.5m1.2 0c0 .8 .4 1.7 .9 2.1c.4 .4 .8 .4 1.2 .4c.4 0 1.2 0 1.7-.4c.4-.4 .4-1.3 .4-2.1c0-.8 0-1.7-.4-2.1c-.5-.4-1.3-.4-1.7-.4c-.4 0-.8 0-1.2 .4c-.5 .4-.9 1.3-.9 2.1Z" class="g5_202"/>
<path d="M90.4 444.9v-6.6h1.2v.8c0-.4 .4-.8 .4-.8c.4 0 .9-.4 .9-.4c.4 0 .8 .4 1.2 .4l-.4 1.2q-.4-.4-.8-.4q-.5 0-.9 .4c0 0 0 .4-.4 .4v5Z" class="g5_202"/>
<path d="M98.2 441.6c0-1.2 .5-2.1 .9-2.9c.8-.4 1.2-.8 2.1-.8c1.2 0 2 .4 2.4 1.2c.5 .4 .9 1.3 .9 2.5c0 .8 0 1.7-.4 2.1c0 .4-.5 .8-1.3 1.2c-.4 0-.8 .4-1.6 .4c-.9 0-1.7-.4-2.1-1.2c-.9-.4-.9-1.3-.9-2.5m1.3 0c0 .8 0 1.7 .4 2.1c.4 .4 .8 .4 1.3 .4c.8 0 1.2 0 1.6-.4c.4-.4 .4-1.3 .4-2.1c0-.8 0-1.7-.4-2.1c-.4-.4-.8-.4-1.6-.4c-.5 0-.9 0-1.3 .4c-.4 .4-.4 1.3-.4 2.1Z" class="g5_202"/>
<path d="M106.1 444.9v-5.8h-.8v-.8h.8v-1.7c.5-.4 .5-.8 .9-.8c.4-.4 .8-.4 1.2-.4h.8v1.2h-1.2q-.4 .4-.4 .8v.9h1.2v.8h-1.2v5.8Z" class="g5_202"/>
<path d="M113.2 444.9v-6.6h1.2v.8c0-.4 .5-.4 .9-.8c.4 0 .8-.4 1.2-.4c.4 0 .8 .4 1.3 .4q.4 .4 .8 .8c.4-.8 1.2-1.2 2.1-1.2c.4 0 1.2 .4 1.2 .8c.4 .4 .8 .8 .8 1.7v4.5h-1.2v-5.4c0 0-.4 0-.4-.4h-.9c-.4 0-.8 0-1.2 .4c-.4 .4-.4 .9-.4 1.7v3.7h-1.3v-4.1c0-.9 0-1.3-.4-1.3c0-.4-.4-.4-.8-.4h-.8q-.4 .4-.4 .8c-.5 .5-.5 .9-.5 1.7v3.3Z" class="g5_202"/>
<path d="M124 441.6c0-1.2 .4-2.1 .8-2.9c.8-.4 1.7-.8 2.5-.8c.8 0 1.7 .4 2.1 1.2c.8 .4 .8 1.3 .8 2.5c0 .8 0 1.7-.4 2.1c0 .4-.4 .8-.8 1.2c-.9 0-1.3 .4-1.7 .4c-1.2 0-2.1-.4-2.5-1.2c-.4-.4-.8-1.3-.8-2.5m1.2 0c0 .8 0 1.7 .4 2.1c.5 .4 .9 .4 1.7 .4c.4 0 .8 0 1.3-.4c.4-.4 .8-1.3 .8-2.1c0-.8-.4-1.7-.8-2.1c-.5-.4-.9-.4-1.3-.4c-.8 0-1.2 0-1.7 .4c-.4 .4-.4 1.3-.4 2.1Z" class="g5_202"/>
<path d="M136.4 444.9v-.8c-.8 .8-1.2 1.2-2.5 1.2c-.4 0-.8 0-.8-.4c-.4 0-.8-.4-.8-.4c-.4-.4-.4-.8-.4-.8v-5.4h.8V442c0 .4 .4 .8 .4 1.3q0 .4 .4 .8h1.7c.4-.4 .8-.4 .8-.8v-5h1.3v6.6Z" class="g5_202"/>
<path d="M141.8 444.1v.8c-.4 0-.4 .4-.8 .4c-.4 0-.8-.4-.8-.4c-.4 0-.4-.4-.9-.4v-5.4h-.8v-.8h.8v-1.7l1.3-.8v2.5h1.2v.8h-1.2v5h.4Z" class="g5_202"/>
<path d="M142.7 444.9v-9.5h1.2v3.7c.8-.8 1.3-1.2 2.1-1.2c.4 0 1.2 .4 1.2 .4c.4 .4 .9 .4 .9 .8c.4 .4 .4 .8 .4 1.7v4.1h-1.3v-4.1c0-.9 0-1.3-.4-1.3c0-.4-.4-.4-.8-.4h-1.3c0 .4-.4 .4-.4 .8c-.4 .5-.4 .9-.4 1.3v3.7Z" class="g5_202"/>
<path d="M64.6 458.2v-9.5h1.3v4.1h5v-4.1h1.2v9.5H70.9v-4.1h-5v4.1Z" class="g5_202"/>
<path d="M64.6 458.2v-9.5h1.3v4.1h5v-4.1h1.2v9.5H70.9v-4.1h-5v4.1H64.6Z" class="g6_202"/>
<path d="M78.7 457.4c-.4 .4-.8 .8-1.2 .8c-.4 .4-.8 .4-1.3 .4c-.8 0-1.2-.4-1.6-.8c-.4-.4-.8-.8-.8-1.2c0-.5 0-.9 .4-.9q0-.4 .4-.8c.4 0 .4-.4 .8-.4h1.3c.8 0 1.6-.4 2-.4v-.5c0-.4-.4-.8-.4-.8c-.4-.4-.8-.4-1.2-.4H75.8c-.4 .4-.4 .8-.8 1.2l-.8-.4c0-.4 0-.8 .4-.8c0-.4 .4-.8 .8-.8c.4 0 1.3-.4 1.7-.4c.4 0 1.2 .4 1.2 .4c.4 0 .9 .4 .9 .4q.4 .4 .4 .8v2.5c0 1.3 .4 2.1 .4 2.1v.8H78.7Zm0-2.5c-.4 0-1.2 .4-2 .4c-.5 0-.9 0-.9 .4q-.4 0-.8 .4v.5q0 .4 .4 .8c0 0 .4 .4 .8 .4c.5 0 .9-.4 1.3-.4c.4-.4 .8-.4 .8-.8c0-.5 .4-.9 .4-1.3Z" class="g5_202"/>
<path d="M81.6 458.2v-6.6h.9v.8c.4-.4 .8-.8 .8-.8c.4 0 .4-.4 .8-.4c.5 0 .9 .4 1.3 .4l-.4 1.2c-.4-.4-.9-.4-.9-.4q-.4 0-.8 .4l-.4 .4v5Z" class="g5_202"/>
<path d="M90.4 458.2v-.8c-.5 .8-.9 1.2-1.7 1.2c-.8 0-1.2-.4-1.7-.4c-.4-.4-.8-.8-1.2-1.2c0-.9-.4-1.3-.4-2.1c0-.8 .4-1.3 .4-1.7c.4-.8 .8-1.2 1.2-1.6c.5 0 .9-.4 1.3-.4c.4 0 .8 .4 1.2 .4c.4 0 .9 .4 .9 .8v-3.7h1.2v9.5Zm-3.8-3.3c0 .8 .4 1.7 .9 2.1c.4 .4 .8 .4 1.2 .4c.4 0 .8 0 1.2-.4c.5-.4 .5-1.3 .5-2.1c0-.8 0-1.7-.5-2.1c-.4-.4-.8-.4-1.2-.4c-.8 0-1.2 0-1.2 .4c-.5 .4-.9 1.3-.9 2.1Z" class="g5_202"/>
<path d="M97 461.1v-9.5h1.2v.8c0-.4 .5-.8 .9-.8c.4 0 .4-.4 1.2-.4c.4 0 .9 .4 1.3 .4c.4 .4 .8 .8 1.2 1.6c0 .4 .4 .9 .4 1.7c0 .8-.4 1.2-.4 2.1c-.4 .4-.8 .8-1.2 1.2c-.4 0-.9 .4-1.7 .4q-.4 0-.8-.4c-.4 0-.9-.4-.9-.4v3.3Zm1.2-6.2c0 .8 0 1.7 .5 2.1c.4 .4 .8 .4 1.2 .4c.4 0 .8 0 1.3-.4c.4-.4 .8-1.3 .8-2.1c0-.8-.4-1.7-.8-2.1c0-.4-.9-.4-1.3-.4c-.4 0-.8 0-1.2 .4c-.5 .4-.5 1.3-.5 2.1Z" class="g5_202"/>
<path d="M109 457.4c-.4 .4-.8 .8-1.2 .8c-.4 .4-.8 .4-1.2 .4c-.9 0-1.7-.4-2.1-.8c-.4-.4-.4-.8-.4-1.2c0-.5 0-.9 .4-.9q0-.4 .4-.8c.4 0 .4-.4 .8-.4H107c.8 0 1.2-.4 2-.4v-.5c0-.4-.4-.8-.4-.8c-.4-.4-.8-.4-1.2-.4h-1.3c-.4 .4-.4 .8-.8 1.2l-1.2-.4c.4-.4 .4-.8 .8-.8c0-.4 .4-.8 .8-.8c.4 0 1.3-.4 1.7-.4c.4 0 1.2 .4 1.2 .4c.4 0 .9 .4 .9 .4q.4 .4 .4 .8v2.5c0 1.3 0 2.1 .4 2.1v.8H109Zm0-2.5c-.4 0-1.2 .4-2 .4c-.4 0-.9 0-.9 .4q-.4 0-.8 .4v.5q0 .4 .4 .8c0 0 .4 .4 .9 .4c.4 0 .8-.4 1.2-.4c.4-.4 .8-.4 .8-.8c0-.5 .4-.9 .4-1.3Z" class="g5_202"/>
<path d="M111.9 448.7h1.3v9.5h-1.3v-9.5Z" class="g5_202"/>
<path d="M111.9 448.7h1.3v9.5h-1.3v-9.5Z" class="g6_202"/>
<path d="M119.4 457.4c-.4 .4-.8 .8-1.2 .8c-.4 .4-.9 .4-1.3 .4c-.8 0-1.6-.4-2-.8c-.5-.4-.5-.8-.5-1.2v-.9q.5-.4 .9-.8c.4 0 .4-.4 .8-.4h.8c1.3 0 1.7-.4 2.1-.4v-1.3c-.4-.4-.8-.4-1.7-.4h-.8c-.4 .4-.8 .8-.8 1.2l-1.3-.4c.5-.4 .5-.8 .9-.8c0-.4 .4-.8 .8-.8c.4 0 .8-.4 1.7-.4c.4 0 .8 .4 1.2 .4c.4 0 .8 .4 .8 .4q.4 .4 .4 .8v4.6c.5 .4 .5 .8 .5 .8h-1.3Zm-.4-2.5c-.4 0-.8 .4-1.7 .4c-.4 0-.8 0-1.2 .4l-.4 .4v.5q0 .4 .4 .8c0 0 .4 .4 .8 .4c.4 0 .9-.4 1.3-.4c.4-.4 .8-.4 .8-.8v-1.3Z" class="g5_202"/>
<path d="M124.8 457.4v.8c-.4 0-.4 .4-.8 .4c-.4 0-.8-.4-.8-.4c-.5 0-.5-.4-.5-.4c-.4-.4-.4-.8-.4-1.7v-3.7h-.8v-.8h.8v-1.7l1.3-.8v2.5h1.2v.8h-1.2V457c0 0 0 .4 .4 .4h.4Z" class="g5_202"/>
<path d="M130.6 456.1h1.3c-.4 .9-.4 1.3-1.3 1.7c-.4 .4-1.2 .8-1.6 .8c-1.3 0-2.1-.4-2.5-1.2c-.9-.4-.9-1.3-.9-2.5c0-1.3 0-2.1 .9-2.5c.4-.8 1.2-1.2 2.1-1.2c1.2 0 1.6 .4 2.4 1.2c.5 .4 .9 1.2 .9 2.5v.4h-5c0 .8 0 1.3 .4 1.7c.4 .4 .8 .4 1.7 .4h.8c.4-.4 .4-.8 .8-1.3m-3.7-2h3.7c0-.5-.4-.9-.4-1.3c-.4-.4-.8-.4-1.6-.4c-.5 0-.9 0-1.3 .4c-.4 .4-.4 .8-.4 1.3Z" class="g5_202"/>
<path d="M64.2 466.9c0-1.6 .4-2.9 1.3-3.7c.8-.8 2-1.2 3.3-1.2c.8 0 1.6 .4 2.5 .8c.8 .4 1.2 .8 1.6 1.6c.4 .9 .4 1.7 .4 2.5c0 .9 0 1.7-.4 2.5c-.4 .9-.8 1.3-1.6 1.7c-.9 .4-1.7 .8-2.5 .8c-.9 0-1.7-.4-2.1-.8c-.8-.4-1.2-.8-1.7-1.7c-.4-.8-.8-1.6-.8-2.5m1.3 0c0 1.3 .4 2.1 1.2 2.9c.4 .5 1.2 .9 2.1 .9c1.2 0 1.6-.4 2.5-.9c.4-.8 .8-1.6 .8-2.9c0-.8 0-1.6-.4-2c0-.5-.4-.9-1.3-1.3c-.4-.4-.8-.4-1.6-.4c-.9 0-1.7 0-2.1 .8c-.8 .4-1.2 1.7-1.2 2.9Z" class="g5_202"/>
<path d="M75 471.5v-6.6h.8v.8c.4-.4 .9-.8 .9-.8c.4 0 .4-.5 .8-.5c.4 0 .8 .5 1.2 .5l-.4 1.2c-.4-.4-.8-.4-.8-.4q-.4 0-.8 .4l-.5 .4v5Z" class="g5_202"/>
<path d="M83.7 470.7c-.4 .4-.8 .8-1.2 .8c-.4 .4-.9 .4-1.3 .4c-.8 0-1.2-.4-1.6-.8c-.4-.4-.4-.8-.4-1.3V469c0-.4 .4-.4 .8-.8c0 0 .4-.4 .8-.4h.8c.9 0 1.7-.5 2.1-.5v-.4c0-.4 0-.8-.4-.8c0-.4-.8-.4-1.2-.4H80.8c0 .4-.4 .8-.4 1.2l-1.2-.4c0-.4 .4-.8 .4-.8c.4-.4 .8-.8 1.2-.8c.4 0 .8-.5 1.3-.5c.8 0 1.2 .5 1.6 .5c.4 0 .4 .4 .9 .4c0 .4 .4 .4 .4 .8v4.6c0 .4 0 .8 .4 .8H84.1c0 0-.4-.4-.4-.8m0-2.5c-.4 0-1.2 .4-2.1 .4c-.4 0-.8 0-.8 .4c0 0-.4 0-.4 .4v1.3c.4 0 .8 .4 1.2 .4c.5 0 .9-.4 1.3-.4q.4-.4 .8-.9v-1.2Z" class="g5_202"/>
<path d="M86.6 462h1.3v9.5H86.6V462Z" class="g5_202"/>
<path d="M86.6 462h1.3v9.5H86.6V462Z" class="g6_202"/>
<path d="M95.8 470.7l.4 .8c-.4 0-.9 .4-.9 .4c-.4 0-.8-.4-1.2-.4l-.4-.4v-5.4h-.8v-.8h.8v-1.7l1.2-.8v2.5h.9v.8h-.9v5h.4Z" class="g5_202"/>
<path d="M96.6 468.2c0-1.3 .4-2.1 1.2-2.9c.4-.4 1.3-.9 2.1-.9c.8 0 1.7 .5 2.1 1.3c.8 .4 1.2 1.2 1.2 2.5c0 .8-.4 1.6-.4 2.1c-.4 .4-.8 .8-1.2 1.2c-.4 0-1.3 .4-1.7 .4c-.8 0-1.7-.4-2.5-1.2c-.4-.4-.8-1.3-.8-2.5m1.2 0c0 .8 0 1.6 .4 2.1c.5 .4 .9 .4 1.7 .4c.4 0 .8 0 1.3-.4c.4-.5 .8-1.3 .8-2.1c0-.9-.4-1.7-.8-2.1c-.5-.4-.9-.4-1.3-.4c-.8 0-1.2 0-1.7 .4c-.4 .4-.4 1.2-.4 2.1Z" class="g5_202"/>
<path d="M104.5 471.5v-6.6h.8v.8c.8-.8 1.3-1.3 2.5-1.3c.4 0 .8 .5 1.2 .5l.5 .4c.4 .4 .4 .8 .4 .8v5.4H109v-4.2c0-.4 0-.8-.4-.8q0-.4-.4-.8h-.8c-.4 0-.8 0-1.3 .4c-.4 .4-.4 .8-.4 1.7v3.7Z" class="g5_202"/>
<path d="M111.5 472.3h1.3c0 .4 0 .9 .4 .9c.4 0 .8 .4 1.2 .4c.5 0 .9-.4 1.3-.4c0-.5 .4-.5 .4-.9v-1.6c-.4 .8-.8 .8-1.7 .8c-.8 0-1.6 0-2-.8c-.9-.9-.9-1.7-.9-2.5c0-.9 0-1.3 .4-1.7c0-.8 .5-1.2 .9-1.6c.4 0 .8-.5 1.6-.5c.9 0 1.3 .5 2.1 1.3v-.8h.8v5.8c0 1.2 0 2-.4 2.5c0 .4-.4 .8-.8 .8c-.4 .4-1.2 .4-1.7 .4c-.8 0-1.6 0-2-.4c-.5-.4-.9-.8-.9-1.7m1.3-4.1c0 .8 0 1.6 .4 2.1c.4 .4 .8 .4 1.2 .4c.5 0 .9 0 1.3-.4c.4-.5 .8-1.3 .8-2.1c0-.9-.4-1.7-.8-2.1c-.4-.4-.8-.4-1.3-.4c-.4 0-.8 0-1.2 .4c-.4 .4-.4 1.2-.4 2.1Z" class="g5_202"/>
<path d="M123.6 471.5v-.8c-.4 .8-1.3 1.2-2.1 1.2c-.4 0-.8 0-1.3-.4l-.4-.4c-.4-.4-.4-.8-.4-.8c0-.5-.4-.9-.4-1.3v-4.1h1.2v4.9q.5 .5 .9 .9h1.6q.5-.4 .9-.9v-4.9h1.2v6.6Z" class="g5_202"/>
<path d="M131.5 469.4h1.2c-.4 .9-.8 1.3-1.2 1.7c-.5 .4-1.3 .8-2.1 .8c-.8 0-1.7-.4-2.1-1.2c-.8-.4-1.2-1.3-1.2-2.5c0-1.3 .4-2.1 1.2-2.5c.4-.8 1.3-1.3 2.1-1.3c.8 0 1.6 .5 2.5 1.3c.4 .4 .8 1.2 .8 2.5v.4h-5.4c0 .8 .4 1.2 .8 1.7c.5 .4 .9 .4 1.3 .4h1.2c.4-.4 .4-.9 .9-1.3m-4.2-2.1h4.2c0-.4-.5-.8-.5-1.2c-.4-.4-.8-.4-1.6-.4c-.4 0-.8 0-1.3 .4c-.4 .4-.4 .8-.8 1.2Z" class="g5_202"/>
<path d="M76.7 487.7c-.5-.8-1.3-1.7-1.7-2.9c-.4-.8-.4-2.1-.4-3.3c0-.9 0-2.1 .4-2.9c.4-1.3 .8-2.1 1.7-3.4h.8c-.4 .9-.8 1.7-.8 2.1c-.5 .4-.5 1.3-.9 1.7v2.5c0 2 .4 4.1 1.7 6.2Z" class="g5_202"/>
<path d="M83.3 484c-.4 .4-.8 .8-1.2 .8c-.5 .4-.9 .4-1.3 .4c-.8 0-1.2-.4-1.6-.8c-.5-.4-.5-.9-.5-1.3v-.8q.5-.4 .9-.8c0 0 .4-.4 .8-.4h.8c.9 0 1.7-.5 2.1-.5v-.4c0-.4 0-.8-.4-.8c0-.4-.4-.4-1.3-.4H80.4c0 .4-.4 .8-.4 1.2l-1.3-.4c0-.4 .5-.8 .5-.8c.4-.4 .8-.9 1.2-.9c.4 0 .8-.4 1.7-.4c.4 0 .8 .4 1.2 .4c.4 0 .8 .5 .8 .5c0 .4 .5 .4 .5 .8V484c0 .4 .4 .8 .4 .8H83.7c0 0-.4-.4-.4-.8m0-2.5c-.4 0-.8 .4-1.7 .4q-.8 0-1.2 .4c0 0-.4 0-.4 .4V484c.4 0 .8 .4 1.2 .4c.4 0 .9-.4 1.3-.4q.4-.5 .8-.9v-1.2Z" class="g5_202"/>
<path d="M86.2 484.8v-6.7h1.3v.9c.4-.9 1.2-1.3 2-1.3c.4 0 .9 .4 1.3 .4c.4 0 .4 .5 .8 .5c0 .4 .4 .8 .4 .8v5.4H90.8v-5q-.4-.4-.4-.8h-.9c-.8 0-1.2 0-1.6 .4c0 .4-.4 .8-.4 1.7v3.7Z" class="g5_202"/>
<path d="M96.2 484l.4 .8c-.4 0-.8 .4-.8 .4c-.5 0-.9-.4-1.3-.4l-.4-.4V479h-.8v-.9h.8v-1.6l.8-.8v2.4h1.3v.9H94.9v4.1l.4 .4v.5h.5Z" class="g5_202"/>
<path d="M102 482.7h1.2c0 .8-.4 1.3-.8 1.7c-.4 .4-1.2 .8-2.1 .8c-.8 0-1.6-.4-2.5-1.2c-.4-.5-.8-1.3-.8-2.5c0-1.3 .4-2.1 .8-2.5c.9-.9 1.7-1.3 2.5-1.3c.9 0 1.7 .4 2.1 1.3c.8 .4 .8 1.2 .8 2.5v.4h-5c0 .8 .5 1.2 .9 1.6c0 .5 .8 .5 1.2 .5h1.3c0-.5 .4-.9 .4-1.3m-3.8-2.1H102c0-.4 0-.8-.4-1.2c-.4-.4-.9-.4-1.3-.4c-.4 0-.8 0-1.2 .4c-.4 .4-.9 .8-.9 1.2Z" class="g5_202"/>
<path d="M104.9 484.8v-6.7h.8v.9c.4-.4 .9-.9 .9-.9c.4 0 .4-.4 .8-.4c.4 0 .8 .4 1.2 .4l-.4 1.3c-.4-.4-.8-.4-.8-.4q-.4 0-.8 .4l-.5 .4v5Z" class="g5_202"/>
<path d="M109.5 475.2h.8v1.7h-.8v-1.7Zm0 2.9h.8v6.7h-.8v-6.7Z" class="g5_202"/>
<path d="M109.5 475.2h.8v1.7h-.8v-1.7Zm0 2.9h.8v6.7h-.8v-6.7Z" class="g6_202"/>
<path d="M111.9 481.5c0-1.3 0-2.1 .9-2.9c.8-.5 1.2-.9 2.1-.9c1.2 0 1.6 .4 2.4 1.3c.5 .4 .9 1.2 .9 2.5c0 .8 0 1.6-.4 2c0 .5-.5 .9-1.3 1.3c-.4 0-.8 .4-1.6 .4c-.9 0-1.7-.4-2.1-1.2c-.9-.5-.9-1.3-.9-2.5m.9 0c0 .8 .4 1.6 .8 2c.4 .5 .8 .5 1.3 .5c.8 0 1.2 0 1.6-.5c.4-.4 .4-1.2 .4-2c0-.9 0-1.7-.4-2.1c-.4-.4-.8-.4-1.6-.4c-.5 0-.9 0-1.3 .4c-.4 .4-.8 1.2-.8 2.1Z" class="g5_202"/>
<path d="M119.4 484.8v-6.7h1.3v.9c.4-.4 .4-.9 .8-.9c0 0 .4-.4 .8-.4c0 0 .4 .4 .9 .4l-.5 1.3c0-.4-.4-.4-.8-.4c0 0-.4 0-.4 .4c-.4 0-.4 .4-.4 .4c-.4 .4-.4 .8-.4 1.7v3.3Z" class="g5_202"/>
<path d="M77.1 497.3v.8c0 0-.4 .4-.9 .4c-.4 0-.4-.4-.8-.4c-.4 0-.4-.4-.4-.4c0-.4-.4-.9-.4-1.7v-3.7h-.8v-.9h.8v-1.6l1.2-.9v2.5h1.3v.9H75.8v4.5l.4 .5h.5Z" class="g5_202"/>
<path d="M79.6 498.1l-2.1-6.7h1.2l.9 3.8l.4 1.6c0 0 .4-.4 .4-1.6l1.2-3.8h1.3l.8 3.8l.4 1.6l.5-1.6l1.2-3.8H87l-2.4 6.7H83.3l-.8-4.2l-.4-.8l-1.3 5Z" class="g5_202"/>
<path d="M87.5 494.8c0-1.3 .4-2.1 .8-2.9c.8-.5 1.6-.9 2.5-.9c.8 0 1.6 .4 2.1 1.3c.8 .4 .8 1.2 .8 2.5c0 .8 0 1.6-.4 2c0 .5-.4 .9-.9 1.3c-.8 0-1.2 .4-1.6 .4c-1.3 0-2.1-.4-2.5-1.2c-.4-.5-.8-1.3-.8-2.5m1.2 0c0 .8 0 1.6 .4 2c.4 .5 .8 .5 1.7 .5c.4 0 .8 0 1.2-.5c.4-.4 .9-1.2 .9-2c0-.9-.5-1.7-.9-2.1c-.4-.4-.8-.4-1.2-.4c-.9 0-1.3 0-1.7 .4c-.4 .4-.4 1.2-.4 2.1Z" class="g5_202"/>
<path d="M101.6 497.3v.8c-.4 0-.4 .4-.9 .4c-.4 0-.8-.4-.8-.4c-.4 0-.4-.4-.8-.4v-5.4h-.9v-.9h.9v-1.6l1.2-.9v2.5h1.3v.9h-1.3v4.5c0 0 0 .5 .4 .5h.5Z" class="g5_202"/>
<path d="M102.4 498.1v-9.6h1.2v3.8c.9-.9 1.3-1.3 2.1-1.3c.4 0 1.3 .4 1.3 .4c.4 .5 .8 .5 .8 .9c.4 .4 .4 .8 .4 1.6v4.2H107v-4.2c0-.8 0-1.2-.4-1.2c0-.4-.5-.4-.9-.4h-1.2c0 .4-.4 .4-.4 .8c-.5 .4-.5 .8-.5 1.2v3.8Z" class="g5_202"/>
<path d="M109.9 488.5h1.2v1.7h-1.2v-1.7Zm0 2.9h1.2v6.7h-1.2v-6.7Z" class="g5_202"/>
<path d="M109.9 488.5h1.2v1.7h-1.2v-1.7Zm0 2.9h1.2v6.7h-1.2v-6.7Z" class="g6_202"/>
<path d="M112.8 498.1v-6.7H114v.9c.4-.4 .4-.9 .9-.9l.4-.4c.4 0 .8 .4 1.2 .4l-.4 1.3c0-.4-.4-.4-.8-.4c0 0-.4 0-.4 .4c-.5 0-.5 .4-.5 .4c-.4 .4-.4 .8-.4 1.7v3.3Z" class="g5_202"/>
<path d="M121.9 498.1v-.8c-.4 .8-1.2 1.2-2.1 1.2c-.4 0-.8-.4-1.2-.4c-.8-.4-.8-.8-1.3-1.3c-.4-.8-.4-1.2-.4-2c0-.9 0-1.3 .4-1.7c0-.8 .5-1.2 .9-1.7c.4 0 1.2-.4 1.6-.4c.4 0 .9 .4 1.3 .4c.4 0 .4 .5 .8 .9v-3.8h.8v9.6Zm-3.7-3.3c0 .8 0 1.6 .4 2c.4 .5 .8 .5 1.2 .5c.9 0 1.3 0 1.7-.5c0-.4 .4-1.2 .4-2c0-.9-.4-1.7-.4-2.1c-.4-.4-.8-.4-1.7-.4c-.4 0-.8 0-1.2 .4c-.4 .4-.4 1.2-.4 2.1Z" class="g5_202"/>
<path d="M124.4 496h1.2c0 .4 0 .8 .5 1.3h2.5c0-.5 .4-.9 .4-.9c0-.4-.4-.4-.4-.8c-.5 0-.9 0-1.3-.4c-.8 0-1.7-.4-1.7-.4c-.4 0-.8-.5-.8-.9c-.4 0-.4-.4-.4-.8q0-.4 .4-.8q0-.4 .4-.4q.4-.5 .9-.5q.4-.4 .8-.4c.8 0 1.2 .4 1.7 .4c.4 0 .4 .5 .8 .5c0 .4 .4 .8 .4 1.2h-1.2c0 0 0-.4-.5-.8h-2q-.5 .4-.5 .8v.4c0 0 .5 0 .5 .4h1.2c.8 .4 1.3 .4 1.7 .9q.4 0 .8 .4c0 .4 .4 .8 .4 .8c0 .4-.4 .8-.4 1.3c-.4 .4-.8 .8-1.2 .8c-.5 0-.9 .4-1.3 .4c-.8 0-1.7-.4-2.1-.8c-.4-.4-.8-.9-.8-1.7Z" class="g5_202"/>
<path d="M132.3 501h-.8c1.2-2.1 1.6-4.2 1.6-6.2v-2.5c-.4-.4-.4-1.3-.8-1.7c0-.4-.4-1.2-.8-2.1h.8c.8 1.3 1.2 2.1 1.6 3.4c.5 .8 .5 2 .5 2.9c0 1.2 0 2.5-.5 3.3c-.4 1.2-1.2 2.1-1.6 2.9Z" class="g5_202"/>
<path d="M133.1 567v-9.5h1.3v8.3h4.5V567Z" class="g5_202"/>
<path d="M133.1 567v-9.5h1.3v8.3h4.5V567h-5.8Z" class="g6_202"/>
<path d="M145.2 566.2c-.9 .4-1.3 .8-1.3 .8h-1.7c-.4 0-1.2 0-1.6-.4c-.4-.4-.4-.8-.4-1.2v-1.3c.4 0 .4-.4 .8-.4c0-.4 .4-.4 .8-.4c0 0 .4 0 .9-.4h2v-1.7c-.4 0-.8-.4-1.6-.4c-.4 0-.9 .4-1.3 .4c0 .4-.4 .4-.4 1.3l-1.2-.5c0-.4 .4-.8 .4-1.2c.4 0 .8-.4 1.2-.4c.4-.4 .9-.4 1.7-.4c.4 0 .8 0 1.2 .4c.5 0 .9 0 .9 .4c.4 0 .4 .4 .4 .8v4.6c0 .4 .4 .4 .4 .8h-1.2Zm-.5-2.5c-.4 0-.8 0-1.6 .4h-1.3c0 .4-.4 .4-.4 .4v.9c0 0 0 .4 .4 .4c0 .4 .4 .4 .9 .4h1.2c.4-.4 .4-.8 .8-.8v-1.3Z" class="g5_202"/>
<path d="M147.6 567v-7h1.3v1.2c.4-.4 .4-.8 .8-.8c0-.4 .4-.4 .9-.4c.4 0 .8 0 .8 .4v1.2c-.4-.4-.8-.4-1.3-.4c0 0-.4 0-.4 .4q-.4 0-.4 .4c-.4 .5-.4 .9-.4 1.3V567Z" class="g5_202"/>
<path d="M152.2 569.5v-.8h1.3l.4-.4c0 0 0-.4 .4-.9V567l-2.5-7H153l1.3 4.1c0 .4 .4 1.3 .4 1.7c.4-.4 .4-1.3 .4-1.7l1.7-4.1H158l-2.9 7c0 .9-.4 1.3-.4 1.7c-.4 .4-.4 .8-.8 .8c0 .4-.4 .4-.9 .4q-.4 0-.8-.4Z" class="g5_202"/>
<path d="M158.9 567v-7h1.2v1.2c.4-.8 1.2-1.2 2.1-1.2c.4 0 .8 0 1.2 .4q.4 0 .8 .4v.8c.5 .4 .5 .9 .5 1.3V567h-1.3v-4.1c0-.4 0-.9-.4-1.3c0 0 0-.4-.4-.4h-.8c-.5 0-.9 0-1.3 .4c-.4 0-.4 .9-.4 1.7V567Z" class="g5_202"/>
<path d="M165.5 567l2.5-3.7l-2.1-3.3h1.3l1.2 1.6c0 .4 0 .9 .4 .9c0 0 .4-.5 .4-.9l1.3-1.6h1.2l-2.5 3.3l2.9 3.7h-1.6l-1.3-2.1l-.4-.4l-2.1 2.5Z" class="g5_202"/>
<path d="M132.7 577.4l1.2-.4c0 .8 .5 1.2 .5 1.2c.4 .5 .4 .9 .8 .9c.4 0 1.2 .4 1.7 .4c.4 0 .8 0 1.2-.4c.4 0 .4-.4 .8-.4c0-.5 .4-.5 .4-.9c0-.4-.4-.8-.4-.8c0-.4-.4-.4-.8-.4c-.4-.4-.8-.4-1.7-.9c-.8 0-1.6-.4-2-.4c-.5-.4-.9-.4-.9-.8c-.4-.4-.4-.8-.4-1.2c0-.5 0-.9 .4-1.3c.4-.4 .9-.8 1.3-.8c.4-.4 1.2-.4 1.6-.4c.9 0 1.3 0 2.1 .4c.4 0 .8 .4 1.3 .8c0 .4 .4 .8 .4 1.7h-1.3c0-.9-.4-1.3-.8-1.3c-.4-.4-.8-.8-1.7-.8c-.8 0-1.2 .4-1.6 .4c-.4 .4-.4 .8-.4 1.3q0 .4 .4 .8c.4 0 .8 .4 1.6 .8c1.3 0 2.1 .4 2.5 .4c.4 .4 .9 .4 1.3 .9v1.6c0 .4 0 .9-.4 1.3c0 .4-.5 .8-1.3 1.2h-3.7c-.9-.4-1.3-.8-1.7-1.2c0-.4-.4-1.3-.4-1.7Z" class="g5_202"/>
<path d="M146.4 580.3v-.8c-.4 .4-1.2 .8-2.1 .8h-1.2q-.4-.4-.9-.8c0 0 0-.4-.4-.9v-5.4h1.3v5.4l.4 .5c.4 .4 .8 .4 .8 .4c.4 0 .9 0 1.3-.4c.4 0 .4-.5 .4-.5c.4-.4 .4-.8 .4-1.6v-3.8h1.2v7.1Z" class="g5_202"/>
<path d="M149.3 582.8v-9.6h1.3v1.3c0-.4 .4-.8 .8-.8c0-.5 .4-.5 .8-.5c.8 0 1.3 0 1.7 .5c.4 .4 .8 .8 1.2 1.2v3.7c-.4 .9-.8 1.3-1.2 1.3c-.4 .4-1.3 .4-1.7 .4h-.8c-.4-.4-.8-.4-.8-.8v3.3Zm1.3-5.8c0 .8 0 1.6 .4 2.1c.4 .4 .8 .4 1.2 .4c.4 0 .8 0 1.3-.4c.4-.9 .8-1.3 .8-2.1c0-1.3-.4-1.7-.8-2.1c-.5-.4-.9-.8-1.3-.8c-.4 0-.8 .4-1.2 .8c-.4 .4-.4 1.3-.4 2.1Z" class="g5_202"/>
<path d="M156.8 580.3v-7.1h.8v1.3c.4-.4 .8-.8 .8-.8q.5-.5 .9-.5c.4 0 .8 0 1.2 .5l-.4 1.2c-.4-.4-.8-.4-.8-.4q-.4 0-.9 .4c0 0-.4 0-.4 .4v5Z" class="g5_202"/>
<path d="M165.5 579.5c-.4 .4-.8 .8-1.3 .8H163c-.8 0-1.2 0-1.7-.4c-.4-.4-.4-.8-.4-1.3v-1.2c0 0 .4-.4 .9-.4c0-.4 .4-.4 .8-.4c0 0 .4 0 .8-.4h2.1v-.5c0-.4 0-.8-.4-1.2c0 0-.4-.4-1.3-.4c-.4 0-.8 .4-1.2 .4c0 .4-.4 .4-.4 1.2l-1.3-.4c0-.4 .4-.8 .4-1.2c.5 0 .9-.4 1.3-.4c.4-.5 .8-.5 1.6-.5c.5 0 .9 0 1.3 .5c.4 0 .8 0 .8 .4c0 0 .4 .4 .4 .8v4.6q0 .4 .5 .8h-1.3c0-.4-.4-.4-.4-.8m0-2.5c-.4 0-.8 0-2.1 .4h-.8c0 .4-.4 .4-.4 .4v1.3c.4 .4 .8 .4 1.2 .4h1.3c.4-.4 .4-.9 .8-.9v-1.2Z" class="g5_202"/>
<path d="M168.4 580.7l1.2 .4v.9h2.5c.5-.4 .9-.9 .9-1.3v-1.2c-.4 .4-1.3 .8-2.1 .8c-.8 0-1.7-.4-2.1-.8c-.4-.9-.8-1.7-.8-2.5c0-.8 .4-1.3 .4-2.1c.4-.4 .4-.8 1.2-1.2c.5-.5 .9-.5 1.3-.5c.8 0 1.7 .5 2.1 .9v-.9h1.2v6.3c0 .8 0 1.6-.4 2.1c0 .4-.4 .8-.8 1.2c-.9 0-1.3 .4-2.1 .4c-.8 0-1.3-.4-1.7-.8c-.8 0-.8-.8-.8-1.7m.8-4.1c0 1.2 .4 1.6 .4 2c.5 .5 .9 .9 1.7 .9c.4 0 .8-.4 1.3-.9c.4-.4 .4-.8 .4-1.6c0-.8 0-1.7-.4-2.1c-.5-.4-.9-.8-1.3-.8c-.8 0-1.2 .4-1.7 .8c0 .4-.4 .8-.4 1.7Z" class="g5_202"/>
<path d="M175.9 570.8h1.2v9.5h-1.2v-9.5Z" class="g5_202"/>
<path d="M175.9 570.8h1.2v9.5h-1.2v-9.5Z" class="g6_202"/>
<path d="M178.4 577c0-1.3 .4-2.5 1.2-2.9c.4-.4 1.3-.9 2.1-.9c.8 0 1.6 .5 2.5 .9c.4 .8 .8 1.6 .8 2.9c0 .8-.4 1.2-.4 2.1c-.4 .4-.8 .8-1.3 .8c-.4 .4-1.2 .4-1.6 .4c-.8 0-1.7 0-2.5-.8c-.4-.4-.8-1.3-.8-2.5m1.2 0c0 .8 .4 1.2 .4 2.1c.4 .4 1.3 .4 1.7 .4c.4 0 .8 0 1.2-.4c.4-.9 .9-1.3 .9-2.1c0-.8-.5-1.7-.9-2.1c-.4-.4-.8-.8-1.2-.8c-.4 0-1.3 .4-1.7 .8c0 .4-.4 1.3-.4 2.1Z" class="g5_202"/>
<path d="M188.7 579.5l.5 .8h-2.1l-.4-.4v-5.4h-1.3v-1.3h1.3v-1.6l.8-.4v2h1.2v1.3h-1.2v4.6h.4q0 .4 .4 .4Z" class="g5_202"/>
<path d="M192.5 579.5v.8h-1.7l-.4-.4c0-.4-.4-.8-.4-1.7v-3.7h-.8v-1.3h.8v-1.6l1.2-.4v2h1.3v1.3h-1.3v4.6h.4q0 .4 .5 .4Z" class="g5_202"/>
<path d="M193.7 570.8H195V572h-1.3v-1.2Zm0 2.4H195v7.1h-1.3v-7.1Z" class="g5_202"/>
<path d="M193.7 570.8H195V572h-1.3v-1.2Zm0 2.4H195v7.1h-1.3v-7.1Z" class="g6_202"/>
<path d="M196.2 578.2h1.3c0 .4 0 .9 .4 .9c.4 .4 .8 .4 1.2 .4c.4 0 .8 0 1.3-.4c0 0 .4-.5 .4-.9l-.4-.4c-.5 0-.9-.4-1.3-.4c-.8-.4-1.6-.4-1.6-.4c-.5-.4-.9-.4-.9-.8q-.4-.5-.4-.9c0-.4 0-.8 .4-.8c0-.4 .4-.4 .4-.8q.5 0 .9-.5h.8c.8 0 1.2 0 1.7 .5c.4 0 .4 .4 .8 .4c0 .4 .4 .8 .4 1.2h-1.2q0-.4-.5-.8c-.4 0-.4-.4-.8-.4c-.8 0-1.2 .4-1.2 .4c-.4 0-.4 .4-.4 .8v.4h.4c.4 0 .4 .5 1.2 .5c.8 .4 1.3 .4 1.7 .4q.4 .4 .8 .8c0 0 .4 .4 .4 .8c0 .4-.4 .9-.4 1.3c-.4 .4-.8 .4-1.2 .8h-1.3c-.8 0-1.6 0-2.1-.4c-.4-.4-.8-.8-.8-1.7Z" class="g5_202"/>
<path d="M143.1 593.6V584h6.6v1.3h-5.4v2.9h4.6v1.2h-4.6v4.2Z" class="g5_202"/>
<path d="M143.1 593.6V584h6.6v1.3h-5.4v2.9h4.6v1.2h-4.6v4.2h-1.2Z" class="g6_202"/>
<path d="M155.5 592.8c-.4 .4-.8 .8-1.2 .8H153c-.8 0-1.2 0-1.6-.4c-.4-.4-.8-.8-.8-1.3c0-.4 .4-.8 .4-1.2c0 0 .4-.4 .8-.4c0-.4 .4-.4 .8-.4c0 0 .4 0 .9-.5h2V589c0-.4 0-.8-.4-1.2c0 0-.8-.4-1.2-.4c-.4 0-.9 .4-1.3 .4q-.4 .4-.4 1.2l-1.2-.4c0-.4 .4-.8 .4-1.2c.4 0 .8-.4 1.2-.4c.4-.5 .9-.5 1.3-.5c.8 0 1.2 0 1.6 .5q.4 0 .9 .4c0 0 .4 .4 .4 .8v4.6q0 .4 .4 .8h-1.3c0-.4-.4-.4-.4-.8m0-2.5c-.4 0-1.2 0-2 .4h-.9c0 .4-.4 .4-.4 .4c0 .4-.4 .4-.4 .8l.4 .5c.4 .4 .8 .4 1.3 .4h1.2c.4-.4 .4-.9 .8-.9v-1.2Z" class="g5_202"/>
<path d="M158.4 584h1.3v9.6h-1.3V584Z" class="g5_202"/>
<path d="M158.4 584h1.3v9.6h-1.3V584Z" class="g6_202"/>
<path d="M160.9 591.5h1.3c0 .4 .4 .9 .4 .9c.4 .4 .8 .4 1.2 .4c.9 0 1.3 0 1.3-.4c.4 0 .4-.5 .4-.9c0 0 0-.4-.4-.4c0 0-.4-.4-1.3-.4c-.8-.4-1.2-.4-1.6-.4l-.9-.9v-1.6q.5-.4 .9-.8c0 0 .4 0 .4-.5h1.2c.4 0 .9 0 1.3 .5c.4 0 .8 .4 .8 .4c.4 .4 .4 .8 .4 1.2h-.8c0-.4-.4-.4-.4-.8c-.4 0-.9-.4-1.3-.4c-.4 0-.8 .4-1.2 .4c0 0-.4 .4-.4 .8c0 0 .4 0 .4 .4h.4c0 0 .4 .4 .8 .4c.9 .5 1.7 .5 1.7 .5c.4 .4 .8 .4 .8 .8c.4 0 .4 .4 .4 .8c0 .4 0 .9-.4 1.3c0 .4-.4 .4-.8 .8h-1.7c-.8 0-1.2 0-2-.4c-.5-.4-.5-.8-.9-1.7Z" class="g5_202"/>
<path d="M173 591.5h1.2c-.4 .9-.8 1.3-1.2 1.7c-.4 .4-1.3 .4-2.1 .4c-.8 0-1.7 0-2.1-.8c-.8-.4-1.2-1.3-1.2-2.5c0-1.3 .4-2.1 1.2-2.9c.4-.4 1.3-.9 2.1-.9c.8 0 1.7 .5 2.5 .9c.4 .8 .8 1.6 .8 2.9h-5.4c0 .8 .4 1.6 .8 2.1c.5 .4 .9 .4 1.3 .4c.4 0 .8 0 1.2-.4c.5 0 .5-.5 .9-.9m-4.2-2.1H173c0-.4-.4-.8-.4-1.2c-.5-.4-.9-.8-1.7-.8c-.4 0-.8 .4-1.3 .8c-.4 .4-.4 .8-.8 1.2Z" class="g5_202"/>
<path d="M183.8 591.1H185c-.4 .8-.4 1.7-1.2 2.1c-.5 .4-.9 .4-1.7 .4c-1.2 0-1.7 0-2.5-.8c-.4-.4-.8-1.3-.8-2.5c0-.9 0-1.7 .4-2.1c.4-.4 .8-.8 1.2-1.2c.5-.5 .9-.5 1.7-.5c.8 0 1.2 .5 1.7 .5c.4 .4 .8 1.2 .8 1.6l-.8 .4c-.5-.4-.5-.8-.9-1.2c0 0-.4-.4-.8-.4c-.8 0-1.2 .4-1.7 .8c0 .4-.4 1.2-.4 2.1c0 .8 .4 1.6 .4 2.1c.5 .4 .9 .4 1.7 .4c.4 0 .8 0 .8-.4c.4-.5 .9-.9 .9-1.3Z" class="g5_202"/>
<path d="M185.4 590.3c0-1.3 .4-2.5 1.3-2.9c.4-.4 1.2-.9 2-.9c.9 0 1.7 .5 2.1 .9c.8 .8 1.3 1.6 1.3 2.9c0 .8-.5 1.2-.5 2.1c-.4 .4-.8 .8-1.2 .8c-.4 .4-1.2 .4-1.7 .4c-1.2 0-1.6 0-2.5-.8c-.4-.4-.8-1.3-.8-2.5m1.3 0c0 .8 0 1.2 .4 2.1c.4 .4 .8 .4 1.6 .4c.5 0 .9 0 1.3-.4c.4-.9 .8-1.3 .8-2.1c0-.9-.4-1.7-.8-2.1c-.4-.4-.8-.8-1.3-.8c-.8 0-1.2 .4-1.6 .8c-.4 .4-.4 1.2-.4 2.1Z" class="g5_202"/>
<path d="M193.3 593.6v-7.1h.8v1.3c.5-.4 .9-.8 .9-.8q.4-.5 .8-.5c.4 0 .8 0 1.2 .5l-.4 1.2c-.4-.4-.8-.4-.8-.4q-.4 0-.8 .4c0 0-.4 0-.4 .4v5Z" class="g5_202"/>
<path d="M202 593.6v-.8c-.4 .8-.8 .8-1.6 .8c-.9 0-1.3 0-1.7-.4c-.4 0-.8-.4-1.2-1.3c0-.4-.5-1.2-.5-1.6c0-.9 .5-1.3 .5-2.1c.4-.4 .8-.8 1.2-1.2c.4-.5 .8-.5 1.2-.5c.5 0 .9 0 1.3 .5c.4 0 .8 .4 .8 .4V584h1.3v9.6Zm-3.7-3.3c0 .8 .4 1.2 .8 2.1c.4 .4 .8 .4 1.3 .4c.4 0 .8 0 1.2-.4c.4-.5 .4-1.3 .4-2.1c0-.9 0-1.7-.4-2.1c-.4-.4-.8-.8-1.2-.8c-.5 0-1.3 .4-1.3 .8c-.4 .4-.8 1.2-.8 2.1Z" class="g5_202"/>
<path d="M204.5 591.5h1.3c0 .4 .4 .9 .4 .9c.4 .4 .8 .4 1.2 .4q.8 0 1.3-.4c.4 0 .4-.5 .4-.9c0 0 0-.4-.4-.4c0 0-.5-.4-1.3-.4c-.8-.4-1.2-.4-1.6-.4q-.5-.4-.9-.9v-1.6c0-.4 .4-.4 .9-.8c0 0 .4 0 .4-.5h1.2c.4 0 .8 0 1.3 .5c.4 0 .8 .4 .8 .4c.4 .4 .4 .8 .4 1.2h-.8q-.4-.4-.9-.8c0 0-.4-.4-.8-.4c-.4 0-.8 .4-1.2 .4c0 0-.4 .4-.4 .8l.4 .4h.4c0 0 .4 .4 .8 .4c.8 .5 1.7 .5 1.7 .5c.4 .4 .8 .4 .8 .8c.4 0 .4 .4 .4 .8c0 .4 0 .9-.4 1.3c0 .4-.4 .4-.8 .8h-1.7c-.8 0-1.6 0-2.1-.4c-.4-.4-.8-.8-.8-1.7Z" class="g5_202"/>
<path d="M142.2 606.9l3.8-9.6h1.2l3.8 9.6h-1.3l-1.2-2.9h-4.2l-.8 2.9Zm2.5-3.7h3.4l-.9-3c-.4-.8-.8-1.2-.8-1.6c0 .4-.4 .8-.4 1.6Z" class="g5_202"/>
<path d="M151.8 606.9v-7.1H153v1.3c0-.4 .5-.9 .9-.9c0-.4 .4-.4 .4-.4c.4 0 .8 0 1.2 .4l-.4 1.3c0-.4-.4-.4-.8-.4c0 0-.4 0-.4 .4q-.4 0-.9 .4v5Z" class="g5_202"/>
<path d="M156.4 609.4l-.5-.9h1.7v-.4c.4 0 .4-.4 .4-.8c0 0 0-.4 .4-.4l-2.9-7.1h1.3l1.6 4.2c0 .4 .5 1.2 .5 1.6c0-.4 .4-1.2 .4-1.6l1.6-4.2h1.3l-2.9 7.1c0 .8-.4 1.2-.4 1.6c-.5 .5-.5 .9-.9 .9c-.4 .4-.8 .4-.8 .4c-.4 0-.8 0-.8-.4Z" class="g5_202"/>
<path d="M165.5 606.1v.8h-1.7l-.4-.4c0-.4-.4-.9-.4-1.7v-3.7h-.8v-1.3h.8v-1.6l1.2-.4v2h1.3v1.3h-1.3v4.5h.5q0 .5 .4 .5Z" class="g5_202"/>
<path d="M171.3 604.8h1.3c0 .8-.5 1.3-.9 1.7c-.8 .4-1.2 .4-2.1 .4c-1.2 0-2 0-2.4-.8c-.5-.5-.9-1.3-.9-2.5c0-1.3 .4-2.1 .9-2.9c.4-.5 1.2-.9 2.4-.9c.9 0 1.7 .4 2.1 .9c.4 .8 .9 1.6 .9 2.9h-5c0 .8 0 1.6 .4 2c.4 .5 .8 .5 1.6 .5c.5 0 .9 0 .9-.5c.4 0 .8-.4 .8-.8m-3.7-2.1h3.7c0-.4 0-.8-.4-1.2c-.4-.4-.8-.8-1.3-.8c-.8 0-1.2 .4-1.6 .8c-.4 .4-.4 .8-.4 1.2Z" class="g5_202"/>
<path d="M174.2 606.9v-7.1h.8v1.3c.5-.9 1.3-1.3 2.1-1.3c.4 0 .8 0 1.3 .4c.4 0 .8 0 .8 .5c0 .4 .4 .4 .4 .8v5.4h-1.2v-5.4l-.5-.4h-.8c-.4 0-.8 0-1.2 .4c-.4 0-.9 .8-.9 1.7v3.7Z" class="g5_202"/>
<path d="M180.9 603.6c0-1.3 .4-2.5 1.2-2.9c.4-.5 1.2-.9 2.1-.9c.8 0 1.6 .4 2.5 .9c.4 .8 .8 1.6 .8 2.9c0 .8 0 1.2-.4 2c-.4 .5-.9 .9-1.3 .9c-.4 .4-.8 .4-1.6 .4c-.9 0-1.7 0-2.5-.8c-.4-.5-.8-1.3-.8-2.5m1.2 0c0 .8 .4 1.2 .8 2c.4 .5 .9 .5 1.3 .5c.8 0 1.2 0 1.6-.5c.4-.8 .4-1.2 .4-2c0-.9 0-1.7-.4-2.1c-.4-.4-.8-.8-1.6-.8c-.4 0-.9 .4-1.3 .8c-.4 .4-.8 1.2-.8 2.1Z" class="g5_202"/>
<path d="M188.7 597.3H190v1.3h-1.3v-1.3Zm0 2.5H190v7.1h-1.3v-7.1Z" class="g5_202"/>
<path d="M188.7 597.3H190v1.3h-1.3v-1.3Zm0 2.5H190v7.1h-1.3v-7.1Z" class="g6_202"/>
<path d="M196.2 606.9v-.8c-.4 .8-1.2 .8-2.1 .8c-.4 0-.8 0-1.2-.4c-.4 0-.8-.4-1.3-1.3c0-.4-.4-1.2-.4-1.6c0-.9 .4-1.3 .4-2.1c.5-.4 .5-.8 1.3-1.3c.4-.4 .8-.4 1.2-.4c.5 0 .9 0 1.3 .4c.4 0 .4 .5 .8 .5v-3.4h1.3v9.6Zm-3.7-3.3c0 .8 .4 1.2 .8 2c0 .5 .4 .5 1.3 .5c.4 0 .8 0 1.2-.5c.4-.4 .4-1.2 .4-2c0-.9 0-1.7-.4-2.1c-.4-.4-.8-.8-1.2-.8c-.9 0-1.3 .4-1.7 .8c0 .4-.4 1.2-.4 2.1Z" class="g5_202"/>
<path d="M198.7 604.8h1.2c0 .4 0 .8 .5 .8c.4 .5 .8 .5 1.2 .5c.4 0 .8 0 1.3-.5c.4 0 .4-.4 .4-.8c0 0 0-.4-.4-.4c0 0-.5-.4-1.3-.4c-.8-.4-1.2-.4-1.7-.4c-.4-.4-.8-.4-.8-.9c0-.4-.4-.4-.4-.8c0-.4 .4-.8 .4-.8c0-.4 .4-.4 .4-.9q.4 0 .9-.4h1.2c.4 0 .8 0 1.3 .4c.4 0 .8 .5 .8 .5c.4 .4 .4 .8 .4 1.2h-1.2q0-.4-.5-.8c0 0-.4-.4-.8-.4c-.8 0-.8 .4-1.2 .4c-.5 0-.5 .4-.5 .8v.4h.9c0 0 .4 .4 .8 .4c.8 .5 1.3 .5 1.7 .5c.4 .4 .8 .4 .8 .8c.4 0 .4 .4 .4 .8c0 .4-.4 .8-.4 1.3q-.4 .4-.8 .8h-1.7c-.8 0-1.7 0-2.1-.4c-.4-.4-.8-.9-.8-1.7Z" class="g5_202"/>
<path d="M143.1 620.2v-9.6h7v1.3h-5.8v2.9h5.4V616h-5.4v2.9h5.8v1.3Z" class="g5_202"/>
<path d="M143.1 620.2v-9.6h7v1.3h-5.8v2.9h5.4V616h-5.4v2.9h5.8v1.3h-7Z" class="g6_202"/>
<path d="M151.8 622.7v-9.6H153v1.3c0-.5 .5-.9 .9-.9c.4-.4 .8-.4 1.2-.4c.4 0 .8 0 1.3 .4c.4 .4 .8 .9 1.2 1.3c0 .8 .4 1.2 .4 2.1c0 .4-.4 1.2-.4 1.6c-.4 .8-.8 1.3-1.2 1.3c-.5 .4-.9 .4-1.7 .4h-.8q-.4-.4-.9-.9v3.4Zm1.2-5.8c0 .8 0 1.6 .5 2c.4 .4 .8 .4 1.2 .4c.4 0 1.2 0 1.2-.4c.5-.8 .9-1.2 .9-2c0-1.3-.4-1.7-.9-2.1c0-.4-.4-.9-1.2-.9c-.4 0-.8 .5-1.2 .9c-.5 .4-.5 1.2-.5 2.1Z" class="g5_202"/>
<path d="M159.3 610.6h1.2v1.3h-1.2v-1.3Zm0 2.5h1.2v7.1h-1.2v-7.1Z" class="g5_202"/>
<path d="M159.3 610.6h1.2v1.3h-1.2v-1.3Zm0 2.5h1.2v7.1h-1.2v-7.1Z" class="g6_202"/>
<path d="M162.2 620.6l.8 .4c0 .4 .4 .4 .4 .8h2.5c.4-.4 .4-.8 .8-1.2v-1.3c-.4 .5-1.2 .9-2 .9c-.9 0-1.7-.4-2.1-.9c-.4-.8-.8-1.6-.8-2.4c0-.9 0-1.3 .4-2.1c.4-.4 .4-.9 .8-1.3c.8-.4 1.2-.4 1.7-.4c.8 0 1.6 .4 2 .8v-.8H168v6.2c0 .9-.4 1.7-.4 2.1c-.4 .4-.4 .9-1.3 1.3c-.4 0-.8 .4-1.6 .4c-.9 0-1.3-.4-2.1-.8c-.4 0-.4-.9-.4-1.7m.8-4.2c0 1.3 0 1.7 .4 2.1c.4 .4 .8 .8 1.7 .8c.4 0 .8-.4 1.2-.8c.4-.4 .4-.8 .4-1.6c0-.9 0-1.7-.4-2.1c-.4-.4-.8-.9-1.6-.9c-.5 0-.9 .5-1.3 .9c-.4 .4-.4 .8-.4 1.6Z" class="g5_202"/>
<path d="M169.6 610.6h1.3v9.6h-1.3v-9.6Z" class="g5_202"/>
<path d="M169.6 610.6h1.3v9.6h-1.3v-9.6Z" class="g6_202"/>
<path d="M172.1 616.9c0-1.3 .5-2.5 1.3-3c.4-.4 1.2-.8 2.1-.8c.8 0 1.6 .4 2 .8c.9 .9 1.3 1.7 1.3 3c0 .8-.4 1.2-.4 2c-.5 .4-.9 .9-1.3 .9c-.4 .4-1.2 .4-1.6 .4c-1.3 0-1.7 0-2.5-.9c-.4-.4-.9-1.2-.9-2.4m1.3 0c0 .8 0 1.2 .4 2c.4 .4 .8 .4 1.7 .4c.4 0 .8 0 1.2-.4c.4-.8 .8-1.2 .8-2c0-.9-.4-1.7-.8-2.1c-.4-.4-.8-.9-1.2-.9c-.9 0-1.3 .5-1.7 .9c-.4 .4-.4 1.2-.4 2.1Z" class="g5_202"/>
<path d="M182.5 619.3v.9h-1.6l-.5-.4c-.4-.5-.4-.9-.4-1.7v-3.7h-.8v-1.3h.8v-1.6l1.3-.5v2.1h1.2v1.3h-1.2v4.5h.4q0 .4 .4 .4Z" class="g5_202"/>
<path d="M186.2 619.3v.9h-1.6l-.4-.4c-.4-.5-.4-.9-.4-1.7v-3.7h-.9v-1.3h.9v-1.6l1.2-.5v2.1h1.2v1.3H185v4.5h.4q0 .4 .4 .4Z" class="g5_202"/>
<path d="M187.5 610.6h.8v1.3h-.8v-1.3Zm0 2.5h.8v7.1h-.8v-7.1Z" class="g5_202"/>
<path d="M187.5 610.6h.8v1.3h-.8v-1.3Zm0 2.5h.8v7.1h-.8v-7.1Z" class="g6_202"/>
<path d="M190 618.1h.8c.4 .4 .4 .8 .8 .8c0 .4 .5 .4 1.3 .4c.4 0 .8 0 1.2-.4c0 0 .5-.4 .5-.8l-.5-.4c-.4 0-.8-.4-1.2-.4c-.8-.4-1.7-.4-1.7-.4c-.4-.5-.8-.5-.8-.9q-.4-.4-.4-.8c0-.4 0-.8 .4-.8q0-.5 .4-.9c0 0 .4 0 .8-.4h.9c.8 0 1.2 0 1.6 .4c.5 0 .5 .4 .9 .4c0 .5 .4 .9 .4 1.3h-1.3q0-.4-.4-.8c-.4 0-.8-.5-1.2-.5c-.4 0-.9 .5-.9 .5c-.4 0-.4 .4-.4 .8v.4h.4c.5 0 .5 .4 1.3 .4c.8 .4 1.2 .4 1.7 .4q.4 .5 .8 .9v2c-.4 .5-.8 .5-1.3 .9h-1.2c-.8 0-1.7 0-2.1-.4c-.4-.5-.8-.9-.8-1.7Z" class="g5_202"/>
<path d="M142.2 633.5l3.8-9.6h1.2l3.8 9.6h-1.3l-1.2-2.9h-4.2l-.8 2.9Zm2.5-3.8h3.4l-.9-2.9c-.4-.8-.8-1.2-.8-1.6c0 .4-.4 .8-.4 1.6Z" class="g5_202"/>
<path d="M151.8 633.5v-7.1H153v1.3c0-.5 .5-.9 .9-.9c0-.4 .4-.4 .4-.4c.4 0 .8 0 1.2 .4l-.4 1.3c0-.4-.4-.4-.8-.4c0 0-.4 0-.4 .4q-.4 0-.9 .4v5Z" class="g5_202"/>
<path d="M156.4 636l-.5-.9h1.7v-.4c.4 0 .4-.4 .4-.8c0 0 0-.4 .4-.4l-2.9-7.1h1.3l1.6 4.2c0 .4 .5 1.2 .5 1.6c0-.4 .4-1.2 .4-1.6l1.6-4.2h1.3l-2.9 7.1c0 .8-.4 1.2-.4 1.6c-.5 .4-.5 .9-.9 .9c-.4 .4-.8 .4-.8 .4c-.4 0-.8 0-.8-.4Z" class="g5_202"/>
<path d="M165.5 632.6v.9h-1.7l-.4-.4c0-.5-.4-.9-.4-1.7v-3.7h-.8v-1.3h.8v-1.7l1.2-.4v2.1h1.3v1.3h-1.3v4.5h.5q0 .4 .4 .4Z" class="g5_202"/>
<path d="M171.3 631.4h1.3c0 .8-.5 1.2-.9 1.7c-.8 .4-1.2 .4-2.1 .4c-1.2 0-2 0-2.4-.9c-.5-.4-.9-1.2-.9-2.5c0-1.2 .4-2 .9-2.9c.4-.4 1.2-.8 2.4-.8c.9 0 1.7 .4 2.1 .8c.4 .9 .9 1.7 .9 2.9h-5c0 .9 0 1.7 .4 2.1c.4 .4 .8 .4 1.6 .4c.5 0 .9 0 .9-.4c.4 0 .8-.4 .8-.8m-3.7-2.1h3.7c0-.4 0-.8-.4-1.2c-.4-.4-.8-.9-1.3-.9c-.8 0-1.2 .5-1.6 .9c-.4 .4-.4 .8-.4 1.2Z" class="g5_202"/>
<path d="M174.2 633.5v-7.1h.8v1.3c.5-.9 1.3-1.3 2.1-1.3c.4 0 .8 0 1.3 .4c.4 0 .8 0 .8 .4c0 .5 .4 .5 .4 .9v5.4h-1.2v-5.4l-.5-.4h-.8c-.4 0-.8 0-1.2 .4c-.4 0-.9 .8-.9 1.6v3.8Z" class="g5_202"/>
<path d="M180.9 630.1c0-1.2 .4-2.4 1.2-2.9c.4-.4 1.2-.8 2.1-.8c.8 0 1.6 .4 2.5 .8c.4 .9 .8 1.7 .8 2.9c0 .9 0 1.3-.4 2.1c-.4 .4-.9 .9-1.3 .9c-.4 .4-.8 .4-1.6 .4c-.9 0-1.7 0-2.5-.9c-.4-.4-.8-1.2-.8-2.5m1.2 0c0 .9 .4 1.3 .8 2.1c.4 .4 .9 .4 1.3 .4c.8 0 1.2 0 1.6-.4c.4-.8 .4-1.2 .4-2.1c0-.8 0-1.6-.4-2c-.4-.4-.8-.9-1.6-.9c-.4 0-.9 .5-1.3 .9c-.4 .4-.8 1.2-.8 2Z" class="g5_202"/>
<path d="M193.7 631.4h.9c0 .8-.5 1.2-.9 1.7c-.4 .4-1.2 .4-2.1 .4c-.8 0-1.6 0-2.4-.9c-.5-.4-.9-1.2-.9-2.5c0-1.2 .4-2 .9-2.9c.8-.4 1.6-.8 2.4-.8c.9 0 1.7 .4 2.1 .8c.9 .9 1.3 1.7 1.3 2.9h-5.4c0 .9 .4 1.7 .8 2.1c.4 .4 .8 .4 1.2 .4c.5 0 .9 0 1.3-.4c.4 0 .4-.4 .8-.8m-4.1-2.1h4.1c-.4-.4-.4-.8-.4-1.2c-.4-.4-1.2-.9-1.7-.9c-.4 0-.8 .5-1.2 .9c-.4 .4-.8 .8-.8 1.2Z" class="g5_202"/>
<path d="M196.2 636v-9.6h1.3v1.3c0-.5 .4-.9 .8-.9c0-.4 .4-.4 .8-.4c.8 0 1.3 0 1.7 .4c.4 .4 .8 .9 1.2 1.3v2c0 .5 0 1.3-.4 1.7c0 .8-.4 1.3-.8 1.3c-.4 .4-1.3 .4-1.7 .4h-.8c-.4-.4-.8-.4-.8-.9V636Zm1.3-5.9c0 .9 0 1.7 .4 2.1c.4 .4 .8 .4 1.2 .4c.4 0 .8 0 1.3-.4c.4-.8 .8-1.2 .8-2.1c0-1.2-.4-1.6-.8-2c-.5-.4-.9-.9-1.3-.9c-.4 0-.8 .5-1.2 .9c-.4 .4-.4 1.2-.4 2Z" class="g5_202"/>
<path d="M203.7 623.9h1.2v1.3h-1.2v-1.3Zm0 2.5h1.2v7.1h-1.2v-7.1Z" class="g5_202"/>
<path d="M203.7 623.9h1.2v1.3h-1.2v-1.3Zm0 2.5h1.2v7.1h-1.2v-7.1Z" class="g6_202"/>
<path d="M206.2 633.9l1.2 .4c0 .4 .4 .4 .4 .8h2.5c.4-.4 .4-.8 .4-1.2c.5 0 .5-.4 .5-1.3c-.9 .5-1.3 .9-2.1 .9c-.9 0-1.7-.4-2.1-.9c-.8-.8-.8-1.6-.8-2.5c0-.8 0-1.2 .4-2c0-.4 .4-.9 .8-1.3c.4-.4 1.3-.4 1.7-.4c.8 0 1.6 .4 2.1 .8v-.8h.8v8.3c-.4 .4-.8 .8-1.3 1.3c-.4 0-.8 .4-1.6 .4c-.9 0-1.7-.4-2.1-.9c-.4 0-.8-.8-.8-1.6m1.2-4.2c0 1.3 0 1.7 .4 2.1c.4 .4 .9 .8 1.3 .8c.8 0 1.2-.4 1.2-.8c.4-.4 .9-.8 .9-1.7c0-.8-.5-1.6-.9-2c0-.4-.8-.9-1.2-.9c-.4 0-.9 .5-1.3 .9c-.4 .4-.4 .8-.4 1.6Z" class="g5_202"/>
<path d="M214.1 623.9h.8v9.6h-.8v-9.6Z" class="g5_202"/>
<path d="M214.1 623.9h.8v9.6h-.8v-9.6Z" class="g6_202"/>
<path d="M216.6 630.1c0-1.2 .4-2.4 .8-2.9c.8-.4 1.2-.8 2.5-.8c.8 0 1.6 .4 2 .8c.9 .9 .9 1.7 .9 2.9c0 .9 0 1.3-.4 2.1c0 .4-.5 .9-.9 .9c-.8 .4-1.2 .4-1.6 .4c-1.3 0-2.1 0-2.5-.9c-.8-.4-.8-1.2-.8-2.5m1.2 0c0 .9 0 1.3 .4 2.1c.4 .4 .8 .4 1.7 .4c.4 0 .8 0 1.2-.4c.4-.8 .4-1.2 .4-2.1c0-.8 0-1.6-.4-2c-.4-.4-.8-.9-1.2-.9c-.9 0-1.3 .5-1.7 .9c-.4 .4-.4 1.2-.4 2Z" class="g5_202"/>
<path d="M226.9 632.6v.9h-1.6q-.4-.4-.9-.4v-5.4h-.8v-1.3h.8v-1.7l1.3-.4v2.1h1.2v1.3h-1.2v4.5h.4v.4Z" class="g5_202"/>
<path d="M230.7 632.6v.9H229q-.4-.4-.8-.4v-5.4h-.9v-1.3h.9v-1.7l1.2-.4v2.1h1.3v1.3h-1.3v4.5l.4 .4Z" class="g5_202"/>
<path d="M231.5 623.9h1.2v1.3h-1.2v-1.3Zm0 2.5h1.2v7.1h-1.2v-7.1Z" class="g5_202"/>
<path d="M231.5 623.9h1.2v1.3h-1.2v-1.3Zm0 2.5h1.2v7.1h-1.2v-7.1Z" class="g6_202"/>
<path d="M239 631h1.2c0 .8-.4 1.6-.8 2.1c-.4 .4-1.3 .4-2.1 .4c-.8 0-1.7 0-2.1-.9c-.8-.4-.8-1.2-.8-2.5c0-.8 0-1.6 .4-2c0-.4 .4-.9 .8-1.3c.5-.4 1.3-.4 1.7-.4c.8 0 1.3 .4 2.1 .4c.4 .4 .4 1.3 .8 1.7l-1.2 .4c0-.4-.4-.8-.4-1.2c-.5 0-.9-.5-1.3-.5c-.4 0-.8 .5-1.2 .9c-.5 .4-.5 1.2-.5 2c0 .9 0 1.7 .5 2.1c.4 .4 .8 .4 1.2 .4c.4 0 .8 0 1.3-.4c.4-.4 .4-.8 .4-1.2Z" class="g5_202"/>
<path d="M245.2 633.5v-5.8h-.8v-1.3h.8v-1.7q.4-.4 .8-.8h2.1v.8h-.8c-.4 0-.4 .5-.9 .5v1.2h1.3v1.3h-1.3v5.8Z" class="g5_202"/>
<path d="M248.1 630.1c0-1.2 .4-2.4 1.2-2.9c.5-.4 1.3-.8 2.1-.8c.8 0 1.7 .4 2.5 .8c.4 .9 .8 1.7 .8 2.9c0 .9-.4 1.3-.4 2.1c-.4 .4-.8 .9-1.2 .9c-.4 .4-1.3 .4-1.7 .4c-.8 0-1.6 0-2.5-.9c-.4-.4-.8-1.2-.8-2.5m1.2 0c0 .9 .5 1.3 .5 2.1c.4 .4 1.2 .4 1.6 .4c.4 0 1.3 0 1.3-.4c.4-.8 .8-1.2 .8-2.1c0-.8-.4-1.6-.8-2c0-.4-.9-.9-1.3-.9c-.4 0-1.2 .5-1.6 .9c0 .4-.5 1.2-.5 2Z" class="g5_202"/>
<path d="M256 623.9h1.2v9.6H256v-9.6Z" class="g5_202"/>
<path d="M256 623.9h1.2v9.6H256v-9.6Z" class="g6_202"/>
<path d="M263.5 633.5v-.9c-.5 .9-1.3 .9-2.1 .9c-.4 0-.8 0-1.3-.4c-.4 0-.8-.5-1.2-1.3c-.4-.4-.4-1.2-.4-1.7c0-.8 0-1.2 .4-2c.4-.4 .4-.9 .8-1.3c.9-.4 1.3-.4 1.7-.4c.4 0 .8 0 1.2 .4c.4 0 .4 .4 .9 .4v-3.3h1.2v9.6Zm-3.8-3.4c0 .9 0 1.3 .4 2.1c.5 .4 .9 .4 1.7 .4c.4 0 .8 0 1.2-.4c.5-.4 .5-1.2 .5-2.1c0-.8 0-1.6-.5-2c-.4-.4-.8-.9-1.6-.9c-.4 0-.8 .5-1.3 .9c-.4 .4-.4 1.2-.4 2Z" class="g5_202"/>
<path d="M137.7 643v-1.2h4.1v3.7c-.8 .4-1.2 .8-2 1.3h-2.1c-.8 0-1.7 0-2.5-.5c-.8-.4-1.3-.8-1.7-1.6c-.4-.8-.8-1.7-.8-2.5c0-1.3 .4-2.1 .8-2.9c.4-.4 .9-1.3 1.7-1.7c.8-.4 1.7-.4 2.5-.4c.8 0 1.2 0 1.6 .4c.9 0 1.3 .4 1.7 .9c0 .4 .4 .8 .4 1.6h-.8c-.4-.4-.4-.8-.8-.8c0-.4-.5-.8-.9-.8c-.4 0-.8-.5-1.2-.5c-.4 0-1.3 .5-1.7 .5c-.4 0-.4 .4-.8 .8c-.4 0-.4 .4-.8 .8v2.1c0 .8 0 1.2 .4 2.1c0 .4 .4 .8 1.2 1.2c.4 0 1.3 .4 1.7 .4c.4 0 1.2-.4 1.6-.4c.5-.4 .9-.4 1.3-.8V643Z" class="g5_202"/>
<path d="M143.5 637.2h1.2v9.6h-1.2v-9.6Z" class="g5_202"/>
<path d="M143.5 637.2h1.2v9.6h-1.2v-9.6Z" class="g6_202"/>
<path d="M146 643.4c0-1.2 .4-2.5 .8-2.9c.8-.4 1.7-.8 2.5-.8c.8 0 1.7 .4 2.1 .8c.8 .9 .8 1.7 .8 2.9c0 .9 0 1.3-.4 2.1c0 .4-.4 .8-.8 .8c-.9 .5-1.3 .5-1.7 .5c-1.2 0-2.1 0-2.5-.9c-.4-.4-.8-1.2-.8-2.5m1.2 0c0 .9 0 1.3 .4 2.1c.5 .4 .9 .4 1.7 .4c.4 0 .8 0 1.3-.4c.4-.8 .8-1.2 .8-2.1c0-.8-.4-1.6-.8-2c-.5-.5-.9-.9-1.3-.9c-.8 0-1.2 .4-1.7 .9c-.4 .4-.4 1.2-.4 2Z" class="g5_202"/>
<path d="M156.4 645.9v.9h-1.7l-.4-.5c-.4-.4-.4-.8-.4-1.6v-3.8H153v-1.2h.9V638l1.2-.4v2.1h1.3v1.2h-1.3v4.6h.4q0 .4 .4 .4Z" class="g5_202"/>
<path d="M160.1 645.9v.9h-1.7q-.4-.5-.8-.5v-5.4h-.8v-1.2h.8V638l1.3-.4v2.1h1.2v1.2h-1.2v4.6h.4v.4Z" class="g5_202"/>
<path d="M160.9 637.2h1.3v1.3h-1.3v-1.3Zm0 2.5h1.3v7.1h-1.3v-7.1Z" class="g5_202"/>
<path d="M160.9 637.2h1.3v1.3h-1.3v-1.3Zm0 2.5h1.3v7.1h-1.3v-7.1Z" class="g6_202"/>
<path d="M163.4 644.7h1.3c0 .4 .4 .8 .8 .8c0 .4 .4 .4 1.2 .4c.5 0 .9 0 .9-.4c.4 0 .4-.4 .4-.8v-.4c-.4 0-.8-.4-1.3-.4c-.8 0-1.6-.5-2-.5c0-.4-.5-.4-.5-.8q-.4-.4-.4-.8v-.9q.4-.4 .9-.8c0 0 .4 0 .8-.4h.8c.4 0 .9 0 1.3 .4c.4 0 .8 .4 1.2 .4c0 .4 0 .9 .4 1.3H168c0-.4-.4-.4-.4-.9c-.4 0-.9-.4-1.3-.4c-.4 0-.8 .4-1.2 .4v1.3h.4c0 0 .4 .4 1.2 .4c.9 .4 1.3 .4 1.7 .4q.4 .4 .8 .9v.8c0 .4 0 .8-.4 1.2c0 .4-.4 .4-.8 .9h-1.3c-1.2 0-1.6 0-2-.5c-.9-.4-.9-.8-1.3-1.6Z" class="g5_202"/>
<path d="M132.7 657.1l1.2-.4c0 .9 .5 1.3 .5 1.3c.4 .4 .4 .8 .8 .8c.4 0 1.2 .4 1.7 .4c.4 0 .8 0 1.2-.4c.4 0 .4-.4 .8-.4c0-.4 .4-.4 .4-.8c0-.5-.4-.9-.4-.9c0-.4-.4-.4-.8-.4c-.4-.4-.8-.4-1.7-.8c-.8 0-1.6 0-2-.4c-.5-.5-.9-.5-.9-.9c-.4-.4-.4-.8-.4-1.2c0-.4 0-.8 .4-1.3c.4-.4 .9-.8 1.3-.8c.4-.4 1.2-.4 1.6-.4c.9 0 1.3 0 2.1 .4c.4 0 .8 .4 1.3 .8c0 .5 .4 .9 .4 1.7h-1.3c0-.8-.4-1.2-.8-1.2c-.4-.5-.8-.9-1.7-.9c-.8 0-1.2 .4-1.6 .4c-.4 .5-.4 .9-.4 1.3q0 .4 .4 .8c.4 0 .8 .4 1.6 .8c1.3 0 2.1 .5 2.5 .5c.4 .4 .9 .4 1.3 .8v1.7c0 .4 0 .8-.4 1.2c0 .4-.5 .8-1.3 1.2h-3.7c-.9-.4-1.3-.8-1.7-1.2c0-.4-.4-1.2-.4-1.7Z" class="g5_202"/>
<path d="M146.4 660v-.8c-.4 .4-1.2 .8-2.1 .8h-1.2q-.4-.4-.9-.8c0 0 0-.4-.4-.8V653h1.3v5.4l.4 .4c.4 .4 .8 .4 .8 .4c.4 0 .9 0 1.3-.4c.4 0 .4-.4 .4-.4c.4-.4 .4-.8 .4-1.7V653h1.2v7Z" class="g5_202"/>
<path d="M150.6 660h-1.3v-9.5h1.3v3.3c.4-.4 1.2-.8 1.6-.8c.4 0 .8 0 1.3 .4c.4 0 .8 .4 1.2 .4c0 .4 .4 .8 .4 1.3v1.6c0 .9 0 2.1-.8 2.5c-.4 .8-1.3 .8-2.1 .8c-.8 0-1.2 0-1.6-.8Zm0-3.3v1.7c.4 .4 1.2 .8 1.6 .8c.4 0 .8 0 1.3-.4c.4-.8 .8-1.2 .8-2.1c0-.8-.4-1.6-.8-2.1c-.5-.4-.9-.8-1.3-.8c-.4 0-.8 .4-1.2 .8c-.4 .5-.4 1.3-.4 2.1Z" class="g5_202"/>
<path d="M156.4 660.5l1.2 .4q0 .4 .4 .8h2.5c.4-.4 .4-.8 .4-1.2c0 0 .4-.5 .4-1.3c-.8 .4-1.2 .8-2 .8c-.9 0-1.7-.4-2.1-.8c-.8-.8-.8-1.6-.8-2.5c0-.8 0-1.2 .4-2.1c0-.4 .4-.8 .8-1.2c.4-.4 .8-.4 1.7-.4c.8 0 1.6 .4 2 .8V653h.9v8.3c-.4 .4-.9 .8-1.3 1.2c-.4 0-.8 .5-1.6 .5c-.9 0-1.7-.5-2.1-.9c-.4 0-.8-.8-.8-1.6m1.2-4.2c0 1.3 0 1.7 .4 2.1c.4 .4 .9 .8 1.3 .8c.4 0 1.2-.4 1.2-.8c.4-.4 .8-.8 .8-1.7c0-.8-.4-1.6-.8-2.1c0-.4-.8-.8-1.2-.8c-.4 0-.9 .4-1.3 .8c-.4 .5-.4 .9-.4 1.7Z" class="g5_202"/>
<path d="M164.2 650.5h.9V660h-.9v-9.5Z" class="g5_202"/>
<path d="M164.2 650.5h.9V660h-.9v-9.5Z" class="g6_202"/>
<path d="M166.7 656.7c0-1.2 .5-2.5 .9-2.9c.8-.4 1.2-.8 2-.8c1.3 0 2.1 .4 2.5 .8c.9 .8 .9 1.7 .9 2.9c0 .9 0 1.3-.4 2.1c0 .4-.5 .8-1.3 .8c-.4 .4-.8 .4-1.7 .4c-.8 0-1.6 0-2-.8c-.9-.4-.9-1.2-.9-2.5m1.3 0c0 .9 0 1.3 .4 2.1c.4 .4 .8 .4 1.2 .4c.9 0 1.3 0 1.7-.4c.4-.8 .4-1.2 .4-2.1c0-.8 0-1.6-.4-2.1c-.4-.4-.8-.8-1.7-.8c-.4 0-.8 .4-1.2 .8c-.4 .5-.4 1.3-.4 2.1Z" class="g5_202"/>
<path d="M177.1 659.2v.8h-1.6q-.5-.4-.9-.4v-5.4h-.8V653h.8v-1.7l1.3-.4V653h1.2v1.2h-1.2v4.6l.4 .4Z" class="g5_202"/>
<path d="M180.9 659.2v.8h-2.1q0-.4-.4-.4v-5.4h-.9V653h.9v-1.7l1.2-.4V653h1.3v1.2h-1.3v4.6l.4 .4Z" class="g5_202"/>
<path d="M181.7 650.5h1.2v1.2h-1.2v-1.2Zm0 2.5h1.2v7h-1.2v-7Z" class="g5_202"/>
<path d="M181.7 650.5h1.2v1.2h-1.2v-1.2Zm0 2.5h1.2v7h-1.2v-7Z" class="g6_202"/>
<path d="M184.2 658h1.2c0 .4 .4 .8 .4 .8c.4 .4 .9 .4 1.3 .4c.8 0 1.2 0 1.2-.4c.4 0 .4-.4 .4-.8c0 0 0-.4-.4-.4c0 0-.4-.5-1.2-.5c-.9 0-1.3-.4-1.7-.4q-.4-.4-.8-.8v-1.7q.4-.4 .8-.8c0 0 .4 0 .4-.4h1.3c.4 0 .8 0 1.2 .4c.4 0 .9 .4 .9 .4c.4 .4 .4 .8 .4 1.3h-.9c0-.5-.4-.5-.4-.9c-.4 0-.8-.4-1.2-.4c-.4 0-.9 .4-1.3 .4c0 0-.4 .4-.4 .9c0 0 .4 0 .4 .4h.4c0 0 .5 .4 .9 .4c.8 .4 1.6 .4 2.1 .4c0 .4 .4 .4 .4 .8c.4 0 .4 .5 .4 .9c0 .4 0 .8-.4 1.2c0 .4-.4 .4-.9 .8h-1.6c-.9 0-1.3 0-2.1-.4c-.4-.4-.4-.8-.8-1.6Z" class="g5_202"/>
<image clip-path="url(#c2_202)" preserveAspectRatio="none" x="623" y="240" width="501" height="524" href="img/2.jpg"/>
</svg>