<svg viewBox="0 0 1210 935" version="1.1" xmlns="http://www.w3.org/2000/svg">
<defs>
<clipPath id="c0_225"><path d="M35.7 107V29.4H267.3V107Z"/></clipPath>
<style>
.g0_225{fill:none;stroke:#005B99;stroke-width:2.673;stroke-linejoin:round;}
.g1_225{fill:#005B99;}
</style>
</defs>
<path d="M34.4 121H1172.9" class="g0_225"/>
<image clip-path="url(#c0_225)" preserveAspectRatio="none" x="36" y="30" width="231" height="77" href="img/1.jpg"/>
<path d="M35.4 190.7H404.6v-1.3H35.4v1.3Z" class="g1_225"/>
<path d="M179.7 304.3H548.8v-1.2H179.7v1.2Z" class="g1_225"/>
<path d="M132 398.4H482.8v-1.2H132v1.2Z" class="g1_225"/>
<path d="M132 492.6H492.6v-1.3H132v1.3Z" class="g1_225"/>
<path d="M35.4 606.2H396V605H35.4v1.2Z" class="g1_225"/>
<path d="M35.4 719.9H396v-1.2H35.4v1.2Z" class="g1_225"/>
<path d="M35.4 833.6H396v-1.3H35.4v1.3Z" class="g1_225"/>
<path d="M618.4 229.8H979v-1.2H618.4v1.2Z" class="g1_225"/>
<path d="M618.4 323.9H979v-1.2H618.4v1.2Z" class="g1_225"/>
<path d="M618.4 418H987.6v-1.2H618.4V418Z" class="g1_225"/>
<path d="M618.4 512.1H987.6v-1.2H618.4v1.2Z" class="g1_225"/>
<path d="M618.4 606.2H987.6V605H618.4v1.2Z" class="g1_225"/>
<path d="M618.4 700.3H987.6v-1.2H618.4v1.2Z" class="g1_225"/>
<path d="M618.4 794.4H987.6v-1.2H618.4v1.2Z" class="g1_225"/>
</svg>