<?xml version="1.0" encoding="UTF-8" standalone="no"?>
<!DOCTYPE svg PUBLIC "-//W3C//DTD SVG 1.1//EN"
"http://www.w3.org/Graphics/SVG/1.1/DTD/svg11.dtd">
<svg viewBox="0 0 908 1286" version="1.1" xmlns="http://www.w3.org/2000/svg" xmlns:xlink="http://www.w3.org/1999/xlink">
<defs>
<clipPath id="c0_60"><path d="M-.2 1286.6V-.2H909.3V1286.6Z"/></clipPath>
<clipPath id="c1_60"><path d="M239.1 188.8V153.6H822.8v35.2Z"/></clipPath>
<clipPath id="c2_60"><path d="M239.1 374.1V190.4H822.8V374.1Z"/></clipPath>
<clipPath id="c3_60"><path d="M239.1 448.8V375.7H822.8v73.1Z"/></clipPath>
<clipPath id="c4_60"><path d="M239.1 484.4v-34H822.8v34Z"/></clipPath>
<clipPath id="c5_60"><path d="M239.1 558.3V523.1H822.8v35.2Z"/></clipPath>
<clipPath id="c6_60"><path d="M239.1 617.8V560H822.8v57.8Z"/></clipPath>
<clipPath id="c7_60"><path d="M239.1 653.6V619.5H822.8v34.1Z"/></clipPath>
<style type="text/css"><![CDATA[
.g0_60{
fill: none;
stroke: #F78C00;
stroke-width: 8.784;
stroke-linejoin: round;
}
.g1_60{
fill: none;
stroke: #F29400;
stroke-width: 8.784;
stroke-linejoin: round;
}
.g2_60{
fill: #F7BF66;
}
.g3_60{
fill: #FFF;
}
.g4_60{
fill: #FCEACC;
}
.g5_60{
fill: none;
stroke: #F78C00;
stroke-width: 1.527;
stroke-miterlimit: 10;
}
]]></style>
</defs>
<g clip-path="url(#c0_60)">
<path d="M-21.2 1185.1H913.7" class="g0_60"/>
<path d="M-21.2 110.2H913.7" class="g1_60"/>
</g>
<path fill-rule="evenodd" d="M132.3 188.5H237.2V153.9H132.3v34.6Z" class="g2_60"/>
<path fill-rule="evenodd" d="M132.3 188.5H237.2V153.9H132.3v34.6Z" class="g2_60"/>
<path fill-rule="evenodd" d="M239.5 188.5h583V153.9h-583v34.6Z" class="g2_60"/>
<path clip-path="url(#c1_60)" fill-rule="evenodd" d="M239.5 188.5h583V153.9h-583v34.6Z" class="g2_60"/>
<path fill-rule="evenodd" d="M130 153.9h2.3v-2.3H130v2.3Z" class="g3_60"/>
<path fill-rule="evenodd" d="M130 153.9h2.3v-2.3H130v2.3Z" class="g3_60"/>
<path fill-rule="evenodd" d="M132.3 153.9H237.2v-2.3H132.3v2.3Z" class="g3_60"/>
<path fill-rule="evenodd" d="M237.2 153.9h2.3v-2.3h-2.3v2.3Z" class="g3_60"/>
<path fill-rule="evenodd" d="M239.5 153.9H822.6v-2.3H239.5v2.3Z" class="g3_60"/>
<path fill-rule="evenodd" d="M822.6 153.9h2.3v-2.3h-2.3v2.3Z" class="g3_60"/>
<path fill-rule="evenodd" d="M822.6 153.9h2.3v-2.3h-2.3v2.3Z" class="g3_60"/>
<path fill-rule="evenodd" d="M130 188.5h2.3V153.9H130v34.6Z" class="g3_60"/>
<path fill-rule="evenodd" d="M237.2 188.5h2.3V153.9h-2.3v34.6Z" class="g3_60"/>
<path fill-rule="evenodd" d="M822.6 188.5h2.3V153.9h-2.3v34.6Z" class="g3_60"/>
<path fill-rule="evenodd" d="M132.3 373.8H237.2v-183H132.3v183Z" class="g4_60"/>
<path fill-rule="evenodd" d="M132.3 218.4H237.2V190.8H132.3v27.6Z" class="g4_60"/>
<path fill-rule="evenodd" d="M132.3 271H237.2V218.4H132.3V271Z" class="g4_60"/>
<path fill-rule="evenodd" d="M132.3 306.1H237.2V271H132.3v35.1Z" class="g4_60"/>
<path fill-rule="evenodd" d="M132.3 354.1H237.2v-48H132.3v48Z" class="g4_60"/>
<path fill-rule="evenodd" d="M239.5 373.8h583v-183h-583v183Z" class="g4_60"/>
<g clip-path="url(#c2_60)">
<path fill-rule="evenodd" d="M239.5 219.4h583V190.8h-583v28.6Z" class="g4_60"/>
<path fill-rule="evenodd" d="M239.5 238.8h583V219.4h-583v19.4Z" class="g4_60"/>
<path fill-rule="evenodd" d="M239.5 258.3h583V238.8h-583v19.5Z" class="g4_60"/>
<path fill-rule="evenodd" d="M239.5 277.7h583V258.3h-583v19.4Z" class="g4_60"/>
<path fill-rule="evenodd" d="M239.5 306.3h583V277.7h-583v28.6Z" class="g4_60"/>
<path fill-rule="evenodd" d="M239.5 325.7h583V306.3h-583v19.4Z" class="g4_60"/>
<path fill-rule="evenodd" d="M239.5 345.2h583V325.7h-583v19.5Z" class="g4_60"/>
<path fill-rule="evenodd" d="M239.5 373.8h583V345.2h-583v28.6Z" class="g4_60"/>
</g>
<path fill-rule="evenodd" d="M130 190.8h2.3v-2.3H130v2.3Z" class="g3_60"/>
<path fill-rule="evenodd" d="M132.3 190.8H237.2v-2.3H132.3v2.3Z" class="g3_60"/>
<path fill-rule="evenodd" d="M237.2 190.8h2.3v-2.3h-2.3v2.3Z" class="g3_60"/>
<path fill-rule="evenodd" d="M239.5 190.8H822.6v-2.3H239.5v2.3Z" class="g3_60"/>
<path fill-rule="evenodd" d="M822.6 190.8h2.3v-2.3h-2.3v2.3Z" class="g3_60"/>
<path fill-rule="evenodd" d="M130 373.8h2.3v-183H130v183Z" class="g3_60"/>
<path fill-rule="evenodd" d="M237.2 373.8h2.3v-183h-2.3v183Z" class="g3_60"/>
<path fill-rule="evenodd" d="M822.6 373.8h2.3v-183h-2.3v183Z" class="g3_60"/>
<path fill-rule="evenodd" d="M132.3 448.5H237.2V376H132.3v72.5Z" class="g4_60"/>
<path fill-rule="evenodd" d="M132.3 403.6H237.2V376H132.3v27.6Z" class="g4_60"/>
<path fill-rule="evenodd" d="M132.3 448.5H237.2V403.6H132.3v44.9Z" class="g4_60"/>
<path fill-rule="evenodd" d="M239.5 448.5h583V376h-583v72.5Z" class="g4_60"/>
<path clip-path="url(#c3_60)" fill-rule="evenodd" d="M239.5 403.6h583V376h-583v27.6Z" class="g4_60"/>
<path fill-rule="evenodd" d="M130 376h2.3v-2.2H130V376Z" class="g3_60"/>
<path fill-rule="evenodd" d="M132.3 376H237.2v-2.2H132.3V376Z" class="g3_60"/>
<path fill-rule="evenodd" d="M237.2 376h2.3v-2.2h-2.3V376Z" class="g3_60"/>
<path fill-rule="evenodd" d="M239.5 376H822.6v-2.2H239.5V376Z" class="g3_60"/>
<path fill-rule="evenodd" d="M822.6 376h2.3v-2.2h-2.3V376Z" class="g3_60"/>
<path fill-rule="evenodd" d="M130 448.5h2.3V376H130v72.5Z" class="g3_60"/>
<path fill-rule="evenodd" d="M237.2 448.5h2.3V376h-2.3v72.5Z" class="g3_60"/>
<path fill-rule="evenodd" d="M822.6 448.5h2.3V376h-2.3v72.5Z" class="g3_60"/>
<path fill-rule="evenodd" d="M132.3 484.1H237.2V450.8H132.3v33.3Z" class="g4_60"/>
<path fill-rule="evenodd" d="M132.3 484.1H237.2V450.8H132.3v33.3Z" class="g4_60"/>
<path fill-rule="evenodd" d="M239.5 484.1h583V450.8h-583v33.3Z" class="g4_60"/>
<path clip-path="url(#c4_60)" fill-rule="evenodd" d="M239.5 484.1h583V450.8h-583v33.3Z" class="g4_60"/>
<path fill-rule="evenodd" d="M130 450.8h2.3v-2.3H130v2.3Z" class="g3_60"/>
<path fill-rule="evenodd" d="M132.3 450.8H237.2v-2.3H132.3v2.3Z" class="g3_60"/>
<path fill-rule="evenodd" d="M237.2 450.8h2.3v-2.3h-2.3v2.3Z" class="g3_60"/>
<path fill-rule="evenodd" d="M239.5 450.8H822.6v-2.3H239.5v2.3Z" class="g3_60"/>
<path fill-rule="evenodd" d="M822.6 450.8h2.3v-2.3h-2.3v2.3Z" class="g3_60"/>
<path fill-rule="evenodd" d="M130 484.1h2.3V450.8H130v33.3Z" class="g3_60"/>
<path fill-rule="evenodd" d="M130 486.4h2.3v-2.3H130v2.3Z" class="g3_60"/>
<path fill-rule="evenodd" d="M130 486.4h2.3v-2.3H130v2.3Z" class="g3_60"/>
<path fill-rule="evenodd" d="M132.3 486.4H237.2v-2.3H132.3v2.3Z" class="g3_60"/>
<path fill-rule="evenodd" d="M237.2 484.1h2.3V450.8h-2.3v33.3Z" class="g3_60"/>
<path fill-rule="evenodd" d="M237.2 486.4h2.3v-2.3h-2.3v2.3Z" class="g3_60"/>
<path fill-rule="evenodd" d="M239.5 486.4H822.6v-2.3H239.5v2.3Z" class="g3_60"/>
<path fill-rule="evenodd" d="M822.6 484.1h2.3V450.8h-2.3v33.3Z" class="g3_60"/>
<path fill-rule="evenodd" d="M822.6 486.4h2.3v-2.3h-2.3v2.3Z" class="g3_60"/>
<path fill-rule="evenodd" d="M822.6 486.4h2.3v-2.3h-2.3v2.3Z" class="g3_60"/>
<path fill-rule="evenodd" d="M132.3 558H237.2V523.4H132.3V558Z" class="g2_60"/>
<path fill-rule="evenodd" d="M132.3 558H237.2V523.4H132.3V558Z" class="g2_60"/>
<path fill-rule="evenodd" d="M239.5 558h583V523.4h-583V558Z" class="g2_60"/>
<path clip-path="url(#c5_60)" fill-rule="evenodd" d="M239.5 558h583V523.4h-583V558Z" class="g2_60"/>
<path fill-rule="evenodd" d="M130 523.4h2.3v-2.2H130v2.2Z" class="g3_60"/>
<path fill-rule="evenodd" d="M130 523.4h2.3v-2.2H130v2.2Z" class="g3_60"/>
<path fill-rule="evenodd" d="M132.3 523.4H237.2v-2.2H132.3v2.2Z" class="g3_60"/>
<path fill-rule="evenodd" d="M237.2 523.4h2.3v-2.2h-2.3v2.2Z" class="g3_60"/>
<path fill-rule="evenodd" d="M239.5 523.4H822.6v-2.2H239.5v2.2Z" class="g3_60"/>
<path fill-rule="evenodd" d="M822.6 523.4h2.3v-2.2h-2.3v2.2Z" class="g3_60"/>
<path fill-rule="evenodd" d="M822.6 523.4h2.3v-2.2h-2.3v2.2Z" class="g3_60"/>
<path fill-rule="evenodd" d="M130 558h2.3V523.4H130V558Z" class="g3_60"/>
<path fill-rule="evenodd" d="M237.2 558h2.3V523.4h-2.3V558Z" class="g3_60"/>
<path fill-rule="evenodd" d="M822.6 558h2.3V523.4h-2.3V558Z" class="g3_60"/>
<path fill-rule="evenodd" d="M132.3 617.5H237.2V560.3H132.3v57.2Z" class="g4_60"/>
<path fill-rule="evenodd" d="M132.3 617.5H237.2V560.3H132.3v57.2Z" class="g4_60"/>
<path fill-rule="evenodd" d="M239.5 617.5h583V560.3h-583v57.2Z" class="g4_60"/>
<g clip-path="url(#c6_60)">
<path fill-rule="evenodd" d="M239.5 588.9h583V560.3h-583v28.6Z" class="g4_60"/>
<path fill-rule="evenodd" d="M239.5 617.5h583V588.9h-583v28.6Z" class="g4_60"/>
</g>
<path fill-rule="evenodd" d="M130 560.3h2.3V558H130v2.3Z" class="g3_60"/>
<path fill-rule="evenodd" d="M132.3 560.3H237.2V558H132.3v2.3Z" class="g3_60"/>
<path fill-rule="evenodd" d="M237.2 560.3h2.3V558h-2.3v2.3Z" class="g3_60"/>
<path fill-rule="evenodd" d="M239.5 560.3H822.6V558H239.5v2.3Z" class="g3_60"/>
<path fill-rule="evenodd" d="M822.6 560.3h2.3V558h-2.3v2.3Z" class="g3_60"/>
<path fill-rule="evenodd" d="M130 617.5h2.3V560.3H130v57.2Z" class="g3_60"/>
<path fill-rule="evenodd" d="M237.2 617.5h2.3V560.3h-2.3v57.2Z" class="g3_60"/>
<path fill-rule="evenodd" d="M822.6 617.5h2.3V560.3h-2.3v57.2Z" class="g3_60"/>
<path fill-rule="evenodd" d="M132.3 653.3H237.2V619.8H132.3v33.5Z" class="g4_60"/>
<path fill-rule="evenodd" d="M132.3 653.3H237.2V619.8H132.3v33.5Z" class="g4_60"/>
<path fill-rule="evenodd" d="M239.5 653.3h583V619.8h-583v33.5Z" class="g4_60"/>
<path clip-path="url(#c7_60)" fill-rule="evenodd" d="M239.5 653.3h583V619.8h-583v33.5Z" class="g4_60"/>
<path fill-rule="evenodd" d="M130 619.8h2.3v-2.3H130v2.3Z" class="g3_60"/>
<path fill-rule="evenodd" d="M132.3 619.8H237.2v-2.3H132.3v2.3Z" class="g3_60"/>
<path fill-rule="evenodd" d="M237.2 619.8h2.3v-2.3h-2.3v2.3Z" class="g3_60"/>
<path fill-rule="evenodd" d="M239.5 619.8H822.6v-2.3H239.5v2.3Z" class="g3_60"/>
<path fill-rule="evenodd" d="M822.6 619.8h2.3v-2.3h-2.3v2.3Z" class="g3_60"/>
<path fill-rule="evenodd" d="M130 653.3h2.3V619.8H130v33.5Z" class="g3_60"/>
<path fill-rule="evenodd" d="M130 655.6h2.3v-2.3H130v2.3Z" class="g3_60"/>
<path fill-rule="evenodd" d="M130 655.6h2.3v-2.3H130v2.3Z" class="g3_60"/>
<path fill-rule="evenodd" d="M132.3 655.6H237.2v-2.3H132.3v2.3Z" class="g3_60"/>
<path fill-rule="evenodd" d="M237.2 653.3h2.3V619.8h-2.3v33.5Z" class="g3_60"/>
<path fill-rule="evenodd" d="M237.2 655.6h2.3v-2.3h-2.3v2.3Z" class="g3_60"/>
<path fill-rule="evenodd" d="M239.5 655.6H822.6v-2.3H239.5v2.3Z" class="g3_60"/>
<path fill-rule="evenodd" d="M822.6 653.3h2.3V619.8h-2.3v33.5Z" class="g3_60"/>
<path fill-rule="evenodd" d="M822.6 655.6h2.3v-2.3h-2.3v2.3Z" class="g3_60"/>
<path fill-rule="evenodd" d="M822.6 655.6h2.3v-2.3h-2.3v2.3Z" class="g3_60"/>
<path d="M238.4 1041.5h42.1m0 0H288" class="g5_60"/>
</svg>