<?xml version="1.0" encoding="UTF-8" standalone="no"?>
<!DOCTYPE svg PUBLIC "-//W3C//DTD SVG 1.1//EN"
"http://www.w3.org/Graphics/SVG/1.1/DTD/svg11.dtd">
<svg viewBox="0 0 908 1286" version="1.1" xmlns="http://www.w3.org/2000/svg" xmlns:xlink="http://www.w3.org/1999/xlink">
<defs>
<clipPath id="c0_58"><path d="M-.2 1286.6V-.2H909.3V1286.6Z"/></clipPath>
<clipPath id="c1_58"><path d="M239.1 188.8V153.6H822.8v35.2Z"/></clipPath>
<clipPath id="c2_58"><path d="M239.1 287.2V190.4H822.8v96.8Z"/></clipPath>
<clipPath id="c3_58"><path d="M239.1 317.1V288.8H822.8v28.3Z"/></clipPath>
<clipPath id="c4_58"><path d="M239.1 390.9V355.7H822.8v35.2Z"/></clipPath>
<clipPath id="c5_58"><path d="M239.1 473.4V392.5H822.8v80.9Z"/></clipPath>
<clipPath id="c6_58"><path d="M239.1 548.1V475H822.8v73.1Z"/></clipPath>
<clipPath id="c7_58"><path d="M239.1 577.9V549.7H822.8v28.2Z"/></clipPath>
<clipPath id="c8_58"><path d="M239.1 651.9V616.6H822.8v35.3Z"/></clipPath>
<clipPath id="c9_58"><path d="M239.1 734.4V653.5H822.8v80.9Z"/></clipPath>
<clipPath id="ca_58"><path d="M239.1 809.1V736H822.8v73.1Z"/></clipPath>
<clipPath id="cb_58"><path d="M239.1 839V810.7H822.8V839Z"/></clipPath>
<clipPath id="cc_58"><path d="M239.1 912.7V877.5H822.8v35.2Z"/></clipPath>
<clipPath id="cd_58"><path d="M239.1 995.2V914.4H822.8v80.8Z"/></clipPath>
<clipPath id="ce_58"><path d="M239.1 1070V996.9H822.8V1070Z"/></clipPath>
<clipPath id="cf_58"><path d="M239.1 1099.9v-28.3H822.8v28.3Z"/></clipPath>
<style type="text/css"><![CDATA[
.g0_58{
fill: none;
stroke: #F78C00;
stroke-width: 8.784;
stroke-linejoin: round;
}
.g1_58{
fill: none;
stroke: #F29400;
stroke-width: 8.784;
stroke-linejoin: round;
}
.g2_58{
fill: #F7BF66;
}
.g3_58{
fill: #FFF;
}
.g4_58{
fill: #FCEACC;
}
]]></style>
</defs>
<g clip-path="url(#c0_58)">
<path d="M-21.2 1185.1H913.7" class="g0_58"/>
<path d="M-21.2 110.2H913.7" class="g1_58"/>
</g>
<path fill-rule="evenodd" d="M132.3 188.5H237.2V153.9H132.3v34.6Z" class="g2_58"/>
<path fill-rule="evenodd" d="M132.3 188.5H237.2V153.9H132.3v34.6Z" class="g2_58"/>
<path fill-rule="evenodd" d="M239.5 188.5h583V153.9h-583v34.6Z" class="g2_58"/>
<path clip-path="url(#c1_58)" fill-rule="evenodd" d="M239.5 188.5h583V153.9h-583v34.6Z" class="g2_58"/>
<path fill-rule="evenodd" d="M130 153.9h2.3v-2.3H130v2.3Z" class="g3_58"/>
<path fill-rule="evenodd" d="M130 153.9h2.3v-2.3H130v2.3Z" class="g3_58"/>
<path fill-rule="evenodd" d="M132.3 153.9H237.2v-2.3H132.3v2.3Z" class="g3_58"/>
<path fill-rule="evenodd" d="M237.2 153.9h2.3v-2.3h-2.3v2.3Z" class="g3_58"/>
<path fill-rule="evenodd" d="M239.5 153.9H822.6v-2.3H239.5v2.3Z" class="g3_58"/>
<path fill-rule="evenodd" d="M822.6 153.9h2.3v-2.3h-2.3v2.3Z" class="g3_58"/>
<path fill-rule="evenodd" d="M822.6 153.9h2.3v-2.3h-2.3v2.3Z" class="g3_58"/>
<path fill-rule="evenodd" d="M130 188.5h2.3V153.9H130v34.6Z" class="g3_58"/>
<path fill-rule="evenodd" d="M237.2 188.5h2.3V153.9h-2.3v34.6Z" class="g3_58"/>
<path fill-rule="evenodd" d="M822.6 188.5h2.3V153.9h-2.3v34.6Z" class="g3_58"/>
<path fill-rule="evenodd" d="M132.3 286.9H237.2V190.8H132.3v96.1Z" class="g4_58"/>
<path fill-rule="evenodd" d="M132.3 248H237.2V190.8H132.3V248Z" class="g4_58"/>
<path fill-rule="evenodd" d="M239.5 286.9h583V190.8h-583v96.1Z" class="g4_58"/>
<g clip-path="url(#c2_58)">
<path fill-rule="evenodd" d="M239.5 219.4h583V190.8h-583v28.6Z" class="g4_58"/>
<path fill-rule="evenodd" d="M239.5 238.8h583V219.4h-583v19.4Z" class="g4_58"/>
<path fill-rule="evenodd" d="M239.5 258.3h583V238.8h-583v19.5Z" class="g4_58"/>
<path fill-rule="evenodd" d="M239.5 286.9h583V258.3h-583v28.6Z" class="g4_58"/>
</g>
<path fill-rule="evenodd" d="M130 190.8h2.3v-2.3H130v2.3Z" class="g3_58"/>
<path fill-rule="evenodd" d="M132.3 190.8H237.2v-2.3H132.3v2.3Z" class="g3_58"/>
<path fill-rule="evenodd" d="M237.2 190.8h2.3v-2.3h-2.3v2.3Z" class="g3_58"/>
<path fill-rule="evenodd" d="M239.5 190.8H822.6v-2.3H239.5v2.3Z" class="g3_58"/>
<path fill-rule="evenodd" d="M822.6 190.8h2.3v-2.3h-2.3v2.3Z" class="g3_58"/>
<path fill-rule="evenodd" d="M130 286.9h2.3V190.8H130v96.1Z" class="g3_58"/>
<path fill-rule="evenodd" d="M237.2 286.9h2.3V190.8h-2.3v96.1Z" class="g3_58"/>
<path fill-rule="evenodd" d="M822.6 286.9h2.3V190.8h-2.3v96.1Z" class="g3_58"/>
<path fill-rule="evenodd" d="M132.3 316.7H237.2V289.1H132.3v27.6Z" class="g4_58"/>
<path fill-rule="evenodd" d="M132.3 316.7H237.2V289.1H132.3v27.6Z" class="g4_58"/>
<path fill-rule="evenodd" d="M239.5 316.7h583V289.1h-583v27.6Z" class="g4_58"/>
<path clip-path="url(#c3_58)" fill-rule="evenodd" d="M239.5 316.7h583V289.1h-583v27.6Z" class="g4_58"/>
<path fill-rule="evenodd" d="M130 289.1h2.3v-2.2H130v2.2Z" class="g3_58"/>
<path fill-rule="evenodd" d="M132.3 289.1H237.2v-2.2H132.3v2.2Z" class="g3_58"/>
<path fill-rule="evenodd" d="M237.2 289.1h2.3v-2.2h-2.3v2.2Z" class="g3_58"/>
<path fill-rule="evenodd" d="M239.5 289.1H822.6v-2.2H239.5v2.2Z" class="g3_58"/>
<path fill-rule="evenodd" d="M822.6 289.1h2.3v-2.2h-2.3v2.2Z" class="g3_58"/>
<path fill-rule="evenodd" d="M130 316.7h2.3V289.1H130v27.6Z" class="g3_58"/>
<path fill-rule="evenodd" d="M130 319h2.3v-2.3H130V319Z" class="g3_58"/>
<path fill-rule="evenodd" d="M130 319h2.3v-2.3H130V319Z" class="g3_58"/>
<path fill-rule="evenodd" d="M132.3 319H237.2v-2.3H132.3V319Z" class="g3_58"/>
<path fill-rule="evenodd" d="M237.2 316.7h2.3V289.1h-2.3v27.6Z" class="g3_58"/>
<path fill-rule="evenodd" d="M237.2 319h2.3v-2.3h-2.3V319Z" class="g3_58"/>
<path fill-rule="evenodd" d="M239.5 319H822.6v-2.3H239.5V319Z" class="g3_58"/>
<path fill-rule="evenodd" d="M822.6 316.7h2.3V289.1h-2.3v27.6Z" class="g3_58"/>
<path fill-rule="evenodd" d="M822.6 319h2.3v-2.3h-2.3V319Z" class="g3_58"/>
<path fill-rule="evenodd" d="M822.6 319h2.3v-2.3h-2.3V319Z" class="g3_58"/>
<path fill-rule="evenodd" d="M132.3 390.5H237.2V356.1H132.3v34.4Z" class="g2_58"/>
<path fill-rule="evenodd" d="M132.3 390.5H237.2V356.1H132.3v34.4Z" class="g2_58"/>
<path fill-rule="evenodd" d="M239.5 390.5h583V356.1h-583v34.4Z" class="g2_58"/>
<path clip-path="url(#c4_58)" fill-rule="evenodd" d="M239.5 390.5h583V356.1h-583v34.4Z" class="g2_58"/>
<path fill-rule="evenodd" d="M130 356.1h2.3v-2.3H130v2.3Z" class="g3_58"/>
<path fill-rule="evenodd" d="M130 356.1h2.3v-2.3H130v2.3Z" class="g3_58"/>
<path fill-rule="evenodd" d="M132.3 356.1H237.2v-2.3H132.3v2.3Z" class="g3_58"/>
<path fill-rule="evenodd" d="M237.2 356.1h2.3v-2.3h-2.3v2.3Z" class="g3_58"/>
<path fill-rule="evenodd" d="M239.5 356.1H822.6v-2.3H239.5v2.3Z" class="g3_58"/>
<path fill-rule="evenodd" d="M822.6 356.1h2.3v-2.3h-2.3v2.3Z" class="g3_58"/>
<path fill-rule="evenodd" d="M822.6 356.1h2.3v-2.3h-2.3v2.3Z" class="g3_58"/>
<path fill-rule="evenodd" d="M130 390.5h2.3V356.1H130v34.4Z" class="g3_58"/>
<path fill-rule="evenodd" d="M237.2 390.5h2.3V356.1h-2.3v34.4Z" class="g3_58"/>
<path fill-rule="evenodd" d="M822.6 390.5h2.3V356.1h-2.3v34.4Z" class="g3_58"/>
<path fill-rule="evenodd" d="M132.3 473H237.2V392.8H132.3V473Z" class="g4_58"/>
<path fill-rule="evenodd" d="M132.3 420.4H237.2V392.8H132.3v27.6Z" class="g4_58"/>
<path fill-rule="evenodd" d="M132.3 473H237.2V420.4H132.3V473Z" class="g4_58"/>
<path fill-rule="evenodd" d="M239.5 473h583V392.8h-583V473Z" class="g4_58"/>
<g clip-path="url(#c5_58)">
<path fill-rule="evenodd" d="M239.5 421.4h583V392.8h-583v28.6Z" class="g4_58"/>
<path fill-rule="evenodd" d="M239.5 440.9h583V421.4h-583v19.5Z" class="g4_58"/>
<path fill-rule="evenodd" d="M239.5 469.5h583V440.9h-583v28.6Z" class="g4_58"/>
</g>
<path fill-rule="evenodd" d="M130 392.8h2.3v-2.3H130v2.3Z" class="g3_58"/>
<path fill-rule="evenodd" d="M132.3 392.8H237.2v-2.3H132.3v2.3Z" class="g3_58"/>
<path fill-rule="evenodd" d="M237.2 392.8h2.3v-2.3h-2.3v2.3Z" class="g3_58"/>
<path fill-rule="evenodd" d="M239.5 392.8H822.6v-2.3H239.5v2.3Z" class="g3_58"/>
<path fill-rule="evenodd" d="M822.6 392.8h2.3v-2.3h-2.3v2.3Z" class="g3_58"/>
<path fill-rule="evenodd" d="M130 473h2.3V392.8H130V473Z" class="g3_58"/>
<path fill-rule="evenodd" d="M237.2 473h2.3V392.8h-2.3V473Z" class="g3_58"/>
<path fill-rule="evenodd" d="M822.6 473h2.3V392.8h-2.3V473Z" class="g3_58"/>
<path fill-rule="evenodd" d="M132.3 547.7H237.2V475.3H132.3v72.4Z" class="g4_58"/>
<path fill-rule="evenodd" d="M132.3 503H237.2V475.3H132.3V503Z" class="g4_58"/>
<path fill-rule="evenodd" d="M132.3 547.7H237.2V503H132.3v44.7Z" class="g4_58"/>
<path fill-rule="evenodd" d="M239.5 547.7h583V475.3h-583v72.4Z" class="g4_58"/>
<path clip-path="url(#c6_58)" fill-rule="evenodd" d="M239.5 503h583V475.3h-583V503Z" class="g4_58"/>
<path fill-rule="evenodd" d="M130 475.3h2.3V473H130v2.3Z" class="g3_58"/>
<path fill-rule="evenodd" d="M132.3 475.3H237.2V473H132.3v2.3Z" class="g3_58"/>
<path fill-rule="evenodd" d="M237.2 475.3h2.3V473h-2.3v2.3Z" class="g3_58"/>
<path fill-rule="evenodd" d="M239.5 475.3H822.6V473H239.5v2.3Z" class="g3_58"/>
<path fill-rule="evenodd" d="M822.6 475.3h2.3V473h-2.3v2.3Z" class="g3_58"/>
<path fill-rule="evenodd" d="M130 547.7h2.3V475.3H130v72.4Z" class="g3_58"/>
<path fill-rule="evenodd" d="M237.2 547.7h2.3V475.3h-2.3v72.4Z" class="g3_58"/>
<path fill-rule="evenodd" d="M822.6 547.7h2.3V475.3h-2.3v72.4Z" class="g3_58"/>
<path fill-rule="evenodd" d="M132.3 577.6H237.2V550H132.3v27.6Z" class="g4_58"/>
<path fill-rule="evenodd" d="M132.3 577.6H237.2V550H132.3v27.6Z" class="g4_58"/>
<path fill-rule="evenodd" d="M239.5 577.6h583V550h-583v27.6Z" class="g4_58"/>
<path clip-path="url(#c7_58)" fill-rule="evenodd" d="M239.5 577.6h583V550h-583v27.6Z" class="g4_58"/>
<path fill-rule="evenodd" d="M130 550h2.3v-2.3H130V550Z" class="g3_58"/>
<path fill-rule="evenodd" d="M132.3 550H237.2v-2.3H132.3V550Z" class="g3_58"/>
<path fill-rule="evenodd" d="M237.2 550h2.3v-2.3h-2.3V550Z" class="g3_58"/>
<path fill-rule="evenodd" d="M239.5 550H822.6v-2.3H239.5V550Z" class="g3_58"/>
<path fill-rule="evenodd" d="M822.6 550h2.3v-2.3h-2.3V550Z" class="g3_58"/>
<path fill-rule="evenodd" d="M130 577.6h2.3V550H130v27.6Z" class="g3_58"/>
<path fill-rule="evenodd" d="M130 579.9h2.3v-2.3H130v2.3Z" class="g3_58"/>
<path fill-rule="evenodd" d="M130 579.9h2.3v-2.3H130v2.3Z" class="g3_58"/>
<path fill-rule="evenodd" d="M132.3 579.9H237.2v-2.3H132.3v2.3Z" class="g3_58"/>
<path fill-rule="evenodd" d="M237.2 577.6h2.3V550h-2.3v27.6Z" class="g3_58"/>
<path fill-rule="evenodd" d="M237.2 579.9h2.3v-2.3h-2.3v2.3Z" class="g3_58"/>
<path fill-rule="evenodd" d="M239.5 579.9H822.6v-2.3H239.5v2.3Z" class="g3_58"/>
<path fill-rule="evenodd" d="M822.6 577.6h2.3V550h-2.3v27.6Z" class="g3_58"/>
<path fill-rule="evenodd" d="M822.6 579.9h2.3v-2.3h-2.3v2.3Z" class="g3_58"/>
<path fill-rule="evenodd" d="M822.6 579.9h2.3v-2.3h-2.3v2.3Z" class="g3_58"/>
<path fill-rule="evenodd" d="M132.3 651.5H237.2V616.9H132.3v34.6Z" class="g2_58"/>
<path fill-rule="evenodd" d="M132.3 651.5H237.2V616.9H132.3v34.6Z" class="g2_58"/>
<path fill-rule="evenodd" d="M239.5 651.5h583V616.9h-583v34.6Z" class="g2_58"/>
<path clip-path="url(#c8_58)" fill-rule="evenodd" d="M239.5 651.5h583V616.9h-583v34.6Z" class="g2_58"/>
<path fill-rule="evenodd" d="M130 616.9h2.3v-2.2H130v2.2Z" class="g3_58"/>
<path fill-rule="evenodd" d="M130 616.9h2.3v-2.2H130v2.2Z" class="g3_58"/>
<path fill-rule="evenodd" d="M132.3 616.9H237.2v-2.2H132.3v2.2Z" class="g3_58"/>
<path fill-rule="evenodd" d="M237.2 616.9h2.3v-2.2h-2.3v2.2Z" class="g3_58"/>
<path fill-rule="evenodd" d="M239.5 616.9H822.6v-2.2H239.5v2.2Z" class="g3_58"/>
<path fill-rule="evenodd" d="M822.6 616.9h2.3v-2.2h-2.3v2.2Z" class="g3_58"/>
<path fill-rule="evenodd" d="M822.6 616.9h2.3v-2.2h-2.3v2.2Z" class="g3_58"/>
<path fill-rule="evenodd" d="M130 651.5h2.3V616.9H130v34.6Z" class="g3_58"/>
<path fill-rule="evenodd" d="M237.2 651.5h2.3V616.9h-2.3v34.6Z" class="g3_58"/>
<path fill-rule="evenodd" d="M822.6 651.5h2.3V616.9h-2.3v34.6Z" class="g3_58"/>
<path fill-rule="evenodd" d="M132.3 734H237.2V653.8H132.3V734Z" class="g4_58"/>
<path fill-rule="evenodd" d="M132.3 681.4H237.2V653.8H132.3v27.6Z" class="g4_58"/>
<path fill-rule="evenodd" d="M132.3 734H237.2V681.4H132.3V734Z" class="g4_58"/>
<path fill-rule="evenodd" d="M239.5 734h583V653.8h-583V734Z" class="g4_58"/>
<g clip-path="url(#c9_58)">
<path fill-rule="evenodd" d="M239.5 682.4h583V653.8h-583v28.6Z" class="g4_58"/>
<path fill-rule="evenodd" d="M239.5 711h583V682.4h-583V711Z" class="g4_58"/>
</g>
<path fill-rule="evenodd" d="M130 653.8h2.3v-2.3H130v2.3Z" class="g3_58"/>
<path fill-rule="evenodd" d="M132.3 653.8H237.2v-2.3H132.3v2.3Z" class="g3_58"/>
<path fill-rule="evenodd" d="M237.2 653.8h2.3v-2.3h-2.3v2.3Z" class="g3_58"/>
<path fill-rule="evenodd" d="M239.5 653.8H822.6v-2.3H239.5v2.3Z" class="g3_58"/>
<path fill-rule="evenodd" d="M822.6 653.8h2.3v-2.3h-2.3v2.3Z" class="g3_58"/>
<path fill-rule="evenodd" d="M130 734h2.3V653.8H130V734Z" class="g3_58"/>
<path fill-rule="evenodd" d="M237.2 734h2.3V653.8h-2.3V734Z" class="g3_58"/>
<path fill-rule="evenodd" d="M822.6 734h2.3V653.8h-2.3V734Z" class="g3_58"/>
<path fill-rule="evenodd" d="M132.3 808.7H237.2V736.3H132.3v72.4Z" class="g4_58"/>
<path fill-rule="evenodd" d="M132.3 763.9H237.2V736.3H132.3v27.6Z" class="g4_58"/>
<path fill-rule="evenodd" d="M132.3 808.7H237.2V763.9H132.3v44.8Z" class="g4_58"/>
<path fill-rule="evenodd" d="M239.5 808.7h583V736.3h-583v72.4Z" class="g4_58"/>
<path clip-path="url(#ca_58)" fill-rule="evenodd" d="M239.5 763.9h583V736.3h-583v27.6Z" class="g4_58"/>
<path fill-rule="evenodd" d="M130 736.3h2.3V734H130v2.3Z" class="g3_58"/>
<path fill-rule="evenodd" d="M132.3 736.3H237.2V734H132.3v2.3Z" class="g3_58"/>
<path fill-rule="evenodd" d="M237.2 736.3h2.3V734h-2.3v2.3Z" class="g3_58"/>
<path fill-rule="evenodd" d="M239.5 736.3H822.6V734H239.5v2.3Z" class="g3_58"/>
<path fill-rule="evenodd" d="M822.6 736.3h2.3V734h-2.3v2.3Z" class="g3_58"/>
<path fill-rule="evenodd" d="M130 808.7h2.3V736.3H130v72.4Z" class="g3_58"/>
<path fill-rule="evenodd" d="M237.2 808.7h2.3V736.3h-2.3v72.4Z" class="g3_58"/>
<path fill-rule="evenodd" d="M822.6 808.7h2.3V736.3h-2.3v72.4Z" class="g3_58"/>
<path fill-rule="evenodd" d="M132.3 838.6H237.2V811H132.3v27.6Z" class="g4_58"/>
<path fill-rule="evenodd" d="M132.3 838.6H237.2V811H132.3v27.6Z" class="g4_58"/>
<path fill-rule="evenodd" d="M239.5 838.6h583V811h-583v27.6Z" class="g4_58"/>
<path clip-path="url(#cb_58)" fill-rule="evenodd" d="M239.5 838.6h583V811h-583v27.6Z" class="g4_58"/>
<path fill-rule="evenodd" d="M130 811h2.3v-2.3H130V811Z" class="g3_58"/>
<path fill-rule="evenodd" d="M132.3 811H237.2v-2.3H132.3V811Z" class="g3_58"/>
<path fill-rule="evenodd" d="M237.2 811h2.3v-2.3h-2.3V811Z" class="g3_58"/>
<path fill-rule="evenodd" d="M239.5 811H822.6v-2.3H239.5V811Z" class="g3_58"/>
<path fill-rule="evenodd" d="M822.6 811h2.3v-2.3h-2.3V811Z" class="g3_58"/>
<path fill-rule="evenodd" d="M130 838.6h2.3V811H130v27.6Z" class="g3_58"/>
<path fill-rule="evenodd" d="M130 840.9h2.3v-2.3H130v2.3Z" class="g3_58"/>
<path fill-rule="evenodd" d="M130 840.9h2.3v-2.3H130v2.3Z" class="g3_58"/>
<path fill-rule="evenodd" d="M132.3 840.9H237.2v-2.3H132.3v2.3Z" class="g3_58"/>
<path fill-rule="evenodd" d="M237.2 838.6h2.3V811h-2.3v27.6Z" class="g3_58"/>
<path fill-rule="evenodd" d="M237.2 840.9h2.3v-2.3h-2.3v2.3Z" class="g3_58"/>
<path fill-rule="evenodd" d="M239.5 840.9H822.6v-2.3H239.5v2.3Z" class="g3_58"/>
<path fill-rule="evenodd" d="M822.6 838.6h2.3V811h-2.3v27.6Z" class="g3_58"/>
<path fill-rule="evenodd" d="M822.6 840.9h2.3v-2.3h-2.3v2.3Z" class="g3_58"/>
<path fill-rule="evenodd" d="M822.6 840.9h2.3v-2.3h-2.3v2.3Z" class="g3_58"/>
<path fill-rule="evenodd" d="M132.3 912.4H237.2V877.9H132.3v34.5Z" class="g2_58"/>
<path fill-rule="evenodd" d="M132.3 912.4H237.2V877.9H132.3v34.5Z" class="g2_58"/>
<path fill-rule="evenodd" d="M239.5 912.4h583V877.9h-583v34.5Z" class="g2_58"/>
<path clip-path="url(#cc_58)" fill-rule="evenodd" d="M239.5 912.4h583V877.9h-583v34.5Z" class="g2_58"/>
<path fill-rule="evenodd" d="M130 877.9h2.3v-2.3H130v2.3Z" class="g3_58"/>
<path fill-rule="evenodd" d="M130 877.9h2.3v-2.3H130v2.3Z" class="g3_58"/>
<path fill-rule="evenodd" d="M132.3 877.9H237.2v-2.3H132.3v2.3Z" class="g3_58"/>
<path fill-rule="evenodd" d="M237.2 877.9h2.3v-2.3h-2.3v2.3Z" class="g3_58"/>
<path fill-rule="evenodd" d="M239.5 877.9H822.6v-2.3H239.5v2.3Z" class="g3_58"/>
<path fill-rule="evenodd" d="M822.6 877.9h2.3v-2.3h-2.3v2.3Z" class="g3_58"/>
<path fill-rule="evenodd" d="M822.6 877.9h2.3v-2.3h-2.3v2.3Z" class="g3_58"/>
<path fill-rule="evenodd" d="M130 912.4h2.3V877.9H130v34.5Z" class="g3_58"/>
<path fill-rule="evenodd" d="M237.2 912.4h2.3V877.9h-2.3v34.5Z" class="g3_58"/>
<path fill-rule="evenodd" d="M822.6 912.4h2.3V877.9h-2.3v34.5Z" class="g3_58"/>
<path fill-rule="evenodd" d="M132.3 994.9H237.2V914.7H132.3v80.2Z" class="g4_58"/>
<path fill-rule="evenodd" d="M132.3 942.3H237.2V914.7H132.3v27.6Z" class="g4_58"/>
<path fill-rule="evenodd" d="M132.3 994.9H237.2V942.3H132.3v52.6Z" class="g4_58"/>
<path fill-rule="evenodd" d="M239.5 994.9h583V914.7h-583v80.2Z" class="g4_58"/>
<g clip-path="url(#cd_58)">
<path fill-rule="evenodd" d="M239.5 943.3h583V914.7h-583v28.6Z" class="g4_58"/>
<path fill-rule="evenodd" d="M239.5 962.7h583V943.3h-583v19.4Z" class="g4_58"/>
<path fill-rule="evenodd" d="M239.5 991.3h583V962.7h-583v28.6Z" class="g4_58"/>
</g>
<path fill-rule="evenodd" d="M130 914.7h2.3v-2.3H130v2.3Z" class="g3_58"/>
<path fill-rule="evenodd" d="M132.3 914.7H237.2v-2.3H132.3v2.3Z" class="g3_58"/>
<path fill-rule="evenodd" d="M237.2 914.7h2.3v-2.3h-2.3v2.3Z" class="g3_58"/>
<path fill-rule="evenodd" d="M239.5 914.7H822.6v-2.3H239.5v2.3Z" class="g3_58"/>
<path fill-rule="evenodd" d="M822.6 914.7h2.3v-2.3h-2.3v2.3Z" class="g3_58"/>
<path fill-rule="evenodd" d="M130 994.9h2.3V914.7H130v80.2Z" class="g3_58"/>
<path fill-rule="evenodd" d="M237.2 994.9h2.3V914.7h-2.3v80.2Z" class="g3_58"/>
<path fill-rule="evenodd" d="M822.6 994.9h2.3V914.7h-2.3v80.2Z" class="g3_58"/>
<path fill-rule="evenodd" d="M132.3 1069.6H237.2V997.2H132.3v72.4Z" class="g4_58"/>
<path fill-rule="evenodd" d="M132.3 1024.8H237.2V997.2H132.3v27.6Z" class="g4_58"/>
<path fill-rule="evenodd" d="M132.3 1069.6H237.2v-44.8H132.3v44.8Z" class="g4_58"/>
<path fill-rule="evenodd" d="M239.5 1069.6h583V997.2h-583v72.4Z" class="g4_58"/>
<path clip-path="url(#ce_58)" fill-rule="evenodd" d="M239.5 1024.8h583V997.2h-583v27.6Z" class="g4_58"/>
<path fill-rule="evenodd" d="M130 997.2h2.3v-2.3H130v2.3Z" class="g3_58"/>
<path fill-rule="evenodd" d="M132.3 997.2H237.2v-2.3H132.3v2.3Z" class="g3_58"/>
<path fill-rule="evenodd" d="M237.2 997.2h2.3v-2.3h-2.3v2.3Z" class="g3_58"/>
<path fill-rule="evenodd" d="M239.5 997.2H822.6v-2.3H239.5v2.3Z" class="g3_58"/>
<path fill-rule="evenodd" d="M822.6 997.2h2.3v-2.3h-2.3v2.3Z" class="g3_58"/>
<path fill-rule="evenodd" d="M130 1069.6h2.3V997.2H130v72.4Z" class="g3_58"/>
<path fill-rule="evenodd" d="M237.2 1069.6h2.3V997.2h-2.3v72.4Z" class="g3_58"/>
<path fill-rule="evenodd" d="M822.6 1069.6h2.3V997.2h-2.3v72.4Z" class="g3_58"/>
<path fill-rule="evenodd" d="M132.3 1099.5H237.2v-27.6H132.3v27.6Z" class="g4_58"/>
<path fill-rule="evenodd" d="M132.3 1099.5H237.2v-27.6H132.3v27.6Z" class="g4_58"/>
<path fill-rule="evenodd" d="M239.5 1099.5h583v-27.6h-583v27.6Z" class="g4_58"/>
<path clip-path="url(#cf_58)" fill-rule="evenodd" d="M239.5 1099.5h583v-27.6h-583v27.6Z" class="g4_58"/>
<path fill-rule="evenodd" d="M130 1071.9h2.3v-2.3H130v2.3Z" class="g3_58"/>
<path fill-rule="evenodd" d="M132.3 1071.9H237.2v-2.3H132.3v2.3Z" class="g3_58"/>
<path fill-rule="evenodd" d="M237.2 1071.9h2.3v-2.3h-2.3v2.3Z" class="g3_58"/>
<path fill-rule="evenodd" d="M239.5 1071.9H822.6v-2.3H239.5v2.3Z" class="g3_58"/>
<path fill-rule="evenodd" d="M822.6 1071.9h2.3v-2.3h-2.3v2.3Z" class="g3_58"/>
<path fill-rule="evenodd" d="M130 1099.5h2.3v-27.6H130v27.6Z" class="g3_58"/>
<path fill-rule="evenodd" d="M130 1101.8h2.3v-2.3H130v2.3Z" class="g3_58"/>
<path fill-rule="evenodd" d="M130 1101.8h2.3v-2.3H130v2.3Z" class="g3_58"/>
<path fill-rule="evenodd" d="M132.3 1101.8H237.2v-2.3H132.3v2.3Z" class="g3_58"/>
<path fill-rule="evenodd" d="M237.2 1099.5h2.3v-27.6h-2.3v27.6Z" class="g3_58"/>
<path fill-rule="evenodd" d="M237.2 1101.8h2.3v-2.3h-2.3v2.3Z" class="g3_58"/>
<path fill-rule="evenodd" d="M239.5 1101.8H822.6v-2.3H239.5v2.3Z" class="g3_58"/>
<path fill-rule="evenodd" d="M822.6 1099.5h2.3v-27.6h-2.3v27.6Z" class="g3_58"/>
<path fill-rule="evenodd" d="M822.6 1101.8h2.3v-2.3h-2.3v2.3Z" class="g3_58"/>
<path fill-rule="evenodd" d="M822.6 1101.8h2.3v-2.3h-2.3v2.3Z" class="g3_58"/>
</svg>