<svg viewBox="0 0 1210 935" version="1.1" xmlns="http://www.w3.org/2000/svg">
<defs>
<clipPath id="c0_246"><path d="M35.7 107V29.4H267.3V107Z"/></clipPath>
<style>
.g0_246{fill:none;stroke:#005B99;stroke-width:2.673;stroke-linejoin:round;}
.g1_246{fill:#005B99;}
</style>
</defs>
<path d="M34.4 121H1172.9" class="g0_246"/>
<image clip-path="url(#c0_246)" preserveAspectRatio="none" x="36" y="30" width="231" height="77" href="img/1.jpg"/>
<path d="M35.4 190.7H404.6v-1.3H35.4v1.3Z" class="g1_246"/>
<path d="M35.4 304.3H404.6v-1.2H35.4v1.2Z" class="g1_246"/>
<path d="M35.4 418H404.6v-1.2H35.4V418Z" class="g1_246"/>
<path d="M35.4 531.7H396v-1.3H35.4v1.3Z" class="g1_246"/>
<path d="M35.4 645.3H394.8v-1.2H35.4v1.2Z" class="g1_246"/>
<path d="M35.4 739.4H404.6v-1.2H35.4v1.2Z" class="g1_246"/>
<path d="M35.4 853.1H404.6v-1.2H35.4v1.2Z" class="g1_246"/>
<path d="M715 210.2h369.1V209H715v1.2Z" class="g1_246"/>
<path d="M618.4 284.8H979v-1.2H618.4v1.2Z" class="g1_246"/>
<path d="M618.4 378.9H979v-1.2H618.4v1.2Z" class="g1_246"/>
<path d="M618.4 473H969.2v-1.2H618.4V473Z" class="g1_246"/>
<path d="M618.4 625.8H969.2v-1.2H618.4v1.2Z" class="g1_246"/>
<path d="M618.4 719.9H979v-1.2H618.4v1.2Z" class="g1_246"/>
<path d="M762.7 833.6h369.1v-1.3H762.7v1.3Z" class="g1_246"/>
</svg>