<?xml version="1.0" encoding="UTF-8" standalone="no"?>
<!DOCTYPE svg PUBLIC "-//W3C//DTD SVG 1.1//EN"
"http://www.w3.org/Graphics/SVG/1.1/DTD/svg11.dtd">
<svg viewBox="0 0 1286 909" version="1.1" xmlns="http://www.w3.org/2000/svg" xmlns:xlink="http://www.w3.org/1999/xlink">
<defs>
<clipPath id="c0_2"><path d="M305.2 64.5V53.1h10.2V64.5Z"/></clipPath>
<clipPath id="c1_2"><path d="M89.3 105.2V28.4h77.6v76.8Z"/></clipPath>
<style type="text/css"><![CDATA[
.g0_2{
fill: none;
stroke: #0065A4;
stroke-width: 1.114;
stroke-miterlimit: 10;
}
.g1_2{
fill: #221F1F;
}
.g2_2{
fill: none;
stroke: #FFF;
stroke-width: 0.855;
}
.g3_2{
fill: #FFF;
}
.g4_2{
fill: none;
stroke: #0065A4;
stroke-width: 2.972;
}
]]></style>
</defs>
<path d="M1115.3 798.7h80.8M910.7 849.5h120.6" class="g0_2"/>
<path d="M175.2 31h1.9l7.2 10.8V31H186V44.4h-2L177 33.7h-.1V44.4h-1.7Z" class="g1_2"/>
<path d="M195.5 39.4c-.6 .4 -1.9 .4 -2.9 .6c-1.1 .2 -2 .6 -2 1.8c0 1 .9 1.4 1.9 1.4c2.1 0 3 -1.3 3 -2.2Zm2.6 4.9c-.3 .2 -.7 .3 -1.2 .3c-.8 0 -1.3 -.5 -1.3 -1.5c-.9 1 -2.1 1.5 -3.5 1.5c-1.8 0 -3.2 -.8 -3.2 -2.7c0 -2.2 1.6 -2.7 3.3 -3c1.8 -.3 3.3 -.2 3.3 -1.4c0 -1.4 -1.2 -1.6 -2.2 -1.6c-1.4 0 -2.4 .4 -2.4 1.8h-1.7c.1 -2.4 2 -3.2 4.2 -3.2c1.8 0 3.7 .4 3.7 2.6v5c0 .7 0 1.1 .5 1.1c.1 0 .3 0 .5 -.1Z" class="g1_2"/>
<path d="M202.6 34.7h1.9v1.4h-1.9v6c0 .7 .2 .9 1.2 .9h.7v1.4h-1.2c-1.7 0 -2.3 -.4 -2.3 -2.1V36.1h-1.7V34.7H201V31.8h1.6Z" class="g1_2"/>
<path d="M207.1 34.7h1.7v9.7h-1.7ZM208.8 33h-1.7V31h1.7Z" class="g1_2"/>
<path d="M216.2 43.2c1.7 0 3.1 -1.3 3.1 -3.7c0 -2.3 -1.4 -3.6 -3.1 -3.6c-1.7 0 -3 1.3 -3 3.6c0 2.4 1.3 3.7 3 3.7m0 -8.7c3.1 0 4.8 2.2 4.8 5c0 2.9 -1.7 5.1 -4.8 5.1c-3.1 0 -4.7 -2.2 -4.7 -5.1c0 -2.8 1.6 -5 4.7 -5Z" class="g1_2"/>
<path d="M223.6 34.7h1.6v1.5c.7 -1.2 1.8 -1.7 3.2 -1.7c2.6 0 3.4 1.4 3.4 3.5v6.4h-1.7V37.8c0 -1.2 -.7 -1.9 -1.9 -1.9c-2 0 -3 1.3 -3 3v5.5h-1.6Z" class="g1_2"/>
<path d="M241 39.4c-.6 .4 -1.8 .4 -2.9 .6c-1.1 .2 -2 .6 -2 1.8c0 1 .9 1.4 1.9 1.4c2.1 0 3 -1.3 3 -2.2Zm2.6 4.9c-.3 .2 -.6 .3 -1.1 .3c-.9 0 -1.4 -.5 -1.4 -1.5c-.9 1 -2.1 1.5 -3.5 1.5c-1.7 0 -3.2 -.8 -3.2 -2.7c0 -2.2 1.6 -2.7 3.3 -3c1.8 -.3 3.3 -.2 3.3 -1.4c0 -1.4 -1.1 -1.6 -2.2 -1.6c-1.3 0 -2.3 .4 -2.4 1.8h-1.6c.1 -2.4 1.9 -3.2 4.1 -3.2c1.8 0 3.7 .4 3.7 2.6v5c0 .7 0 1.1 .5 1.1c.2 0 .3 0 .5 -.1Z" class="g1_2"/>
<path d="M246 31h1.6V44.4H246V31Z" class="g1_2"/>
<path d="M184.8 54.6c-.4 -1.9 -2 -2.9 -3.8 -2.9c-3.3 0 -4.6 2.6 -4.6 5.4c0 3.1 1.3 5.6 4.6 5.6c2.4 0 3.7 -1.6 3.9 -3.8h1.8c-.4 3.3 -2.5 5.3 -5.9 5.3c-4.2 0 -6.2 -3.1 -6.2 -6.9c0 -3.9 2.2 -7.1 6.4 -7.1c2.8 0 5.1 1.5 5.6 4.4Z" class="g1_2"/>
<path d="M193.6 62.7c1.7 0 3.1 -1.3 3.1 -3.6c0 -2.4 -1.4 -3.7 -3.1 -3.7c-1.7 0 -3 1.3 -3 3.7c0 2.3 1.3 3.6 3 3.6m0 -8.7c3.1 0 4.8 2.2 4.8 5.1c0 2.8 -1.7 5 -4.8 5c-3.1 0 -4.7 -2.2 -4.7 -5c0 -2.9 1.6 -5.1 4.7 -5.1Z" class="g1_2"/>
<path d="M201 54.2h1.6v1.5c.7 -1.1 1.8 -1.7 3.2 -1.7c1.2 0 2.3 .5 2.7 1.7c.6 -1.1 1.8 -1.7 3 -1.7c2 0 3.3 .8 3.3 2.8v7.1h-1.6V57.6c0 -1.2 -.3 -2.2 -1.9 -2.2c-1.6 0 -2.6 1 -2.6 2.5v6h-1.6V57.6c0 -1.3 -.4 -2.2 -1.8 -2.2c-1.9 0 -2.7 1.7 -2.7 2.5v6H201Z" class="g1_2"/>
<path d="M222.6 55.4c-2.2 0 -3 1.8 -3 3.7c0 1.9 .8 3.6 3.1 3.6c2.2 0 2.9 -1.8 2.9 -3.7c0 -1.8 -.9 -3.6 -3 -3.6M218 54.2h1.6v1.3h.1c.5 -1 1.8 -1.5 3.1 -1.5c3 0 4.5 2.4 4.5 5.1c0 2.7 -1.5 5 -4.5 5c-1 0 -2.4 -.4 -3.1 -1.5h-.1v5H218Z" class="g1_2"/>
<path d="M229.9 54.2h1.5v2.1h.1c.7 -1.6 1.8 -2.3 3.6 -2.3v1.7c-2.6 0 -3.6 1.4 -3.6 3.9v4.3h-1.6Z" class="g1_2"/>
<path d="M243.5 58.1c-.1 -1.5 -1.2 -2.7 -2.8 -2.7c-1.7 0 -2.7 1.3 -2.8 2.7Zm1.5 2.7c-.4 2.2 -2 3.3 -4.2 3.3c-3.1 0 -4.6 -2.1 -4.7 -5.1c0 -2.9 2 -5 4.7 -5c3.4 0 4.5 3.2 4.4 5.5h-7.3c-.1 1.7 .9 3.2 3 3.2c1.3 0 2.3 -.6 2.5 -1.9Z" class="g1_2"/>
<path d="M247.6 50.6h1.6v5.1h.1c.5 -1.2 1.9 -1.7 3 -1.7c2.6 0 3.4 1.5 3.4 3.5v6.4h-1.6V57.4c0 -1.2 -.7 -2 -2 -2c-1.9 0 -2.9 1.3 -2.9 3v5.5h-1.6Z" class="g1_2"/>
<path d="M265.7 58.1c-.1 -1.5 -1.2 -2.7 -2.8 -2.7c-1.7 0 -2.7 1.3 -2.8 2.7Zm1.6 2.7c-.5 2.2 -2 3.3 -4.2 3.3c-3.2 0 -4.6 -2.1 -4.7 -5.1c0 -2.9 1.9 -5 4.6 -5c3.4 0 4.5 3.2 4.4 5.5h-7.3c-.1 1.7 .9 3.2 3 3.2c1.4 0 2.3 -.6 2.6 -1.9Z" class="g1_2"/>
<path d="M269.8 54.2h1.5v1.6h.1c.7 -1.2 1.8 -1.8 3.2 -1.8c2.5 0 3.3 1.5 3.3 3.5v6.4h-1.6V57.4c0 -1.2 -.7 -2 -2 -2c-1.9 0 -2.9 1.3 -2.9 3v5.5h-1.6Z" class="g1_2"/>
<path d="M282.1 60.8c.1 1.5 1.3 1.9 2.6 1.9c1 0 2.4 -.2 2.4 -1.4c0 -1.3 -1.6 -1.5 -3.2 -1.8c-1.6 -.4 -3.2 -.9 -3.2 -2.7c0 -2 2 -2.8 3.7 -2.8c2.1 0 3.8 .7 4 3h-1.6c-.1 -1.2 -1.2 -1.6 -2.3 -1.6c-1 0 -2.1 .3 -2.1 1.2c0 1.2 1.7 1.4 3.2 1.7c1.6 .4 3.2 .9 3.2 2.8c0 2.3 -2.2 3 -4.2 3c-2.2 0 -4 -.9 -4.1 -3.3Z" class="g1_2"/>
<path d="M291.4 54.2h1.7v9.7h-1.7Zm1.7 -1.7h-1.7V50.6h1.7Z" class="g1_2"/>
<path d="M300.7 63.9H299l-3.7 -9.7h1.9l2.7 8.1l2.7 -8.1h1.7Z" class="g1_2"/>
<path clip-path="url(#c0_2)" d="M313.3 58.1c0 -1.5 -1.2 -2.7 -2.8 -2.7c-1.7 0 -2.7 1.3 -2.8 2.7Zm1.6 2.7c-.4 2.2 -2 3.3 -4.2 3.3C307.6 64.1 306.1 62 306 59c0 -2.9 1.9 -5 4.6 -5c3.5 0 4.5 3.2 4.4 5.5h-7.3c-.1 1.7 .9 3.2 3.1 3.2c1.3 0 2.2 -.6 2.5 -1.9Z" class="g1_2"/>
<path d="M184.8 74.1c-.4 -1.9 -2 -2.8 -3.8 -2.8c-3.3 0 -4.6 2.6 -4.6 5.4c0 3 1.3 5.5 4.6 5.5c2.4 0 3.7 -1.6 3.9 -3.8h1.8c-.4 3.3 -2.5 5.3 -5.9 5.3c-4.2 0 -6.2 -3 -6.2 -6.9c0 -3.9 2.2 -7 6.4 -7c2.8 0 5.1 1.5 5.6 4.3Z" class="g1_2"/>
<path d="M195.5 78.4c-.6 .5 -1.9 .5 -2.9 .7c-1.1 .2 -2 .5 -2 1.7c0 1.1 .9 1.4 1.9 1.4c2.1 0 3 -1.3 3 -2.1Zm2.6 5c-.3 .2 -.7 .2 -1.2 .2c-.8 0 -1.3 -.4 -1.3 -1.5c-.9 1.1 -2.1 1.5 -3.5 1.5c-1.8 0 -3.2 -.7 -3.2 -2.7c0 -2.1 1.6 -2.6 3.3 -2.9c1.8 -.4 3.3 -.3 3.3 -1.5c0 -1.3 -1.2 -1.6 -2.2 -1.6c-1.4 0 -2.4 .5 -2.4 1.9h-1.7c.1 -2.4 2 -3.3 4.2 -3.3c1.8 0 3.7 .4 3.7 2.7v5c0 .7 0 1 .5 1c.1 0 .3 0 .5 -.1Z" class="g1_2"/>
<path d="M200.3 73.8h1.6v1.5c.7 -1.2 1.8 -1.8 3.2 -1.8c2.6 0 3.4 1.5 3.4 3.6v6.3h-1.7V76.9c0 -1.2 -.7 -2 -2 -2c-1.9 0 -2.9 1.3 -2.9 3.1v5.4h-1.6Z" class="g1_2"/>
<path d="M218.3 76.9c-.3 -1.3 -1.1 -2 -2.4 -2c-2.4 0 -3.1 1.9 -3.1 3.8c0 1.8 .8 3.5 2.9 3.5c1.5 0 2.5 -.9 2.7 -2.3H220c-.3 2.3 -1.8 3.7 -4.3 3.7c-3 0 -4.6 -2 -4.6 -4.9c0 -2.9 1.5 -5.2 4.6 -5.2c2.2 0 4 1.1 4.3 3.4Z" class="g1_2"/>
<path d="M229.4 77.7c-.1 -1.5 -1.3 -2.8 -2.9 -2.8c-1.6 0 -2.7 1.3 -2.8 2.8Zm1.5 2.7c-.4 2.1 -2 3.2 -4.2 3.2c-3.1 0 -4.6 -2.1 -4.7 -5c0 -2.9 2 -5.1 4.6 -5.1c3.5 0 4.6 3.2 4.5 5.6h-7.4c0 1.6 .9 3.1 3.1 3.1c1.3 0 2.2 -.6 2.5 -1.8Z" class="g1_2"/>
<path d="M233.4 73.8h1.5v2h.1c.8 -1.6 1.8 -2.3 3.6 -2.3v1.7c-2.6 0 -3.6 1.5 -3.6 3.9v4.3h-1.6Z" class="g1_2"/>
<path d="M175.2 89.6h1.9l7.2 10.8V89.6H186v13.3h-2L177 92.2h-.1v10.7h-1.7Z" class="g1_2"/>
<path d="M196.2 97.2c-.1 -1.5 -1.2 -2.7 -2.8 -2.7c-1.7 0 -2.7 1.2 -2.8 2.7Zm1.6 2.7c-.5 2.1 -2 3.3 -4.2 3.3c-3.2 0 -4.6 -2.2 -4.7 -5.1c0 -2.9 1.9 -5 4.6 -5c3.5 0 4.5 3.2 4.4 5.5h-7.3c-.1 1.7 .9 3.2 3 3.2c1.4 0 2.3 -.7 2.6 -1.9Z" class="g1_2"/>
<path d="M202.6 93.3h1.9v1.4h-1.9v6c0 .7 .2 .8 1.2 .8h.7v1.4h-1.2c-1.7 0 -2.3 -.3 -2.3 -2.1V94.7h-1.7V93.3H201V90.4h1.6Z" class="g1_2"/>
<path d="M216.8 102.9h-1.7l-2 -7.6H213l-1.9 7.6h-1.8l-3.1 -9.6h1.7l2.3 7.9l2 -7.9h1.7l2.1 7.9l2.2 -7.9h1.7Z" class="g1_2"/>
<path d="M226.4 101.8c1.7 0 3.1 -1.3 3.1 -3.7c0 -2.3 -1.4 -3.6 -3.1 -3.6c-1.7 0 -3 1.3 -3 3.6c0 2.4 1.3 3.7 3 3.7m0 -8.7c3.1 0 4.8 2.2 4.8 5c0 2.8 -1.7 5.1 -4.8 5.1c-3.1 0 -4.8 -2.3 -4.8 -5.1c0 -2.8 1.7 -5 4.8 -5Z" class="g1_2"/>
<path d="M233.8 93.3h1.5v2c.8 -1.5 1.9 -2.3 3.6 -2.2v1.6c-2.6 0 -3.5 1.5 -3.5 3.9v4.3h-1.6Z" class="g1_2"/>
<path d="M241 89.6h1.6v7.9l4.5 -4.2h2.1l-3.9 3.5l4.2 6.1h-2l-3.4 -5l-1.5 1.4v3.6H241Z" class="g1_2"/>
<path d="M253 92.4h.6c.5 0 1 0 1 -.6c0 -.5 -.4 -.6 -.8 -.6H253Zm-.6 -1.7h1.5c.9 0 1.3 .4 1.3 1.1c0 .7 -.5 .9 -1 1l1.1 1.6h-.7l-1 -1.6H253v1.6h-.6Zm1.3 4.6c1.5 0 2.6 -1.2 2.6 -2.7c0 -1.5 -1.1 -2.7 -2.6 -2.7c-1.5 0 -2.7 1.2 -2.7 2.7c0 1.5 1.2 2.7 2.7 2.7m0 -5.9c1.7 0 3.2 1.4 3.2 3.2c0 1.8 -1.5 3.1 -3.2 3.1c-1.8 0 -3.3 -1.3 -3.3 -3.1c0 -1.8 1.5 -3.2 3.3 -3.2Z" class="g1_2"/>
<image x="90" y="29" width="76" height="76" xlink:href="shade/1.png"/>
<path clip-path="url(#c1_2)" d="M154.9 104.4H100.8c-5.9 0 -10.7 -4.8 -10.7 -10.7V39.8c0 -5.9 4.8 -10.7 10.7 -10.7h54.1c5.9 0 10.7 4.8 10.7 10.7V93.7c0 5.9 -4.8 10.7 -10.7 10.7Z" class="g2_2"/>
<path d="M110.9 81.5c0 1.2 0 2.5 0 3.1c-.1 .3 -.7 .5 -1.1 .5c-.1 0 -.7 -1 -1.6 -2.2l-4.6 -5.5c-1.2 -1.4 -1.8 -2.2 -2.2 -2.5c-.1 .2 -.1 .5 -.1 1.2v3.8c0 1.6 .1 3 .3 3.6c.2 .4 .6 .5 1.2 .6l.5 .1c.2 .1 .1 .5 0 .7c-1.1 -.1 -1.8 -.1 -2.6 -.1c-.8 0 -1.5 0 -2.3 .1c-.1 -.2 -.1 -.6 0 -.7l.4 -.1c.5 -.1 .9 -.2 1.1 -.6c.2 -.6 .2 -2 .2 -3.6v-5c0 -1 0 -1.4 -.1 -1.6c-.2 -.4 -.4 -.6 -1.1 -.7l-.6 -.1c-.1 -.1 -.1 -.6 .1 -.6c.9 0 1.9 0 2.7 0c.7 0 1.3 0 1.7 0c.2 .8 1.5 2.3 3.3 4.4l1.6 1.9c.9 1.1 1.5 1.7 1.9 2.2c.1 -.2 .1 -.5 .1 -.9V76.8c0 -1.6 -.1 -3 -.3 -3.6c-.1 -.4 -.6 -.5 -1.1 -.6l-.6 -.1c-.1 -.1 -.1 -.5 0 -.6c1.1 0 1.9 0 2.7 0c.7 0 1.5 0 2.2 0c.1 .1 .2 .5 0 .6l-.3 .1c-.6 .1 -.9 .2 -1.1 .6c-.2 .6 -.3 2 -.3 3.6Z" class="g3_2"/>
<path d="M126.6 72.1c0 .4 0 1.9 .2 3.1c-.1 .2 -.6 .3 -.7 .1c-.6 -1.8 -1.8 -2.8 -3.8 -2.8c-2.2 0 -4.5 1.8 -4.5 5.7c0 3.9 2.2 6 4.6 6c2.4 0 3.5 -1.7 4.1 -3c.1 -.2 .6 -.1 .7 .1c-.1 1.5 -.5 2.6 -.7 3.1c-1.1 .3 -2.5 .7 -4.1 .7c-1.9 0 -3.9 -.4 -5.3 -1.5c-1.4 -1 -2.5 -2.7 -2.5 -5.1c0 -2.4 1 -4.1 2.4 -5.2c1.4 -1.1 3.4 -1.7 5.5 -1.7c2 0 3.5 .5 4.1 .5Z" class="g3_2"/>
<path d="M141 72.1c0 .4 .1 1.9 .2 3.1c0 .2 -.6 .3 -.7 .1c-.6 -1.8 -1.8 -2.8 -3.8 -2.8c-2.2 0 -4.5 1.8 -4.5 5.7c0 3.9 2.3 6 4.6 6c2.4 0 3.6 -1.7 4.1 -3c.2 -.2 .6 -.1 .7 .1c-.1 1.5 -.4 2.6 -.7 3.1c-1.1 .3 -2.5 .7 -4 .7c-2 0 -4 -.4 -5.4 -1.5c-1.4 -1 -2.5 -2.7 -2.5 -5.1c0 -2.4 1 -4.1 2.4 -5.2c1.4 -1.1 3.4 -1.7 5.5 -1.7c2 0 3.5 .5 4.1 .5Z" class="g3_2"/>
<path d="M155.8 81.5c0 1.2 0 2.5 .1 3.1c-.2 .3 -.7 .5 -1.2 .5c0 0 -.7 -1 -1.6 -2.2l-4.6 -5.5c-1.2 -1.4 -1.8 -2.2 -2.2 -2.5c-.1 .2 -.1 .5 -.1 1.2v3.8c0 1.6 .1 3 .3 3.6c.2 .4 .7 .5 1.2 .6l.5 .1c.2 .1 .2 .5 0 .7c-1 -.1 -1.8 -.1 -2.6 -.1c-.8 0 -1.5 0 -2.2 .1c-.2 -.2 -.2 -.6 0 -.7l.3 -.1c.5 -.1 .9 -.2 1.1 -.6c.2 -.6 .3 -2 .3 -3.6v-5c0 -1 -.1 -1.4 -.2 -1.6c-.1 -.4 -.4 -.6 -1.1 -.7l-.6 -.1c-.1 -.1 -.1 -.6 .1 -.6c.9 0 1.9 0 2.8 0c.6 0 1.2 0 1.6 0c.2 .8 1.5 2.3 3.3 4.4l1.7 1.9c.8 1.1 1.4 1.7 1.9 2.2c0 -.2 0 -.5 0 -.9V76.8c0 -1.6 0 -3 -.3 -3.6c-.1 -.4 -.6 -.5 -1.1 -.6l-.5 -.1c-.2 -.1 -.2 -.5 0 -.6c1 0 1.8 0 2.6 0c.8 0 1.5 0 2.2 0c.2 .1 .2 .5 0 .6l-.3 .1c-.5 .1 -.9 .2 -1.1 .6c-.2 .6 -.3 2 -.3 3.6Z" class="g3_2"/>
<path d="M89.6 118.4h1107" class="g4_2"/>
<path d="M1023.1 54.8h173.5M1069.4 74.4h127.2m-79 19.7h79" class="g0_2"/>
</svg>