<svg viewBox="0 0 1210 935" version="1.1" xmlns="http://www.w3.org/2000/svg">
<defs>
<clipPath id="c0_237"><path d="M35.7 107V29.4H267.3V107Z"/></clipPath>
<style>
.g0_237{fill:none;stroke:#005B99;stroke-width:2.673;stroke-linejoin:round;}
.g1_237{fill:#005B99;}
</style>
</defs>
<path d="M34.4 121H1172.9" class="g0_237"/>
<image clip-path="url(#c0_237)" preserveAspectRatio="none" x="36" y="30" width="231" height="77" href="img/1.jpg"/>
<path d="M35.4 190.7H404.6v-1.3H35.4v1.3Z" class="g1_237"/>
<path d="M35.4 284.8H404.6v-1.2H35.4v1.2Z" class="g1_237"/>
<path d="M35.4 378.9H404.6v-1.2H35.4v1.2Z" class="g1_237"/>
<path d="M35.4 492.6H404.6v-1.3H35.4v1.3Z" class="g1_237"/>
<path d="M58.7 586.7H418v-1.3H58.7v1.3Z" class="g1_237"/>
<path d="M169.9 680.8H530.4v-1.2H169.9v1.2Z" class="g1_237"/>
<path d="M35.4 794.4H404.6v-1.2H35.4v1.2Z" class="g1_237"/>
<path d="M618.4 190.7H979v-1.3H618.4v1.3Z" class="g1_237"/>
<path d="M618.4 323.9H987.6v-1.2H618.4v1.2Z" class="g1_237"/>
<path d="M715 437.6h360.6v-1.3H715v1.3Z" class="g1_237"/>
<path d="M618.4 531.7H987.6v-1.3H618.4v1.3Z" class="g1_237"/>
<path d="M618.4 645.3H987.6v-1.2H618.4v1.2Z" class="g1_237"/>
<path d="M715 739.4h369.1v-1.2H715v1.2Z" class="g1_237"/>
<path d="M618.4 853.1H987.6v-1.2H618.4v1.2Z" class="g1_237"/>
</svg>