<?xml version="1.0" encoding="UTF-8" standalone="no"?>
<!DOCTYPE svg PUBLIC "-//W3C//DTD SVG 1.1//EN"
"http://www.w3.org/Graphics/SVG/1.1/DTD/svg11.dtd">
<svg viewBox="0 0 908 1286" version="1.1" xmlns="http://www.w3.org/2000/svg" xmlns:xlink="http://www.w3.org/1999/xlink">
<defs>
<clipPath id="c0_100"><path d="M-.2 1286.6V-.2H909.3V1286.6Z"/></clipPath>
<clipPath id="c1_100"><path d="M239.1 219.5V184.4H822.8v35.1Z"/></clipPath>
<clipPath id="c2_100"><path d="M239.1 298.5V221.2H822.8v77.3Z"/></clipPath>
<clipPath id="c3_100"><path d="M239.1 328.3V300.1H822.8v28.2Z"/></clipPath>
<style type="text/css"><![CDATA[
.g0_100{
fill: none;
stroke: #F78C00;
stroke-width: 8.784;
stroke-linejoin: round;
}
.g1_100{
fill: none;
stroke: #F29400;
stroke-width: 8.784;
stroke-linejoin: round;
}
.g2_100{
fill: #F7BF66;
}
.g3_100{
fill: #FFF;
}
.g4_100{
fill: #FCEACC;
}
]]></style>
</defs>
<g clip-path="url(#c0_100)">
<path d="M-21.2 1185.1H913.7" class="g0_100"/>
<path d="M-21.2 110.2H913.7" class="g1_100"/>
</g>
<path fill-rule="evenodd" d="M132.3 219.2H237.2V184.7H132.3v34.5Z" class="g2_100"/>
<path fill-rule="evenodd" d="M132.3 219.2H237.2V184.7H132.3v34.5Z" class="g2_100"/>
<path fill-rule="evenodd" d="M239.5 219.2h583V184.7h-583v34.5Z" class="g2_100"/>
<path clip-path="url(#c1_100)" fill-rule="evenodd" d="M239.5 219.2h583V184.7h-583v34.5Z" class="g2_100"/>
<path fill-rule="evenodd" d="M130 184.7h2.3v-2.3H130v2.3Z" class="g3_100"/>
<path fill-rule="evenodd" d="M130 184.7h2.3v-2.3H130v2.3Z" class="g3_100"/>
<path fill-rule="evenodd" d="M132.3 184.7H237.2v-2.3H132.3v2.3Z" class="g3_100"/>
<path fill-rule="evenodd" d="M237.2 184.7h2.3v-2.3h-2.3v2.3Z" class="g3_100"/>
<path fill-rule="evenodd" d="M239.5 184.7H822.6v-2.3H239.5v2.3Z" class="g3_100"/>
<path fill-rule="evenodd" d="M822.6 184.7h2.3v-2.3h-2.3v2.3Z" class="g3_100"/>
<path fill-rule="evenodd" d="M822.6 184.7h2.3v-2.3h-2.3v2.3Z" class="g3_100"/>
<path fill-rule="evenodd" d="M130 219.2h2.3V184.7H130v34.5Z" class="g3_100"/>
<path fill-rule="evenodd" d="M237.2 219.2h2.3V184.7h-2.3v34.5Z" class="g3_100"/>
<path fill-rule="evenodd" d="M822.6 219.2h2.3V184.7h-2.3v34.5Z" class="g3_100"/>
<path fill-rule="evenodd" d="M132.3 298.1H237.2V221.5H132.3v76.6Z" class="g4_100"/>
<path fill-rule="evenodd" d="M132.3 278.7H237.2V221.5H132.3v57.2Z" class="g4_100"/>
<path fill-rule="evenodd" d="M239.5 298.1h583V221.5h-583v76.6Z" class="g4_100"/>
<g clip-path="url(#c2_100)">
<path fill-rule="evenodd" d="M239.5 250.1h583V221.5h-583v28.6Z" class="g4_100"/>
<path fill-rule="evenodd" d="M239.5 269.5h583V250.1h-583v19.4Z" class="g4_100"/>
<path fill-rule="evenodd" d="M239.5 298.1h583V269.5h-583v28.6Z" class="g4_100"/>
</g>
<path fill-rule="evenodd" d="M130 221.5h2.3v-2.3H130v2.3Z" class="g3_100"/>
<path fill-rule="evenodd" d="M132.3 221.5H237.2v-2.3H132.3v2.3Z" class="g3_100"/>
<path fill-rule="evenodd" d="M237.2 221.5h2.3v-2.3h-2.3v2.3Z" class="g3_100"/>
<path fill-rule="evenodd" d="M239.5 221.5H822.6v-2.3H239.5v2.3Z" class="g3_100"/>
<path fill-rule="evenodd" d="M822.6 221.5h2.3v-2.3h-2.3v2.3Z" class="g3_100"/>
<path fill-rule="evenodd" d="M130 298.1h2.3V221.5H130v76.6Z" class="g3_100"/>
<path fill-rule="evenodd" d="M237.2 298.1h2.3V221.5h-2.3v76.6Z" class="g3_100"/>
<path fill-rule="evenodd" d="M822.6 298.1h2.3V221.5h-2.3v76.6Z" class="g3_100"/>
<path fill-rule="evenodd" d="M132.3 328H237.2V300.4H132.3V328Z" class="g4_100"/>
<path fill-rule="evenodd" d="M132.3 328H237.2V300.4H132.3V328Z" class="g4_100"/>
<path fill-rule="evenodd" d="M239.5 328h583V300.4h-583V328Z" class="g4_100"/>
<path clip-path="url(#c3_100)" fill-rule="evenodd" d="M239.5 328h583V300.4h-583V328Z" class="g4_100"/>
<path fill-rule="evenodd" d="M130 300.4h2.3v-2.3H130v2.3Z" class="g3_100"/>
<path fill-rule="evenodd" d="M132.3 300.4H237.2v-2.3H132.3v2.3Z" class="g3_100"/>
<path fill-rule="evenodd" d="M237.2 300.4h2.3v-2.3h-2.3v2.3Z" class="g3_100"/>
<path fill-rule="evenodd" d="M239.5 300.4H822.6v-2.3H239.5v2.3Z" class="g3_100"/>
<path fill-rule="evenodd" d="M822.6 300.4h2.3v-2.3h-2.3v2.3Z" class="g3_100"/>
<path fill-rule="evenodd" d="M130 328h2.3V300.4H130V328Z" class="g3_100"/>
<path fill-rule="evenodd" d="M130 330.3h2.3V328H130v2.3Z" class="g3_100"/>
<path fill-rule="evenodd" d="M130 330.3h2.3V328H130v2.3Z" class="g3_100"/>
<path fill-rule="evenodd" d="M132.3 330.3H237.2V328H132.3v2.3Z" class="g3_100"/>
<path fill-rule="evenodd" d="M237.2 328h2.3V300.4h-2.3V328Z" class="g3_100"/>
<path fill-rule="evenodd" d="M237.2 330.3h2.3V328h-2.3v2.3Z" class="g3_100"/>
<path fill-rule="evenodd" d="M239.5 330.3H822.6V328H239.5v2.3Z" class="g3_100"/>
<path fill-rule="evenodd" d="M822.6 328h2.3V300.4h-2.3V328Z" class="g3_100"/>
<path fill-rule="evenodd" d="M822.6 330.3h2.3V328h-2.3v2.3Z" class="g3_100"/>
<path fill-rule="evenodd" d="M822.6 330.3h2.3V328h-2.3v2.3Z" class="g3_100"/>
</svg>