<svg viewBox="0 0 1210 935" version="1.1" xmlns="http://www.w3.org/2000/svg">
<defs>
<clipPath id="c0_238"><path d="M35.7 107V29.4H267.3V107Z"/></clipPath>
<style>
.g0_238{fill:none;stroke:#005B99;stroke-width:2.673;stroke-linejoin:round;}
.g1_238{fill:#005B99;}
</style>
</defs>
<path d="M34.4 121H1172.9" class="g0_238"/>
<image clip-path="url(#c0_238)" preserveAspectRatio="none" x="36" y="30" width="231" height="77" href="img/1.jpg"/>
<path d="M35.4 229.8H404.6v-1.2H35.4v1.2Z" class="g1_238"/>
<path d="M35.4 323.9H404.6v-1.2H35.4v1.2Z" class="g1_238"/>
<path d="M35.4 457.1H404.6v-1.2H35.4v1.2Z" class="g1_238"/>
<path d="M35.4 551.2H404.6V550H35.4v1.2Z" class="g1_238"/>
<path d="M132 645.3H501.1v-1.2H132v1.2Z" class="g1_238"/>
<path d="M35.4 759H404.6v-1.2H35.4V759Z" class="g1_238"/>
<path d="M35.4 871.4H404.6v-1.2H35.4v1.2Z" class="g1_238"/>
<path d="M618.4 229.8H987.6v-1.2H618.4v1.2Z" class="g1_238"/>
<path d="M618.4 343.4H987.6v-1.2H618.4v1.2Z" class="g1_238"/>
<path d="M618.4 457.1H987.6v-1.2H618.4v1.2Z" class="g1_238"/>
<path d="M715 570.8h369.1v-1.2H715v1.2Z" class="g1_238"/>
<path d="M618.4 683.2H987.6V682H618.4v1.2Z" class="g1_238"/>
<path d="M715 777.3h369.1v-1.2H715v1.2Z" class="g1_238"/>
</svg>