<?xml version="1.0" encoding="UTF-8" standalone="no"?>
<!DOCTYPE svg PUBLIC "-//W3C//DTD SVG 1.1//EN"
"http://www.w3.org/Graphics/SVG/1.1/DTD/svg11.dtd">
<svg viewBox="0 0 908 1286" version="1.1" xmlns="http://www.w3.org/2000/svg" xmlns:xlink="http://www.w3.org/1999/xlink">
<defs>
<clipPath id="c0_122"><path d="M-.2 1286.6V-.2H909.3V1286.6Z"/></clipPath>
<clipPath id="c1_122"><path d="M132 225.3V186.9H237.5v38.4Z"/></clipPath>
<clipPath id="c2_122"><path d="M239.1 225.3V186.9H822.8v38.4Z"/></clipPath>
<clipPath id="c3_122"><path d="M239.1 284.8V226.9H822.8v57.9Z"/></clipPath>
<clipPath id="c4_122"><path d="M239.1 314.7V286.4H822.8v28.3Z"/></clipPath>
<style type="text/css"><![CDATA[
.g0_122{
fill: none;
stroke: #F78C00;
stroke-width: 8.784;
stroke-linejoin: round;
}
.g1_122{
fill: none;
stroke: #F29400;
stroke-width: 8.784;
stroke-linejoin: round;
}
.g2_122{
fill: #F7BF66;
}
.g3_122{
fill: #FFF;
}
.g4_122{
fill: #FCEACC;
}
]]></style>
</defs>
<g clip-path="url(#c0_122)">
<path d="M-21.2 1185.1H913.7" class="g0_122"/>
<path d="M-21.2 110.2H913.7" class="g1_122"/>
</g>
<path fill-rule="evenodd" d="M132.3 225H237.2V187.2H132.3V225Z" class="g2_122"/>
<path clip-path="url(#c1_122)" fill-rule="evenodd" d="M132.3 221.8H237.2V187.2H132.3v34.6Z" class="g2_122"/>
<path fill-rule="evenodd" d="M239.5 225h583V187.2h-583V225Z" class="g2_122"/>
<path clip-path="url(#c2_122)" fill-rule="evenodd" d="M239.5 225h583V187.2h-583V225Z" class="g2_122"/>
<path fill-rule="evenodd" d="M130 187.2h2.3v-2.3H130v2.3Z" class="g3_122"/>
<path fill-rule="evenodd" d="M130 187.2h2.3v-2.3H130v2.3Z" class="g3_122"/>
<path fill-rule="evenodd" d="M132.3 187.2H237.2v-2.3H132.3v2.3Z" class="g3_122"/>
<path fill-rule="evenodd" d="M237.2 187.2h2.3v-2.3h-2.3v2.3Z" class="g3_122"/>
<path fill-rule="evenodd" d="M239.5 187.2H822.6v-2.3H239.5v2.3Z" class="g3_122"/>
<path fill-rule="evenodd" d="M822.6 187.2h2.3v-2.3h-2.3v2.3Z" class="g3_122"/>
<path fill-rule="evenodd" d="M822.6 187.2h2.3v-2.3h-2.3v2.3Z" class="g3_122"/>
<path fill-rule="evenodd" d="M130 225h2.3V187.2H130V225Z" class="g3_122"/>
<path fill-rule="evenodd" d="M237.2 225h2.3V187.2h-2.3V225Z" class="g3_122"/>
<path fill-rule="evenodd" d="M822.6 225h2.3V187.2h-2.3V225Z" class="g3_122"/>
<path fill-rule="evenodd" d="M132.3 284.5H237.2V227.3H132.3v57.2Z" class="g4_122"/>
<path fill-rule="evenodd" d="M132.3 284.5H237.2V227.3H132.3v57.2Z" class="g4_122"/>
<path fill-rule="evenodd" d="M239.5 284.5h583V227.3h-583v57.2Z" class="g4_122"/>
<g clip-path="url(#c3_122)">
<path fill-rule="evenodd" d="M239.5 255.9h583V227.3h-583v28.6Z" class="g4_122"/>
<path fill-rule="evenodd" d="M239.5 284.5h583V255.9h-583v28.6Z" class="g4_122"/>
</g>
<path fill-rule="evenodd" d="M130 227.3h2.3V225H130v2.3Z" class="g3_122"/>
<path fill-rule="evenodd" d="M132.3 227.3H237.2V225H132.3v2.3Z" class="g3_122"/>
<path fill-rule="evenodd" d="M237.2 227.3h2.3V225h-2.3v2.3Z" class="g3_122"/>
<path fill-rule="evenodd" d="M239.5 227.3H822.6V225H239.5v2.3Z" class="g3_122"/>
<path fill-rule="evenodd" d="M822.6 227.3h2.3V225h-2.3v2.3Z" class="g3_122"/>
<path fill-rule="evenodd" d="M130 284.5h2.3V227.3H130v57.2Z" class="g3_122"/>
<path fill-rule="evenodd" d="M237.2 284.5h2.3V227.3h-2.3v57.2Z" class="g3_122"/>
<path fill-rule="evenodd" d="M822.6 284.5h2.3V227.3h-2.3v57.2Z" class="g3_122"/>
<path fill-rule="evenodd" d="M132.3 314.4H237.2V286.8H132.3v27.6Z" class="g4_122"/>
<path fill-rule="evenodd" d="M132.3 314.4H237.2V286.8H132.3v27.6Z" class="g4_122"/>
<path fill-rule="evenodd" d="M239.5 314.4h583V286.8h-583v27.6Z" class="g4_122"/>
<path clip-path="url(#c4_122)" fill-rule="evenodd" d="M239.5 314.4h583V286.8h-583v27.6Z" class="g4_122"/>
<path fill-rule="evenodd" d="M130 286.8h2.3v-2.3H130v2.3Z" class="g3_122"/>
<path fill-rule="evenodd" d="M132.3 286.8H237.2v-2.3H132.3v2.3Z" class="g3_122"/>
<path fill-rule="evenodd" d="M237.2 286.8h2.3v-2.3h-2.3v2.3Z" class="g3_122"/>
<path fill-rule="evenodd" d="M239.5 286.8H822.6v-2.3H239.5v2.3Z" class="g3_122"/>
<path fill-rule="evenodd" d="M822.6 286.8h2.3v-2.3h-2.3v2.3Z" class="g3_122"/>
<path fill-rule="evenodd" d="M130 314.4h2.3V286.8H130v27.6Z" class="g3_122"/>
<path fill-rule="evenodd" d="M130 316.6h2.3v-2.2H130v2.2Z" class="g3_122"/>
<path fill-rule="evenodd" d="M130 316.6h2.3v-2.2H130v2.2Z" class="g3_122"/>
<path fill-rule="evenodd" d="M132.3 316.6H237.2v-2.2H132.3v2.2Z" class="g3_122"/>
<path fill-rule="evenodd" d="M237.2 314.4h2.3V286.8h-2.3v27.6Z" class="g3_122"/>
<path fill-rule="evenodd" d="M237.2 316.6h2.3v-2.2h-2.3v2.2Z" class="g3_122"/>
<path fill-rule="evenodd" d="M239.5 316.6H822.6v-2.2H239.5v2.2Z" class="g3_122"/>
<path fill-rule="evenodd" d="M822.6 314.4h2.3V286.8h-2.3v27.6Z" class="g3_122"/>
<path fill-rule="evenodd" d="M822.6 316.6h2.3v-2.2h-2.3v2.2Z" class="g3_122"/>
<path fill-rule="evenodd" d="M822.6 316.6h2.3v-2.2h-2.3v2.2Z" class="g3_122"/>
</svg>