<svg viewBox="0 0 1210 935" version="1.1" xmlns="http://www.w3.org/2000/svg">
<defs>
<clipPath id="c0_206"><path d="M35.7 107V29.4H267.3V107Z"/></clipPath>
<style>
.g0_206{fill:none;stroke:#005B99;stroke-width:2.673;stroke-linejoin:round;}
.g1_206{fill:#005B99;}
</style>
</defs>
<path d="M34.4 121H1172.9" class="g0_206"/>
<image clip-path="url(#c0_206)" preserveAspectRatio="none" x="36" y="30" width="231" height="77" href="img/1.jpg"/>
<path d="M132 172.3H501.1v-1.2H132v1.2Z" class="g1_206"/>
<path d="M169.9 266.4H530.4v-1.2H169.9v1.2Z" class="g1_206"/>
<path d="M35.4 378.9H404.6v-1.2H35.4v1.2Z" class="g1_206"/>
<path d="M35.4 492.6H404.6v-1.3H35.4v1.3Z" class="g1_206"/>
<path d="M35.4 586.7H404.6v-1.3H35.4v1.3Z" class="g1_206"/>
<path d="M35.4 700.3H404.6v-1.2H35.4v1.2Z" class="g1_206"/>
<path d="M35.4 794.4H404.6v-1.2H35.4v1.2Z" class="g1_206"/>
<path d="M618.4 172.3H987.6v-1.2H618.4v1.2Z" class="g1_206"/>
<path d="M618.4 266.4H987.6v-1.2H618.4v1.2Z" class="g1_206"/>
<path d="M618.4 360.6H987.6v-1.3H618.4v1.3Z" class="g1_206"/>
<path d="M618.4 454.7H987.6v-1.3H618.4v1.3Z" class="g1_206"/>
<path d="M618.4 548.8H979v-1.2H618.4v1.2Z" class="g1_206"/>
<path d="M618.4 642.9H987.6v-1.2H618.4v1.2Z" class="g1_206"/>
<path d="M618.4 737H979v-1.2H618.4V737Z" class="g1_206"/>
<path d="M762.7 831.1h360.5v-1.2H762.7v1.2Z" class="g1_206"/>
</svg>