<?xml version="1.0" encoding="UTF-8" standalone="no"?>
<!DOCTYPE svg PUBLIC "-//W3C//DTD SVG 1.1//EN"
"http://www.w3.org/Graphics/SVG/1.1/DTD/svg11.dtd">
<svg viewBox="0 0 908 1286" version="1.1" xmlns="http://www.w3.org/2000/svg" xmlns:xlink="http://www.w3.org/1999/xlink">
<defs>
<clipPath id="c0_36"><path d="M-.2 1286.6V-.2H909.3V1286.6Z"/></clipPath>
<clipPath id="c1_36"><path d="M239.1 232.3V197H822.8v35.3Z"/></clipPath>
<clipPath id="c2_36"><path d="M239.1 291.8V233.9H822.8v57.9Z"/></clipPath>
<clipPath id="c3_36"><path d="M239.1 321.6V293.4H822.8v28.2Z"/></clipPath>
<clipPath id="c4_36"><path d="M239.1 393.1V357.9H822.8v35.2Z"/></clipPath>
<clipPath id="c5_36"><path d="M239.1 491.5V394.8H822.8v96.7Z"/></clipPath>
<clipPath id="c6_36"><path d="M239.1 521.4V493.1H822.8v28.3Z"/></clipPath>
<style type="text/css"><![CDATA[
.g0_36{
fill: none;
stroke: #F78C00;
stroke-width: 8.784;
stroke-linejoin: round;
}
.g1_36{
fill: none;
stroke: #F29400;
stroke-width: 8.784;
stroke-linejoin: round;
}
.g2_36{
fill: #F7BF66;
}
.g3_36{
fill: #FFF;
}
.g4_36{
fill: #FCEACC;
}
]]></style>
</defs>
<g clip-path="url(#c0_36)">
<path d="M-21.2 1185.1H913.7" class="g0_36"/>
<path d="M-21.2 110.2H913.7" class="g1_36"/>
</g>
<path fill-rule="evenodd" d="M132.3 231.9H237.2V197.4H132.3v34.5Z" class="g2_36"/>
<path fill-rule="evenodd" d="M132.3 231.9H237.2V197.4H132.3v34.5Z" class="g2_36"/>
<path fill-rule="evenodd" d="M239.5 231.9h583V197.4h-583v34.5Z" class="g2_36"/>
<path clip-path="url(#c1_36)" fill-rule="evenodd" d="M239.5 231.9h583V197.4h-583v34.5Z" class="g2_36"/>
<path fill-rule="evenodd" d="M130 197.4h2.3v-2.3H130v2.3Z" class="g3_36"/>
<path fill-rule="evenodd" d="M130 197.4h2.3v-2.3H130v2.3Z" class="g3_36"/>
<path fill-rule="evenodd" d="M132.3 197.4H237.2v-2.3H132.3v2.3Z" class="g3_36"/>
<path fill-rule="evenodd" d="M237.2 197.4h2.3v-2.3h-2.3v2.3Z" class="g3_36"/>
<path fill-rule="evenodd" d="M239.5 197.4H822.6v-2.3H239.5v2.3Z" class="g3_36"/>
<path fill-rule="evenodd" d="M822.6 197.4h2.3v-2.3h-2.3v2.3Z" class="g3_36"/>
<path fill-rule="evenodd" d="M822.6 197.4h2.3v-2.3h-2.3v2.3Z" class="g3_36"/>
<path fill-rule="evenodd" d="M130 231.9h2.3V197.4H130v34.5Z" class="g3_36"/>
<path fill-rule="evenodd" d="M237.2 231.9h2.3V197.4h-2.3v34.5Z" class="g3_36"/>
<path fill-rule="evenodd" d="M822.6 231.9h2.3V197.4h-2.3v34.5Z" class="g3_36"/>
<path fill-rule="evenodd" d="M132.3 291.4H237.2V234.2H132.3v57.2Z" class="g4_36"/>
<path fill-rule="evenodd" d="M132.3 291.4H237.2V234.2H132.3v57.2Z" class="g4_36"/>
<path fill-rule="evenodd" d="M239.5 291.4h583V234.2h-583v57.2Z" class="g4_36"/>
<g clip-path="url(#c2_36)">
<path fill-rule="evenodd" d="M239.5 262.8h583V234.2h-583v28.6Z" class="g4_36"/>
<path fill-rule="evenodd" d="M239.5 291.4h583V262.8h-583v28.6Z" class="g4_36"/>
</g>
<path fill-rule="evenodd" d="M130 234.2h2.3v-2.3H130v2.3Z" class="g3_36"/>
<path fill-rule="evenodd" d="M132.3 234.2H237.2v-2.3H132.3v2.3Z" class="g3_36"/>
<path fill-rule="evenodd" d="M237.2 234.2h2.3v-2.3h-2.3v2.3Z" class="g3_36"/>
<path fill-rule="evenodd" d="M239.5 234.2H822.6v-2.3H239.5v2.3Z" class="g3_36"/>
<path fill-rule="evenodd" d="M822.6 234.2h2.3v-2.3h-2.3v2.3Z" class="g3_36"/>
<path fill-rule="evenodd" d="M130 291.4h2.3V234.2H130v57.2Z" class="g3_36"/>
<path fill-rule="evenodd" d="M237.2 291.4h2.3V234.2h-2.3v57.2Z" class="g3_36"/>
<path fill-rule="evenodd" d="M822.6 291.4h2.3V234.2h-2.3v57.2Z" class="g3_36"/>
<path fill-rule="evenodd" d="M132.3 321.3H237.2V293.7H132.3v27.6Z" class="g4_36"/>
<path fill-rule="evenodd" d="M132.3 321.3H237.2V293.7H132.3v27.6Z" class="g4_36"/>
<path fill-rule="evenodd" d="M239.5 321.3h583V293.7h-583v27.6Z" class="g4_36"/>
<path clip-path="url(#c3_36)" fill-rule="evenodd" d="M239.5 321.3h583V293.7h-583v27.6Z" class="g4_36"/>
<path fill-rule="evenodd" d="M130 293.7h2.3v-2.3H130v2.3Z" class="g3_36"/>
<path fill-rule="evenodd" d="M132.3 293.7H237.2v-2.3H132.3v2.3Z" class="g3_36"/>
<path fill-rule="evenodd" d="M237.2 293.7h2.3v-2.3h-2.3v2.3Z" class="g3_36"/>
<path fill-rule="evenodd" d="M239.5 293.7H822.6v-2.3H239.5v2.3Z" class="g3_36"/>
<path fill-rule="evenodd" d="M822.6 293.7h2.3v-2.3h-2.3v2.3Z" class="g3_36"/>
<path fill-rule="evenodd" d="M130 321.3h2.3V293.7H130v27.6Z" class="g3_36"/>
<path fill-rule="evenodd" d="M130 323.6h2.3v-2.3H130v2.3Z" class="g3_36"/>
<path fill-rule="evenodd" d="M130 323.6h2.3v-2.3H130v2.3Z" class="g3_36"/>
<path fill-rule="evenodd" d="M132.3 323.6H237.2v-2.3H132.3v2.3Z" class="g3_36"/>
<path fill-rule="evenodd" d="M237.2 321.3h2.3V293.7h-2.3v27.6Z" class="g3_36"/>
<path fill-rule="evenodd" d="M237.2 323.6h2.3v-2.3h-2.3v2.3Z" class="g3_36"/>
<path fill-rule="evenodd" d="M239.5 323.6H822.6v-2.3H239.5v2.3Z" class="g3_36"/>
<path fill-rule="evenodd" d="M822.6 321.3h2.3V293.7h-2.3v27.6Z" class="g3_36"/>
<path fill-rule="evenodd" d="M822.6 323.6h2.3v-2.3h-2.3v2.3Z" class="g3_36"/>
<path fill-rule="evenodd" d="M822.6 323.6h2.3v-2.3h-2.3v2.3Z" class="g3_36"/>
<path fill-rule="evenodd" d="M132.3 392.8H237.2V358.3H132.3v34.5Z" class="g2_36"/>
<path fill-rule="evenodd" d="M132.3 392.8H237.2V358.3H132.3v34.5Z" class="g2_36"/>
<path fill-rule="evenodd" d="M239.5 392.8h583V358.3h-583v34.5Z" class="g2_36"/>
<path clip-path="url(#c4_36)" fill-rule="evenodd" d="M239.5 392.8h583V358.3h-583v34.5Z" class="g2_36"/>
<path fill-rule="evenodd" d="M130 358.3h2.3V356H130v2.3Z" class="g3_36"/>
<path fill-rule="evenodd" d="M130 358.3h2.3V356H130v2.3Z" class="g3_36"/>
<path fill-rule="evenodd" d="M132.3 358.3H237.2V356H132.3v2.3Z" class="g3_36"/>
<path fill-rule="evenodd" d="M237.2 358.3h2.3V356h-2.3v2.3Z" class="g3_36"/>
<path fill-rule="evenodd" d="M239.5 358.3H822.6V356H239.5v2.3Z" class="g3_36"/>
<path fill-rule="evenodd" d="M822.6 358.3h2.3V356h-2.3v2.3Z" class="g3_36"/>
<path fill-rule="evenodd" d="M822.6 358.3h2.3V356h-2.3v2.3Z" class="g3_36"/>
<path fill-rule="evenodd" d="M130 392.8h2.3V358.3H130v34.5Z" class="g3_36"/>
<path fill-rule="evenodd" d="M237.2 392.8h2.3V358.3h-2.3v34.5Z" class="g3_36"/>
<path fill-rule="evenodd" d="M822.6 392.8h2.3V358.3h-2.3v34.5Z" class="g3_36"/>
<path fill-rule="evenodd" d="M132.3 491.2H237.2V395.1H132.3v96.1Z" class="g4_36"/>
<path fill-rule="evenodd" d="M132.3 452.3H237.2V395.1H132.3v57.2Z" class="g4_36"/>
<path fill-rule="evenodd" d="M239.5 491.2h583V395.1h-583v96.1Z" class="g4_36"/>
<g clip-path="url(#c5_36)">
<path fill-rule="evenodd" d="M239.5 423.7h583V395.1h-583v28.6Z" class="g4_36"/>
<path fill-rule="evenodd" d="M239.5 443.1h583V423.7h-583v19.4Z" class="g4_36"/>
<path fill-rule="evenodd" d="M239.5 462.6h583V443.1h-583v19.5Z" class="g4_36"/>
<path fill-rule="evenodd" d="M239.5 491.2h583V462.6h-583v28.6Z" class="g4_36"/>
</g>
<path fill-rule="evenodd" d="M130 395.1h2.3v-2.3H130v2.3Z" class="g3_36"/>
<path fill-rule="evenodd" d="M132.3 395.1H237.2v-2.3H132.3v2.3Z" class="g3_36"/>
<path fill-rule="evenodd" d="M237.2 395.1h2.3v-2.3h-2.3v2.3Z" class="g3_36"/>
<path fill-rule="evenodd" d="M239.5 395.1H822.6v-2.3H239.5v2.3Z" class="g3_36"/>
<path fill-rule="evenodd" d="M822.6 395.1h2.3v-2.3h-2.3v2.3Z" class="g3_36"/>
<path fill-rule="evenodd" d="M130 491.2h2.3V395.1H130v96.1Z" class="g3_36"/>
<path fill-rule="evenodd" d="M237.2 491.2h2.3V395.1h-2.3v96.1Z" class="g3_36"/>
<path fill-rule="evenodd" d="M822.6 491.2h2.3V395.1h-2.3v96.1Z" class="g3_36"/>
<path fill-rule="evenodd" d="M132.3 521.1H237.2V493.5H132.3v27.6Z" class="g4_36"/>
<path fill-rule="evenodd" d="M132.3 521.1H237.2V493.5H132.3v27.6Z" class="g4_36"/>
<path fill-rule="evenodd" d="M239.5 521.1h583V493.5h-583v27.6Z" class="g4_36"/>
<path clip-path="url(#c6_36)" fill-rule="evenodd" d="M239.5 521.1h583V493.5h-583v27.6Z" class="g4_36"/>
<path fill-rule="evenodd" d="M130 493.5h2.3v-2.3H130v2.3Z" class="g3_36"/>
<path fill-rule="evenodd" d="M132.3 493.5H237.2v-2.3H132.3v2.3Z" class="g3_36"/>
<path fill-rule="evenodd" d="M237.2 493.5h2.3v-2.3h-2.3v2.3Z" class="g3_36"/>
<path fill-rule="evenodd" d="M239.5 493.5H822.6v-2.3H239.5v2.3Z" class="g3_36"/>
<path fill-rule="evenodd" d="M822.6 493.5h2.3v-2.3h-2.3v2.3Z" class="g3_36"/>
<path fill-rule="evenodd" d="M130 521.1h2.3V493.5H130v27.6Z" class="g3_36"/>
<path fill-rule="evenodd" d="M130 523.4h2.3v-2.3H130v2.3Z" class="g3_36"/>
<path fill-rule="evenodd" d="M130 523.4h2.3v-2.3H130v2.3Z" class="g3_36"/>
<path fill-rule="evenodd" d="M132.3 523.4H237.2v-2.3H132.3v2.3Z" class="g3_36"/>
<path fill-rule="evenodd" d="M237.2 521.1h2.3V493.5h-2.3v27.6Z" class="g3_36"/>
<path fill-rule="evenodd" d="M237.2 523.4h2.3v-2.3h-2.3v2.3Z" class="g3_36"/>
<path fill-rule="evenodd" d="M239.5 523.4H822.6v-2.3H239.5v2.3Z" class="g3_36"/>
<path fill-rule="evenodd" d="M822.6 521.1h2.3V493.5h-2.3v27.6Z" class="g3_36"/>
<path fill-rule="evenodd" d="M822.6 523.4h2.3v-2.3h-2.3v2.3Z" class="g3_36"/>
<path fill-rule="evenodd" d="M822.6 523.4h2.3v-2.3h-2.3v2.3Z" class="g3_36"/>
</svg>