<svg viewBox="0 0 1210 935" version="1.1" xmlns="http://www.w3.org/2000/svg">
<defs>
<clipPath id="c0_220"><path d="M35.7 107V29.4H267.3V107Z"/></clipPath>
<style>
.g0_220{fill:none;stroke:#005B99;stroke-width:2.673;stroke-linejoin:round;}
.g1_220{fill:#005B99;}
</style>
</defs>
<path d="M34.4 121H1172.9" class="g0_220"/>
<image clip-path="url(#c0_220)" preserveAspectRatio="none" x="36" y="30" width="231" height="77" href="img/1.jpg"/>
<path d="M35.4 172.3H404.6v-1.2H35.4v1.2Z" class="g1_220"/>
<path d="M35.4 266.4H396v-1.2H35.4v1.2Z" class="g1_220"/>
<path d="M35.4 378.9H386.2v-1.2H35.4v1.2Z" class="g1_220"/>
<path d="M35.4 454.7H396v-1.3H35.4v1.3Z" class="g1_220"/>
<path d="M35.4 567.1H396v-1.2H35.4v1.2Z" class="g1_220"/>
<path d="M35.4 661.2H404.6V660H35.4v1.2Z" class="g1_220"/>
<path d="M35.4 774.9H404.6v-1.2H35.4v1.2Z" class="g1_220"/>
<path d="M35.4 869h341v-1.2H35.4V869Z" class="g1_220"/>
<path d="M618.4 210.2H987.6V209H618.4v1.2Z" class="g1_220"/>
<path d="M618.4 304.3H987.6v-1.2H618.4v1.2Z" class="g1_220"/>
<path d="M618.4 378.9H987.6v-1.2H618.4v1.2Z" class="g1_220"/>
<path d="M618.4 473H987.6v-1.2H618.4V473Z" class="g1_220"/>
<path d="M618.4 606.2H987.6V605H618.4v1.2Z" class="g1_220"/>
<path d="M715 719.9h369.1v-1.2H715v1.2Z" class="g1_220"/>
<path d="M618.4 833.6H979v-1.3H618.4v1.3Z" class="g1_220"/>
</svg>