<?xml version="1.0" encoding="UTF-8" standalone="no"?>
<!DOCTYPE svg PUBLIC "-//W3C//DTD SVG 1.1//EN"
"http://www.w3.org/Graphics/SVG/1.1/DTD/svg11.dtd">
<svg viewBox="0 0 908 1286" version="1.1" xmlns="http://www.w3.org/2000/svg" xmlns:xlink="http://www.w3.org/1999/xlink">
<defs>
<clipPath id="c0_83"><path d="M-.2 1286.6V-.2H909.3V1286.6Z"/></clipPath>
<clipPath id="c1_83"><path d="M239.1 188.8V153.6H822.8v35.2Z"/></clipPath>
<clipPath id="c2_83"><path d="M239.1 305.5V190.4H822.8V305.5Z"/></clipPath>
<clipPath id="c3_83"><path d="M239.1 335.4V307.2H822.8v28.2Z"/></clipPath>
<style type="text/css"><![CDATA[
.g0_83{
fill: none;
stroke: #F78C00;
stroke-width: 8.784;
stroke-linejoin: round;
}
.g1_83{
fill: none;
stroke: #F29400;
stroke-width: 8.784;
stroke-linejoin: round;
}
.g2_83{
fill: #F7BF66;
}
.g3_83{
fill: #FFF;
}
.g4_83{
fill: #FCEACC;
}
]]></style>
</defs>
<g clip-path="url(#c0_83)">
<path d="M-21.2 1185.1H913.7" class="g0_83"/>
<path d="M-21.2 110.2H913.7" class="g1_83"/>
</g>
<path fill-rule="evenodd" d="M132.3 188.5H237.2V153.9H132.3v34.6Z" class="g2_83"/>
<path fill-rule="evenodd" d="M132.3 188.5H237.2V153.9H132.3v34.6Z" class="g2_83"/>
<path fill-rule="evenodd" d="M239.5 188.5h583V153.9h-583v34.6Z" class="g2_83"/>
<path clip-path="url(#c1_83)" fill-rule="evenodd" d="M239.5 188.5h583V153.9h-583v34.6Z" class="g2_83"/>
<path fill-rule="evenodd" d="M130 153.9h2.3v-2.3H130v2.3Z" class="g3_83"/>
<path fill-rule="evenodd" d="M130 153.9h2.3v-2.3H130v2.3Z" class="g3_83"/>
<path fill-rule="evenodd" d="M132.3 153.9H237.2v-2.3H132.3v2.3Z" class="g3_83"/>
<path fill-rule="evenodd" d="M237.2 153.9h2.3v-2.3h-2.3v2.3Z" class="g3_83"/>
<path fill-rule="evenodd" d="M239.5 153.9H822.6v-2.3H239.5v2.3Z" class="g3_83"/>
<path fill-rule="evenodd" d="M822.6 153.9h2.3v-2.3h-2.3v2.3Z" class="g3_83"/>
<path fill-rule="evenodd" d="M822.6 153.9h2.3v-2.3h-2.3v2.3Z" class="g3_83"/>
<path fill-rule="evenodd" d="M130 188.5h2.3V153.9H130v34.6Z" class="g3_83"/>
<path fill-rule="evenodd" d="M237.2 188.5h2.3V153.9h-2.3v34.6Z" class="g3_83"/>
<path fill-rule="evenodd" d="M822.6 188.5h2.3V153.9h-2.3v34.6Z" class="g3_83"/>
<path fill-rule="evenodd" d="M132.3 305.2H237.2V190.8H132.3V305.2Z" class="g4_83"/>
<path fill-rule="evenodd" d="M132.3 248H237.2V190.8H132.3V248Z" class="g4_83"/>
<path fill-rule="evenodd" d="M239.5 305.2h583V190.8h-583V305.2Z" class="g4_83"/>
<g clip-path="url(#c2_83)">
<path fill-rule="evenodd" d="M239.5 228.6h583V190.8h-583v37.8Z" class="g4_83"/>
<path fill-rule="evenodd" d="M239.5 248h583V228.6h-583V248Z" class="g4_83"/>
<path fill-rule="evenodd" d="M239.5 276.6h583V248h-583v28.6Z" class="g4_83"/>
<path fill-rule="evenodd" d="M239.5 305.2h583V276.6h-583v28.6Z" class="g4_83"/>
</g>
<path fill-rule="evenodd" d="M130 190.8h2.3v-2.3H130v2.3Z" class="g3_83"/>
<path fill-rule="evenodd" d="M132.3 190.8H237.2v-2.3H132.3v2.3Z" class="g3_83"/>
<path fill-rule="evenodd" d="M237.2 190.8h2.3v-2.3h-2.3v2.3Z" class="g3_83"/>
<path fill-rule="evenodd" d="M239.5 190.8H822.6v-2.3H239.5v2.3Z" class="g3_83"/>
<path fill-rule="evenodd" d="M822.6 190.8h2.3v-2.3h-2.3v2.3Z" class="g3_83"/>
<path fill-rule="evenodd" d="M130 305.2h2.3V190.8H130V305.2Z" class="g3_83"/>
<path fill-rule="evenodd" d="M237.2 305.2h2.3V190.8h-2.3V305.2Z" class="g3_83"/>
<path fill-rule="evenodd" d="M822.6 305.2h2.3V190.8h-2.3V305.2Z" class="g3_83"/>
<path fill-rule="evenodd" d="M132.3 335.1H237.2V307.5H132.3v27.6Z" class="g4_83"/>
<path fill-rule="evenodd" d="M132.3 335.1H237.2V307.5H132.3v27.6Z" class="g4_83"/>
<path fill-rule="evenodd" d="M239.5 335.1h583V307.5h-583v27.6Z" class="g4_83"/>
<path clip-path="url(#c3_83)" fill-rule="evenodd" d="M239.5 335.1h583V307.5h-583v27.6Z" class="g4_83"/>
<path fill-rule="evenodd" d="M130 307.5h2.3v-2.3H130v2.3Z" class="g3_83"/>
<path fill-rule="evenodd" d="M132.3 307.5H237.2v-2.3H132.3v2.3Z" class="g3_83"/>
<path fill-rule="evenodd" d="M237.2 307.5h2.3v-2.3h-2.3v2.3Z" class="g3_83"/>
<path fill-rule="evenodd" d="M239.5 307.5H822.6v-2.3H239.5v2.3Z" class="g3_83"/>
<path fill-rule="evenodd" d="M822.6 307.5h2.3v-2.3h-2.3v2.3Z" class="g3_83"/>
<path fill-rule="evenodd" d="M130 335.1h2.3V307.5H130v27.6Z" class="g3_83"/>
<path fill-rule="evenodd" d="M130 337.4h2.3v-2.3H130v2.3Z" class="g3_83"/>
<path fill-rule="evenodd" d="M130 337.4h2.3v-2.3H130v2.3Z" class="g3_83"/>
<path fill-rule="evenodd" d="M132.3 337.4H237.2v-2.3H132.3v2.3Z" class="g3_83"/>
<path fill-rule="evenodd" d="M237.2 335.1h2.3V307.5h-2.3v27.6Z" class="g3_83"/>
<path fill-rule="evenodd" d="M237.2 337.4h2.3v-2.3h-2.3v2.3Z" class="g3_83"/>
<path fill-rule="evenodd" d="M239.5 337.4H822.6v-2.3H239.5v2.3Z" class="g3_83"/>
<path fill-rule="evenodd" d="M822.6 335.1h2.3V307.5h-2.3v27.6Z" class="g3_83"/>
<path fill-rule="evenodd" d="M822.6 337.4h2.3v-2.3h-2.3v2.3Z" class="g3_83"/>
<path fill-rule="evenodd" d="M822.6 337.4h2.3v-2.3h-2.3v2.3Z" class="g3_83"/>
</svg>