<svg viewBox="0 0 1210 935" version="1.1" xmlns="http://www.w3.org/2000/svg">
<defs>
<clipPath id="c0_242"><path d="M35.7 107V29.4H267.3V107Z"/></clipPath>
<style>
.g0_242{fill:none;stroke:#005B99;stroke-width:2.673;stroke-linejoin:round;}
.g1_242{fill:#005B99;}
</style>
</defs>
<path d="M34.4 121H1172.9" class="g0_242"/>
<image clip-path="url(#c0_242)" preserveAspectRatio="none" x="36" y="30" width="231" height="77" href="img/1.jpg"/>
<path d="M35.4 229.8H404.6v-1.2H35.4v1.2Z" class="g1_242"/>
<path d="M35.4 343.4H396v-1.2H35.4v1.2Z" class="g1_242"/>
<path d="M169.9 457.1H539v-1.2H169.9v1.2Z" class="g1_242"/>
<path d="M58.7 570.8H427.8v-1.2H58.7v1.2Z" class="g1_242"/>
<path d="M169.9 664.9H539v-1.2H169.9v1.2Z" class="g1_242"/>
<path d="M35.4 759H404.6v-1.2H35.4V759Z" class="g1_242"/>
<path d="M35.4 853.1H404.6v-1.2H35.4v1.2Z" class="g1_242"/>
<path d="M641.7 210.2h369.1V209H641.7v1.2Z" class="g1_242"/>
<path d="M618.4 304.3H979v-1.2H618.4v1.2Z" class="g1_242"/>
<path d="M618.4 398.4H979v-1.2H618.4v1.2Z" class="g1_242"/>
<path d="M618.4 492.6H979v-1.3H618.4v1.3Z" class="g1_242"/>
<path d="M618.4 606.2H987.6V605H618.4v1.2Z" class="g1_242"/>
<path d="M618.4 700.3H987.6v-1.2H618.4v1.2Z" class="g1_242"/>
<path d="M618.4 794.4H987.6v-1.2H618.4v1.2Z" class="g1_242"/>
</svg>