<svg viewBox="0 0 1210 935" version="1.1" xmlns="http://www.w3.org/2000/svg">
<defs>
<clipPath id="c0_249"><path d="M35.7 107V29.4H267.3V107Z"/></clipPath>
<style>
.g0_249{fill:none;stroke:#005B99;stroke-width:2.673;stroke-linejoin:round;}
.g1_249{fill:#005B99;}
</style>
</defs>
<path d="M34.4 121H1172.9" class="g0_249"/>
<image clip-path="url(#c0_249)" preserveAspectRatio="none" x="36" y="30" width="231" height="77" href="img/1.jpg"/>
<path d="M132 210.2H501.1V209H132v1.2Z" class="g1_249"/>
<path d="M35.4 304.3H404.6v-1.2H35.4v1.2Z" class="g1_249"/>
<path d="M132 398.4H501.1v-1.2H132v1.2Z" class="g1_249"/>
<path d="M35.4 453.4H590.3v-1.2H35.4v1.2Z" class="g1_249"/>
<path d="M35.4 473h44v-1.2h-44V473Z" class="g1_249"/>
<path d="M35.4 586.7H404.6v-1.3H35.4v1.3Z" class="g1_249"/>
<path d="M179.7 700.3H548.8v-1.2H179.7v1.2Z" class="g1_249"/>
<path d="M35.4 814H404.6v-1.2H35.4V814Z" class="g1_249"/>
<path d="M618.4 171.1h554.9v-1.2H618.4v1.2Z" class="g1_249"/>
<path d="M618.4 190.7h44v-1.3h-44v1.3Z" class="g1_249"/>
<path d="M715 284.8h369.1v-1.2H715v1.2Z" class="g1_249"/>
<path d="M618.4 398.4H987.6v-1.2H618.4v1.2Z" class="g1_249"/>
<path d="M618.4 492.6H987.6v-1.3H618.4v1.3Z" class="g1_249"/>
<path d="M618.4 625.8H987.6v-1.2H618.4v1.2Z" class="g1_249"/>
<path d="M715 719.9h369.1v-1.2H715v1.2Z" class="g1_249"/>
<path d="M618.4 833.6H987.6v-1.3H618.4v1.3Z" class="g1_249"/>
</svg>