<svg viewBox="0 0 1210 935" version="1.1" xmlns="http://www.w3.org/2000/svg">
<defs>
<clipPath id="c0_213"><path d="M35.7 107V29.4H267.3V107Z"/></clipPath>
<style>
.g0_213{fill:none;stroke:#005B99;stroke-width:2.673;stroke-linejoin:round;}
.g1_213{fill:#005B99;}
</style>
</defs>
<path d="M34.4 121H1172.9" class="g0_213"/>
<image clip-path="url(#c0_213)" preserveAspectRatio="none" x="36" y="30" width="231" height="77" href="img/1.jpg"/>
<path d="M35.4 172.3H396v-1.2H35.4v1.2Z" class="g1_213"/>
<path d="M35.4 284.8H396v-1.2H35.4v1.2Z" class="g1_213"/>
<path d="M35.4 398.4H404.6v-1.2H35.4v1.2Z" class="g1_213"/>
<path d="M35.4 492.6h341v-1.3H35.4v1.3Z" class="g1_213"/>
<path d="M179.7 586.7H466.9v-1.3H179.7v1.3Z" class="g1_213"/>
<path d="M35.4 606.2H254.2V605H35.4v1.2Z" class="g1_213"/>
<path d="M132 680.8H464.4v-1.2H132v1.2Z" class="g1_213"/>
<path d="M169.9 774.9H530.4v-1.2H169.9v1.2Z" class="g1_213"/>
<path d="M35.4 869H396v-1.2H35.4V869Z" class="g1_213"/>
<path d="M618.4 229.8H987.6v-1.2H618.4v1.2Z" class="g1_213"/>
<path d="M618.4 323.9H987.6v-1.2H618.4v1.2Z" class="g1_213"/>
<path d="M618.4 437.6H969.2v-1.3H618.4v1.3Z" class="g1_213"/>
<path d="M618.4 531.7H969.2v-1.3H618.4v1.3Z" class="g1_213"/>
<path d="M618.4 625.8H969.2v-1.2H618.4v1.2Z" class="g1_213"/>
<path d="M618.4 719.9H969.2v-1.2H618.4v1.2Z" class="g1_213"/>
</svg>