<svg viewBox="0 0 1210 935" version="1.1" xmlns="http://www.w3.org/2000/svg">
<defs>
<clipPath id="c0_208"><path d="M35.7 107V29.4H267.3V107Z"/></clipPath>
<style>
.g0_208{fill:none;stroke:#005B99;stroke-width:2.673;stroke-linejoin:round;}
.g1_208{fill:#005B99;}
</style>
</defs>
<path d="M34.4 121H1172.9" class="g0_208"/>
<image clip-path="url(#c0_208)" preserveAspectRatio="none" x="36" y="30" width="231" height="77" href="img/1.jpg"/>
<path d="M179.7 190.7H548.8v-1.3H179.7v1.3Z" class="g1_208"/>
<path d="M35.4 341H396v-1.2H35.4V341Z" class="g1_208"/>
<path d="M35.4 454.7H396v-1.3H35.4v1.3Z" class="g1_208"/>
<path d="M35.4 642.9H386.2v-1.2H35.4v1.2Z" class="g1_208"/>
<path d="M58.7 737H427.8v-1.2H58.7V737Z" class="g1_208"/>
<path d="M35.4 849.4H404.6v-1.2H35.4v1.2Z" class="g1_208"/>
<path d="M618.4 249.3H987.6v-1.2H618.4v1.2Z" class="g1_208"/>
<path d="M618.4 363H987.6v-1.2H618.4V363Z" class="g1_208"/>
<path d="M618.4 476.7H987.6v-1.3H618.4v1.3Z" class="g1_208"/>
<path d="M618.4 589.1H979v-1.2H618.4v1.2Z" class="g1_208"/>
<path d="M618.4 683.2H987.6V682H618.4v1.2Z" class="g1_208"/>
<path d="M715 777.3h369.1v-1.2H715v1.2Z" class="g1_208"/>
<path d="M762.7 871.4h360.5v-1.2H762.7v1.2Z" class="g1_208"/>
</svg>