<svg viewBox="0 0 1210 935" version="1.1" xmlns="http://www.w3.org/2000/svg">
<defs>
<clipPath id="c0_212"><path d="M35.7 107V29.4H267.3V107Z"/></clipPath>
<style>
.g0_212{fill:none;stroke:#005B99;stroke-width:2.673;stroke-linejoin:round;}
.g1_212{fill:#005B99;}
</style>
</defs>
<path d="M34.4 121H1172.9" class="g0_212"/>
<image clip-path="url(#c0_212)" preserveAspectRatio="none" x="36" y="30" width="231" height="77" href="img/1.jpg"/>
<path d="M35.4 190.7H396v-1.3H35.4v1.3Z" class="g1_212"/>
<path d="M132 304.3H492.6v-1.2H132v1.2Z" class="g1_212"/>
<path d="M35.4 418H404.6v-1.2H35.4V418Z" class="g1_212"/>
<path d="M35.4 531.7H386.2v-1.3H35.4v1.3Z" class="g1_212"/>
<path d="M35.4 645.3H404.6v-1.2H35.4v1.2Z" class="g1_212"/>
<path d="M35.4 759H404.6v-1.2H35.4V759Z" class="g1_212"/>
<path d="M35.4 853.1H404.6v-1.2H35.4v1.2Z" class="g1_212"/>
<path d="M743.1 268.9h369.1v-1.2H743.1v1.2Z" class="g1_212"/>
<path d="M618.4 363H987.6v-1.2H618.4V363Z" class="g1_212"/>
<path d="M618.4 457.1H979v-1.2H618.4v1.2Z" class="g1_212"/>
<path d="M618.4 570.8H979v-1.2H618.4v1.2Z" class="g1_212"/>
<path d="M618.4 664.9H979v-1.2H618.4v1.2Z" class="g1_212"/>
<path d="M618.4 796.9H979v-1.2H618.4v1.2Z" class="g1_212"/>
</svg>