<svg viewBox="0 0 1210 935" version="1.1" xmlns="http://www.w3.org/2000/svg">
<defs>
<clipPath id="c0_224"><path d="M35.7 107V29.4H267.3V107Z"/></clipPath>
<style>
.g0_224{fill:none;stroke:#005B99;stroke-width:2.673;stroke-linejoin:round;}
.g1_224{fill:#005B99;}
</style>
</defs>
<path d="M34.4 121H1172.9" class="g0_224"/>
<image clip-path="url(#c0_224)" preserveAspectRatio="none" x="36" y="30" width="231" height="77" href="img/1.jpg"/>
<path d="M35.4 172.3H396v-1.2H35.4v1.2Z" class="g1_224"/>
<path d="M179.7 284.8H548.8v-1.2H179.7v1.2Z" class="g1_224"/>
<path d="M35.4 398.4H396v-1.2H35.4v1.2Z" class="g1_224"/>
<path d="M35.4 531.7H396v-1.3H35.4v1.3Z" class="g1_224"/>
<path d="M35.4 625.8H404.6v-1.2H35.4v1.2Z" class="g1_224"/>
<path d="M35.4 759H396v-1.2H35.4V759Z" class="g1_224"/>
<path d="M35.4 871.4H404.6v-1.2H35.4v1.2Z" class="g1_224"/>
<path d="M762.7 229.8h369.1v-1.2H762.7v1.2Z" class="g1_224"/>
<path d="M618.4 363H987.6v-1.2H618.4V363Z" class="g1_224"/>
<path d="M618.4 476.7H987.6v-1.3H618.4v1.3Z" class="g1_224"/>
<path d="M715 570.8h369.1v-1.2H715v1.2Z" class="g1_224"/>
<path d="M618.4 683.2H979V682H618.4v1.2Z" class="g1_224"/>
<path d="M618.4 796.9H987.6v-1.2H618.4v1.2Z" class="g1_224"/>
</svg>