<svg viewBox="0 0 1210 935" version="1.1" xmlns="http://www.w3.org/2000/svg">
<defs>
<clipPath id="c0_60"><path d="M35.6 108.1V29.2H268v78.9Z"/></clipPath>
<clipPath id="c1_60"><path d="M-.2 935.3V-.2H1210.3V935.3Z"/></clipPath>
<style>
.g0_60{fill:none;stroke:#000;stroke-width:1.527;}
.g1_60{fill:#221F1F;}
.g2_60{fill:none;stroke:#FFF;stroke-width:0.88;}
.g3_60{fill:#FFF;}
.g4_60{fill:none;stroke:#0065A4;stroke-width:3.055;}
.g5_60{fill:none;stroke:#0065A4;stroke-width:1.145;stroke-miterlimit:10;}
.g6_60{fill:#000;}
.g7_60{fill:none;stroke:#000;stroke-width:1.527;stroke-miterlimit:10;}
</style>
</defs>
<g clip-path="url(#c1_60)">
<path d="M36 879.4H983.5V830.5H36v48.9Z" class="g0_60"/>
<path d="M124 31.9h1.9L133.3 43V31.9h1.8V45.6H133l-7.3-11v11H124Z" class="g1_60"/>
<path d="M144.8 40.5c-.7 .4-1.9 .5-3 .7c-1.1 .1-2 .5-2 1.7c0 1.1 .9 1.5 1.9 1.5c2.2 0 3.1-1.3 3.1-2.2Zm2.7 5.1c-.3 .1-.7 .2-1.2 .2c-.9 0-1.4-.4-1.4-1.5c-.9 1.1-2.2 1.5-3.6 1.5c-1.8 0-3.3-.8-3.3-2.7c0-2.3 1.7-2.8 3.4-3.1c1.8-.3 3.4-.2 3.4-1.5c0-1.4-1.2-1.6-2.2-1.6c-1.4 0-2.5 .4-2.6 1.9h-1.6c.1-2.5 2-3.3 4.3-3.3c1.8 0 3.7 .4 3.7 2.7v5.1c0 .8 0 1.1 .6 1.1c.1 0 .3 0 .5-.1Z" class="g1_60"/>
<path d="M152.1 35.7h2v1.4h-2v6.2c0 .7 .2 .9 1.2 .9h.8v1.4h-1.3c-1.7 0-2.4-.3-2.4-2.2V37.1h-1.7V35.7h1.7v-3h1.7Z" class="g1_60"/>
<path d="M156.8 35.7h1.6v9.9h-1.6V35.7Zm1.6-1.8h-1.6v-2h1.6v2Z" class="g1_60"/>
<path d="M166.1 44.4c1.8 0 3.2-1.3 3.2-3.7c0-2.5-1.4-3.8-3.2-3.8c-1.7 0-3.1 1.3-3.1 3.8c0 2.4 1.4 3.7 3.1 3.7m0-8.9c3.2 0 4.9 2.2 4.9 5.2c0 2.9-1.7 5.1-4.9 5.1c-3.2 0-4.9-2.2-4.9-5.1c0-3 1.7-5.2 4.9-5.2Z" class="g1_60"/>
<path d="M173.7 35.7h1.6v1.6c.7-1.3 1.9-1.8 3.3-1.8c2.7 0 3.5 1.4 3.5 3.6v6.5h-1.7V38.9c0-1.2-.7-2-2-2c-2 0-3 1.3-3 3.1v5.6h-1.7Z" class="g1_60"/>
<path d="M191.6 40.5c-.7 .4-1.9 .5-3 .7c-1.1 .1-2 .5-2 1.7c0 1.1 .9 1.5 1.9 1.5c2.2 0 3.1-1.3 3.1-2.2Zm2.7 5.1c-.3 .1-.7 .2-1.2 .2c-.9 0-1.4-.4-1.4-1.5c-.9 1.1-2.2 1.5-3.6 1.5c-1.8 0-3.3-.8-3.3-2.7c0-2.3 1.7-2.8 3.4-3.1c1.8-.3 3.4-.2 3.4-1.5c0-1.4-1.2-1.6-2.2-1.6c-1.4 0-2.5 .4-2.5 1.9h-1.7c.1-2.5 2-3.3 4.3-3.3c1.8 0 3.8 .4 3.8 2.7v5.1c0 .8 0 1.1 .5 1.1c.1 0 .3 0 .5-.1Z" class="g1_60"/>
<path d="M196.7 31.9h1.6V45.6h-1.6V31.9Z" class="g1_60"/>
<path d="M133.8 56.1c-.4-1.9-2-2.9-3.9-2.9c-3.4 0-4.8 2.7-4.8 5.5c0 3.2 1.4 5.8 4.8 5.8c2.4 0 3.8-1.7 4-4h1.9c-.4 3.4-2.6 5.5-6.1 5.5c-4.3 0-6.4-3.1-6.4-7.1c0-4 2.3-7.3 6.6-7.3c2.9 0 5.3 1.6 5.7 4.5Z" class="g1_60"/>
<path d="M142.9 64.5c1.7 0 3.1-1.4 3.1-3.8c0-2.4-1.4-3.7-3.1-3.7c-1.7 0-3.1 1.3-3.1 3.7c0 2.4 1.4 3.8 3.1 3.8m0-9c3.2 0 4.9 2.3 4.9 5.2c0 2.9-1.7 5.2-4.9 5.2c-3.2 0-4.9-2.3-4.9-5.2c0-2.9 1.7-5.2 4.9-5.2Z" class="g1_60"/>
<path d="M150.5 55.8h1.6v1.4c.7-1.1 1.9-1.7 3.3-1.7c1.2 0 2.3 .5 2.7 1.7c.7-1 1.9-1.7 3.2-1.7c2 0 3.4 .9 3.4 2.9v7.3H163V59.2c0-1.3-.3-2.2-2-2.2c-1.6 0-2.6 1-2.6 2.5v6.2h-1.7V59.2c0-1.3-.4-2.2-1.8-2.2c-2 0-2.7 1.8-2.7 2.5v6.2h-1.7Z" class="g1_60"/>
<path d="M172.6 57c-2.2 0-3 1.9-3 3.7c0 2 .9 3.8 3.1 3.8c2.3 0 3.1-1.9 3.1-3.9c0-1.8-1-3.6-3.2-3.6M168 55.8h1.6v1.3h.1c.5-1.1 1.8-1.6 3.2-1.6c3.1 0 4.6 2.4 4.6 5.3c0 2.8-1.5 5.1-4.6 5.1c-1 0-2.5-.4-3.2-1.5h-.1v5.1H168Z" class="g1_60"/>
<path d="M180.2 55.8h1.5v2.1h.1c.8-1.6 1.9-2.4 3.7-2.4v1.8c-2.7 0-3.7 1.5-3.7 4v4.4h-1.6Z" class="g1_60"/>
<path d="M194.1 59.8c0-1.6-1.2-2.8-2.9-2.8c-1.7 0-2.7 1.3-2.8 2.8Zm1.6 2.7c-.4 2.2-2 3.4-4.3 3.4c-3.2 0-4.7-2.2-4.8-5.2c0-3 2-5.2 4.7-5.2c3.6 0 4.7 3.3 4.6 5.7h-7.5c-.1 1.7 .9 3.3 3.1 3.3c1.4 0 2.3-.7 2.6-2Z" class="g1_60"/>
<path d="M198.4 52H200v5.2h.1c.5-1.2 1.9-1.7 3.2-1.7c2.6 0 3.4 1.5 3.4 3.7v6.5h-1.6V59c0-1.2-.8-2-2.1-2c-2 0-3 1.3-3 3.1v5.6h-1.6Z" class="g1_60"/>
<path d="M217 59.8c-.1-1.6-1.3-2.8-2.9-2.8c-1.7 0-2.8 1.3-2.9 2.8Zm1.6 2.7c-.5 2.2-2.1 3.4-4.3 3.4c-3.2 0-4.8-2.2-4.9-5.2c0-3 2-5.2 4.8-5.2c3.6 0 4.6 3.3 4.6 5.7h-7.6c-.1 1.7 .9 3.3 3.1 3.3c1.4 0 2.4-.7 2.7-2Z" class="g1_60"/>
<path d="M221.2 55.8h1.6v1.5c.7-1.2 1.9-1.8 3.3-1.8c2.7 0 3.5 1.5 3.5 3.7v6.5h-1.7V59c0-1.2-.8-2-2-2c-2 0-3 1.3-3 3.1v5.6h-1.7Z" class="g1_60"/>
<path d="M233.8 62.6c.1 1.4 1.4 1.9 2.8 1.9c1 0 2.4-.3 2.4-1.5c0-1.3-1.6-1.5-3.3-1.8c-1.6-.4-3.3-.9-3.3-2.8c0-2 2-2.9 3.8-2.9c2.2 0 4 .7 4.1 3.1h-1.7c-.1-1.2-1.2-1.6-2.3-1.6c-1 0-2.1 .2-2.1 1.2c0 1.2 1.7 1.4 3.3 1.8c1.6 .3 3.3 .9 3.3 2.8c0 2.3-2.3 3.1-4.3 3.1c-2.3 0-4.2-.9-4.3-3.3Z" class="g1_60"/>
<path d="M243.4 55.8h1.7v9.9h-1.7V55.8Zm1.7-1.8h-1.7V52h1.7v2Z" class="g1_60"/>
<path d="M253 65.7h-1.8l-3.7-9.9h1.8l2.8 8.2h.1l2.7-8.2h1.8Z" class="g1_60"/>
<path d="M266 59.8c-.1-1.6-1.3-2.8-2.9-2.8c-1.8 0-2.8 1.3-2.9 2.8Zm1.6 2.7c-.5 2.2-2.1 3.4-4.3 3.4c-3.3 0-4.8-2.2-4.9-5.2c0-3 2-5.2 4.8-5.2c3.5 0 4.6 3.3 4.5 5.7h-7.5c-.1 1.7 .9 3.3 3.1 3.3c1.4 0 2.3-.7 2.6-2Z" class="g1_60"/>
<path d="M133.8 76.2c-.4-2-2-2.9-3.9-2.9c-3.4 0-4.8 2.6-4.8 5.5c0 3.1 1.4 5.8 4.8 5.8c2.4 0 3.8-1.7 4-4h1.9c-.4 3.4-2.6 5.5-6.1 5.5c-4.3 0-6.4-3.2-6.4-7.2c0-3.9 2.3-7.2 6.6-7.2c2.9 0 5.3 1.6 5.7 4.5Z" class="g1_60"/>
<path d="M144.8 80.6c-.7 .5-1.9 .5-3 .7c-1.1 .2-2 .6-2 1.8c0 1.1 .9 1.5 1.9 1.5c2.2 0 3.1-1.4 3.1-2.3Zm2.7 5.1c-.3 .2-.7 .3-1.2 .3c-.9 0-1.4-.5-1.4-1.5c-.9 1-2.2 1.5-3.6 1.5c-1.8 0-3.3-.8-3.3-2.8c0-2.2 1.7-2.7 3.4-3c1.8-.4 3.4-.3 3.4-1.5c0-1.4-1.2-1.7-2.2-1.7c-1.4 0-2.5 .5-2.6 1.9h-1.6c.1-2.4 2-3.3 4.3-3.3c1.8 0 3.7 .4 3.7 2.7v5.1c0 .8 0 1.2 .6 1.2c.1 0 .3-.1 .5-.1Z" class="g1_60"/>
<path d="M149.8 75.8h1.5v1.6h.1c.7-1.2 1.8-1.8 3.3-1.8c2.6 0 3.4 1.5 3.4 3.6v6.6h-1.6V79c0-1.2-.8-2-2.1-2c-2 0-3 1.4-3 3.2v5.6h-1.6Z" class="g1_60"/>
<path d="M168.2 79c-.2-1.2-1.1-2-2.5-2c-2.4 0-3.1 1.9-3.1 3.9c0 1.8 .8 3.7 2.9 3.7c1.6 0 2.6-1 2.8-2.5H170c-.4 2.5-1.9 3.9-4.4 3.9c-3.1 0-4.8-2.1-4.8-5.1c0-3 1.6-5.3 4.8-5.3c2.3 0 4.1 1.1 4.4 3.4Z" class="g1_60"/>
<path d="M179.6 79.8c0-1.5-1.2-2.8-2.9-2.8c-1.7 0-2.7 1.3-2.9 2.8Zm1.6 2.8c-.4 2.2-2 3.4-4.3 3.4c-3.2 0-4.7-2.2-4.8-5.2c0-3 2-5.2 4.7-5.2c3.6 0 4.7 3.3 4.6 5.7h-7.6c0 1.7 1 3.3 3.2 3.3c1.3 0 2.3-.7 2.6-2Z" class="g1_60"/>
<path d="M183.8 75.8h1.6v2.1c.8-1.6 1.9-2.4 3.7-2.3v1.7c-2.7 0-3.6 1.5-3.6 4v4.5h-1.7Z" class="g1_60"/>
<path d="M124 92.1h1.9l7.4 11.1V92.1h1.8v13.7H133l-7.3-11v11H124Z" class="g1_60"/>
<path d="M145.6 99.9c-.1-1.5-1.3-2.8-3-2.8c-1.7 0-2.7 1.3-2.8 2.8Zm1.6 2.8c-.5 2.2-2.1 3.4-4.4 3.4c-3.2 0-4.7-2.2-4.8-5.3c0-2.9 2-5.1 4.7-5.1c3.6 0 4.7 3.3 4.6 5.7h-7.5c-.1 1.7 .9 3.2 3.1 3.2c1.4 0 2.3-.6 2.6-1.9Z" class="g1_60"/>
<path d="M152.1 95.9h2v1.4h-2v6.2c0 .8 .2 .9 1.2 .9h.8v1.4h-1.3c-1.7 0-2.4-.3-2.4-2.1V97.3h-1.7V95.9h1.7v-3h1.7Z" class="g1_60"/>
<path d="M166.7 105.8h-1.8l-2-7.9h-.1l-2 7.9H159l-3.2-9.9h1.8l2.3 8.1l2.1-8.1h1.8l2.1 8.1l2.3-8.1h1.7Z" class="g1_60"/>
<path d="M176.6 104.6c1.7 0 3.1-1.3 3.1-3.7c0-2.4-1.4-3.8-3.1-3.8c-1.7 0-3.2 1.4-3.2 3.8c0 2.4 1.5 3.7 3.2 3.7m0-8.9c3.2 0 4.9 2.3 4.9 5.2c0 2.9-1.7 5.2-4.9 5.2c-3.2 0-4.9-2.3-4.9-5.2c0-2.9 1.7-5.2 4.9-5.2Z" class="g1_60"/>
<path d="M184.1 95.9h1.6V98c.8-1.6 1.9-2.4 3.7-2.3v1.7c-2.6 0-3.6 1.5-3.6 4v4.4h-1.7Z" class="g1_60"/>
<path d="M191.6 92.1h1.6v8.2l4.6-4.4H200l-4 3.6l4.3 6.3h-2.1l-3.4-5.1l-1.6 1.4v3.7h-1.6Z" class="g1_60"/>
<path d="M203.9 95h.7c.5 0 1-.1 1-.7c0-.5-.5-.5-.9-.5h-.8Zm-.6-1.7h1.5c.9 0 1.4 .3 1.4 1.1c0 .7-.5 .9-1 1l1.1 1.7h-.7l-1-1.7h-.7v1.7h-.6Zm1.3 4.7c1.5 0 2.7-1.2 2.7-2.8c0-1.6-1.2-2.8-2.7-2.8c-1.5 0-2.7 1.2-2.7 2.8c0 1.6 1.2 2.8 2.7 2.8m0-6c1.8 0 3.3 1.3 3.3 3.2c0 1.8-1.5 3.2-3.3 3.2c-1.8 0-3.3-1.4-3.3-3.2c0-1.9 1.5-3.2 3.3-3.2Z" class="g1_60"/>
<image x="36" y="29" width="79" height="79" href="shade/1.png"/>
<path clip-path="url(#c0_60)" d="M103.1 107.4H47.4c-6 0-11-5-11-11V40.9c0-6 5-11 11-11h55.7c6.1 0 11 5 11 11V96.4c0 6-4.9 11-11 11Z" class="g2_60"/>
<path d="M57.8 83.8c0 1.3 0 2.5 .1 3.2c-.2 .2-.7 .5-1.2 .5c0 0-.7-1.1-1.7-2.2l-4.7-5.8c-1.2-1.4-1.8-2.2-2.2-2.5c-.1 .2-.1 .5-.1 1.2v3.9c0 1.7 .1 3.2 .3 3.7c.2 .4 .6 .6 1.2 .7H50c.2 .2 .2 .6 0 .7c-1.1 0-1.9 0-2.7 0c-.7 0-1.5 0-2.3 0c-.1-.1-.1-.5 0-.7h.4c.5-.1 .9-.3 1.1-.7c.2-.5 .3-2 .3-3.7V77c0-1.1 0-1.4-.2-1.7c-.1-.3-.4-.5-1.1-.6l-.6-.1c-.1-.2-.1-.7 .1-.7c.9 0 2 0 2.8 0c.7 0 1.3 0 1.7 0c.2 .9 1.5 2.4 3.4 4.5l1.7 2c.9 1.1 1.5 1.8 2 2.2c0-.2 0-.5 0-.9V79c0-1.7 0-3.2-.3-3.7c-.2-.4-.6-.6-1.2-.6l-.5-.1c-.2-.2-.1-.6 0-.7c1.1 0 1.9 0 2.7 0c.8 0 1.5 0 2.3 0c.1 .1 .2 .5 0 .7h-.4c-.5 .1-.9 .3-1.1 .7c-.2 .5-.3 2-.3 3.7Z" class="g3_60"/>
<path d="M73.9 74.1c0 .4 .1 2 .3 3.2c-.1 .2-.6 .3-.8 .1c-.5-1.9-1.8-2.9-3.8-2.9c-2.3 0-4.7 1.9-4.7 5.9c0 4 2.3 6.2 4.8 6.2c2.5 0 3.6-1.8 4.1-3.1c.2-.2 .7-.1 .8 .1c-.1 1.5-.5 2.7-.8 3.2c-1.1 .3-2.5 .7-4.1 .7c-2 0-4-.5-5.5-1.5c-1.4-1.1-2.6-2.8-2.6-5.3c0-2.4 1.1-4.2 2.5-5.3c1.4-1.2 3.5-1.8 5.6-1.8c2.1 0 3.6 .5 4.2 .5Z" class="g3_60"/>
<path d="M88.8 74.1c0 .4 0 2 .2 3.2c-.1 .2-.6 .3-.8 .1c-.5-1.9-1.8-2.9-3.8-2.9c-2.3 0-4.7 1.9-4.7 5.9c0 4 2.4 6.2 4.8 6.2c2.5 0 3.6-1.8 4.2-3.1c.1-.2 .6-.1 .7 .1c-.1 1.5-.4 2.7-.7 3.2c-1.1 .3-2.6 .7-4.2 .7c-2 0-4-.5-5.5-1.5c-1.4-1.1-2.5-2.8-2.5-5.3c0-2.4 1-4.2 2.4-5.3c1.5-1.2 3.6-1.8 5.7-1.8c2.1 0 3.6 .5 4.2 .5Z" class="g3_60"/>
<path d="M104 83.8c0 1.3 0 2.5 .1 3.2c-.2 .2-.8 .5-1.3 .5c0 0-.6-1.1-1.6-2.2l-4.7-5.8c-1.2-1.4-1.9-2.2-2.2-2.5c-.1 .2-.1 .5-.1 1.2v3.9c0 1.7 0 3.2 .3 3.7c.2 .4 .6 .6 1.2 .7h.5c.2 .2 .1 .6 0 .7c-1.1 0-1.9 0-2.7 0c-.8 0-1.5 0-2.3 0c-.1-.1-.2-.5 0-.7h.4c.5-.1 .9-.3 1.1-.7c.2-.5 .3-2 .3-3.7V77c0-1.1-.1-1.4-.2-1.7c-.1-.3-.4-.5-1.1-.6l-.6-.1c-.2-.2-.1-.7 .1-.7c.9 0 1.9 0 2.8 0c.7 0 1.3 0 1.7 0c.2 .9 1.5 2.4 3.4 4.5l1.7 2c.9 1.1 1.5 1.8 1.9 2.2c.1-.2 .1-.5 .1-.9V79c0-1.7-.1-3.2-.3-3.7c-.2-.4-.6-.6-1.2-.6l-.5-.1c-.2-.2-.2-.6 0-.7c1.1 0 1.9 0 2.7 0c.8 0 1.5 0 2.3 0c.1 .1 .1 .5 0 .7h-.4c-.5 .1-.9 .3-1.1 .7c-.2 .5-.3 2-.3 3.7Z" class="g3_60"/>
<path d="M36 121.7H1174" class="g4_60"/>
</g>
<path d="M995.6 56.4H1174M1043.2 76.5H1174m-81.2 20.2H1174M1070.6 307.5h84.9M1065 325.8h29.9m-17.7 133.9h49.5" class="g5_60"/>
<path d="M1119.2 331.4V359" class="g0_60"/>
<path d="M1119.2 367.3l3.9-10.7h-7.8Z" class="g6_60"/>
<path d="M962 225.4h80.6" class="g0_60"/>
<path d="M1050.9 225.4l-10.7-3.9v7.8Z" class="g6_60"/>
<path d="M961.2 163.6V276.7m98.3-90.8V609.4M663.3 164.3V276.7M423.1 216.2h228" class="g0_60"/>
<path d="M659.4 216.2l-10.7-3.9v7.8Z" class="g6_60"/>
<path d="M413.6 300.2H651.1" class="g0_60"/>
<path d="M659.4 300.2l-10.7-3.9v7.8Z" class="g6_60"/>
<path d="M708.4 171.5H948.5" class="g0_60"/>
<path d="M956.9 171.5l-10.8-3.9v7.8Z" class="g6_60"/>
<path d="M239.9 257.5h35.2" class="g0_60"/>
<path d="M283.4 257.5l-10.7-3.9v7.8Z" class="g6_60"/>
<path d="M663.3 335.4v79.5" class="g0_60"/>
<path d="M289.9 573.9V361.7" class="g7_60"/>
<path d="M511.3 373.6H651.1" class="g0_60"/>
<path d="M659.4 373.6l-10.7-3.9v7.8Z" class="g6_60"/>
<path d="M459.5 585H654.2" class="g0_60"/>
<path d="M662.6 585l-10.7-3.9v7.8Z" class="g6_60"/>
<path d="M703.5 342.3H939.2" class="g0_60"/>
<path d="M947.6 342.3l-10.7-3.9v7.8Z" class="g6_60"/>
<path d="M239.9 451h35.2" class="g0_60"/>
<path d="M283.4 451l-10.7-3.9v7.8Z" class="g6_60"/>
<path d="M247.5 617.9h64" class="g0_60"/>
<path d="M319.8 617.9L309.1 614v7.8Z" class="g6_60"/>
<path d="M952.5 377.6h90.1" class="g0_60"/>
<path d="M1050.9 377.6l-10.7-3.9v7.8Z" class="g6_60"/>
<path d="M953.3 333.8v82.6" class="g0_60"/>
<path d="M521.2 668.6H646M45.1 682.3H282.8m-32.2 55h85.8M43 778.6H253.2M81.3 792.3H360.2M45.1 806.1H92.6M47.1 819.8h510m434.5-1.5H1064M336 625.8h49.5M667.2 300.7H932.4M667.2 319H927.7M669.6 584.4H934.9M669.6 602.7H930.1" class="g5_60"/>
<path d="M463.6 487.9l-11-14.2l13.5-11.8" class="g0_60"/>
<path d="M468.7 494.5l-3.4-10.8l-6.2 4.7Z" class="g6_60"/>
<path d="M472.4 456.4l-10.7 4.1l5.2 5.9Z" class="g6_60"/>
<path d="M290.5 210.1v95.7m216 201.4h10.3" class="g0_60"/>
<path d="M525.1 507.2l-10.7-3.9v7.8Z" class="g6_60"/>
<path d="M638.6 507.5H651" class="g0_60"/>
<path d="M659.3 507.5l-10.7-3.9v7.8Z" class="g6_60"/>
<path d="M511.3 456.4H646.1" class="g0_60"/>
<path d="M654.4 456.4l-10.7-3.9v7.8Z" class="g6_60"/>
<path d="M937.9 450.2h102.7" class="g0_60"/>
<path d="M1049 450.2l-10.7-3.9v7.8Z" class="g6_60"/>
<path d="M951 522.9h90.1" class="g0_60"/>
<path d="M1049.4 522.9l-10.7-3.9v7.8Z" class="g6_60"/>
<path d="M663 558V487.9m287 0V558M662.6 476.9V425.1m275.5 0v51.8" class="g7_60"/>
</svg>