<?xml version="1.0" encoding="UTF-8" standalone="no"?>
<!DOCTYPE svg PUBLIC "-//W3C//DTD SVG 1.1//EN"
"http://www.w3.org/Graphics/SVG/1.1/DTD/svg11.dtd">
<svg viewBox="0 0 908 1286" version="1.1" xmlns="http://www.w3.org/2000/svg" xmlns:xlink="http://www.w3.org/1999/xlink">
<defs>
<clipPath id="c0_112"><path d="M-.2 1286.6V-.2H909.3V1286.6Z"/></clipPath>
<clipPath id="c1_112"><path d="M132 390.9V352.5H237.5v38.4Z"/></clipPath>
<clipPath id="c2_112"><path d="M239.1 390.9V352.5H822.8v38.4Z"/></clipPath>
<clipPath id="c3_112"><path d="M239.1 450.4V392.6H822.8v57.8Z"/></clipPath>
<clipPath id="c4_112"><path d="M239.1 480.3V452.1H822.8v28.2Z"/></clipPath>
<style type="text/css"><![CDATA[
.g0_112{
fill: none;
stroke: #F78C00;
stroke-width: 8.784;
stroke-linejoin: round;
}
.g1_112{
fill: none;
stroke: #F29400;
stroke-width: 8.784;
stroke-linejoin: round;
}
.g2_112{
fill: #F7BF66;
}
.g3_112{
fill: #FFF;
}
.g4_112{
fill: #FCEACC;
}
]]></style>
</defs>
<g clip-path="url(#c0_112)">
<path d="M-21.2 1185.1H913.7" class="g0_112"/>
<path d="M-21.2 110.2H913.7" class="g1_112"/>
</g>
<path fill-rule="evenodd" d="M132.3 390.6H237.2V352.9H132.3v37.7Z" class="g2_112"/>
<path clip-path="url(#c1_112)" fill-rule="evenodd" d="M132.3 387.3H237.2V352.9H132.3v34.4Z" class="g2_112"/>
<path fill-rule="evenodd" d="M239.5 390.6h583V352.9h-583v37.7Z" class="g2_112"/>
<path clip-path="url(#c2_112)" fill-rule="evenodd" d="M239.5 390.6h583V352.9h-583v37.7Z" class="g2_112"/>
<path fill-rule="evenodd" d="M130 352.9h2.3v-2.3H130v2.3Z" class="g3_112"/>
<path fill-rule="evenodd" d="M130 352.9h2.3v-2.3H130v2.3Z" class="g3_112"/>
<path fill-rule="evenodd" d="M132.3 352.9H237.2v-2.3H132.3v2.3Z" class="g3_112"/>
<path fill-rule="evenodd" d="M237.2 352.9h2.3v-2.3h-2.3v2.3Z" class="g3_112"/>
<path fill-rule="evenodd" d="M239.5 352.9H822.6v-2.3H239.5v2.3Z" class="g3_112"/>
<path fill-rule="evenodd" d="M822.6 352.9h2.3v-2.3h-2.3v2.3Z" class="g3_112"/>
<path fill-rule="evenodd" d="M822.6 352.9h2.3v-2.3h-2.3v2.3Z" class="g3_112"/>
<path fill-rule="evenodd" d="M130 390.6h2.3V352.9H130v37.7Z" class="g3_112"/>
<path fill-rule="evenodd" d="M237.2 390.6h2.3V352.9h-2.3v37.7Z" class="g3_112"/>
<path fill-rule="evenodd" d="M822.6 390.6h2.3V352.9h-2.3v37.7Z" class="g3_112"/>
<path fill-rule="evenodd" d="M132.3 450.1H237.2V392.9H132.3v57.2Z" class="g4_112"/>
<path fill-rule="evenodd" d="M132.3 450.1H237.2V392.9H132.3v57.2Z" class="g4_112"/>
<path fill-rule="evenodd" d="M239.5 450.1h583V392.9h-583v57.2Z" class="g4_112"/>
<g clip-path="url(#c3_112)">
<path fill-rule="evenodd" d="M239.5 421.5h583V392.9h-583v28.6Z" class="g4_112"/>
<path fill-rule="evenodd" d="M239.5 450.1h583V421.5h-583v28.6Z" class="g4_112"/>
</g>
<path fill-rule="evenodd" d="M130 392.9h2.3v-2.3H130v2.3Z" class="g3_112"/>
<path fill-rule="evenodd" d="M132.3 392.9H237.2v-2.3H132.3v2.3Z" class="g3_112"/>
<path fill-rule="evenodd" d="M237.2 392.9h2.3v-2.3h-2.3v2.3Z" class="g3_112"/>
<path fill-rule="evenodd" d="M239.5 392.9H822.6v-2.3H239.5v2.3Z" class="g3_112"/>
<path fill-rule="evenodd" d="M822.6 392.9h2.3v-2.3h-2.3v2.3Z" class="g3_112"/>
<path fill-rule="evenodd" d="M130 450.1h2.3V392.9H130v57.2Z" class="g3_112"/>
<path fill-rule="evenodd" d="M237.2 450.1h2.3V392.9h-2.3v57.2Z" class="g3_112"/>
<path fill-rule="evenodd" d="M822.6 450.1h2.3V392.9h-2.3v57.2Z" class="g3_112"/>
<path fill-rule="evenodd" d="M132.3 480H237.2V452.4H132.3V480Z" class="g4_112"/>
<path fill-rule="evenodd" d="M132.3 480H237.2V452.4H132.3V480Z" class="g4_112"/>
<path fill-rule="evenodd" d="M239.5 480h583V452.4h-583V480Z" class="g4_112"/>
<path clip-path="url(#c4_112)" fill-rule="evenodd" d="M239.5 480h583V452.4h-583V480Z" class="g4_112"/>
<path fill-rule="evenodd" d="M130 452.4h2.3v-2.3H130v2.3Z" class="g3_112"/>
<path fill-rule="evenodd" d="M132.3 452.4H237.2v-2.3H132.3v2.3Z" class="g3_112"/>
<path fill-rule="evenodd" d="M237.2 452.4h2.3v-2.3h-2.3v2.3Z" class="g3_112"/>
<path fill-rule="evenodd" d="M239.5 452.4H822.6v-2.3H239.5v2.3Z" class="g3_112"/>
<path fill-rule="evenodd" d="M822.6 452.4h2.3v-2.3h-2.3v2.3Z" class="g3_112"/>
<path fill-rule="evenodd" d="M130 480h2.3V452.4H130V480Z" class="g3_112"/>
<path fill-rule="evenodd" d="M130 482.3h2.3V480H130v2.3Z" class="g3_112"/>
<path fill-rule="evenodd" d="M130 482.3h2.3V480H130v2.3Z" class="g3_112"/>
<path fill-rule="evenodd" d="M132.3 482.3H237.2V480H132.3v2.3Z" class="g3_112"/>
<path fill-rule="evenodd" d="M237.2 480h2.3V452.4h-2.3V480Z" class="g3_112"/>
<path fill-rule="evenodd" d="M237.2 482.3h2.3V480h-2.3v2.3Z" class="g3_112"/>
<path fill-rule="evenodd" d="M239.5 482.3H822.6V480H239.5v2.3Z" class="g3_112"/>
<path fill-rule="evenodd" d="M822.6 480h2.3V452.4h-2.3V480Z" class="g3_112"/>
<path fill-rule="evenodd" d="M822.6 482.3h2.3V480h-2.3v2.3Z" class="g3_112"/>
<path fill-rule="evenodd" d="M822.6 482.3h2.3V480h-2.3v2.3Z" class="g3_112"/>
</svg>