<?xml version="1.0" encoding="UTF-8" standalone="no"?>
<!DOCTYPE svg PUBLIC "-//W3C//DTD SVG 1.1//EN"
"http://www.w3.org/Graphics/SVG/1.1/DTD/svg11.dtd">
<svg viewBox="0 0 908 1286" version="1.1" xmlns="http://www.w3.org/2000/svg" xmlns:xlink="http://www.w3.org/1999/xlink">
<defs>
<clipPath id="c0_27"><path d="M-.2 1286.6V-.2H909.3V1286.6Z"/></clipPath>
<clipPath id="c1_27"><path d="M241.4 283.9V248.7H822.8v35.2Z"/></clipPath>
<clipPath id="c2_27"><path d="M241.4 430.3V285.5H822.8V430.3Z"/></clipPath>
<clipPath id="c3_27"><path d="M241.4 460.2V431.9H822.8v28.3Z"/></clipPath>
<style type="text/css"><![CDATA[
.g0_27{
fill: none;
stroke: #F29400;
stroke-width: 8.784;
stroke-linejoin: round;
}
.g1_27{
fill: none;
stroke: #F78C00;
stroke-width: 8.784;
stroke-linejoin: round;
}
.g2_27{
fill: #F7BF66;
}
.g3_27{
fill: #FFF;
}
.g4_27{
fill: #FCEACC;
}
.g5_27{
fill: none;
stroke: #F78C00;
stroke-width: 1.527;
stroke-miterlimit: 10;
}
]]></style>
</defs>
<g clip-path="url(#c0_27)">
<path d="M-21.2 110.2H913.7" class="g0_27"/>
<path d="M-21.2 1185.1H913.7" class="g1_27"/>
</g>
<path fill-rule="evenodd" d="M132.3 283.6H239.5V249H132.3v34.6Z" class="g2_27"/>
<path fill-rule="evenodd" d="M132.3 283.6H239.5V249H132.3v34.6Z" class="g2_27"/>
<path fill-rule="evenodd" d="M241.8 283.6H822.5V249H241.8v34.6Z" class="g2_27"/>
<path clip-path="url(#c1_27)" fill-rule="evenodd" d="M241.8 283.6H822.5V249H241.8v34.6Z" class="g2_27"/>
<path fill-rule="evenodd" d="M130 249h2.3v-2.3H130V249Z" class="g3_27"/>
<path fill-rule="evenodd" d="M130 249h2.3v-2.3H130V249Z" class="g3_27"/>
<path fill-rule="evenodd" d="M132.3 249H239.5v-2.3H132.3V249Z" class="g3_27"/>
<path fill-rule="evenodd" d="M239.5 249h2.3v-2.3h-2.3V249Z" class="g3_27"/>
<path fill-rule="evenodd" d="M241.8 249H822.6v-2.3H241.8V249Z" class="g3_27"/>
<path fill-rule="evenodd" d="M822.6 249h2.3v-2.3h-2.3V249Z" class="g3_27"/>
<path fill-rule="evenodd" d="M822.6 249h2.3v-2.3h-2.3V249Z" class="g3_27"/>
<path fill-rule="evenodd" d="M130 283.6h2.3V249H130v34.6Z" class="g3_27"/>
<path fill-rule="evenodd" d="M239.5 283.6h2.3V249h-2.3v34.6Z" class="g3_27"/>
<path fill-rule="evenodd" d="M822.6 283.6h2.3V249h-2.3v34.6Z" class="g3_27"/>
<path fill-rule="evenodd" d="M132.3 429.9H239.5V285.8H132.3V429.9Z" class="g4_27"/>
<path fill-rule="evenodd" d="M132.3 343H239.5V285.8H132.3V343Z" class="g4_27"/>
<path fill-rule="evenodd" d="M241.8 429.9H822.5V285.8H241.8V429.9Z" class="g4_27"/>
<g clip-path="url(#c2_27)">
<path fill-rule="evenodd" d="M241.8 314.4H822.5V285.8H241.8v28.6Z" class="g4_27"/>
<path fill-rule="evenodd" d="M241.8 333.9H822.5V314.4H241.8v19.5Z" class="g4_27"/>
<path fill-rule="evenodd" d="M241.8 353.3H822.5V333.9H241.8v19.4Z" class="g4_27"/>
<path fill-rule="evenodd" d="M241.8 381.9H822.5V353.3H241.8v28.6Z" class="g4_27"/>
<path fill-rule="evenodd" d="M241.8 401.3H822.5V381.9H241.8v19.4Z" class="g4_27"/>
<path fill-rule="evenodd" d="M241.8 429.9H822.5V401.3H241.8v28.6Z" class="g4_27"/>
</g>
<path fill-rule="evenodd" d="M130 285.8h2.3v-2.2H130v2.2Z" class="g3_27"/>
<path fill-rule="evenodd" d="M132.3 285.8H239.5v-2.2H132.3v2.2Z" class="g3_27"/>
<path fill-rule="evenodd" d="M239.5 285.8h2.3v-2.2h-2.3v2.2Z" class="g3_27"/>
<path fill-rule="evenodd" d="M241.8 285.8H822.6v-2.2H241.8v2.2Z" class="g3_27"/>
<path fill-rule="evenodd" d="M822.6 285.8h2.3v-2.2h-2.3v2.2Z" class="g3_27"/>
<path fill-rule="evenodd" d="M130 429.9h2.3V285.8H130V429.9Z" class="g3_27"/>
<path fill-rule="evenodd" d="M239.5 429.9h2.3V285.8h-2.3V429.9Z" class="g3_27"/>
<path fill-rule="evenodd" d="M822.6 429.9h2.3V285.8h-2.3V429.9Z" class="g3_27"/>
<path fill-rule="evenodd" d="M132.3 459.8H239.5V432.2H132.3v27.6Z" class="g4_27"/>
<path fill-rule="evenodd" d="M132.3 459.8H239.5V432.2H132.3v27.6Z" class="g4_27"/>
<path fill-rule="evenodd" d="M241.8 459.8H822.5V432.2H241.8v27.6Z" class="g4_27"/>
<path clip-path="url(#c3_27)" fill-rule="evenodd" d="M241.8 459.8H822.5V432.2H241.8v27.6Z" class="g4_27"/>
<path fill-rule="evenodd" d="M130 432.2h2.3v-2.3H130v2.3Z" class="g3_27"/>
<path fill-rule="evenodd" d="M132.3 432.2H239.5v-2.3H132.3v2.3Z" class="g3_27"/>
<path fill-rule="evenodd" d="M239.5 432.2h2.3v-2.3h-2.3v2.3Z" class="g3_27"/>
<path fill-rule="evenodd" d="M241.8 432.2H822.6v-2.3H241.8v2.3Z" class="g3_27"/>
<path fill-rule="evenodd" d="M822.6 432.2h2.3v-2.3h-2.3v2.3Z" class="g3_27"/>
<path fill-rule="evenodd" d="M130 459.8h2.3V432.2H130v27.6Z" class="g3_27"/>
<path fill-rule="evenodd" d="M130 462.1h2.3v-2.3H130v2.3Z" class="g3_27"/>
<path fill-rule="evenodd" d="M130 462.1h2.3v-2.3H130v2.3Z" class="g3_27"/>
<path fill-rule="evenodd" d="M132.3 462.1H239.5v-2.3H132.3v2.3Z" class="g3_27"/>
<path fill-rule="evenodd" d="M239.5 459.8h2.3V432.2h-2.3v27.6Z" class="g3_27"/>
<path fill-rule="evenodd" d="M239.5 462.1h2.3v-2.3h-2.3v2.3Z" class="g3_27"/>
<path fill-rule="evenodd" d="M241.8 462.1H822.6v-2.3H241.8v2.3Z" class="g3_27"/>
<path fill-rule="evenodd" d="M822.6 459.8h2.3V432.2h-2.3v27.6Z" class="g3_27"/>
<path fill-rule="evenodd" d="M822.6 462.1h2.3v-2.3h-2.3v2.3Z" class="g3_27"/>
<path fill-rule="evenodd" d="M822.6 462.1h2.3v-2.3h-2.3v2.3Z" class="g3_27"/>
<path d="M717.7 566.8h7.5" class="g5_27"/>
</svg>