<?xml version="1.0" encoding="UTF-8" standalone="no"?>
<!DOCTYPE svg PUBLIC "-//W3C//DTD SVG 1.1//EN"
"http://www.w3.org/Graphics/SVG/1.1/DTD/svg11.dtd">
<svg viewBox="0 0 908 1286" version="1.1" xmlns="http://www.w3.org/2000/svg" xmlns:xlink="http://www.w3.org/1999/xlink">
<defs>
<clipPath id="c0_18"><path d="M-.2 1286.6V-.2H909.3V1286.6Z"/></clipPath>
<style type="text/css"><![CDATA[
.g0_18{
fill: none;
stroke: #F29400;
stroke-width: 8.784;
stroke-linejoin: round;
}
.g1_18{
fill: none;
stroke: #F78C00;
stroke-width: 8.784;
stroke-linejoin: round;
}
.g2_18{
fill: #F7BF66;
}
.g3_18{
fill: #FFF;
}
.g4_18{
fill: #FCEACC;
}
]]></style>
</defs>
<g clip-path="url(#c0_18)">
<path d="M-21.2 110.2H913.7" class="g0_18"/>
<path d="M-21.2 1185.1H913.7" class="g1_18"/>
</g>
<path fill-rule="evenodd" d="M132.3 253.2h65.9V153.9H132.3v99.3Z" class="g2_18"/>
<path fill-rule="evenodd" d="M132.3 188.5h65.9V153.9H132.3v34.6Z" class="g2_18"/>
<path fill-rule="evenodd" d="M200.5 253.2H304.4V153.9H200.5v99.3Z" class="g2_18"/>
<path fill-rule="evenodd" d="M200.5 179.3H304.4V153.9H200.5v25.4Z" class="g2_18"/>
<path fill-rule="evenodd" d="M200.5 195.4H304.4V179.3H200.5v16.1Z" class="g2_18"/>
<path fill-rule="evenodd" d="M200.5 211.7H304.4V195.4H200.5v16.3Z" class="g2_18"/>
<path fill-rule="evenodd" d="M200.5 237.1H304.4V211.7H200.5v25.4Z" class="g2_18"/>
<path fill-rule="evenodd" d="M306.7 253.2H419.5V153.9H306.7v99.3Z" class="g2_18"/>
<path fill-rule="evenodd" d="M306.7 188.5H419.5V153.9H306.7v34.6Z" class="g2_18"/>
<path fill-rule="evenodd" d="M421.8 253.2h106V153.9h-106v99.3Z" class="g2_18"/>
<path fill-rule="evenodd" d="M421.8 188.5h106V153.9h-106v34.6Z" class="g2_18"/>
<path fill-rule="evenodd" d="M530.1 253.2H636V153.9H530.1v99.3Z" class="g2_18"/>
<path fill-rule="evenodd" d="M530.1 179.3H636V153.9H530.1v25.4Z" class="g2_18"/>
<path fill-rule="evenodd" d="M530.1 195.4H636V179.3H530.1v16.1Z" class="g2_18"/>
<path fill-rule="evenodd" d="M530.1 211.7H636V195.4H530.1v16.3Z" class="g2_18"/>
<path fill-rule="evenodd" d="M530.1 227.9H636V211.7H530.1v16.2Z" class="g2_18"/>
<path fill-rule="evenodd" d="M530.1 253.2H636V227.9H530.1v25.3Z" class="g2_18"/>
<path fill-rule="evenodd" d="M638.3 253.2H820.5V153.9H638.3v99.3Z" class="g2_18"/>
<path fill-rule="evenodd" d="M638.3 179.3H820.5V153.9H638.3v25.4Z" class="g2_18"/>
<path fill-rule="evenodd" d="M638.3 204.6H820.5V179.3H638.3v25.3Z" class="g2_18"/>
<path fill-rule="evenodd" d="M130 153.9h2.3v-2.3H130v2.3Z" class="g3_18"/>
<path fill-rule="evenodd" d="M130 153.9h2.3v-2.3H130v2.3Z" class="g3_18"/>
<path fill-rule="evenodd" d="M132.3 153.9h65.9v-2.3H132.3v2.3Z" class="g3_18"/>
<path fill-rule="evenodd" d="M198.2 153.9h2.3v-2.3h-2.3v2.3Z" class="g3_18"/>
<path fill-rule="evenodd" d="M200.5 153.9H304.4v-2.3H200.5v2.3Z" class="g3_18"/>
<path fill-rule="evenodd" d="M304.4 153.9h2.3v-2.3h-2.3v2.3Z" class="g3_18"/>
<path fill-rule="evenodd" d="M306.7 153.9H419.5v-2.3H306.7v2.3Z" class="g3_18"/>
<path fill-rule="evenodd" d="M419.5 153.9h2.3v-2.3h-2.3v2.3Z" class="g3_18"/>
<path fill-rule="evenodd" d="M421.8 153.9h106v-2.3h-106v2.3Z" class="g3_18"/>
<path fill-rule="evenodd" d="M527.8 153.9h2.3v-2.3h-2.3v2.3Z" class="g3_18"/>
<path fill-rule="evenodd" d="M530.1 153.9H636v-2.3H530.1v2.3Z" class="g3_18"/>
<path fill-rule="evenodd" d="M636 153.9h2.3v-2.3H636v2.3Z" class="g3_18"/>
<path fill-rule="evenodd" d="M638.3 153.9H820.5v-2.3H638.3v2.3Z" class="g3_18"/>
<path fill-rule="evenodd" d="M820.5 153.9h2.3v-2.3h-2.3v2.3Z" class="g3_18"/>
<path fill-rule="evenodd" d="M820.5 153.9h2.3v-2.3h-2.3v2.3Z" class="g3_18"/>
<path fill-rule="evenodd" d="M130 253.2h2.3V153.9H130v99.3Z" class="g3_18"/>
<path fill-rule="evenodd" d="M198.2 253.2h2.3V153.9h-2.3v99.3Z" class="g3_18"/>
<path fill-rule="evenodd" d="M304.4 253.2h2.3V153.9h-2.3v99.3Z" class="g3_18"/>
<path fill-rule="evenodd" d="M419.5 253.2h2.3V153.9h-2.3v99.3Z" class="g3_18"/>
<path fill-rule="evenodd" d="M527.8 253.2h2.3V153.9h-2.3v99.3Z" class="g3_18"/>
<path fill-rule="evenodd" d="M636 253.2h2.3V153.9H636v99.3Z" class="g3_18"/>
<path fill-rule="evenodd" d="M820.5 253.2h2.3V153.9h-2.3v99.3Z" class="g3_18"/>
<path fill-rule="evenodd" d="M132.3 381.3h65.9V255.5H132.3V381.3Z" class="g4_18"/>
<path fill-rule="evenodd" d="M200.5 381.3H304.4V255.5H200.5V381.3Z" class="g4_18"/>
<path fill-rule="evenodd" d="M200.5 274.9H304.4V255.5H200.5v19.4Z" class="g4_18"/>
<path fill-rule="evenodd" d="M200.5 303.5H304.4V274.9H200.5v28.6Z" class="g4_18"/>
<path fill-rule="evenodd" d="M306.7 381.3H419.5V255.5H306.7V381.3Z" class="g4_18"/>
<path fill-rule="evenodd" d="M306.7 274.9H419.5V255.5H306.7v19.4Z" class="g4_18"/>
<path fill-rule="evenodd" d="M306.7 294.4H419.5V274.9H306.7v19.5Z" class="g4_18"/>
<path fill-rule="evenodd" d="M306.7 313.8H419.5V294.4H306.7v19.4Z" class="g4_18"/>
<path fill-rule="evenodd" d="M306.7 333.2H419.5V313.8H306.7v19.4Z" class="g4_18"/>
<path fill-rule="evenodd" d="M306.7 352.7H419.5V333.2H306.7v19.5Z" class="g4_18"/>
<path fill-rule="evenodd" d="M306.7 381.3H419.5V352.7H306.7v28.6Z" class="g4_18"/>
<path fill-rule="evenodd" d="M421.8 381.3h106V255.5h-106V381.3Z" class="g4_18"/>
<path fill-rule="evenodd" d="M421.8 274.9h106V255.5h-106v19.4Z" class="g4_18"/>
<path fill-rule="evenodd" d="M421.8 294.4h106V274.9h-106v19.5Z" class="g4_18"/>
<path fill-rule="evenodd" d="M421.8 313.8h106V294.4h-106v19.4Z" class="g4_18"/>
<path fill-rule="evenodd" d="M421.8 333.2h106V313.8h-106v19.4Z" class="g4_18"/>
<path fill-rule="evenodd" d="M421.8 361.8h106V333.2h-106v28.6Z" class="g4_18"/>
<path fill-rule="evenodd" d="M530.1 381.3H636V255.5H530.1V381.3Z" class="g4_18"/>
<path fill-rule="evenodd" d="M638.3 381.3H820.5V255.5H638.3V381.3Z" class="g4_18"/>
<path fill-rule="evenodd" d="M638.3 274.9H820.5V255.5H638.3v19.4Z" class="g4_18"/>
<path fill-rule="evenodd" d="M638.3 303.5H820.5V274.9H638.3v28.6Z" class="g4_18"/>
<path fill-rule="evenodd" d="M130 255.5h2.3v-2.3H130v2.3Z" class="g3_18"/>
<path fill-rule="evenodd" d="M132.3 255.5h65.9v-2.3H132.3v2.3Z" class="g3_18"/>
<path fill-rule="evenodd" d="M198.2 255.5h2.3v-2.3h-2.3v2.3Z" class="g3_18"/>
<path fill-rule="evenodd" d="M200.5 255.5H304.4v-2.3H200.5v2.3Z" class="g3_18"/>
<path fill-rule="evenodd" d="M304.4 255.5h2.3v-2.3h-2.3v2.3Z" class="g3_18"/>
<path fill-rule="evenodd" d="M306.7 255.5H419.5v-2.3H306.7v2.3Z" class="g3_18"/>
<path fill-rule="evenodd" d="M419.5 255.5h2.3v-2.3h-2.3v2.3Z" class="g3_18"/>
<path fill-rule="evenodd" d="M421.8 255.5h106v-2.3h-106v2.3Z" class="g3_18"/>
<path fill-rule="evenodd" d="M527.8 255.5h2.3v-2.3h-2.3v2.3Z" class="g3_18"/>
<path fill-rule="evenodd" d="M530.1 255.5H636v-2.3H530.1v2.3Z" class="g3_18"/>
<path fill-rule="evenodd" d="M636 255.5h2.3v-2.3H636v2.3Z" class="g3_18"/>
<path fill-rule="evenodd" d="M638.3 255.5H820.5v-2.3H638.3v2.3Z" class="g3_18"/>
<path fill-rule="evenodd" d="M820.5 255.5h2.3v-2.3h-2.3v2.3Z" class="g3_18"/>
<path fill-rule="evenodd" d="M130 381.3h2.3V255.5H130V381.3Z" class="g3_18"/>
<path fill-rule="evenodd" d="M198.2 381.3h2.3V255.5h-2.3V381.3Z" class="g3_18"/>
<path fill-rule="evenodd" d="M304.4 381.3h2.3V255.5h-2.3V381.3Z" class="g3_18"/>
<path fill-rule="evenodd" d="M419.5 381.3h2.3V255.5h-2.3V381.3Z" class="g3_18"/>
<path fill-rule="evenodd" d="M527.8 381.3h2.3V255.5h-2.3V381.3Z" class="g3_18"/>
<path fill-rule="evenodd" d="M636 381.3h2.3V255.5H636V381.3Z" class="g3_18"/>
<path fill-rule="evenodd" d="M820.5 381.3h2.3V255.5h-2.3V381.3Z" class="g3_18"/>
<path fill-rule="evenodd" d="M132.3 479.6h65.9v-96H132.3v96Z" class="g4_18"/>
<path fill-rule="evenodd" d="M132.3 421.3h65.9V383.6H132.3v37.7Z" class="g4_18"/>
<path fill-rule="evenodd" d="M200.5 479.6H304.4v-96H200.5v96Z" class="g4_18"/>
<path fill-rule="evenodd" d="M200.5 412.2H304.4V383.6H200.5v28.6Z" class="g4_18"/>
<path fill-rule="evenodd" d="M200.5 431.6H304.4V412.2H200.5v19.4Z" class="g4_18"/>
<path fill-rule="evenodd" d="M200.5 451H304.4V431.6H200.5V451Z" class="g4_18"/>
<path fill-rule="evenodd" d="M200.5 479.6H304.4V451H200.5v28.6Z" class="g4_18"/>
<path fill-rule="evenodd" d="M306.7 479.6H419.5v-96H306.7v96Z" class="g4_18"/>
<path fill-rule="evenodd" d="M306.7 412.2H419.5V383.6H306.7v28.6Z" class="g4_18"/>
<path fill-rule="evenodd" d="M306.7 440.8H419.5V412.2H306.7v28.6Z" class="g4_18"/>
<path fill-rule="evenodd" d="M421.8 479.6h106v-96h-106v96Z" class="g4_18"/>
<path fill-rule="evenodd" d="M421.8 421.3h106V383.6h-106v37.7Z" class="g4_18"/>
<path fill-rule="evenodd" d="M530.1 479.6H636v-96H530.1v96Z" class="g4_18"/>
<path fill-rule="evenodd" d="M530.1 412.2H636V383.6H530.1v28.6Z" class="g4_18"/>
<path fill-rule="evenodd" d="M530.1 440.8H636V412.2H530.1v28.6Z" class="g4_18"/>
<path fill-rule="evenodd" d="M638.3 479.6H820.5v-96H638.3v96Z" class="g4_18"/>
<path fill-rule="evenodd" d="M638.3 412.2H820.5V383.6H638.3v28.6Z" class="g4_18"/>
<path fill-rule="evenodd" d="M638.3 440.8H820.5V412.2H638.3v28.6Z" class="g4_18"/>
<path fill-rule="evenodd" d="M130 383.6h2.3v-2.3H130v2.3Z" class="g3_18"/>
<path fill-rule="evenodd" d="M132.3 383.6h65.9v-2.3H132.3v2.3Z" class="g3_18"/>
<path fill-rule="evenodd" d="M198.2 383.6h2.3v-2.3h-2.3v2.3Z" class="g3_18"/>
<path fill-rule="evenodd" d="M200.5 383.6H304.4v-2.3H200.5v2.3Z" class="g3_18"/>
<path fill-rule="evenodd" d="M304.4 383.6h2.3v-2.3h-2.3v2.3Z" class="g3_18"/>
<path fill-rule="evenodd" d="M306.7 383.6H419.5v-2.3H306.7v2.3Z" class="g3_18"/>
<path fill-rule="evenodd" d="M419.5 383.6h2.3v-2.3h-2.3v2.3Z" class="g3_18"/>
<path fill-rule="evenodd" d="M421.8 383.6h106v-2.3h-106v2.3Z" class="g3_18"/>
<path fill-rule="evenodd" d="M527.8 383.6h2.3v-2.3h-2.3v2.3Z" class="g3_18"/>
<path fill-rule="evenodd" d="M530.1 383.6H636v-2.3H530.1v2.3Z" class="g3_18"/>
<path fill-rule="evenodd" d="M636 383.6h2.3v-2.3H636v2.3Z" class="g3_18"/>
<path fill-rule="evenodd" d="M638.3 383.6H820.5v-2.3H638.3v2.3Z" class="g3_18"/>
<path fill-rule="evenodd" d="M820.5 383.6h2.3v-2.3h-2.3v2.3Z" class="g3_18"/>
<path fill-rule="evenodd" d="M130 479.6h2.3v-96H130v96Z" class="g3_18"/>
<path fill-rule="evenodd" d="M198.2 479.6h2.3v-96h-2.3v96Z" class="g3_18"/>
<path fill-rule="evenodd" d="M304.4 479.6h2.3v-96h-2.3v96Z" class="g3_18"/>
<path fill-rule="evenodd" d="M419.5 479.6h2.3v-96h-2.3v96Z" class="g3_18"/>
<path fill-rule="evenodd" d="M527.8 479.6h2.3v-96h-2.3v96Z" class="g3_18"/>
<path fill-rule="evenodd" d="M636 479.6h2.3v-96H636v96Z" class="g3_18"/>
<path fill-rule="evenodd" d="M820.5 479.6h2.3v-96h-2.3v96Z" class="g3_18"/>
<path fill-rule="evenodd" d="M132.3 597.4h65.9V481.9H132.3V597.4Z" class="g4_18"/>
<path fill-rule="evenodd" d="M132.3 519.7h65.9V481.9H132.3v37.8Z" class="g4_18"/>
<path fill-rule="evenodd" d="M200.5 597.4H304.4V481.9H200.5V597.4Z" class="g4_18"/>
<path fill-rule="evenodd" d="M200.5 510.5H304.4V481.9H200.5v28.6Z" class="g4_18"/>
<path fill-rule="evenodd" d="M200.5 530H304.4V510.5H200.5V530Z" class="g4_18"/>
<path fill-rule="evenodd" d="M200.5 549.4H304.4V530H200.5v19.4Z" class="g4_18"/>
<path fill-rule="evenodd" d="M200.5 568.8H304.4V549.4H200.5v19.4Z" class="g4_18"/>
<path fill-rule="evenodd" d="M200.5 597.4H304.4V568.8H200.5v28.6Z" class="g4_18"/>
<path fill-rule="evenodd" d="M306.7 597.4H419.5V481.9H306.7V597.4Z" class="g4_18"/>
<path fill-rule="evenodd" d="M306.7 519.7H419.5V481.9H306.7v37.8Z" class="g4_18"/>
<path fill-rule="evenodd" d="M421.8 597.4h106V481.9h-106V597.4Z" class="g4_18"/>
<path fill-rule="evenodd" d="M421.8 510.5h106V481.9h-106v28.6Z" class="g4_18"/>
<path fill-rule="evenodd" d="M421.8 530h106V510.5h-106V530Z" class="g4_18"/>
<path fill-rule="evenodd" d="M421.8 549.4h106V530h-106v19.4Z" class="g4_18"/>
<path fill-rule="evenodd" d="M421.8 568.8h106V549.4h-106v19.4Z" class="g4_18"/>
<path fill-rule="evenodd" d="M421.8 597.4h106V568.8h-106v28.6Z" class="g4_18"/>
<path fill-rule="evenodd" d="M530.1 597.4H636V481.9H530.1V597.4Z" class="g4_18"/>
<path fill-rule="evenodd" d="M530.1 510.5H636V481.9H530.1v28.6Z" class="g4_18"/>
<path fill-rule="evenodd" d="M530.1 530H636V510.5H530.1V530Z" class="g4_18"/>
<path fill-rule="evenodd" d="M530.1 549.4H636V530H530.1v19.4Z" class="g4_18"/>
<path fill-rule="evenodd" d="M530.1 568.8H636V549.4H530.1v19.4Z" class="g4_18"/>
<path fill-rule="evenodd" d="M530.1 597.4H636V568.8H530.1v28.6Z" class="g4_18"/>
<path fill-rule="evenodd" d="M638.3 597.4H820.5V481.9H638.3V597.4Z" class="g4_18"/>
<path fill-rule="evenodd" d="M638.3 510.5H820.5V481.9H638.3v28.6Z" class="g4_18"/>
<path fill-rule="evenodd" d="M638.3 539.1H820.5V510.5H638.3v28.6Z" class="g4_18"/>
<path fill-rule="evenodd" d="M130 481.9h2.3v-2.3H130v2.3Z" class="g3_18"/>
<path fill-rule="evenodd" d="M132.3 481.9h65.9v-2.3H132.3v2.3Z" class="g3_18"/>
<path fill-rule="evenodd" d="M198.2 481.9h2.3v-2.3h-2.3v2.3Z" class="g3_18"/>
<path fill-rule="evenodd" d="M200.5 481.9H304.4v-2.3H200.5v2.3Z" class="g3_18"/>
<path fill-rule="evenodd" d="M304.4 481.9h2.3v-2.3h-2.3v2.3Z" class="g3_18"/>
<path fill-rule="evenodd" d="M306.7 481.9H419.5v-2.3H306.7v2.3Z" class="g3_18"/>
<path fill-rule="evenodd" d="M419.5 481.9h2.3v-2.3h-2.3v2.3Z" class="g3_18"/>
<path fill-rule="evenodd" d="M421.8 481.9h106v-2.3h-106v2.3Z" class="g3_18"/>
<path fill-rule="evenodd" d="M527.8 481.9h2.3v-2.3h-2.3v2.3Z" class="g3_18"/>
<path fill-rule="evenodd" d="M530.1 481.9H636v-2.3H530.1v2.3Z" class="g3_18"/>
<path fill-rule="evenodd" d="M636 481.9h2.3v-2.3H636v2.3Z" class="g3_18"/>
<path fill-rule="evenodd" d="M638.3 481.9H820.5v-2.3H638.3v2.3Z" class="g3_18"/>
<path fill-rule="evenodd" d="M820.5 481.9h2.3v-2.3h-2.3v2.3Z" class="g3_18"/>
<path fill-rule="evenodd" d="M130 597.4h2.3V481.9H130V597.4Z" class="g3_18"/>
<path fill-rule="evenodd" d="M198.2 597.4h2.3V481.9h-2.3V597.4Z" class="g3_18"/>
<path fill-rule="evenodd" d="M304.4 597.4h2.3V481.9h-2.3V597.4Z" class="g3_18"/>
<path fill-rule="evenodd" d="M419.5 597.4h2.3V481.9h-2.3V597.4Z" class="g3_18"/>
<path fill-rule="evenodd" d="M527.8 597.4h2.3V481.9h-2.3V597.4Z" class="g3_18"/>
<path fill-rule="evenodd" d="M636 597.4h2.3V481.9H636V597.4Z" class="g3_18"/>
<path fill-rule="evenodd" d="M820.5 597.4h2.3V481.9h-2.3V597.4Z" class="g3_18"/>
<path fill-rule="evenodd" d="M132.3 773.5h65.9V599.7H132.3V773.5Z" class="g4_18"/>
<path fill-rule="evenodd" d="M132.3 637.5h65.9V599.7H132.3v37.8Z" class="g4_18"/>
<path fill-rule="evenodd" d="M200.5 773.5H304.4V599.7H200.5V773.5Z" class="g4_18"/>
<path fill-rule="evenodd" d="M200.5 628.3H304.4V599.7H200.5v28.6Z" class="g4_18"/>
<path fill-rule="evenodd" d="M200.5 647.8H304.4V628.3H200.5v19.5Z" class="g4_18"/>
<path fill-rule="evenodd" d="M200.5 667.2H304.4V647.8H200.5v19.4Z" class="g4_18"/>
<path fill-rule="evenodd" d="M200.5 695.8H304.4V667.2H200.5v28.6Z" class="g4_18"/>
<path fill-rule="evenodd" d="M306.7 773.5H419.5V599.7H306.7V773.5Z" class="g4_18"/>
<path fill-rule="evenodd" d="M306.7 637.5H419.5V599.7H306.7v37.8Z" class="g4_18"/>
<path fill-rule="evenodd" d="M421.8 773.5h106V599.7h-106V773.5Z" class="g4_18"/>
<path fill-rule="evenodd" d="M421.8 628.3h106V599.7h-106v28.6Z" class="g4_18"/>
<path fill-rule="evenodd" d="M421.8 647.8h106V628.3h-106v19.5Z" class="g4_18"/>
<path fill-rule="evenodd" d="M421.8 667.2h106V647.8h-106v19.4Z" class="g4_18"/>
<path fill-rule="evenodd" d="M421.8 686.6h106V667.2h-106v19.4Z" class="g4_18"/>
<path fill-rule="evenodd" d="M421.8 706.1h106V686.6h-106v19.5Z" class="g4_18"/>
<path fill-rule="evenodd" d="M421.8 725.5h106V706.1h-106v19.4Z" class="g4_18"/>
<path fill-rule="evenodd" d="M421.8 744.9h106V725.5h-106v19.4Z" class="g4_18"/>
<path fill-rule="evenodd" d="M421.8 773.5h106V744.9h-106v28.6Z" class="g4_18"/>
<path fill-rule="evenodd" d="M530.1 773.5H636V599.7H530.1V773.5Z" class="g4_18"/>
<path fill-rule="evenodd" d="M530.1 628.3H636V599.7H530.1v28.6Z" class="g4_18"/>
<path fill-rule="evenodd" d="M530.1 647.8H636V628.3H530.1v19.5Z" class="g4_18"/>
<path fill-rule="evenodd" d="M530.1 667.2H636V647.8H530.1v19.4Z" class="g4_18"/>
<path fill-rule="evenodd" d="M530.1 686.6H636V667.2H530.1v19.4Z" class="g4_18"/>
<path fill-rule="evenodd" d="M530.1 706.1H636V686.6H530.1v19.5Z" class="g4_18"/>
<path fill-rule="evenodd" d="M530.1 734.7H636V706.1H530.1v28.6Z" class="g4_18"/>
<path fill-rule="evenodd" d="M638.3 773.5H820.5V599.7H638.3V773.5Z" class="g4_18"/>
<path fill-rule="evenodd" d="M638.3 628.3H820.5V599.7H638.3v28.6Z" class="g4_18"/>
<path fill-rule="evenodd" d="M638.3 647.8H820.5V628.3H638.3v19.5Z" class="g4_18"/>
<path fill-rule="evenodd" d="M638.3 667.2H820.5V647.8H638.3v19.4Z" class="g4_18"/>
<path fill-rule="evenodd" d="M638.3 686.6H820.5V667.2H638.3v19.4Z" class="g4_18"/>
<path fill-rule="evenodd" d="M638.3 706.1H820.5V686.6H638.3v19.5Z" class="g4_18"/>
<path fill-rule="evenodd" d="M638.3 725.5H820.5V706.1H638.3v19.4Z" class="g4_18"/>
<path fill-rule="evenodd" d="M638.3 744.9H820.5V725.5H638.3v19.4Z" class="g4_18"/>
<path fill-rule="evenodd" d="M638.3 773.5H820.5V744.9H638.3v28.6Z" class="g4_18"/>
<path fill-rule="evenodd" d="M130 599.7h2.3v-2.3H130v2.3Z" class="g3_18"/>
<path fill-rule="evenodd" d="M132.3 599.7h65.9v-2.3H132.3v2.3Z" class="g3_18"/>
<path fill-rule="evenodd" d="M198.2 599.7h2.3v-2.3h-2.3v2.3Z" class="g3_18"/>
<path fill-rule="evenodd" d="M200.5 599.7H304.4v-2.3H200.5v2.3Z" class="g3_18"/>
<path fill-rule="evenodd" d="M304.4 599.7h2.3v-2.3h-2.3v2.3Z" class="g3_18"/>
<path fill-rule="evenodd" d="M306.7 599.7H419.5v-2.3H306.7v2.3Z" class="g3_18"/>
<path fill-rule="evenodd" d="M419.5 599.7h2.3v-2.3h-2.3v2.3Z" class="g3_18"/>
<path fill-rule="evenodd" d="M421.8 599.7h106v-2.3h-106v2.3Z" class="g3_18"/>
<path fill-rule="evenodd" d="M527.8 599.7h2.3v-2.3h-2.3v2.3Z" class="g3_18"/>
<path fill-rule="evenodd" d="M530.1 599.7H636v-2.3H530.1v2.3Z" class="g3_18"/>
<path fill-rule="evenodd" d="M636 599.7h2.3v-2.3H636v2.3Z" class="g3_18"/>
<path fill-rule="evenodd" d="M638.3 599.7H820.5v-2.3H638.3v2.3Z" class="g3_18"/>
<path fill-rule="evenodd" d="M820.5 599.7h2.3v-2.3h-2.3v2.3Z" class="g3_18"/>
<path fill-rule="evenodd" d="M130 773.5h2.3V599.7H130V773.5Z" class="g3_18"/>
<path fill-rule="evenodd" d="M198.2 773.5h2.3V599.7h-2.3V773.5Z" class="g3_18"/>
<path fill-rule="evenodd" d="M304.4 773.5h2.3V599.7h-2.3V773.5Z" class="g3_18"/>
<path fill-rule="evenodd" d="M419.5 773.5h2.3V599.7h-2.3V773.5Z" class="g3_18"/>
<path fill-rule="evenodd" d="M527.8 773.5h2.3V599.7h-2.3V773.5Z" class="g3_18"/>
<path fill-rule="evenodd" d="M636 773.5h2.3V599.7H636V773.5Z" class="g3_18"/>
<path fill-rule="evenodd" d="M820.5 773.5h2.3V599.7h-2.3V773.5Z" class="g3_18"/>
<path fill-rule="evenodd" d="M132.3 910.8h65.9v-135H132.3v135Z" class="g4_18"/>
<path fill-rule="evenodd" d="M132.3 813.6h65.9V775.8H132.3v37.8Z" class="g4_18"/>
<path fill-rule="evenodd" d="M200.5 910.8H304.4v-135H200.5v135Z" class="g4_18"/>
<path fill-rule="evenodd" d="M200.5 804.4H304.4V775.8H200.5v28.6Z" class="g4_18"/>
<path fill-rule="evenodd" d="M200.5 823.9H304.4V804.4H200.5v19.5Z" class="g4_18"/>
<path fill-rule="evenodd" d="M200.5 843.3H304.4V823.9H200.5v19.4Z" class="g4_18"/>
<path fill-rule="evenodd" d="M200.5 862.7H304.4V843.3H200.5v19.4Z" class="g4_18"/>
<path fill-rule="evenodd" d="M200.5 882.2H304.4V862.7H200.5v19.5Z" class="g4_18"/>
<path fill-rule="evenodd" d="M200.5 910.8H304.4V882.2H200.5v28.6Z" class="g4_18"/>
<path fill-rule="evenodd" d="M306.7 910.8H419.5v-135H306.7v135Z" class="g4_18"/>
<path fill-rule="evenodd" d="M306.7 804.4H419.5V775.8H306.7v28.6Z" class="g4_18"/>
<path fill-rule="evenodd" d="M306.7 823.9H419.5V804.4H306.7v19.5Z" class="g4_18"/>
<path fill-rule="evenodd" d="M306.7 843.3H419.5V823.9H306.7v19.4Z" class="g4_18"/>
<path fill-rule="evenodd" d="M306.7 862.7H419.5V843.3H306.7v19.4Z" class="g4_18"/>
<path fill-rule="evenodd" d="M306.7 882.2H419.5V862.7H306.7v19.5Z" class="g4_18"/>
<path fill-rule="evenodd" d="M306.7 910.8H419.5V882.2H306.7v28.6Z" class="g4_18"/>
<path fill-rule="evenodd" d="M421.8 910.8h106v-135h-106v135Z" class="g4_18"/>
<path fill-rule="evenodd" d="M421.8 804.4h106V775.8h-106v28.6Z" class="g4_18"/>
<path fill-rule="evenodd" d="M421.8 823.9h106V804.4h-106v19.5Z" class="g4_18"/>
<path fill-rule="evenodd" d="M421.8 843.3h106V823.9h-106v19.4Z" class="g4_18"/>
<path fill-rule="evenodd" d="M421.8 862.7h106V843.3h-106v19.4Z" class="g4_18"/>
<path fill-rule="evenodd" d="M421.8 882.2h106V862.7h-106v19.5Z" class="g4_18"/>
<path fill-rule="evenodd" d="M421.8 910.8h106V882.2h-106v28.6Z" class="g4_18"/>
<path fill-rule="evenodd" d="M530.1 910.8H636v-135H530.1v135Z" class="g4_18"/>
<path fill-rule="evenodd" d="M530.1 804.4H636V775.8H530.1v28.6Z" class="g4_18"/>
<path fill-rule="evenodd" d="M530.1 823.9H636V804.4H530.1v19.5Z" class="g4_18"/>
<path fill-rule="evenodd" d="M530.1 843.3H636V823.9H530.1v19.4Z" class="g4_18"/>
<path fill-rule="evenodd" d="M530.1 862.7H636V843.3H530.1v19.4Z" class="g4_18"/>
<path fill-rule="evenodd" d="M530.1 891.3H636V862.7H530.1v28.6Z" class="g4_18"/>
<path fill-rule="evenodd" d="M638.3 910.8H820.5v-135H638.3v135Z" class="g4_18"/>
<path fill-rule="evenodd" d="M638.3 804.4H820.5V775.8H638.3v28.6Z" class="g4_18"/>
<path fill-rule="evenodd" d="M638.3 833H820.5V804.4H638.3V833Z" class="g4_18"/>
<path fill-rule="evenodd" d="M130 775.8h2.3v-2.3H130v2.3Z" class="g3_18"/>
<path fill-rule="evenodd" d="M132.3 775.8h65.9v-2.3H132.3v2.3Z" class="g3_18"/>
<path fill-rule="evenodd" d="M198.2 775.8h2.3v-2.3h-2.3v2.3Z" class="g3_18"/>
<path fill-rule="evenodd" d="M200.5 775.8H304.4v-2.3H200.5v2.3Z" class="g3_18"/>
<path fill-rule="evenodd" d="M304.4 775.8h2.3v-2.3h-2.3v2.3Z" class="g3_18"/>
<path fill-rule="evenodd" d="M306.7 775.8H419.5v-2.3H306.7v2.3Z" class="g3_18"/>
<path fill-rule="evenodd" d="M419.5 775.8h2.3v-2.3h-2.3v2.3Z" class="g3_18"/>
<path fill-rule="evenodd" d="M421.8 775.8h106v-2.3h-106v2.3Z" class="g3_18"/>
<path fill-rule="evenodd" d="M527.8 775.8h2.3v-2.3h-2.3v2.3Z" class="g3_18"/>
<path fill-rule="evenodd" d="M530.1 775.8H636v-2.3H530.1v2.3Z" class="g3_18"/>
<path fill-rule="evenodd" d="M636 775.8h2.3v-2.3H636v2.3Z" class="g3_18"/>
<path fill-rule="evenodd" d="M638.3 775.8H820.5v-2.3H638.3v2.3Z" class="g3_18"/>
<path fill-rule="evenodd" d="M820.5 775.8h2.3v-2.3h-2.3v2.3Z" class="g3_18"/>
<path fill-rule="evenodd" d="M130 910.8h2.3v-135H130v135Z" class="g3_18"/>
<path fill-rule="evenodd" d="M198.2 910.8h2.3v-135h-2.3v135Z" class="g3_18"/>
<path fill-rule="evenodd" d="M304.4 910.8h2.3v-135h-2.3v135Z" class="g3_18"/>
<path fill-rule="evenodd" d="M419.5 910.8h2.3v-135h-2.3v135Z" class="g3_18"/>
<path fill-rule="evenodd" d="M527.8 910.8h2.3v-135h-2.3v135Z" class="g3_18"/>
<path fill-rule="evenodd" d="M636 910.8h2.3v-135H636v135Z" class="g3_18"/>
<path fill-rule="evenodd" d="M820.5 910.8h2.3v-135h-2.3v135Z" class="g3_18"/>
<path fill-rule="evenodd" d="M132.3 1164.6h65.9V913.1H132.3v251.5Z" class="g4_18"/>
<path fill-rule="evenodd" d="M132.3 950.8h65.9V913.1H132.3v37.7Z" class="g4_18"/>
<path fill-rule="evenodd" d="M200.5 1164.6H304.4V913.1H200.5v251.5Z" class="g4_18"/>
<path fill-rule="evenodd" d="M200.5 941.7H304.4V913.1H200.5v28.6Z" class="g4_18"/>
<path fill-rule="evenodd" d="M200.5 961.1H304.4V941.7H200.5v19.4Z" class="g4_18"/>
<path fill-rule="evenodd" d="M200.5 980.5H304.4V961.1H200.5v19.4Z" class="g4_18"/>
<path fill-rule="evenodd" d="M200.5 1000H304.4V980.5H200.5V1000Z" class="g4_18"/>
<path fill-rule="evenodd" d="M200.5 1019.4H304.4V1000H200.5v19.4Z" class="g4_18"/>
<path fill-rule="evenodd" d="M200.5 1038.8H304.4v-19.4H200.5v19.4Z" class="g4_18"/>
<path fill-rule="evenodd" d="M200.5 1058.3H304.4v-19.5H200.5v19.5Z" class="g4_18"/>
<path fill-rule="evenodd" d="M200.5 1077.7H304.4v-19.4H200.5v19.4Z" class="g4_18"/>
<path fill-rule="evenodd" d="M200.5 1097.2H304.4v-19.5H200.5v19.5Z" class="g4_18"/>
<path fill-rule="evenodd" d="M200.5 1116.6H304.4v-19.4H200.5v19.4Z" class="g4_18"/>
<path fill-rule="evenodd" d="M200.5 1136H304.4v-19.4H200.5V1136Z" class="g4_18"/>
<path fill-rule="evenodd" d="M200.5 1164.6H304.4V1136H200.5v28.6Z" class="g4_18"/>
<path fill-rule="evenodd" d="M306.7 1164.6H419.5V913.1H306.7v251.5Z" class="g4_18"/>
<path fill-rule="evenodd" d="M306.7 941.7H419.5V913.1H306.7v28.6Z" class="g4_18"/>
<path fill-rule="evenodd" d="M306.7 961.1H419.5V941.7H306.7v19.4Z" class="g4_18"/>
<path fill-rule="evenodd" d="M306.7 980.5H419.5V961.1H306.7v19.4Z" class="g4_18"/>
<path fill-rule="evenodd" d="M306.7 1000H419.5V980.5H306.7V1000Z" class="g4_18"/>
<path fill-rule="evenodd" d="M306.7 1019.4H419.5V1000H306.7v19.4Z" class="g4_18"/>
<path fill-rule="evenodd" d="M306.7 1038.8H419.5v-19.4H306.7v19.4Z" class="g4_18"/>
<path fill-rule="evenodd" d="M306.7 1058.3H419.5v-19.5H306.7v19.5Z" class="g4_18"/>
<path fill-rule="evenodd" d="M306.7 1077.7H419.5v-19.4H306.7v19.4Z" class="g4_18"/>
<path fill-rule="evenodd" d="M306.7 1097.2H419.5v-19.5H306.7v19.5Z" class="g4_18"/>
<path fill-rule="evenodd" d="M306.7 1116.6H419.5v-19.4H306.7v19.4Z" class="g4_18"/>
<path fill-rule="evenodd" d="M306.7 1136H419.5v-19.4H306.7V1136Z" class="g4_18"/>
<path fill-rule="evenodd" d="M306.7 1164.6H419.5V1136H306.7v28.6Z" class="g4_18"/>
<path fill-rule="evenodd" d="M421.8 1164.6h106V913.1h-106v251.5Z" class="g4_18"/>
<path fill-rule="evenodd" d="M421.8 941.7h106V913.1h-106v28.6Z" class="g4_18"/>
<path fill-rule="evenodd" d="M421.8 961.1h106V941.7h-106v19.4Z" class="g4_18"/>
<path fill-rule="evenodd" d="M421.8 980.5h106V961.1h-106v19.4Z" class="g4_18"/>
<path fill-rule="evenodd" d="M421.8 1000h106V980.5h-106V1000Z" class="g4_18"/>
<path fill-rule="evenodd" d="M421.8 1019.4h106V1000h-106v19.4Z" class="g4_18"/>
<path fill-rule="evenodd" d="M421.8 1038.8h106v-19.4h-106v19.4Z" class="g4_18"/>
<path fill-rule="evenodd" d="M421.8 1058.3h106v-19.5h-106v19.5Z" class="g4_18"/>
<path fill-rule="evenodd" d="M421.8 1077.7h106v-19.4h-106v19.4Z" class="g4_18"/>
<path fill-rule="evenodd" d="M421.8 1097.2h106v-19.5h-106v19.5Z" class="g4_18"/>
<path fill-rule="evenodd" d="M421.8 1116.6h106v-19.4h-106v19.4Z" class="g4_18"/>
<path fill-rule="evenodd" d="M421.8 1136h106v-19.4h-106V1136Z" class="g4_18"/>
<path fill-rule="evenodd" d="M421.8 1164.6h106V1136h-106v28.6Z" class="g4_18"/>
<path fill-rule="evenodd" d="M530.1 1164.6H636V913.1H530.1v251.5Z" class="g4_18"/>
<path fill-rule="evenodd" d="M530.1 941.7H636V913.1H530.1v28.6Z" class="g4_18"/>
<path fill-rule="evenodd" d="M530.1 961.1H636V941.7H530.1v19.4Z" class="g4_18"/>
<path fill-rule="evenodd" d="M530.1 980.5H636V961.1H530.1v19.4Z" class="g4_18"/>
<path fill-rule="evenodd" d="M530.1 1000H636V980.5H530.1V1000Z" class="g4_18"/>
<path fill-rule="evenodd" d="M530.1 1019.4H636V1000H530.1v19.4Z" class="g4_18"/>
<path fill-rule="evenodd" d="M530.1 1038.8H636v-19.4H530.1v19.4Z" class="g4_18"/>
<path fill-rule="evenodd" d="M530.1 1058.3H636v-19.5H530.1v19.5Z" class="g4_18"/>
<path fill-rule="evenodd" d="M530.1 1077.7H636v-19.4H530.1v19.4Z" class="g4_18"/>
<path fill-rule="evenodd" d="M530.1 1097.2H636v-19.5H530.1v19.5Z" class="g4_18"/>
<path fill-rule="evenodd" d="M530.1 1116.6H636v-19.4H530.1v19.4Z" class="g4_18"/>
<path fill-rule="evenodd" d="M530.1 1136H636v-19.4H530.1V1136Z" class="g4_18"/>
<path fill-rule="evenodd" d="M530.1 1164.6H636V1136H530.1v28.6Z" class="g4_18"/>
<path fill-rule="evenodd" d="M638.3 1164.6H820.5V913.1H638.3v251.5Z" class="g4_18"/>
<path fill-rule="evenodd" d="M638.3 941.7H820.5V913.1H638.3v28.6Z" class="g4_18"/>
<path fill-rule="evenodd" d="M638.3 961.1H820.5V941.7H638.3v19.4Z" class="g4_18"/>
<path fill-rule="evenodd" d="M638.3 980.5H820.5V961.1H638.3v19.4Z" class="g4_18"/>
<path fill-rule="evenodd" d="M638.3 1000H820.5V980.5H638.3V1000Z" class="g4_18"/>
<path fill-rule="evenodd" d="M638.3 1019.4H820.5V1000H638.3v19.4Z" class="g4_18"/>
<path fill-rule="evenodd" d="M638.3 1048H820.5v-28.6H638.3V1048Z" class="g4_18"/>
<path fill-rule="evenodd" d="M130 913.1h2.3v-2.3H130v2.3Z" class="g3_18"/>
<path fill-rule="evenodd" d="M132.3 913.1h65.9v-2.3H132.3v2.3Z" class="g3_18"/>
<path fill-rule="evenodd" d="M198.2 913.1h2.3v-2.3h-2.3v2.3Z" class="g3_18"/>
<path fill-rule="evenodd" d="M200.5 913.1H304.4v-2.3H200.5v2.3Z" class="g3_18"/>
<path fill-rule="evenodd" d="M304.4 913.1h2.3v-2.3h-2.3v2.3Z" class="g3_18"/>
<path fill-rule="evenodd" d="M306.7 913.1H419.5v-2.3H306.7v2.3Z" class="g3_18"/>
<path fill-rule="evenodd" d="M419.5 913.1h2.3v-2.3h-2.3v2.3Z" class="g3_18"/>
<path fill-rule="evenodd" d="M421.8 913.1h106v-2.3h-106v2.3Z" class="g3_18"/>
<path fill-rule="evenodd" d="M527.8 913.1h2.3v-2.3h-2.3v2.3Z" class="g3_18"/>
<path fill-rule="evenodd" d="M530.1 913.1H636v-2.3H530.1v2.3Z" class="g3_18"/>
<path fill-rule="evenodd" d="M636 913.1h2.3v-2.3H636v2.3Z" class="g3_18"/>
<path fill-rule="evenodd" d="M638.3 913.1H820.5v-2.3H638.3v2.3Z" class="g3_18"/>
<path fill-rule="evenodd" d="M820.5 913.1h2.3v-2.3h-2.3v2.3Z" class="g3_18"/>
<path fill-rule="evenodd" d="M130 1164.6h2.3V913.1H130v251.5Z" class="g3_18"/>
<path fill-rule="evenodd" d="M130 1166.9h2.3v-2.3H130v2.3Z" class="g3_18"/>
<path fill-rule="evenodd" d="M130 1166.9h2.3v-2.3H130v2.3Z" class="g3_18"/>
<path fill-rule="evenodd" d="M132.3 1166.9h65.9v-2.3H132.3v2.3Z" class="g3_18"/>
<path fill-rule="evenodd" d="M198.2 1164.6h2.3V913.1h-2.3v251.5Z" class="g3_18"/>
<path fill-rule="evenodd" d="M198.2 1166.9h2.3v-2.3h-2.3v2.3Z" class="g3_18"/>
<path fill-rule="evenodd" d="M200.5 1166.9H304.4v-2.3H200.5v2.3Z" class="g3_18"/>
<path fill-rule="evenodd" d="M304.4 1164.6h2.3V913.1h-2.3v251.5Z" class="g3_18"/>
<path fill-rule="evenodd" d="M304.4 1166.9h2.3v-2.3h-2.3v2.3Z" class="g3_18"/>
<path fill-rule="evenodd" d="M306.7 1166.9H419.5v-2.3H306.7v2.3Z" class="g3_18"/>
<path fill-rule="evenodd" d="M419.5 1164.6h2.3V913.1h-2.3v251.5Z" class="g3_18"/>
<path fill-rule="evenodd" d="M419.5 1166.9h2.3v-2.3h-2.3v2.3Z" class="g3_18"/>
<path fill-rule="evenodd" d="M421.8 1166.9h106v-2.3h-106v2.3Z" class="g3_18"/>
<path fill-rule="evenodd" d="M527.8 1164.6h2.3V913.1h-2.3v251.5Z" class="g3_18"/>
<path fill-rule="evenodd" d="M527.8 1166.9h2.3v-2.3h-2.3v2.3Z" class="g3_18"/>
<path fill-rule="evenodd" d="M530.1 1166.9H636v-2.3H530.1v2.3Z" class="g3_18"/>
<path fill-rule="evenodd" d="M636 1164.6h2.3V913.1H636v251.5Z" class="g3_18"/>
<path fill-rule="evenodd" d="M636 1166.9h2.3v-2.3H636v2.3Z" class="g3_18"/>
<path fill-rule="evenodd" d="M638.3 1166.9H820.5v-2.3H638.3v2.3Z" class="g3_18"/>
<path fill-rule="evenodd" d="M820.5 1164.6h2.3V913.1h-2.3v251.5Z" class="g3_18"/>
<path fill-rule="evenodd" d="M820.5 1166.9h2.3v-2.3h-2.3v2.3Z" class="g3_18"/>
<path fill-rule="evenodd" d="M820.5 1166.9h2.3v-2.3h-2.3v2.3Z" class="g3_18"/>
</svg>