<svg viewBox="0 0 1210 935" version="1.1" xmlns="http://www.w3.org/2000/svg">
<defs>
<clipPath id="c0_222"><path d="M35.7 107V29.4H267.3V107Z"/></clipPath>
<style>
.g0_222{fill:none;stroke:#005B99;stroke-width:2.673;stroke-linejoin:round;}
.g1_222{fill:#005B99;}
</style>
</defs>
<path d="M34.4 121H1172.9" class="g0_222"/>
<image clip-path="url(#c0_222)" preserveAspectRatio="none" x="36" y="30" width="231" height="77" href="img/1.jpg"/>
<path d="M35.4 229.8H547.6v-1.2H35.4v1.2Z" class="g1_222"/>
<path d="M35.4 323.9H396v-1.2H35.4v1.2Z" class="g1_222"/>
<path d="M132 457.1H501.1v-1.2H132v1.2Z" class="g1_222"/>
<path d="M35.4 551.2H394.8V550H35.4v1.2Z" class="g1_222"/>
<path d="M35.4 645.3H404.6v-1.2H35.4v1.2Z" class="g1_222"/>
<path d="M35.4 739.4H396v-1.2H35.4v1.2Z" class="g1_222"/>
<path d="M35.4 853.1H396v-1.2H35.4v1.2Z" class="g1_222"/>
<path d="M618.4 229.8H987.6v-1.2H618.4v1.2Z" class="g1_222"/>
<path d="M641.7 343.4h369.1v-1.2H641.7v1.2Z" class="g1_222"/>
<path d="M618.4 457.1H987.6v-1.2H618.4v1.2Z" class="g1_222"/>
<path d="M618.4 570.8H987.6v-1.2H618.4v1.2Z" class="g1_222"/>
<path d="M715 683.2h369.1V682H715v1.2Z" class="g1_222"/>
<path d="M618.4 796.9H979v-1.2H618.4v1.2Z" class="g1_222"/>
</svg>