<svg viewBox="0 0 1210 935" version="1.1" xmlns="http://www.w3.org/2000/svg">
<defs>
<clipPath id="c0_216"><path d="M35.7 107V29.4H267.3V107Z"/></clipPath>
<style>
.g0_216{fill:none;stroke:#005B99;stroke-width:2.673;stroke-linejoin:round;}
.g1_216{fill:#005B99;}
</style>
</defs>
<path d="M34.4 121H1172.9" class="g0_216"/>
<image clip-path="url(#c0_216)" preserveAspectRatio="none" x="36" y="30" width="231" height="77" href="img/1.jpg"/>
<path d="M35.4 172.3H396v-1.2H35.4v1.2Z" class="g1_216"/>
<path d="M35.4 284.8H396v-1.2H35.4v1.2Z" class="g1_216"/>
<path d="M132 378.9H492.6v-1.2H132v1.2Z" class="g1_216"/>
<path d="M35.4 473H396v-1.2H35.4V473Z" class="g1_216"/>
<path d="M132 567.1H492.6v-1.2H132v1.2Z" class="g1_216"/>
<path d="M35.4 661.2H396V660H35.4v1.2Z" class="g1_216"/>
<path d="M35.4 774.9H396v-1.2H35.4v1.2Z" class="g1_216"/>
<path d="M35.4 869H396v-1.2H35.4V869Z" class="g1_216"/>
<path d="M641.7 210.2h360.5V209H641.7v1.2Z" class="g1_216"/>
<path d="M618.4 304.3H979v-1.2H618.4v1.2Z" class="g1_216"/>
<path d="M715 378.9h360.6v-1.2H715v1.2Z" class="g1_216"/>
<path d="M618.4 492.6H979v-1.3H618.4v1.3Z" class="g1_216"/>
<path d="M618.4 586.7H979v-1.3H618.4v1.3Z" class="g1_216"/>
<path d="M618.4 700.3H979v-1.2H618.4v1.2Z" class="g1_216"/>
<path d="M641.7 814h369.1v-1.2H641.7V814Z" class="g1_216"/>
</svg>