<svg viewBox="0 0 1210 935" version="1.1" xmlns="http://www.w3.org/2000/svg">
<defs>
<clipPath id="c0_248"><path d="M35.7 107V29.4H267.3V107Z"/></clipPath>
<style>
.g0_248{fill:none;stroke:#005B99;stroke-width:2.673;stroke-linejoin:round;}
.g1_248{fill:#005B99;}
</style>
</defs>
<path d="M34.4 121H1172.9" class="g0_248"/>
<image clip-path="url(#c0_248)" preserveAspectRatio="none" x="36" y="30" width="231" height="77" href="img/1.jpg"/>
<path d="M35.4 172.3H404.6v-1.2H35.4v1.2Z" class="g1_248"/>
<path d="M35.4 266.4H396v-1.2H35.4v1.2Z" class="g1_248"/>
<path d="M35.4 398.4H396v-1.2H35.4v1.2Z" class="g1_248"/>
<path d="M35.4 512.1H404.6v-1.2H35.4v1.2Z" class="g1_248"/>
<path d="M35.4 606.2H404.6V605H35.4v1.2Z" class="g1_248"/>
<path d="M35.4 700.3H404.6v-1.2H35.4v1.2Z" class="g1_248"/>
<path d="M132 794.4H501.1v-1.2H132v1.2Z" class="g1_248"/>
<path d="M618.4 172.3H942.3v-1.2H618.4v1.2Z" class="g1_248"/>
<path d="M618.4 266.4H987.6v-1.2H618.4v1.2Z" class="g1_248"/>
<path d="M618.4 360.6H987.6v-1.3H618.4v1.3Z" class="g1_248"/>
<path d="M618.4 454.7H987.6v-1.3H618.4v1.3Z" class="g1_248"/>
<path d="M618.4 567.1H987.6v-1.2H618.4v1.2Z" class="g1_248"/>
<path d="M618.4 661.2H987.6V660H618.4v1.2Z" class="g1_248"/>
<path d="M618.4 755.3H987.6v-1.2H618.4v1.2Z" class="g1_248"/>
<path d="M618.4 849.4H987.6v-1.2H618.4v1.2Z" class="g1_248"/>
</svg>