<?xml version="1.0" encoding="UTF-8" standalone="no"?>
<!DOCTYPE svg PUBLIC "-//W3C//DTD SVG 1.1//EN"
"http://www.w3.org/Graphics/SVG/1.1/DTD/svg11.dtd">
<svg viewBox="0 0 908 1286" version="1.1" xmlns="http://www.w3.org/2000/svg" xmlns:xlink="http://www.w3.org/1999/xlink">
<defs>
<clipPath id="c0_74"><path d="M-.2 1286.6V-.2H909.3V1286.6Z"/></clipPath>
<clipPath id="c1_74"><path d="M239.1 797.7V762.6H822.8v35.1Z"/></clipPath>
<clipPath id="c2_74"><path d="M239.1 857.2V799.3H822.8v57.9Z"/></clipPath>
<clipPath id="c3_74"><path d="M239.1 887.2V858.8H822.8v28.4Z"/></clipPath>
<style type="text/css"><![CDATA[
.g0_74{
fill: none;
stroke: #F78C00;
stroke-width: 8.784;
stroke-linejoin: round;
}
.g1_74{
fill: none;
stroke: #F29400;
stroke-width: 8.784;
stroke-linejoin: round;
}
.g2_74{
fill: #F7BF66;
}
.g3_74{
fill: #FFF;
}
.g4_74{
fill: #FCEACC;
}
]]></style>
</defs>
<g clip-path="url(#c0_74)">
<path d="M-21.2 1185.1H913.7" class="g0_74"/>
<path d="M-21.2 110.2H913.7" class="g1_74"/>
</g>
<path fill-rule="evenodd" d="M132.3 797.4H237.2V762.9H132.3v34.5Z" class="g2_74"/>
<path fill-rule="evenodd" d="M132.3 797.4H237.2V762.9H132.3v34.5Z" class="g2_74"/>
<path fill-rule="evenodd" d="M239.5 797.4h583V762.9h-583v34.5Z" class="g2_74"/>
<path clip-path="url(#c1_74)" fill-rule="evenodd" d="M239.5 797.4h583V762.9h-583v34.5Z" class="g2_74"/>
<path fill-rule="evenodd" d="M130 762.9h2.3v-2.3H130v2.3Z" class="g3_74"/>
<path fill-rule="evenodd" d="M130 762.9h2.3v-2.3H130v2.3Z" class="g3_74"/>
<path fill-rule="evenodd" d="M132.3 762.9H237.2v-2.3H132.3v2.3Z" class="g3_74"/>
<path fill-rule="evenodd" d="M237.2 762.9h2.3v-2.3h-2.3v2.3Z" class="g3_74"/>
<path fill-rule="evenodd" d="M239.5 762.9H822.6v-2.3H239.5v2.3Z" class="g3_74"/>
<path fill-rule="evenodd" d="M822.6 762.9h2.3v-2.3h-2.3v2.3Z" class="g3_74"/>
<path fill-rule="evenodd" d="M822.6 762.9h2.3v-2.3h-2.3v2.3Z" class="g3_74"/>
<path fill-rule="evenodd" d="M130 797.4h2.3V762.9H130v34.5Z" class="g3_74"/>
<path fill-rule="evenodd" d="M237.2 797.4h2.3V762.9h-2.3v34.5Z" class="g3_74"/>
<path fill-rule="evenodd" d="M822.6 797.4h2.3V762.9h-2.3v34.5Z" class="g3_74"/>
<path fill-rule="evenodd" d="M132.3 856.9H237.2V799.7H132.3v57.2Z" class="g4_74"/>
<path fill-rule="evenodd" d="M132.3 856.9H237.2V799.7H132.3v57.2Z" class="g4_74"/>
<path fill-rule="evenodd" d="M239.5 856.9h583V799.7h-583v57.2Z" class="g4_74"/>
<g clip-path="url(#c2_74)">
<path fill-rule="evenodd" d="M239.5 828.3h583V799.7h-583v28.6Z" class="g4_74"/>
<path fill-rule="evenodd" d="M239.5 856.9h583V828.3h-583v28.6Z" class="g4_74"/>
</g>
<path fill-rule="evenodd" d="M130 799.7h2.3v-2.3H130v2.3Z" class="g3_74"/>
<path fill-rule="evenodd" d="M132.3 799.7H237.2v-2.3H132.3v2.3Z" class="g3_74"/>
<path fill-rule="evenodd" d="M237.2 799.7h2.3v-2.3h-2.3v2.3Z" class="g3_74"/>
<path fill-rule="evenodd" d="M239.5 799.7H822.6v-2.3H239.5v2.3Z" class="g3_74"/>
<path fill-rule="evenodd" d="M822.6 799.7h2.3v-2.3h-2.3v2.3Z" class="g3_74"/>
<path fill-rule="evenodd" d="M130 856.9h2.3V799.7H130v57.2Z" class="g3_74"/>
<path fill-rule="evenodd" d="M237.2 856.9h2.3V799.7h-2.3v57.2Z" class="g3_74"/>
<path fill-rule="evenodd" d="M822.6 856.9h2.3V799.7h-2.3v57.2Z" class="g3_74"/>
<path fill-rule="evenodd" d="M132.3 886.8H237.2V859.2H132.3v27.6Z" class="g4_74"/>
<path fill-rule="evenodd" d="M132.3 886.8H237.2V859.2H132.3v27.6Z" class="g4_74"/>
<path fill-rule="evenodd" d="M239.5 886.8h583V859.2h-583v27.6Z" class="g4_74"/>
<path clip-path="url(#c3_74)" fill-rule="evenodd" d="M239.5 886.8h583V859.2h-583v27.6Z" class="g4_74"/>
<path fill-rule="evenodd" d="M130 859.2h2.3v-2.3H130v2.3Z" class="g3_74"/>
<path fill-rule="evenodd" d="M132.3 859.2H237.2v-2.3H132.3v2.3Z" class="g3_74"/>
<path fill-rule="evenodd" d="M237.2 859.2h2.3v-2.3h-2.3v2.3Z" class="g3_74"/>
<path fill-rule="evenodd" d="M239.5 859.2H822.6v-2.3H239.5v2.3Z" class="g3_74"/>
<path fill-rule="evenodd" d="M822.6 859.2h2.3v-2.3h-2.3v2.3Z" class="g3_74"/>
<path fill-rule="evenodd" d="M130 886.8h2.3V859.2H130v27.6Z" class="g3_74"/>
<path fill-rule="evenodd" d="M130 889.1h2.3v-2.3H130v2.3Z" class="g3_74"/>
<path fill-rule="evenodd" d="M130 889.1h2.3v-2.3H130v2.3Z" class="g3_74"/>
<path fill-rule="evenodd" d="M132.3 889.1H237.2v-2.3H132.3v2.3Z" class="g3_74"/>
<path fill-rule="evenodd" d="M237.2 886.8h2.3V859.2h-2.3v27.6Z" class="g3_74"/>
<path fill-rule="evenodd" d="M237.2 889.1h2.3v-2.3h-2.3v2.3Z" class="g3_74"/>
<path fill-rule="evenodd" d="M239.5 889.1H822.6v-2.3H239.5v2.3Z" class="g3_74"/>
<path fill-rule="evenodd" d="M822.6 886.8h2.3V859.2h-2.3v27.6Z" class="g3_74"/>
<path fill-rule="evenodd" d="M822.6 889.1h2.3v-2.3h-2.3v2.3Z" class="g3_74"/>
<path fill-rule="evenodd" d="M822.6 889.1h2.3v-2.3h-2.3v2.3Z" class="g3_74"/>
</svg>