<svg viewBox="0 0 1210 935" version="1.1" xmlns="http://www.w3.org/2000/svg">
<defs>
<clipPath id="c0_204"><path d="M35.7 107V29.4H267.3V107Z"/></clipPath>
<style>
.g0_204{fill:none;stroke:#005B99;stroke-width:2.673;stroke-linejoin:round;}
.g1_204{fill:#005B99;}
</style>
</defs>
<path d="M34.4 121H1172.9" class="g0_204"/>
<image clip-path="url(#c0_204)" preserveAspectRatio="none" x="36" y="30" width="231" height="77" href="img/1.jpg"/>
<path d="M35.4 229.8H404.6v-1.2H35.4v1.2Z" class="g1_204"/>
<path d="M35.4 343.4H404.6v-1.2H35.4v1.2Z" class="g1_204"/>
<path d="M35.4 457.1H404.6v-1.2H35.4v1.2Z" class="g1_204"/>
<path d="M35.4 570.8H404.6v-1.2H35.4v1.2Z" class="g1_204"/>
<path d="M35.4 664.9H396v-1.2H35.4v1.2Z" class="g1_204"/>
<path d="M35.4 759H404.6v-1.2H35.4V759Z" class="g1_204"/>
<path d="M35.4 853.1H404.6v-1.2H35.4v1.2Z" class="g1_204"/>
<path d="M618.4 210.2H987.6V209H618.4v1.2Z" class="g1_204"/>
<path d="M618.4 304.3H987.6v-1.2H618.4v1.2Z" class="g1_204"/>
<path d="M618.4 398.4H987.6v-1.2H618.4v1.2Z" class="g1_204"/>
<path d="M715 492.6h369.1v-1.3H715v1.3Z" class="g1_204"/>
<path d="M618.4 586.7H987.6v-1.3H618.4v1.3Z" class="g1_204"/>
<path d="M618.4 680.8H987.6v-1.2H618.4v1.2Z" class="g1_204"/>
<path d="M618.4 774.9H987.6v-1.2H618.4v1.2Z" class="g1_204"/>
<path d="M618.4 849.4H987.6v-1.2H618.4v1.2Z" class="g1_204"/>
</svg>