<svg viewBox="0 0 1210 935" version="1.1" xmlns="http://www.w3.org/2000/svg">
<defs>
<clipPath id="c0_230"><path d="M35.7 107V29.4H267.3V107Z"/></clipPath>
<style>
.g0_230{fill:none;stroke:#005B99;stroke-width:2.673;stroke-linejoin:round;}
.g1_230{fill:#005B99;}
</style>
</defs>
<path d="M34.4 121H1172.9" class="g0_230"/>
<image clip-path="url(#c0_230)" preserveAspectRatio="none" x="36" y="30" width="231" height="77" href="img/1.jpg"/>
<path d="M35.4 210.2H404.6V209H35.4v1.2Z" class="g1_230"/>
<path d="M132 304.3H501.1v-1.2H132v1.2Z" class="g1_230"/>
<path d="M35.4 418H404.6v-1.2H35.4V418Z" class="g1_230"/>
<path d="M35.4 512.1H404.6v-1.2H35.4v1.2Z" class="g1_230"/>
<path d="M35.4 606.2H404.6V605H35.4v1.2Z" class="g1_230"/>
<path d="M35.4 700.3H404.6v-1.2H35.4v1.2Z" class="g1_230"/>
<path d="M35.4 794.4H396v-1.2H35.4v1.2Z" class="g1_230"/>
<path d="M618.4 172.3H979v-1.2H618.4v1.2Z" class="g1_230"/>
<path d="M618.4 266.4H979v-1.2H618.4v1.2Z" class="g1_230"/>
<path d="M752.9 341h360.5v-1.2H752.9V341Z" class="g1_230"/>
<path d="M752.9 435.1h360.5v-1.2H752.9v1.2Z" class="g1_230"/>
<path d="M752.9 529.2h360.5V528H752.9v1.2Z" class="g1_230"/>
<path d="M618.4 623.3H979v-1.2H618.4v1.2Z" class="g1_230"/>
<path d="M618.4 717.4H987.6v-1.2H618.4v1.2Z" class="g1_230"/>
<path d="M618.4 811.6H987.6v-1.3H618.4v1.3Z" class="g1_230"/>
</svg>