<svg viewBox="0 0 1210 935" version="1.1" xmlns="http://www.w3.org/2000/svg">
<defs>
<clipPath id="c0_227"><path d="M35.7 107V29.4H267.3V107Z"/></clipPath>
<style>
.g0_227{fill:none;stroke:#005B99;stroke-width:2.673;stroke-linejoin:round;}
.g1_227{fill:#005B99;}
</style>
</defs>
<path d="M34.4 121H1172.9" class="g0_227"/>
<image clip-path="url(#c0_227)" preserveAspectRatio="none" x="36" y="30" width="231" height="77" href="img/1.jpg"/>
<path d="M132 172.3H501.1v-1.2H132v1.2Z" class="g1_227"/>
<path d="M132 266.4H501.1v-1.2H132v1.2Z" class="g1_227"/>
<path d="M35.4 378.9H404.6v-1.2H35.4v1.2Z" class="g1_227"/>
<path d="M35.4 492.6H404.6v-1.3H35.4v1.3Z" class="g1_227"/>
<path d="M179.7 586.7H548.8v-1.3H179.7v1.3Z" class="g1_227"/>
<path d="M35.4 700.3H404.6v-1.2H35.4v1.2Z" class="g1_227"/>
<path d="M35.4 814H404.6v-1.2H35.4V814Z" class="g1_227"/>
<path d="M618.4 172.3H987.6v-1.2H618.4v1.2Z" class="g1_227"/>
<path d="M618.4 284.8H987.6v-1.2H618.4v1.2Z" class="g1_227"/>
<path d="M618.4 418h512.2v-1.2H618.4V418Z" class="g1_227"/>
<path d="M752.9 492.6H1122v-1.3H752.9v1.3Z" class="g1_227"/>
<path d="M641.7 586.7h369.1v-1.3H641.7v1.3Z" class="g1_227"/>
<path d="M618.4 680.8H987.6v-1.2H618.4v1.2Z" class="g1_227"/>
<path d="M618.4 774.9H987.6v-1.2H618.4v1.2Z" class="g1_227"/>
<path d="M618.4 869H979v-1.2H618.4V869Z" class="g1_227"/>
</svg>