<?xml version="1.0" encoding="UTF-8" standalone="no"?>
<!DOCTYPE svg PUBLIC "-//W3C//DTD SVG 1.1//EN"
"http://www.w3.org/Graphics/SVG/1.1/DTD/svg11.dtd">
<svg viewBox="0 0 908 1286" version="1.1" xmlns="http://www.w3.org/2000/svg" xmlns:xlink="http://www.w3.org/1999/xlink">
<defs>
<clipPath id="c0_47"><path d="M-.2 1286.6V-.2H909.3V1286.6Z"/></clipPath>
<clipPath id="c1_47"><path d="M239.1 517.1V481.9H822.8v35.2Z"/></clipPath>
<clipPath id="c2_47"><path d="M239.1 596V518.7H822.8V596Z"/></clipPath>
<clipPath id="c3_47"><path d="M239.1 625.9V597.6H822.8v28.3Z"/></clipPath>
<style type="text/css"><![CDATA[
.g0_47{
fill: none;
stroke: #F78C00;
stroke-width: 8.784;
stroke-linejoin: round;
}
.g1_47{
fill: none;
stroke: #F29400;
stroke-width: 8.784;
stroke-linejoin: round;
}
.g2_47{
fill: #F7BF66;
}
.g3_47{
fill: #FFF;
}
.g4_47{
fill: #FCEACC;
}
]]></style>
</defs>
<g clip-path="url(#c0_47)">
<path d="M-21.2 1185.1H913.7" class="g0_47"/>
<path d="M-21.2 110.2H913.7" class="g1_47"/>
</g>
<path fill-rule="evenodd" d="M132.3 516.8H237.2V482.2H132.3v34.6Z" class="g2_47"/>
<path fill-rule="evenodd" d="M132.3 516.8H237.2V482.2H132.3v34.6Z" class="g2_47"/>
<path fill-rule="evenodd" d="M239.5 516.8h583V482.2h-583v34.6Z" class="g2_47"/>
<path clip-path="url(#c1_47)" fill-rule="evenodd" d="M239.5 516.8h583V482.2h-583v34.6Z" class="g2_47"/>
<path fill-rule="evenodd" d="M130 482.2h2.3v-2.3H130v2.3Z" class="g3_47"/>
<path fill-rule="evenodd" d="M130 482.2h2.3v-2.3H130v2.3Z" class="g3_47"/>
<path fill-rule="evenodd" d="M132.3 482.2H237.2v-2.3H132.3v2.3Z" class="g3_47"/>
<path fill-rule="evenodd" d="M237.2 482.2h2.3v-2.3h-2.3v2.3Z" class="g3_47"/>
<path fill-rule="evenodd" d="M239.5 482.2H822.6v-2.3H239.5v2.3Z" class="g3_47"/>
<path fill-rule="evenodd" d="M822.6 482.2h2.3v-2.3h-2.3v2.3Z" class="g3_47"/>
<path fill-rule="evenodd" d="M822.6 482.2h2.3v-2.3h-2.3v2.3Z" class="g3_47"/>
<path fill-rule="evenodd" d="M130 516.8h2.3V482.2H130v34.6Z" class="g3_47"/>
<path fill-rule="evenodd" d="M237.2 516.8h2.3V482.2h-2.3v34.6Z" class="g3_47"/>
<path fill-rule="evenodd" d="M822.6 516.8h2.3V482.2h-2.3v34.6Z" class="g3_47"/>
<path fill-rule="evenodd" d="M132.3 595.7H237.2V519H132.3v76.7Z" class="g4_47"/>
<path fill-rule="evenodd" d="M132.3 576.2H237.2V519H132.3v57.2Z" class="g4_47"/>
<path fill-rule="evenodd" d="M239.5 595.7h583V519h-583v76.7Z" class="g4_47"/>
<g clip-path="url(#c2_47)">
<path fill-rule="evenodd" d="M239.5 547.6h583V519h-583v28.6Z" class="g4_47"/>
<path fill-rule="evenodd" d="M239.5 567.1h583V547.6h-583v19.5Z" class="g4_47"/>
<path fill-rule="evenodd" d="M239.5 595.7h583V567.1h-583v28.6Z" class="g4_47"/>
</g>
<path fill-rule="evenodd" d="M130 519h2.3v-2.2H130V519Z" class="g3_47"/>
<path fill-rule="evenodd" d="M132.3 519H237.2v-2.2H132.3V519Z" class="g3_47"/>
<path fill-rule="evenodd" d="M237.2 519h2.3v-2.2h-2.3V519Z" class="g3_47"/>
<path fill-rule="evenodd" d="M239.5 519H822.6v-2.2H239.5V519Z" class="g3_47"/>
<path fill-rule="evenodd" d="M822.6 519h2.3v-2.2h-2.3V519Z" class="g3_47"/>
<path fill-rule="evenodd" d="M130 595.7h2.3V519H130v76.7Z" class="g3_47"/>
<path fill-rule="evenodd" d="M237.2 595.7h2.3V519h-2.3v76.7Z" class="g3_47"/>
<path fill-rule="evenodd" d="M822.6 595.7h2.3V519h-2.3v76.7Z" class="g3_47"/>
<path fill-rule="evenodd" d="M132.3 625.6H237.2V598H132.3v27.6Z" class="g4_47"/>
<path fill-rule="evenodd" d="M132.3 625.6H237.2V598H132.3v27.6Z" class="g4_47"/>
<path fill-rule="evenodd" d="M239.5 625.6h583V598h-583v27.6Z" class="g4_47"/>
<path clip-path="url(#c3_47)" fill-rule="evenodd" d="M239.5 625.6h583V598h-583v27.6Z" class="g4_47"/>
<path fill-rule="evenodd" d="M130 598h2.3v-2.3H130V598Z" class="g3_47"/>
<path fill-rule="evenodd" d="M132.3 598H237.2v-2.3H132.3V598Z" class="g3_47"/>
<path fill-rule="evenodd" d="M237.2 598h2.3v-2.3h-2.3V598Z" class="g3_47"/>
<path fill-rule="evenodd" d="M239.5 598H822.6v-2.3H239.5V598Z" class="g3_47"/>
<path fill-rule="evenodd" d="M822.6 598h2.3v-2.3h-2.3V598Z" class="g3_47"/>
<path fill-rule="evenodd" d="M130 625.6h2.3V598H130v27.6Z" class="g3_47"/>
<path fill-rule="evenodd" d="M130 627.9h2.3v-2.3H130v2.3Z" class="g3_47"/>
<path fill-rule="evenodd" d="M130 627.9h2.3v-2.3H130v2.3Z" class="g3_47"/>
<path fill-rule="evenodd" d="M132.3 627.9H237.2v-2.3H132.3v2.3Z" class="g3_47"/>
<path fill-rule="evenodd" d="M237.2 625.6h2.3V598h-2.3v27.6Z" class="g3_47"/>
<path fill-rule="evenodd" d="M237.2 627.9h2.3v-2.3h-2.3v2.3Z" class="g3_47"/>
<path fill-rule="evenodd" d="M239.5 627.9H822.6v-2.3H239.5v2.3Z" class="g3_47"/>
<path fill-rule="evenodd" d="M822.6 625.6h2.3V598h-2.3v27.6Z" class="g3_47"/>
<path fill-rule="evenodd" d="M822.6 627.9h2.3v-2.3h-2.3v2.3Z" class="g3_47"/>
<path fill-rule="evenodd" d="M822.6 627.9h2.3v-2.3h-2.3v2.3Z" class="g3_47"/>
</svg>