<?xml version="1.0" encoding="UTF-8" standalone="no"?>
<!DOCTYPE svg PUBLIC "-//W3C//DTD SVG 1.1//EN"
"http://www.w3.org/Graphics/SVG/1.1/DTD/svg11.dtd">
<svg viewBox="0 0 908 1286" version="1.1" xmlns="http://www.w3.org/2000/svg" xmlns:xlink="http://www.w3.org/1999/xlink">
<defs>
<clipPath id="c0_106"><path d="M-.2 1286.6V-.2H909.3V1286.6Z"/></clipPath>
<clipPath id="c1_106"><path d="M239.1 368.2V333.1H822.8v35.1Z"/></clipPath>
<clipPath id="c2_106"><path d="M239.1 447.1V369.9H822.8v77.2Z"/></clipPath>
<clipPath id="c3_106"><path d="M239.1 477V448.8H822.8V477Z"/></clipPath>
<clipPath id="c4_106"><path d="M239.1 917.5V882.3H822.8v35.2Z"/></clipPath>
<clipPath id="c5_106"><path d="M239.1 976.9V919.2H822.8v57.7Z"/></clipPath>
<clipPath id="c6_106"><path d="M239.1 1006.9V978.6H822.8v28.3Z"/></clipPath>
<style type="text/css"><![CDATA[
.g0_106{
fill: none;
stroke: #F78C00;
stroke-width: 8.784;
stroke-linejoin: round;
}
.g1_106{
fill: none;
stroke: #F29400;
stroke-width: 8.784;
stroke-linejoin: round;
}
.g2_106{
fill: #F7BF66;
}
.g3_106{
fill: #FFF;
}
.g4_106{
fill: #FCEACC;
}
]]></style>
</defs>
<g clip-path="url(#c0_106)">
<path d="M-21.2 1185.1H913.7" class="g0_106"/>
<path d="M-21.2 110.2H913.7" class="g1_106"/>
</g>
<path fill-rule="evenodd" d="M132.3 367.9H237.2V333.4H132.3v34.5Z" class="g2_106"/>
<path fill-rule="evenodd" d="M132.3 367.9H237.2V333.4H132.3v34.5Z" class="g2_106"/>
<path fill-rule="evenodd" d="M239.5 367.9h583V333.4h-583v34.5Z" class="g2_106"/>
<path clip-path="url(#c1_106)" fill-rule="evenodd" d="M239.5 367.9h583V333.4h-583v34.5Z" class="g2_106"/>
<path fill-rule="evenodd" d="M130 333.4h2.3v-2.3H130v2.3Z" class="g3_106"/>
<path fill-rule="evenodd" d="M130 333.4h2.3v-2.3H130v2.3Z" class="g3_106"/>
<path fill-rule="evenodd" d="M132.3 333.4H237.2v-2.3H132.3v2.3Z" class="g3_106"/>
<path fill-rule="evenodd" d="M237.2 333.4h2.3v-2.3h-2.3v2.3Z" class="g3_106"/>
<path fill-rule="evenodd" d="M239.5 333.4H822.6v-2.3H239.5v2.3Z" class="g3_106"/>
<path fill-rule="evenodd" d="M822.6 333.4h2.3v-2.3h-2.3v2.3Z" class="g3_106"/>
<path fill-rule="evenodd" d="M822.6 333.4h2.3v-2.3h-2.3v2.3Z" class="g3_106"/>
<path fill-rule="evenodd" d="M130 367.9h2.3V333.4H130v34.5Z" class="g3_106"/>
<path fill-rule="evenodd" d="M237.2 367.9h2.3V333.4h-2.3v34.5Z" class="g3_106"/>
<path fill-rule="evenodd" d="M822.6 367.9h2.3V333.4h-2.3v34.5Z" class="g3_106"/>
<path fill-rule="evenodd" d="M132.3 446.8H237.2V370.2H132.3v76.6Z" class="g4_106"/>
<path fill-rule="evenodd" d="M132.3 427.4H237.2V370.2H132.3v57.2Z" class="g4_106"/>
<path fill-rule="evenodd" d="M239.5 446.8h583V370.2h-583v76.6Z" class="g4_106"/>
<g clip-path="url(#c2_106)">
<path fill-rule="evenodd" d="M239.5 398.8h583V370.2h-583v28.6Z" class="g4_106"/>
<path fill-rule="evenodd" d="M239.5 418.2h583V398.8h-583v19.4Z" class="g4_106"/>
<path fill-rule="evenodd" d="M239.5 446.8h583V418.2h-583v28.6Z" class="g4_106"/>
</g>
<path fill-rule="evenodd" d="M130 370.2h2.3v-2.3H130v2.3Z" class="g3_106"/>
<path fill-rule="evenodd" d="M132.3 370.2H237.2v-2.3H132.3v2.3Z" class="g3_106"/>
<path fill-rule="evenodd" d="M237.2 370.2h2.3v-2.3h-2.3v2.3Z" class="g3_106"/>
<path fill-rule="evenodd" d="M239.5 370.2H822.6v-2.3H239.5v2.3Z" class="g3_106"/>
<path fill-rule="evenodd" d="M822.6 370.2h2.3v-2.3h-2.3v2.3Z" class="g3_106"/>
<path fill-rule="evenodd" d="M130 446.8h2.3V370.2H130v76.6Z" class="g3_106"/>
<path fill-rule="evenodd" d="M237.2 446.8h2.3V370.2h-2.3v76.6Z" class="g3_106"/>
<path fill-rule="evenodd" d="M822.6 446.8h2.3V370.2h-2.3v76.6Z" class="g3_106"/>
<path fill-rule="evenodd" d="M132.3 476.7H237.2V449.1H132.3v27.6Z" class="g4_106"/>
<path fill-rule="evenodd" d="M132.3 476.7H237.2V449.1H132.3v27.6Z" class="g4_106"/>
<path fill-rule="evenodd" d="M239.5 476.7h583V449.1h-583v27.6Z" class="g4_106"/>
<path clip-path="url(#c3_106)" fill-rule="evenodd" d="M239.5 476.7h583V449.1h-583v27.6Z" class="g4_106"/>
<path fill-rule="evenodd" d="M130 449.1h2.3v-2.3H130v2.3Z" class="g3_106"/>
<path fill-rule="evenodd" d="M132.3 449.1H237.2v-2.3H132.3v2.3Z" class="g3_106"/>
<path fill-rule="evenodd" d="M237.2 449.1h2.3v-2.3h-2.3v2.3Z" class="g3_106"/>
<path fill-rule="evenodd" d="M239.5 449.1H822.6v-2.3H239.5v2.3Z" class="g3_106"/>
<path fill-rule="evenodd" d="M822.6 449.1h2.3v-2.3h-2.3v2.3Z" class="g3_106"/>
<path fill-rule="evenodd" d="M130 476.7h2.3V449.1H130v27.6Z" class="g3_106"/>
<path fill-rule="evenodd" d="M130 479h2.3v-2.3H130V479Z" class="g3_106"/>
<path fill-rule="evenodd" d="M130 479h2.3v-2.3H130V479Z" class="g3_106"/>
<path fill-rule="evenodd" d="M132.3 479H237.2v-2.3H132.3V479Z" class="g3_106"/>
<path fill-rule="evenodd" d="M237.2 476.7h2.3V449.1h-2.3v27.6Z" class="g3_106"/>
<path fill-rule="evenodd" d="M237.2 479h2.3v-2.3h-2.3V479Z" class="g3_106"/>
<path fill-rule="evenodd" d="M239.5 479H822.6v-2.3H239.5V479Z" class="g3_106"/>
<path fill-rule="evenodd" d="M822.6 476.7h2.3V449.1h-2.3v27.6Z" class="g3_106"/>
<path fill-rule="evenodd" d="M822.6 479h2.3v-2.3h-2.3V479Z" class="g3_106"/>
<path fill-rule="evenodd" d="M822.6 479h2.3v-2.3h-2.3V479Z" class="g3_106"/>
<path fill-rule="evenodd" d="M132.3 917.2H237.2V882.6H132.3v34.6Z" class="g2_106"/>
<path fill-rule="evenodd" d="M132.3 917.2H237.2V882.6H132.3v34.6Z" class="g2_106"/>
<path fill-rule="evenodd" d="M239.5 917.2h583V882.6h-583v34.6Z" class="g2_106"/>
<path clip-path="url(#c4_106)" fill-rule="evenodd" d="M239.5 917.2h583V882.6h-583v34.6Z" class="g2_106"/>
<path fill-rule="evenodd" d="M130 882.6h2.3v-2.3H130v2.3Z" class="g3_106"/>
<path fill-rule="evenodd" d="M130 882.6h2.3v-2.3H130v2.3Z" class="g3_106"/>
<path fill-rule="evenodd" d="M132.3 882.6H237.2v-2.3H132.3v2.3Z" class="g3_106"/>
<path fill-rule="evenodd" d="M237.2 882.6h2.3v-2.3h-2.3v2.3Z" class="g3_106"/>
<path fill-rule="evenodd" d="M239.5 882.6H822.6v-2.3H239.5v2.3Z" class="g3_106"/>
<path fill-rule="evenodd" d="M822.6 882.6h2.3v-2.3h-2.3v2.3Z" class="g3_106"/>
<path fill-rule="evenodd" d="M822.6 882.6h2.3v-2.3h-2.3v2.3Z" class="g3_106"/>
<path fill-rule="evenodd" d="M130 917.2h2.3V882.6H130v34.6Z" class="g3_106"/>
<path fill-rule="evenodd" d="M237.2 917.2h2.3V882.6h-2.3v34.6Z" class="g3_106"/>
<path fill-rule="evenodd" d="M822.6 917.2h2.3V882.6h-2.3v34.6Z" class="g3_106"/>
<path fill-rule="evenodd" d="M132.3 976.6H237.2V919.5H132.3v57.1Z" class="g4_106"/>
<path fill-rule="evenodd" d="M132.3 976.6H237.2V919.5H132.3v57.1Z" class="g4_106"/>
<path fill-rule="evenodd" d="M239.5 976.6h583V919.5h-583v57.1Z" class="g4_106"/>
<g clip-path="url(#c5_106)">
<path fill-rule="evenodd" d="M239.5 948h583V919.5h-583V948Z" class="g4_106"/>
<path fill-rule="evenodd" d="M239.5 976.6h583V948h-583v28.6Z" class="g4_106"/>
</g>
<path fill-rule="evenodd" d="M130 919.5h2.3v-2.3H130v2.3Z" class="g3_106"/>
<path fill-rule="evenodd" d="M132.3 919.5H237.2v-2.3H132.3v2.3Z" class="g3_106"/>
<path fill-rule="evenodd" d="M237.2 919.5h2.3v-2.3h-2.3v2.3Z" class="g3_106"/>
<path fill-rule="evenodd" d="M239.5 919.5H822.6v-2.3H239.5v2.3Z" class="g3_106"/>
<path fill-rule="evenodd" d="M822.6 919.5h2.3v-2.3h-2.3v2.3Z" class="g3_106"/>
<path fill-rule="evenodd" d="M130 976.6h2.3V919.5H130v57.1Z" class="g3_106"/>
<path fill-rule="evenodd" d="M237.2 976.6h2.3V919.5h-2.3v57.1Z" class="g3_106"/>
<path fill-rule="evenodd" d="M822.6 976.6h2.3V919.5h-2.3v57.1Z" class="g3_106"/>
<path fill-rule="evenodd" d="M132.3 1006.6H237.2V978.9H132.3v27.7Z" class="g4_106"/>
<path fill-rule="evenodd" d="M132.3 1006.6H237.2V978.9H132.3v27.7Z" class="g4_106"/>
<path fill-rule="evenodd" d="M239.5 1006.6h583V978.9h-583v27.7Z" class="g4_106"/>
<path clip-path="url(#c6_106)" fill-rule="evenodd" d="M239.5 1006.6h583V978.9h-583v27.7Z" class="g4_106"/>
<path fill-rule="evenodd" d="M130 978.9h2.3v-2.3H130v2.3Z" class="g3_106"/>
<path fill-rule="evenodd" d="M132.3 978.9H237.2v-2.3H132.3v2.3Z" class="g3_106"/>
<path fill-rule="evenodd" d="M237.2 978.9h2.3v-2.3h-2.3v2.3Z" class="g3_106"/>
<path fill-rule="evenodd" d="M239.5 978.9H822.6v-2.3H239.5v2.3Z" class="g3_106"/>
<path fill-rule="evenodd" d="M822.6 978.9h2.3v-2.3h-2.3v2.3Z" class="g3_106"/>
<path fill-rule="evenodd" d="M130 1006.6h2.3V978.9H130v27.7Z" class="g3_106"/>
<path fill-rule="evenodd" d="M130 1008.9h2.3v-2.3H130v2.3Z" class="g3_106"/>
<path fill-rule="evenodd" d="M130 1008.9h2.3v-2.3H130v2.3Z" class="g3_106"/>
<path fill-rule="evenodd" d="M132.3 1008.9H237.2v-2.3H132.3v2.3Z" class="g3_106"/>
<path fill-rule="evenodd" d="M237.2 1006.6h2.3V978.9h-2.3v27.7Z" class="g3_106"/>
<path fill-rule="evenodd" d="M237.2 1008.9h2.3v-2.3h-2.3v2.3Z" class="g3_106"/>
<path fill-rule="evenodd" d="M239.5 1008.9H822.6v-2.3H239.5v2.3Z" class="g3_106"/>
<path fill-rule="evenodd" d="M822.6 1006.6h2.3V978.9h-2.3v27.7Z" class="g3_106"/>
<path fill-rule="evenodd" d="M822.6 1008.9h2.3v-2.3h-2.3v2.3Z" class="g3_106"/>
<path fill-rule="evenodd" d="M822.6 1008.9h2.3v-2.3h-2.3v2.3Z" class="g3_106"/>
</svg>