<svg viewBox="0 0 1210 935" version="1.1" xmlns="http://www.w3.org/2000/svg">
<defs>
<clipPath id="c0_209"><path d="M35.7 107V29.4H267.3V107Z"/></clipPath>
<style>
.g0_209{fill:none;stroke:#005B99;stroke-width:2.673;stroke-linejoin:round;}
.g1_209{fill:#005B99;}
</style>
</defs>
<path d="M34.4 121H1172.9" class="g0_209"/>
<image clip-path="url(#c0_209)" preserveAspectRatio="none" x="36" y="30" width="231" height="77" href="img/1.jpg"/>
<path d="M35.4 229.8H396v-1.2H35.4v1.2Z" class="g1_209"/>
<path d="M35.4 343.4H396v-1.2H35.4v1.2Z" class="g1_209"/>
<path d="M35.4 437.6H396v-1.3H35.4v1.3Z" class="g1_209"/>
<path d="M35.4 531.7H396v-1.3H35.4v1.3Z" class="g1_209"/>
<path d="M35.4 625.8H404.6v-1.2H35.4v1.2Z" class="g1_209"/>
<path d="M35.4 777.3h374v-1.2H35.4v1.2Z" class="g1_209"/>
<path d="M618.4 172.3H979v-1.2H618.4v1.2Z" class="g1_209"/>
<path d="M618.4 284.8H979v-1.2H618.4v1.2Z" class="g1_209"/>
<path d="M752.9 378.9h360.5v-1.2H752.9v1.2Z" class="g1_209"/>
<path d="M618.4 473H979v-1.2H618.4V473Z" class="g1_209"/>
<path d="M618.4 586.7H979v-1.3H618.4v1.3Z" class="g1_209"/>
<path d="M762.7 700.3h360.5v-1.2H762.7v1.2Z" class="g1_209"/>
<path d="M715 794.4h369.1v-1.2H715v1.2Z" class="g1_209"/>
</svg>