<svg viewBox="0 0 1210 935" version="1.1" xmlns="http://www.w3.org/2000/svg">
<defs>
<clipPath id="c0_232"><path d="M35.7 107V29.4H267.3V107Z"/></clipPath>
<style>
.g0_232{fill:none;stroke:#005B99;stroke-width:2.673;stroke-linejoin:round;}
.g1_232{fill:#005B99;}
</style>
</defs>
<path d="M34.4 121H1172.9" class="g0_232"/>
<image clip-path="url(#c0_232)" preserveAspectRatio="none" x="36" y="30" width="231" height="77" href="img/1.jpg"/>
<path d="M35.4 229.8H404.6v-1.2H35.4v1.2Z" class="g1_232"/>
<path d="M35.4 323.9H404.6v-1.2H35.4v1.2Z" class="g1_232"/>
<path d="M35.4 437.6H396v-1.3H35.4v1.3Z" class="g1_232"/>
<path d="M58.7 531.7H427.8v-1.3H58.7v1.3Z" class="g1_232"/>
<path d="M35.4 645.3H404.6v-1.2H35.4v1.2Z" class="g1_232"/>
<path d="M35.4 759H404.6v-1.2H35.4V759Z" class="g1_232"/>
<path d="M35.4 853.1H404.6v-1.2H35.4v1.2Z" class="g1_232"/>
<path d="M618.4 210.2H987.6V209H618.4v1.2Z" class="g1_232"/>
<path d="M715 304.3h360.6v-1.2H715v1.2Z" class="g1_232"/>
<path d="M618.4 378.9H987.6v-1.2H618.4v1.2Z" class="g1_232"/>
<path d="M618.4 473H979v-1.2H618.4V473Z" class="g1_232"/>
<path d="M618.4 567.1H979v-1.2H618.4v1.2Z" class="g1_232"/>
<path d="M618.4 642.9H987.6v-1.2H618.4v1.2Z" class="g1_232"/>
<path d="M762.7 737h369.1v-1.2H762.7V737Z" class="g1_232"/>
<path d="M715 831.1h360.6v-1.2H715v1.2Z" class="g1_232"/>
</svg>