<svg viewBox="0 0 1210 935" version="1.1" xmlns="http://www.w3.org/2000/svg">
<defs>
<clipPath id="c0_228"><path d="M35.7 107V29.4H267.3V107Z"/></clipPath>
<style>
.g0_228{fill:none;stroke:#005B99;stroke-width:2.673;stroke-linejoin:round;}
.g1_228{fill:#005B99;}
</style>
</defs>
<path d="M34.4 121H1172.9" class="g0_228"/>
<image clip-path="url(#c0_228)" preserveAspectRatio="none" x="36" y="30" width="231" height="77" href="img/1.jpg"/>
<path d="M35.4 229.8H396v-1.2H35.4v1.2Z" class="g1_228"/>
<path d="M169.9 304.3H539v-1.2H169.9v1.2Z" class="g1_228"/>
<path d="M179.7 378.9H548.8v-1.2H179.7v1.2Z" class="g1_228"/>
<path d="M35.4 454.7H404.6v-1.3H35.4v1.3Z" class="g1_228"/>
<path d="M35.4 548.8H396v-1.2H35.4v1.2Z" class="g1_228"/>
<path d="M35.4 661.2H396V660H35.4v1.2Z" class="g1_228"/>
<path d="M35.4 755.3H396v-1.2H35.4v1.2Z" class="g1_228"/>
<path d="M35.4 849.4H396v-1.2H35.4v1.2Z" class="g1_228"/>
<path d="M618.4 210.2H979V209H618.4v1.2Z" class="g1_228"/>
<path d="M618.4 304.3H979v-1.2H618.4v1.2Z" class="g1_228"/>
<path d="M752.9 418h360.5v-1.2H752.9V418Z" class="g1_228"/>
<path d="M618.4 512.1H979v-1.2H618.4v1.2Z" class="g1_228"/>
<path d="M618.4 606.2H979V605H618.4v1.2Z" class="g1_228"/>
<path d="M618.4 700.3H987.6v-1.2H618.4v1.2Z" class="g1_228"/>
<path d="M618.4 814H979v-1.2H618.4V814Z" class="g1_228"/>
</svg>