<svg viewBox="0 0 1210 935" version="1.1" xmlns="http://www.w3.org/2000/svg">
<defs>
<clipPath id="c0_254"><path d="M35.7 107V29.4H267.3V107Z"/></clipPath>
<style>
.g0_254{fill:none;stroke:#005B99;stroke-width:2.673;stroke-linejoin:round;}
.g1_254{fill:#005B99;}
</style>
</defs>
<path d="M34.4 121H1172.9" class="g0_254"/>
<image clip-path="url(#c0_254)" preserveAspectRatio="none" x="36" y="30" width="231" height="77" href="img/1.jpg"/>
<path d="M35.4 210.2H404.6V209H35.4v1.2Z" class="g1_254"/>
<path d="M35.4 304.3H404.6v-1.2H35.4v1.2Z" class="g1_254"/>
<path d="M35.4 398.4H404.6v-1.2H35.4v1.2Z" class="g1_254"/>
<path d="M35.4 492.6H396v-1.3H35.4v1.3Z" class="g1_254"/>
<path d="M35.4 567.1H396v-1.2H35.4v1.2Z" class="g1_254"/>
<path d="M35.4 700.3H386.2v-1.2H35.4v1.2Z" class="g1_254"/>
<path d="M35.4 794.4H396v-1.2H35.4v1.2Z" class="g1_254"/>
<path d="M715 172.3h360.6v-1.2H715v1.2Z" class="g1_254"/>
<path d="M641.7 246.9h360.5v-1.2H641.7v1.2Z" class="g1_254"/>
<path d="M618.4 341H979v-1.2H618.4V341Z" class="g1_254"/>
<path d="M618.4 435.1H969.2v-1.2H618.4v1.2Z" class="g1_254"/>
<path d="M618.4 548.8H979v-1.2H618.4v1.2Z" class="g1_254"/>
<path d="M618.4 642.9H979v-1.2H618.4v1.2Z" class="g1_254"/>
<path d="M715 717.4h360.6v-1.2H715v1.2Z" class="g1_254"/>
<path d="M618.4 811.6H979v-1.3H618.4v1.3Z" class="g1_254"/>
</svg>