<svg viewBox="0 0 1210 935" version="1.1" xmlns="http://www.w3.org/2000/svg">
<defs>
<clipPath id="c0_211"><path d="M35.7 107V29.4H267.3V107Z"/></clipPath>
<style>
.g0_211{fill:none;stroke:#005B99;stroke-width:2.673;stroke-linejoin:round;}
.g1_211{fill:#005B99;}
</style>
</defs>
<path d="M34.4 121H1172.9" class="g0_211"/>
<image clip-path="url(#c0_211)" preserveAspectRatio="none" x="36" y="30" width="231" height="77" href="img/1.jpg"/>
<path d="M35.4 172.3H404.6v-1.2H35.4v1.2Z" class="g1_211"/>
<path d="M35.4 415.6H396v-1.3H35.4v1.3Z" class="g1_211"/>
<path d="M35.4 490.1H386.2v-1.2H35.4v1.2Z" class="g1_211"/>
<path d="M35.4 584.2H386.2V583H35.4v1.2Z" class="g1_211"/>
<path d="M58.7 697.9H419.2v-1.2H58.7v1.2Z" class="g1_211"/>
<path d="M35.4 792H386.2v-1.2H35.4V792Z" class="g1_211"/>
<path d="M618.4 172.3H969.2v-1.2H618.4v1.2Z" class="g1_211"/>
<path d="M618.4 266.4H969.2v-1.2H618.4v1.2Z" class="g1_211"/>
<path d="M618.4 341H979v-1.2H618.4V341Z" class="g1_211"/>
<path d="M618.4 435.1H979v-1.2H618.4v1.2Z" class="g1_211"/>
<path d="M618.4 529.2H979V528H618.4v1.2Z" class="g1_211"/>
<path d="M715 623.3h360.6v-1.2H715v1.2Z" class="g1_211"/>
<path d="M618.4 717.4H979v-1.2H618.4v1.2Z" class="g1_211"/>
<path d="M618.4 811.6H979v-1.3H618.4v1.3Z" class="g1_211"/>
</svg>