<svg viewBox="0 0 1210 935" version="1.1" xmlns="http://www.w3.org/2000/svg">
<defs>
<clipPath id="c0_244"><path d="M35.7 107V29.4H267.3V107Z"/></clipPath>
<style>
.g0_244{fill:none;stroke:#005B99;stroke-width:2.673;stroke-linejoin:round;}
.g1_244{fill:#005B99;}
</style>
</defs>
<path d="M34.4 121H1172.9" class="g0_244"/>
<image clip-path="url(#c0_244)" preserveAspectRatio="none" x="36" y="30" width="231" height="77" href="img/1.jpg"/>
<path d="M35.4 229.8H404.6v-1.2H35.4v1.2Z" class="g1_244"/>
<path d="M132 323.9H501.1v-1.2H132v1.2Z" class="g1_244"/>
<path d="M132 418H501.1v-1.2H132V418Z" class="g1_244"/>
<path d="M35.4 531.7H396v-1.3H35.4v1.3Z" class="g1_244"/>
<path d="M35.4 625.8H396v-1.2H35.4v1.2Z" class="g1_244"/>
<path d="M35.4 719.9H396v-1.2H35.4v1.2Z" class="g1_244"/>
<path d="M35.4 814H396v-1.2H35.4V814Z" class="g1_244"/>
<path d="M618.4 190.7H979v-1.3H618.4v1.3Z" class="g1_244"/>
<path d="M618.4 266.4H979v-1.2H618.4v1.2Z" class="g1_244"/>
<path d="M618.4 360.6H979v-1.3H618.4v1.3Z" class="g1_244"/>
<path d="M618.4 454.7H979v-1.3H618.4v1.3Z" class="g1_244"/>
<path d="M618.4 548.8H979v-1.2H618.4v1.2Z" class="g1_244"/>
<path d="M715 623.3h360.6v-1.2H715v1.2Z" class="g1_244"/>
<path d="M618.4 717.4H979v-1.2H618.4v1.2Z" class="g1_244"/>
<path d="M715 792h360.6v-1.2H715V792Z" class="g1_244"/>
</svg>