<svg viewBox="0 0 1210 935" version="1.1" xmlns="http://www.w3.org/2000/svg">
<defs>
<clipPath id="c0_235"><path d="M35.7 107V29.4H267.3V107Z"/></clipPath>
<style>
.g0_235{fill:none;stroke:#005B99;stroke-width:2.673;stroke-linejoin:round;}
.g1_235{fill:#005B99;}
</style>
</defs>
<path d="M34.4 121H1172.9" class="g0_235"/>
<image clip-path="url(#c0_235)" preserveAspectRatio="none" x="36" y="30" width="231" height="77" href="img/1.jpg"/>
<path d="M35.4 172.3h374v-1.2H35.4v1.2Z" class="g1_235"/>
<path d="M35.4 246.9H502.3v-1.2H35.4v1.2Z" class="g1_235"/>
<path d="M35.4 266.4H246.9v-1.2H35.4v1.2Z" class="g1_235"/>
<path d="M35.4 341H404.6v-1.2H35.4V341Z" class="g1_235"/>
<path d="M35.4 415.6H404.6v-1.3H35.4v1.3Z" class="g1_235"/>
<path d="M35.4 509.7H404.6v-1.3H35.4v1.3Z" class="g1_235"/>
<path d="M35.4 603.8H404.6v-1.2H35.4v1.2Z" class="g1_235"/>
<path d="M35.4 717.4H404.6v-1.2H35.4v1.2Z" class="g1_235"/>
<path d="M35.4 811.6H404.6v-1.3H35.4v1.3Z" class="g1_235"/>
<path d="M618.4 190.7H987.6v-1.3H618.4v1.3Z" class="g1_235"/>
<path d="M618.4 284.8H977.8v-1.2H618.4v1.2Z" class="g1_235"/>
<path d="M618.4 378.9H987.6v-1.2H618.4v1.2Z" class="g1_235"/>
<path d="M618.4 492.6H987.6v-1.3H618.4v1.3Z" class="g1_235"/>
<path d="M618.4 567.1H987.6v-1.2H618.4v1.2Z" class="g1_235"/>
<path d="M618.4 661.2H987.6V660H618.4v1.2Z" class="g1_235"/>
<path d="M618.4 755.3H987.6v-1.2H618.4v1.2Z" class="g1_235"/>
<path d="M618.4 831.1H987.6v-1.2H618.4v1.2Z" class="g1_235"/>
</svg>