<svg viewBox="0 0 1210 935" version="1.1" xmlns="http://www.w3.org/2000/svg">
<defs>
<clipPath id="c0_1"><path d="M306.6 183.8V33.1H903.4V183.8Z"/></clipPath>
<clipPath id="c1_1"><path d="M-.2 935.3V-.2H1210.3V935.3Z"/></clipPath>
<style>
.g0_1{fill:#002B5C;}
.g1_1{fill:none;stroke:#0065A4;stroke-width:9.166;}
.g2_1{fill:#FFF;}
.g3_1{fill:none;stroke:#FFF;stroke-width:1.672;}
.g4_1{fill:#0065A4;}
.g5_1{fill:none;stroke:#0065A4;stroke-width:1.145;stroke-miterlimit:10;}
</style>
</defs>
<g clip-path="url(#c1_1)">
<path d="M0 216.9H1210V0H0V216.9Z" class="g0_1"/>
<path d="M0 217.7H1210" class="g1_1"/>
<path d="M473 81.5h3.7l13.8 21.4h.1V81.5h3.3v26.3h-3.8L476.4 86.7h-.1v21.1H473Z" class="g2_1"/>
<path d="M512.3 98c-1.2 .9-3.6 .9-5.7 1.3c-2 .4-3.8 1.1-3.8 3.4c0 2.1 1.8 2.8 3.7 2.8c4.1 0 5.8-2.6 5.8-4.3Zm5.1 9.8c-.6 .3-1.3 .5-2.3 .5c-1.6 0-2.6-.9-2.6-3c-1.8 2-4.1 3-6.7 3c-3.5 0-6.3-1.6-6.3-5.4c0-4.3 3.2-5.2 6.4-5.8c3.5-.7 6.4-.5 6.4-2.8c0-2.7-2.2-3.2-4.2-3.2c-2.7 0-4.6 .8-4.8 3.6h-3.1c.2-4.7 3.8-6.3 8.1-6.3c3.4 0 7.1 .7 7.1 5.2v9.8c0 1.4 0 2.1 1 2.1c.3 0 .6 0 1-.2Z" class="g2_1"/>
<path d="M526.1 88.8h3.7v2.8h-3.7v11.8c0 1.4 .4 1.7 2.3 1.7h1.4v2.7h-2.3c-3.3 0-4.6-.6-4.6-4.1V91.6h-3.2V88.8h3.2V83.1h3.2Z" class="g2_1"/>
<path d="M534.9 88.8h3.2v19h-3.2v-19Zm3.2-3.4h-3.2V81.5h3.2v3.9Z" class="g2_1"/>
<path d="M552.6 105.5c3.2 0 5.9-2.6 5.9-7.2c0-4.6-2.7-7.2-5.9-7.2c-3.3 0-6 2.6-6 7.2c0 4.6 2.7 7.2 6 7.2m0-17.1c6 0 9.2 4.3 9.2 9.9c0 5.6-3.2 10-9.2 10c-6.1 0-9.3-4.4-9.3-10c0-5.6 3.2-9.9 9.3-9.9Z" class="g2_1"/>
<path d="M566.9 88.8h3v3c1.4-2.3 3.5-3.4 6.2-3.4c5 0 6.6 2.8 6.6 6.9v12.5h-3.2V94.9c0-2.3-1.4-3.8-3.8-3.8c-3.8 0-5.7 2.6-5.7 6v10.7h-3.1Z" class="g2_1"/>
<path d="M600.6 98c-1.2 .9-3.6 .9-5.7 1.3c-2 .4-3.8 1.1-3.8 3.4c0 2.1 1.8 2.8 3.7 2.8c4.1 0 5.8-2.6 5.8-4.3Zm5.1 9.8c-.6 .3-1.3 .5-2.3 .5c-1.6 0-2.6-.9-2.6-3c-1.8 2-4.1 3-6.7 3c-3.5 0-6.3-1.6-6.3-5.4c0-4.3 3.2-5.2 6.4-5.8c3.5-.7 6.4-.5 6.4-2.8c0-2.7-2.2-3.2-4.2-3.2c-2.7 0-4.6 .8-4.8 3.6h-3.1c.2-4.7 3.8-6.3 8.1-6.3c3.4 0 7.1 .7 7.1 5.2v9.8c0 1.4 0 2.1 1 2.1c.3 0 .6 0 1-.2Z" class="g2_1"/>
<path d="M610.2 81.5h3.1v26.3h-3.1V81.5Z" class="g2_1"/>
<path d="M650.3 89.5c-.7-3.8-3.7-5.6-7.4-5.6c-6.2 0-8.9 5.1-8.9 10.6c0 6 2.7 11 9 11c4.6 0 7.2-3.2 7.5-7.6H654c-.6 6.6-4.7 10.6-11.3 10.6c-8.2 0-12.2-6.1-12.2-13.7c0-7.7 4.4-13.9 12.5-13.9c5.4 0 10 3 10.8 8.6Z" class="g2_1"/>
<path d="M667.5 105.5c3.3 0 5.9-2.6 5.9-7.2c0-4.6-2.6-7.2-5.9-7.2c-3.3 0-5.9 2.6-5.9 7.2c0 4.6 2.6 7.2 5.9 7.2m0-17.1c6.1 0 9.3 4.3 9.3 9.9c0 5.6-3.2 10-9.3 10c-6 0-9.2-4.4-9.2-10c0-5.6 3.2-9.9 9.2-9.9Z" class="g2_1"/>
<path d="M681.9 88.8h2.9v2.8h.1c1.4-2.1 3.5-3.2 6.1-3.2c2.4 0 4.5 .9 5.3 3.2c1.3-2 3.5-3.2 5.9-3.2c3.8 0 6.4 1.5 6.4 5.5v13.9h-3.2V95.3c0-2.3-.6-4.2-3.7-4.2c-3 0-4.9 1.9-4.9 4.9v11.8h-3.2V95.3c0-2.4-.7-4.2-3.5-4.2c-3.7 0-5.1 3.4-5.1 4.9v11.8h-3.1Z" class="g2_1"/>
<path d="M723.6 91.1c-4.1 0-5.8 3.6-5.8 7.2c0 3.7 1.7 7.2 6 7.2c4.3 0 5.7-3.6 5.7-7.4c0-3.5-1.8-7-5.9-7m-8.8-2.3h3.1v2.6h.1c1-2.1 3.5-3 6.1-3c5.8 0 8.8 4.6 8.8 10c0 5.3-2.9 9.9-8.7 9.9c-2 0-4.8-.8-6.2-3h-.1v9.8h-3.1Z" class="g2_1"/>
<path d="M737.9 88.8h2.9v4h.1c1.5-3 3.6-4.6 7-4.4v3.3c-5.1 0-6.9 2.8-6.9 7.7v8.4h-3.1Z" class="g2_1"/>
<path d="M764.2 96.5c-.1-3-2.4-5.4-5.5-5.4c-3.2 0-5.2 2.5-5.4 5.4Zm3 5.3c-.8 4.2-3.8 6.5-8.1 6.5c-6.1 0-8.9-4.2-9.1-10c0-5.8 3.7-9.9 8.9-9.9c6.8 0 8.8 6.2 8.6 10.8H753.3c-.1 3.4 1.7 6.3 5.9 6.3c2.6 0 4.4-1.2 4.9-3.7Z" class="g2_1"/>
<path d="M772.2 81.5h3.1V91.6h.1c1-2.3 3.7-3.2 6-3.2c5 0 6.6 2.8 6.6 6.9v12.5h-3.2V94.9c0-2.3-1.4-3.8-3.8-3.8c-3.8 0-5.7 2.6-5.7 6v10.7h-3.1Z" class="g2_1"/>
<path d="M807.3 96.5c-.1-3-2.4-5.4-5.5-5.4c-3.2 0-5.2 2.5-5.4 5.4Zm3 5.3c-.8 4.2-3.8 6.5-8.1 6.5c-6.1 0-8.9-4.2-9.1-10c0-5.8 3.7-9.9 8.9-9.9c6.8 0 8.8 6.2 8.6 10.8H796.4c-.1 3.4 1.8 6.3 5.9 6.3c2.6 0 4.4-1.2 4.9-3.7Z" class="g2_1"/>
<path d="M815.3 88.8h3v3c1.3-2.3 3.5-3.4 6.2-3.4c5 0 6.6 2.8 6.6 6.9v12.5h-3.2V94.9c0-2.3-1.4-3.8-3.8-3.8c-3.8 0-5.7 2.6-5.7 6v10.7h-3.1Z" class="g2_1"/>
<path d="M839.1 101.8c.1 2.8 2.6 3.7 5.1 3.7c2 0 4.6-.4 4.6-2.8c0-2.5-3.1-2.9-6.2-3.6c-3.1-.7-6.2-1.7-6.2-5.3c0-3.9 3.8-5.4 7.1-5.4c4.2 0 7.5 1.3 7.8 5.9h-3.1c-.2-2.4-2.4-3.2-4.4-3.2c-1.9 0-4.1 .5-4.1 2.4c0 2.3 3.3 2.7 6.2 3.4c3.2 .7 6.3 1.7 6.3 5.4c0 4.5-4.3 6-8.1 6c-4.3 0-7.9-1.8-8.1-6.5Z" class="g2_1"/>
<path d="M857.2 88.8h3.2v19h-3.2v-19Zm3.2-3.4h-3.2V81.5h3.2v3.9Z" class="g2_1"/>
<path d="M875.2 107.8h-3.3l-7.1-19h3.5l5.4 15.9l5.2-15.9h3.3Z" class="g2_1"/>
<path clip-path="url(#c0_1)" d="M899.7 96.5c-.1-3-2.4-5.4-5.5-5.4c-3.2 0-5.2 2.5-5.4 5.4Zm3 5.3c-.8 4.2-3.8 6.5-8.1 6.5c-6.1 0-8.9-4.2-9.1-10c0-5.8 3.7-9.9 8.9-9.9c6.7 0 8.8 6.2 8.6 10.8H888.8c-.1 3.4 1.7 6.3 5.9 6.3c2.6 0 4.4-1.2 4.9-3.7Z" class="g2_1"/>
<path d="M491.5 127.9c-.7-3.7-3.7-5.6-7.4-5.6c-6.2 0-8.9 5.2-8.9 10.7c0 6 2.7 11 9 11c4.6 0 7.2-3.3 7.5-7.6h3.5c-.6 6.5-4.7 10.5-11.3 10.5c-8.2 0-12.2-6-12.2-13.7c0-7.6 4.4-13.8 12.5-13.8c5.4 0 10 2.9 10.8 8.5Z" class="g2_1"/>
<path d="M512.3 136.5c-1.2 .9-3.6 .9-5.7 1.3c-2 .3-3.8 1.1-3.8 3.4c0 2 1.8 2.8 3.7 2.8c4.1 0 5.8-2.6 5.8-4.3Zm5.1 9.7c-.6 .4-1.3 .5-2.3 .5c-1.6 0-2.6-.8-2.6-2.9c-1.8 2-4.1 2.9-6.7 2.9c-3.5 0-6.3-1.5-6.3-5.3c0-4.3 3.2-5.2 6.4-5.9c3.5-.6 6.4-.4 6.4-2.7c0-2.8-2.2-3.2-4.2-3.2c-2.7 0-4.6 .8-4.8 3.6h-3.1c.2-4.7 3.8-6.4 8.1-6.4c3.4 0 7.1 .8 7.1 5.3v9.7c0 1.5 0 2.2 1 2.2c.3 0 .6-.1 1-.2Z" class="g2_1"/>
<path d="M521.7 127.3h3v3c1.4-2.4 3.5-3.5 6.2-3.5c5 0 6.6 2.9 6.6 7v12.5h-3.2V133.4c0-2.3-1.4-3.8-3.8-3.8c-3.8 0-5.7 2.5-5.7 5.9v10.8h-3.1Z" class="g2_1"/>
<path d="M556.5 133.4c-.4-2.4-2.1-3.8-4.7-3.8c-4.5 0-5.9 3.6-5.9 7.4c0 3.5 1.6 7 5.6 7c3 0 4.8-1.8 5.2-4.7h3.2c-.7 4.7-3.6 7.4-8.4 7.4c-5.8 0-8.9-4-8.9-9.7c0-5.7 2.9-10.2 9-10.2c4.3 0 7.7 2.1 8.2 6.6Z" class="g2_1"/>
<path d="M578 135c-.1-3-2.4-5.4-5.5-5.4c-3.2 0-5.2 2.5-5.4 5.4Zm3 5.3c-.8 4.2-3.8 6.4-8.1 6.4c-6.1 0-8.9-4.2-9.1-10c0-5.7 3.7-9.9 8.9-9.9c6.8 0 8.8 6.3 8.6 10.9H567.1c-.1 3.3 1.8 6.3 5.9 6.3c2.6 0 4.4-1.3 5-3.7Z" class="g2_1"/>
<path d="M585.9 127.3h3v4c1.5-3.1 3.6-4.6 7-4.5v3.3c-5 0-6.9 2.9-6.9 7.7v8.5h-3.1Z" class="g2_1"/>
<path d="M611.9 120h3.7l13.8 21.3h.1V120h3.3v26.3H629l-13.8-21.1v21.1h-3.3Z" class="g2_1"/>
<path d="M652.6 135c-.1-3-2.4-5.4-5.5-5.4c-3.3 0-5.2 2.5-5.4 5.4Zm3 5.3c-.8 4.2-3.8 6.4-8.1 6.4c-6.1 0-9-4.2-9.1-10c0-5.7 3.7-9.9 8.9-9.9c6.7 0 8.8 6.3 8.6 10.9H641.7c-.1 3.3 1.7 6.3 5.9 6.3c2.6 0 4.4-1.3 4.9-3.7Z" class="g2_1"/>
<path d="M664.9 127.3h3.8V130h-3.8v11.8c0 1.5 .4 1.7 2.4 1.7h1.4v2.8h-2.4c-3.2 0-4.5-.7-4.5-4.2V130h-3.2v-2.7h3.2v-5.7h3.1Z" class="g2_1"/>
<path d="M692.5 146.3h-3.3l-3.9-15.1h-.1l-3.8 15.1H678l-6.1-19h3.5l4.3 15.5l3.9-15.5H687l4 15.5l4.3-15.5h3.2Z" class="g2_1"/>
<path d="M711.2 144c3.2 0 5.9-2.6 5.9-7.2c0-4.6-2.7-7.2-5.9-7.2c-3.3 0-6 2.6-6 7.2c0 4.6 2.7 7.2 6 7.2m0-17.2c6 0 9.2 4.4 9.2 10c0 5.6-3.2 9.9-9.2 9.9c-6.1 0-9.3-4.3-9.3-9.9c0-5.6 3.2-10 9.3-10Z" class="g2_1"/>
<path d="M725.4 127.3h3v4c1.5-3.1 3.6-4.6 7-4.5v3.3c-5 0-6.9 2.9-6.9 7.7v8.5h-3.1Z" class="g2_1"/>
<path d="M739.4 120h3.1v15.6l8.7-8.3h4.2l-7.5 6.9l8.1 12.1h-4l-6.5-9.9l-3 2.7v7.2h-3.1Z" class="g2_1"/>
<path d="M762.8 125.5h1.1c1 0 1.9-.1 1.9-1.2c0-1-.8-1.1-1.6-1.1h-1.4Zm-1.2-3.2h2.8c1.8 0 2.6 .6 2.6 2c0 1.3-.9 1.9-1.9 2l2 3.2h-1.2l-1.9-3.1h-1.2v3.1h-1.2Zm2.5 8.9c2.8 0 5-2.3 5-5.3c0-3-2.2-5.3-5-5.3c-2.9 0-5.2 2.3-5.2 5.3c0 3 2.3 5.3 5.2 5.3m0-11.5c3.3 0 6.2 2.7 6.2 6.2c0 3.5-2.9 6.2-6.2 6.2c-3.4 0-6.3-2.7-6.3-6.2c0-3.5 2.9-6.2 6.3-6.2Z" class="g2_1"/>
<image x="307" y="34" width="148" height="149" href="shade/1.png"/>
<path d="M433.5 182.7H328.7c-11.5 0-20.9-9.5-20.9-21V55.2c0-11.5 9.4-20.9 20.9-20.9H433.5c11.5 0 20.9 9.4 20.9 20.9V161.7c0 11.5-9.4 21-20.9 21Z" class="g3_1"/>
<path d="M346.8 137.4c0 2.5 0 5 .1 6.2c-.3 .5-1.4 .9-2.3 .9c0 0-1.3-1.9-3.1-4.2l-8.9-11c-2.2-2.7-3.5-4.3-4.2-4.9c-.2 .4-.2 1-.2 2.5v7.4c0 3.1 .2 6 .6 7.1c.3 .8 1.2 1.1 2.2 1.2l1.1 .2c.3 .3 .2 1.1 0 1.3c-2.1-.1-3.6-.1-5.2-.1c-1.4 0-2.8 0-4.3 .1c-.2-.2-.3-1 0-1.3l.7-.2c1-.1 1.8-.4 2.1-1.2c.4-1.1 .5-4 .5-7.1v-9.7c0-2.2 0-2.8-.2-3.3c-.3-.7-.9-1.1-2.2-1.3l-1.1-.2c-.3-.3-.2-1.2 .1-1.3c1.9 .1 3.8 .1 5.4 .1c1.3 0 2.4 0 3.2-.1c.4 1.7 2.9 4.6 6.3 8.8l3.3 3.8c1.7 2 2.8 3.3 3.7 4.2c.1-.4 .1-1 .1-1.7v-5.3c0-3.2-.1-6.1-.6-7.1c-.3-.8-1.2-1.1-2.2-1.2l-1-.2c-.3-.3-.3-1.1 0-1.3c2 .1 3.5 .1 5.1 .1c1.5 0 2.8 0 4.3-.1c.3 .2 .3 1 0 1.3l-.7 .1c-1 .2-1.7 .5-2 1.3c-.5 1-.6 3.9-.6 7.1Z" class="g2_1"/>
<path d="M376.2 119c0 .7 .1 3.7 .5 6c-.2 .4-1.2 .6-1.5 .2c-1-3.5-3.5-5.5-7.2-5.5c-4.3 0-8.9 3.7-8.9 11.4c0 7.6 4.5 11.7 9.1 11.7c4.6 0 6.8-3.3 7.8-5.9c.3-.3 1.3-.2 1.5 .2c-.3 2.9-.9 5.2-1.5 6.1c-2 .6-4.8 1.4-7.8 1.4c-3.8 0-7.6-.9-10.3-2.9c-2.8-2.1-4.9-5.3-4.9-10.1c0-4.7 2-8 4.6-10.2c2.8-2.3 6.7-3.4 10.7-3.4c3.9 0 6.8 .9 7.9 1Z" class="g2_1"/>
<path d="M406.1 119c0 .7 .1 3.7 .5 6c-.2 .4-1.2 .6-1.5 .2c-1-3.5-3.5-5.5-7.2-5.5c-4.3 0-8.9 3.7-8.9 11.4c0 7.6 4.5 11.7 9.1 11.7c4.6 0 6.8-3.3 7.8-5.9c.3-.3 1.3-.2 1.5 .2c-.3 2.9-.9 5.2-1.5 6.1c-2 .6-4.8 1.4-7.8 1.4c-3.7 0-7.6-.9-10.3-2.9c-2.8-2.1-4.9-5.3-4.9-10.1c0-4.7 2-8 4.6-10.2c2.8-2.3 6.7-3.4 10.7-3.4c3.9 0 6.8 .9 7.9 1Z" class="g2_1"/>
<path d="M436.8 137.4c0 2.5 0 5 .1 6.2c-.3 .5-1.4 .9-2.3 .9c0 0-1.3-1.9-3.1-4.2l-8.9-11c-2.2-2.7-3.5-4.3-4.2-4.9c-.2 .4-.2 1-.2 2.5v7.4c0 3.1 .2 6 .6 7.1c.3 .8 1.2 1.1 2.2 1.2l1.1 .2c.3 .3 .2 1.1 0 1.3c-2.1-.1-3.6-.1-5.2-.1c-1.4 0-2.8 0-4.3 .1c-.2-.2-.3-1 0-1.3l.7-.2c1-.1 1.8-.4 2.1-1.2c.4-1.1 .5-4 .5-7.1v-9.7c0-2.2 0-2.8-.2-3.3c-.3-.7-.9-1.1-2.2-1.3l-1.1-.2c-.3-.3-.2-1.2 .2-1.3c1.8 .1 3.7 .1 5.3 .1c1.3 0 2.4 0 3.2-.1c.4 1.7 2.9 4.6 6.3 8.8l3.3 3.8c1.7 2 2.8 3.3 3.7 4.2c.1-.4 .1-1 .1-1.7v-5.3c0-3.2-.1-6.1-.5-7.1c-.4-.8-1.2-1.1-2.3-1.2l-1-.2c-.3-.3-.2-1.1 0-1.3c2.1 .1 3.6 .1 5.1 .1c1.5 0 2.8 0 4.3-.1c.3 .2 .4 1 0 1.3l-.6 .1c-1 .2-1.8 .5-2.1 1.3c-.4 1-.6 3.9-.6 7.1Z" class="g2_1"/>
</g>
<path d="M519 829.1H691.5V788.2H519v40.9Z" class="g4_1"/>
<path d="M535.1 657.8H674.9v-20H535.1v20Z" class="g2_1"/>
<path d="M721.7 731.2H988.4" class="g5_1"/>
</svg>