<svg viewBox="0 0 1210 935" version="1.1" xmlns="http://www.w3.org/2000/svg">
<defs>
<clipPath id="c0_210"><path d="M35.7 107V29.4H267.3V107Z"/></clipPath>
<style>
.g0_210{fill:none;stroke:#005B99;stroke-width:2.673;stroke-linejoin:round;}
.g1_210{fill:#005B99;}
</style>
</defs>
<path d="M34.4 121H1172.9" class="g0_210"/>
<image clip-path="url(#c0_210)" preserveAspectRatio="none" x="36" y="30" width="231" height="77" href="img/1.jpg"/>
<path d="M35.4 172.3H404.6v-1.2H35.4v1.2Z" class="g1_210"/>
<path d="M35.4 284.8H404.6v-1.2H35.4v1.2Z" class="g1_210"/>
<path d="M35.4 378.9H404.6v-1.2H35.4v1.2Z" class="g1_210"/>
<path d="M35.4 492.6H404.6v-1.3H35.4v1.3Z" class="g1_210"/>
<path d="M132 586.7H501.1v-1.3H132v1.3Z" class="g1_210"/>
<path d="M35.4 680.8H404.6v-1.2H35.4v1.2Z" class="g1_210"/>
<path d="M132 774.9H501.1v-1.2H132v1.2Z" class="g1_210"/>
<path d="M715 172.3h360.6v-1.2H715v1.2Z" class="g1_210"/>
<path d="M715 246.9h360.6v-1.2H715v1.2Z" class="g1_210"/>
<path d="M618.4 341H979v-1.2H618.4V341Z" class="g1_210"/>
<path d="M618.4 435.1H979v-1.2H618.4v1.2Z" class="g1_210"/>
<path d="M618.4 529.2H987.6V528H618.4v1.2Z" class="g1_210"/>
<path d="M618.4 623.3H987.6v-1.2H618.4v1.2Z" class="g1_210"/>
<path d="M715 697.9h369.1v-1.2H715v1.2Z" class="g1_210"/>
<path d="M618.4 792H987.6v-1.2H618.4V792Z" class="g1_210"/>
</svg>