<svg viewBox="0 0 1210 935" version="1.1" xmlns="http://www.w3.org/2000/svg">
<defs>
<clipPath id="c0_218"><path d="M35.7 107V29.4H267.3V107Z"/></clipPath>
<style>
.g0_218{fill:none;stroke:#005B99;stroke-width:2.673;stroke-linejoin:round;}
.g1_218{fill:#005B99;}
</style>
</defs>
<path d="M34.4 121H1172.9" class="g0_218"/>
<image clip-path="url(#c0_218)" preserveAspectRatio="none" x="36" y="30" width="231" height="77" href="img/1.jpg"/>
<path d="M35.4 229.8H396v-1.2H35.4v1.2Z" class="g1_218"/>
<path d="M35.4 323.9H396v-1.2H35.4v1.2Z" class="g1_218"/>
<path d="M35.4 398.4H396v-1.2H35.4v1.2Z" class="g1_218"/>
<path d="M132 512.1H501.1v-1.2H132v1.2Z" class="g1_218"/>
<path d="M35.4 625.8H404.6v-1.2H35.4v1.2Z" class="g1_218"/>
<path d="M35.4 739.4H404.6v-1.2H35.4v1.2Z" class="g1_218"/>
<path d="M58.7 833.6H419.2v-1.3H58.7v1.3Z" class="g1_218"/>
<path d="M618.4 229.8H979v-1.2H618.4v1.2Z" class="g1_218"/>
<path d="M715 323.9h430.2v-1.2H715v1.2Z" class="g1_218"/>
<path d="M618.4 343.4H693v-1.2H618.4v1.2Z" class="g1_218"/>
<path d="M618.4 437.6H979v-1.3H618.4v1.3Z" class="g1_218"/>
<path d="M618.4 512.1H944.8v-1.2H618.4v1.2Z" class="g1_218"/>
<path d="M618.4 606.2H979V605H618.4v1.2Z" class="g1_218"/>
<path d="M618.4 700.3H979v-1.2H618.4v1.2Z" class="g1_218"/>
<path d="M618.4 814H979v-1.2H618.4V814Z" class="g1_218"/>
</svg>