<svg viewBox="0 0 1210 935" version="1.1" xmlns="http://www.w3.org/2000/svg">
<defs>
<clipPath id="c0_215"><path d="M35.7 107V29.4H267.3V107Z"/></clipPath>
<style>
.g0_215{fill:none;stroke:#005B99;stroke-width:2.673;stroke-linejoin:round;}
.g1_215{fill:#005B99;}
</style>
</defs>
<path d="M34.4 121H1172.9" class="g0_215"/>
<image clip-path="url(#c0_215)" preserveAspectRatio="none" x="36" y="30" width="231" height="77" href="img/1.jpg"/>
<path d="M35.4 249.3H396v-1.2H35.4v1.2Z" class="g1_215"/>
<path d="M132 323.9H492.6v-1.2H132v1.2Z" class="g1_215"/>
<path d="M35.4 437.6H547.6v-1.3H35.4v1.3Z" class="g1_215"/>
<path d="M35.4 570.8H404.6v-1.2H35.4v1.2Z" class="g1_215"/>
<path d="M132 683.2H492.6V682H132v1.2Z" class="g1_215"/>
<path d="M35.4 816.4H396v-1.2H35.4v1.2Z" class="g1_215"/>
<path d="M618.4 190.7H979v-1.3H618.4v1.3Z" class="g1_215"/>
<path d="M762.7 284.8h360.5v-1.2H762.7v1.2Z" class="g1_215"/>
<path d="M618.4 398.4H979v-1.2H618.4v1.2Z" class="g1_215"/>
<path d="M715 492.6h360.6v-1.3H715v1.3Z" class="g1_215"/>
<path d="M618.4 606.2H979V605H618.4v1.2Z" class="g1_215"/>
<path d="M618.4 719.9H979v-1.2H618.4v1.2Z" class="g1_215"/>
</svg>