<?xml version="1.0" encoding="UTF-8" standalone="no"?>
<!DOCTYPE svg PUBLIC "-//W3C//DTD SVG 1.1//EN"
"http://www.w3.org/Graphics/SVG/1.1/DTD/svg11.dtd">
<svg viewBox="0 0 908 1286" version="1.1" xmlns="http://www.w3.org/2000/svg" xmlns:xlink="http://www.w3.org/1999/xlink">
<defs>
<clipPath id="c0_115"><path d="M-.2 1286.6V-.2H909.3V1286.6Z"/></clipPath>
<style type="text/css"><![CDATA[
.g0_115{
fill: none;
stroke: #F78C00;
stroke-width: 8.784;
stroke-linejoin: round;
}
.g1_115{
fill: none;
stroke: #F29400;
stroke-width: 8.784;
stroke-linejoin: round;
}
.g2_115{
fill: #F7BF66;
}
.g3_115{
fill: #FFF;
}
.g4_115{
fill: #FCEACC;
}
]]></style>
</defs>
<g clip-path="url(#c0_115)">
<path d="M-21.2 1185.1H913.7" class="g0_115"/>
<path d="M-21.2 110.2H913.7" class="g1_115"/>
</g>
<path fill-rule="evenodd" d="M132.3 300.4h94V266h-94v34.4Z" class="g2_115"/>
<path fill-rule="evenodd" d="M132.3 300.4h94V266h-94v34.4Z" class="g2_115"/>
<path fill-rule="evenodd" d="M228.6 300.4h594V266h-594v34.4Z" class="g2_115"/>
<path fill-rule="evenodd" d="M228.6 300.4h594V266h-594v34.4Z" class="g2_115"/>
<path fill-rule="evenodd" d="M130 266h2.3v-2.3H130V266Z" class="g3_115"/>
<path fill-rule="evenodd" d="M130 266h2.3v-2.3H130V266Z" class="g3_115"/>
<path fill-rule="evenodd" d="M132.3 266h94v-2.3h-94V266Z" class="g3_115"/>
<path fill-rule="evenodd" d="M226.3 266h2.3v-2.3h-2.3V266Z" class="g3_115"/>
<path fill-rule="evenodd" d="M228.6 266h594v-2.3h-594V266Z" class="g3_115"/>
<path fill-rule="evenodd" d="M822.6 266h2.3v-2.3h-2.3V266Z" class="g3_115"/>
<path fill-rule="evenodd" d="M822.6 266h2.3v-2.3h-2.3V266Z" class="g3_115"/>
<path fill-rule="evenodd" d="M130 300.4h2.3V266H130v34.4Z" class="g3_115"/>
<path fill-rule="evenodd" d="M226.3 300.4h2.3V266h-2.3v34.4Z" class="g3_115"/>
<path fill-rule="evenodd" d="M822.6 300.4h2.3V266h-2.3v34.4Z" class="g3_115"/>
<path fill-rule="evenodd" d="M132.3 359.9h94V302.7h-94v57.2Z" class="g4_115"/>
<path fill-rule="evenodd" d="M132.3 359.9h94V302.7h-94v57.2Z" class="g4_115"/>
<path fill-rule="evenodd" d="M228.6 359.9h594V302.7h-594v57.2Z" class="g4_115"/>
<path fill-rule="evenodd" d="M228.6 331.3h594V302.7h-594v28.6Z" class="g4_115"/>
<path fill-rule="evenodd" d="M228.6 359.9h594V331.3h-594v28.6Z" class="g4_115"/>
<path fill-rule="evenodd" d="M130 302.7h2.3v-2.3H130v2.3Z" class="g3_115"/>
<path fill-rule="evenodd" d="M132.3 302.7h94v-2.3h-94v2.3Z" class="g3_115"/>
<path fill-rule="evenodd" d="M226.3 302.7h2.3v-2.3h-2.3v2.3Z" class="g3_115"/>
<path fill-rule="evenodd" d="M228.6 302.7h594v-2.3h-594v2.3Z" class="g3_115"/>
<path fill-rule="evenodd" d="M822.6 302.7h2.3v-2.3h-2.3v2.3Z" class="g3_115"/>
<path fill-rule="evenodd" d="M130 359.9h2.3V302.7H130v57.2Z" class="g3_115"/>
<path fill-rule="evenodd" d="M226.3 359.9h2.3V302.7h-2.3v57.2Z" class="g3_115"/>
<path fill-rule="evenodd" d="M822.6 359.9h2.3V302.7h-2.3v57.2Z" class="g3_115"/>
<path fill-rule="evenodd" d="M132.3 389.8h94V362.2h-94v27.6Z" class="g4_115"/>
<path fill-rule="evenodd" d="M132.3 389.8h94V362.2h-94v27.6Z" class="g4_115"/>
<path fill-rule="evenodd" d="M228.6 389.8h594V362.2h-594v27.6Z" class="g4_115"/>
<path fill-rule="evenodd" d="M228.6 389.8h594V362.2h-594v27.6Z" class="g4_115"/>
<path fill-rule="evenodd" d="M130 362.2h2.3v-2.3H130v2.3Z" class="g3_115"/>
<path fill-rule="evenodd" d="M132.3 362.2h94v-2.3h-94v2.3Z" class="g3_115"/>
<path fill-rule="evenodd" d="M226.3 362.2h2.3v-2.3h-2.3v2.3Z" class="g3_115"/>
<path fill-rule="evenodd" d="M228.6 362.2h594v-2.3h-594v2.3Z" class="g3_115"/>
<path fill-rule="evenodd" d="M822.6 362.2h2.3v-2.3h-2.3v2.3Z" class="g3_115"/>
<path fill-rule="evenodd" d="M130 389.8h2.3V362.2H130v27.6Z" class="g3_115"/>
<path fill-rule="evenodd" d="M130 392.1h2.3v-2.3H130v2.3Z" class="g3_115"/>
<path fill-rule="evenodd" d="M130 392.1h2.3v-2.3H130v2.3Z" class="g3_115"/>
<path fill-rule="evenodd" d="M132.3 392.1h94v-2.3h-94v2.3Z" class="g3_115"/>
<path fill-rule="evenodd" d="M226.3 389.8h2.3V362.2h-2.3v27.6Z" class="g3_115"/>
<path fill-rule="evenodd" d="M226.3 392.1h2.3v-2.3h-2.3v2.3Z" class="g3_115"/>
<path fill-rule="evenodd" d="M228.6 392.1h594v-2.3h-594v2.3Z" class="g3_115"/>
<path fill-rule="evenodd" d="M822.6 389.8h2.3V362.2h-2.3v27.6Z" class="g3_115"/>
<path fill-rule="evenodd" d="M822.6 392.1h2.3v-2.3h-2.3v2.3Z" class="g3_115"/>
<path fill-rule="evenodd" d="M822.6 392.1h2.3v-2.3h-2.3v2.3Z" class="g3_115"/>
</svg>